*
*
G04 PADS VX.1.1 Build Number: 678707 generated Gerber (RS-274-X) file*
G04 PC Version=2.1*
*
%IN "DC3145A2-0922.pcb"*%
*
%MOIN*%
*
%FSLAX35Y35*%
*
*
*
*
G04 PC Standard Apertures*
*
*
G04 Thermal Relief Aperture macro.*
%AMTER*
1,1,$1,0,0*
1,0,$1-$2,0,0*
21,0,$3,$4,0,0,45*
21,0,$3,$4,0,0,135*
%
*
*
G04 Annular Aperture macro.*
%AMANN*
1,1,$1,0,0*
1,0,$2,0,0*
%
*
*
G04 Odd Aperture macro.*
%AMODD*
1,1,$1,0,0*
1,0,$1-0.005,0,0*
%
*
*
G04 PC Custom Aperture Macros*
*
*
*
*
*
*
G04 PC Aperture Table*
*
%ADD013C,0.01*%
%ADD035C,0.001*%
%ADD041C,0.008*%
%ADD121C,0.007*%
*
*
*
*
G04 PC Circuitry*
G04 Layer Name DC3145A2-0922.pcb - circuitry*
%LPD*%
*
*
G04 PC Custom Flashes*
G04 Layer Name DC3145A2-0922.pcb - flashes*
%LPD*%
*
*
G04 PC Circuitry*
G04 Layer Name DC3145A2-0922.pcb - circuitry*
%LPD*%
*
G54D13*
G01X2016700Y1592300D02*
Y1604700D01*
X2011300*
Y1592300*
X2016700*
X1997300Y1620700D02*
Y1608300D01*
X2002700*
Y1620700*
X1997300*
X1920800Y1740700D02*
Y1728300D01*
X1926200*
Y1740700*
X1920800*
X1989800Y1483700D02*
Y1471300D01*
X1995200*
Y1483700*
X1989800*
X2102700Y1555300D02*
Y1567700D01*
X2097300*
Y1555300*
X2102700*
X1926300Y1740700D02*
Y1728300D01*
X1931700*
Y1740700*
X1926300*
X1917300Y1603200D02*
Y1590800D01*
X1922700*
Y1603200*
X1917300*
X1915200Y1590800D02*
Y1603200D01*
X1909800*
Y1590800*
X1915200*
X1976200Y1747700D02*
X1963800D01*
Y1742300*
X1976200*
Y1747700*
X1980300Y1587300D02*
X1992700D01*
Y1592700*
X1980300*
Y1587300*
X1940500Y1565500D02*
X2044500D01*
Y1517500*
X1940500*
Y1565500*
X1908465Y1587750D02*
Y1576815D01*
X1891535*
Y1587750*
Y1605476D02*
Y1613032D01*
X1894684Y1616181*
X1905314Y1616184*
X1908465Y1613035*
Y1605250*
X1990800Y1488800D02*
X2003200D01*
Y1494200*
X1990800*
Y1488800*
X2104800Y1567700D02*
Y1555300D01*
X2110200*
Y1567700*
X2104800*
X2027300Y1665200D02*
Y1652800D01*
X2032700*
Y1665200*
X2027300*
X1976200Y1740200D02*
X1963800D01*
Y1734800*
X1976200*
Y1740200*
X1955900Y1611300D02*
Y1611600D01*
X1949000*
X1948900D02*
Y1611300D01*
X1949000Y1606700D02*
Y1606500D01*
X1956000*
Y1606800*
X1950900Y1606600D02*
Y1611600D01*
X1951400*
Y1606600*
X1951300*
X1949100Y1614200D02*
Y1613900D01*
X1956000*
X1956100D02*
Y1614200D01*
X1956000Y1618800D02*
Y1619000D01*
X1949000*
Y1618700*
X1954100Y1618900D02*
Y1613900D01*
X1953600*
Y1618900*
X1953700*
X1873500Y1610000D02*
X1869000D01*
X1864000Y1605000*
Y1583000*
X1873500*
X1881500D02*
X1891000D01*
Y1605000*
X1886000Y1610000*
X1881500*
X1873492Y1608498D02*
G75*
G03X1873513Y1584496I3508J-11998D01*
G01X1881507Y1584500D02*
G03Y1608500I-3510J12000D01*
G01X1940800Y1626300D02*
X1953200D01*
Y1631700*
X1940800*
Y1626300*
X1959200Y1619800D02*
Y1632200D01*
X1953800*
Y1619800*
X1959200*
X2022500Y1597227D02*
X2023000Y1597045D01*
X2023500Y1596682*
X2023750Y1596318*
Y1595591*
X2023500Y1595227*
X2023000Y1594864*
X2022500Y1594682*
X2021750Y1594500*
X2020500*
X2019750Y1594682*
X2019250Y1594864*
X2018750Y1595227*
X2018500Y1595591*
Y1596318*
X2018750Y1596682*
X2019250Y1597045*
X2019750Y1597227*
X2022750Y1598864D02*
X2023000Y1599227D01*
X2023750Y1599773*
X2018500*
X2022750Y1601409D02*
X2023000Y1601773D01*
X2023750Y1602318*
X2018500*
X2008000Y1613727D02*
X2008500Y1613545D01*
X2009000Y1613182*
X2009250Y1612818*
Y1612091*
X2009000Y1611727*
X2008500Y1611364*
X2008000Y1611182*
X2007250Y1611000*
X2006000*
X2005250Y1611182*
X2004750Y1611364*
X2004250Y1611727*
X2004000Y1612091*
Y1612818*
X2004250Y1613182*
X2004750Y1613545*
X2005250Y1613727*
X2009250Y1617182D02*
X2005750Y1615364D01*
Y1618091*
X2009250Y1617182D02*
X2004000D01*
X1923500Y1721727D02*
X1924000Y1721545D01*
X1924500Y1721182*
X1924750Y1720818*
Y1720091*
X1924500Y1719727*
X1924000Y1719364*
X1923500Y1719182*
X1922750Y1719000*
X1921500*
X1920750Y1719182*
X1920250Y1719364*
X1919750Y1719727*
X1919500Y1720091*
Y1720818*
X1919750Y1721182*
X1920250Y1721545*
X1920750Y1721727*
X1924750Y1725909D02*
X1919500Y1724091D01*
X1924750Y1723364D02*
Y1725909D01*
X2001000Y1475227D02*
X2001500Y1475045D01*
X2002000Y1474682*
X2002250Y1474318*
Y1473591*
X2002000Y1473227*
X2001500Y1472864*
X2001000Y1472682*
X2000250Y1472500*
X1999000*
X1998250Y1472682*
X1997750Y1472864*
X1997250Y1473227*
X1997000Y1473591*
Y1474318*
X1997250Y1474682*
X1997750Y1475045*
X1998250Y1475227*
X2001250Y1476864D02*
X2001500Y1477227D01*
X2002250Y1477773*
X1997000*
X2002250Y1479773D02*
Y1481773D01*
X2000250Y1480682*
Y1481227*
X2000000Y1481591*
X1999750Y1481773*
X1999000Y1481955*
X1998500*
X1997750Y1481773*
X1997250Y1481409*
X1997000Y1480864*
Y1480318*
X1997250Y1479773*
X1997500Y1479591*
X1998000Y1479409*
X2101500Y1571727D02*
X2102000Y1571545D01*
X2102500Y1571182*
X2102750Y1570818*
Y1570091*
X2102500Y1569727*
X2102000Y1569364*
X2101500Y1569182*
X2100750Y1569000*
X2099500*
X2098750Y1569182*
X2098250Y1569364*
X2097750Y1569727*
X2097500Y1570091*
Y1570818*
X2097750Y1571182*
X2098250Y1571545*
X2098750Y1571727*
X2102750Y1575727D02*
Y1573909D01*
X2100500Y1573727*
X2100750Y1573909*
X2101000Y1574455*
Y1575000*
X2100750Y1575545*
X2100250Y1575909*
X2099500Y1576091*
X2099000Y1575909*
X2098250Y1575727*
X2097750Y1575364*
X2097500Y1574818*
Y1574273*
X2097750Y1573727*
X2098000Y1573545*
X2098500Y1573364*
X1932250Y1719000D02*
X1927000D01*
X1932250D02*
Y1720636D01*
X1932000Y1721182*
X1931750Y1721364*
X1931250Y1721545*
X1930750*
X1930250Y1721364*
X1930000Y1721182*
X1929750Y1720636*
Y1719000*
Y1720273D02*
X1927000Y1721545D01*
X1932250Y1723545D02*
Y1725545D01*
X1930250Y1724455*
Y1725000*
X1930000Y1725364*
X1929750Y1725545*
X1929000Y1725727*
X1928500*
X1927750Y1725545*
X1927250Y1725182*
X1927000Y1724636*
Y1724091*
X1927250Y1723545*
X1927500Y1723364*
X1928000Y1723182*
X1921500Y1609727D02*
X1922000Y1609545D01*
X1922500Y1609182*
X1922750Y1608818*
Y1608091*
X1922500Y1607727*
X1922000Y1607364*
X1921500Y1607182*
X1920750Y1607000*
X1919500*
X1918750Y1607182*
X1918250Y1607364*
X1917750Y1607727*
X1917500Y1608091*
Y1608818*
X1917750Y1609182*
X1918250Y1609545*
X1918750Y1609727*
X1922750Y1611364D02*
X1917500D01*
X1922750Y1613000D02*
X1917500D01*
X1922750D02*
X1917500Y1615545D01*
X1922750D02*
X1917500D01*
X1922750Y1619000D02*
X1919250Y1617182D01*
Y1619909*
X1922750Y1619000D02*
X1917500D01*
X1914000Y1609727D02*
X1914500Y1609545D01*
X1915000Y1609182*
X1915250Y1608818*
Y1608091*
X1915000Y1607727*
X1914500Y1607364*
X1914000Y1607182*
X1913250Y1607000*
X1912000*
X1911250Y1607182*
X1910750Y1607364*
X1910250Y1607727*
X1910000Y1608091*
Y1608818*
X1910250Y1609182*
X1910750Y1609545*
X1911250Y1609727*
X1915250Y1611364D02*
X1910000D01*
X1915250Y1613000D02*
X1910000D01*
X1915250D02*
X1910000Y1615545D01*
X1915250D02*
X1910000D01*
X1915250Y1619545D02*
Y1617727D01*
X1913000Y1617545*
X1913250Y1617727*
X1913500Y1618273*
Y1618818*
X1913250Y1619364*
X1912750Y1619727*
X1912000Y1619909*
X1911500Y1619727*
X1910750Y1619545*
X1910250Y1619182*
X1910000Y1618636*
Y1618091*
X1910250Y1617545*
X1910500Y1617364*
X1911000Y1617182*
X1972500Y1755250D02*
Y1750000D01*
Y1755250D02*
X1970864D01*
X1970318Y1755000*
X1970136Y1754750*
X1969955Y1754250*
Y1753750*
X1970136Y1753250*
X1970318Y1753000*
X1970864Y1752750*
X1972500*
X1971227D02*
X1969955Y1750000D01*
X1965955Y1755250D02*
X1967773D01*
X1967955Y1753000*
X1967773Y1753250*
X1967227Y1753500*
X1966682*
X1966136Y1753250*
X1965773Y1752750*
X1965591Y1752000*
X1965773Y1751500*
X1965955Y1750750*
X1966318Y1750250*
X1966864Y1750000*
X1967409*
X1967955Y1750250*
X1968136Y1750500*
X1968318Y1751000*
X1975773Y1592000D02*
X1975955Y1592500D01*
X1976318Y1593000*
X1976682Y1593250*
X1977409*
X1977773Y1593000*
X1978136Y1592500*
X1978318Y1592000*
X1978500Y1591250*
Y1590000*
X1978318Y1589250*
X1978136Y1588750*
X1977773Y1588250*
X1977409Y1588000*
X1976682*
X1976318Y1588250*
X1975955Y1588750*
X1975773Y1589250*
X1974136Y1592250D02*
X1973773Y1592500D01*
X1973227Y1593250*
Y1588000*
X1971409Y1592000D02*
Y1592250D01*
X1971227Y1592750*
X1971045Y1593000*
X1970682Y1593250*
X1969955*
X1969591Y1593000*
X1969409Y1592750*
X1969227Y1592250*
Y1591750*
X1969409Y1591250*
X1969773Y1590500*
X1971591Y1588000*
X1969045*
X2000000Y1514250D02*
Y1509000D01*
Y1514250D02*
X1998364D01*
X1997818Y1514000*
X1997636Y1513750*
X1997455Y1513250*
Y1512750*
X1997636Y1512250*
X1997818Y1512000*
X1998364Y1511750*
X2000000*
X1998727D02*
X1997455Y1509000D01*
X1994000Y1514250D02*
X1995818Y1510750D01*
X1993091*
X1994000Y1514250D02*
Y1509000D01*
X1899773Y1623000D02*
X1899955Y1623500D01*
X1900318Y1624000*
X1900682Y1624250*
X1901409*
X1901773Y1624000*
X1902136Y1623500*
X1902318Y1623000*
X1902500Y1622250*
Y1621000*
X1902318Y1620250*
X1902136Y1619750*
X1901773Y1619250*
X1901409Y1619000*
X1900682*
X1900318Y1619250*
X1899955Y1619750*
X1899773Y1620250*
X1898136Y1623250D02*
X1897773Y1623500D01*
X1897227Y1624250*
Y1619000*
X1999273Y1500500D02*
X1999455Y1501000D01*
X1999818Y1501500*
X2000182Y1501750*
X2000909*
X2001273Y1501500*
X2001636Y1501000*
X2001818Y1500500*
X2002000Y1499750*
Y1498500*
X2001818Y1497750*
X2001636Y1497250*
X2001273Y1496750*
X2000909Y1496500*
X2000182*
X1999818Y1496750*
X1999455Y1497250*
X1999273Y1497750*
X1997636Y1500750D02*
X1997273Y1501000D01*
X1996727Y1501750*
Y1496500*
X1993273Y1501750D02*
X1995091Y1498250D01*
X1992364*
X1993273Y1501750D02*
Y1496500D01*
X2110250Y1569000D02*
X2105000D01*
X2110250D02*
Y1570636D01*
X2110000Y1571182*
X2109750Y1571364*
X2109250Y1571545*
X2108750*
X2108250Y1571364*
X2108000Y1571182*
X2107750Y1570636*
Y1569000*
Y1570273D02*
X2105000Y1571545D01*
X2109000Y1573364D02*
X2109250D01*
X2109750Y1573545*
X2110000Y1573727*
X2110250Y1574091*
Y1574818*
X2110000Y1575182*
X2109750Y1575364*
X2109250Y1575545*
X2108750*
X2108250Y1575364*
X2107500Y1575000*
X2105000Y1573182*
Y1575727*
X2032750Y1644000D02*
X2027500D01*
X2032750D02*
Y1645636D01*
X2032500Y1646182*
X2032250Y1646364*
X2031750Y1646545*
X2031250*
X2030750Y1646364*
X2030500Y1646182*
X2030250Y1645636*
Y1644000*
Y1645273D02*
X2027500Y1646545D01*
X2031750Y1648182D02*
X2032000Y1648545D01*
X2032750Y1649091*
X2027500*
X1972500Y1732750D02*
Y1727500D01*
Y1732750D02*
X1970864D01*
X1970318Y1732500*
X1970136Y1732250*
X1969955Y1731750*
Y1731250*
X1970136Y1730750*
X1970318Y1730500*
X1970864Y1730250*
X1972500*
X1971227D02*
X1969955Y1727500D01*
X1966136Y1732000D02*
X1966318Y1732500D01*
X1966864Y1732750*
X1967227*
X1967773Y1732500*
X1968136Y1731750*
X1968318Y1730500*
Y1729250*
X1968136Y1728250*
X1967773Y1727750*
X1967227Y1727500*
X1967045*
X1966500Y1727750*
X1966136Y1728250*
X1965955Y1729000*
Y1729250*
X1966136Y1730000*
X1966500Y1730500*
X1967045Y1730750*
X1967227*
X1967773Y1730500*
X1968136Y1730000*
X1968318Y1729250*
X1942500Y1611750D02*
Y1606500D01*
Y1611750D02*
X1941227D01*
X1940682Y1611500*
X1940318Y1611000*
X1940136Y1610500*
X1939955Y1609750*
Y1608500*
X1940136Y1607750*
X1940318Y1607250*
X1940682Y1606750*
X1941227Y1606500*
X1942500*
X1938318Y1610750D02*
X1937955Y1611000D01*
X1937409Y1611750*
Y1606500*
X1942500Y1619250D02*
Y1614000D01*
Y1619250D02*
X1941227D01*
X1940682Y1619000*
X1940318Y1618500*
X1940136Y1618000*
X1939955Y1617250*
Y1616000*
X1940136Y1615250*
X1940318Y1614750*
X1940682Y1614250*
X1941227Y1614000*
X1942500*
X1938136Y1618000D02*
Y1618250D01*
X1937955Y1618750*
X1937773Y1619000*
X1937409Y1619250*
X1936682*
X1936318Y1619000*
X1936136Y1618750*
X1935955Y1618250*
Y1617750*
X1936136Y1617250*
X1936500Y1616500*
X1938318Y1614000*
X1935773*
X1867273Y1615500D02*
X1867455Y1616000D01*
X1867818Y1616500*
X1868182Y1616750*
X1868909*
X1869273Y1616500*
X1869636Y1616000*
X1869818Y1615500*
X1870000Y1614750*
Y1613500*
X1869818Y1612750*
X1869636Y1612250*
X1869273Y1611750*
X1868909Y1611500*
X1868182*
X1867818Y1611750*
X1867455Y1612250*
X1867273Y1612750*
X1865636Y1616750D02*
Y1611500D01*
X1864000Y1616750D02*
Y1611500D01*
Y1616750D02*
X1861455Y1611500D01*
Y1616750D02*
Y1611500D01*
X1859636Y1615500D02*
Y1615750D01*
X1859455Y1616250*
X1859273Y1616500*
X1858909Y1616750*
X1858182*
X1857818Y1616500*
X1857636Y1616250*
X1857455Y1615750*
Y1615250*
X1857636Y1614750*
X1858000Y1614000*
X1859818Y1611500*
X1857273*
X1948273Y1638000D02*
X1948455Y1638500D01*
X1948818Y1639000*
X1949182Y1639250*
X1949909*
X1950273Y1639000*
X1950636Y1638500*
X1950818Y1638000*
X1951000Y1637250*
Y1636000*
X1950818Y1635250*
X1950636Y1634750*
X1950273Y1634250*
X1949909Y1634000*
X1949182*
X1948818Y1634250*
X1948455Y1634750*
X1948273Y1635250*
X1946636Y1638250D02*
X1946273Y1638500D01*
X1945727Y1639250*
Y1634000*
X1941545Y1639250D02*
X1943364Y1634000D01*
X1944091Y1639250D02*
X1941545D01*
X1959750Y1634500D02*
X1954500D01*
X1959750D02*
Y1636136D01*
X1959500Y1636682*
X1959250Y1636864*
X1958750Y1637045*
X1958250*
X1957750Y1636864*
X1957500Y1636682*
X1957250Y1636136*
Y1634500*
Y1635773D02*
X1954500Y1637045D01*
X1959750Y1641227D02*
X1954500Y1639409D01*
X1959750Y1638682D02*
Y1641227D01*
X1866818Y1456563D02*
X1865000Y1450000D01*
X1866818Y1456563D02*
X1868636Y1450000D01*
X1865682Y1452188D02*
X1867955D01*
X1870682Y1456563D02*
Y1450000D01*
Y1456563D02*
X1873864Y1450000D01*
Y1456563D02*
Y1450000D01*
X1877727Y1456563D02*
X1875909Y1450000D01*
X1877727Y1456563D02*
X1879545Y1450000D01*
X1876591Y1452188D02*
X1878864D01*
X1881591Y1456563D02*
Y1450000D01*
X1884318*
X1887727Y1456563D02*
X1887273Y1456250D01*
X1886818Y1455625*
X1886591Y1455000*
X1886364Y1454063*
X1886364D02*
Y1452500D01*
X1886591Y1451563*
X1886591D02*
X1886818Y1450938D01*
X1886818D02*
X1887273Y1450313D01*
X1887273D02*
X1887727Y1450000D01*
X1888636*
X1889091Y1450313*
X1889091D02*
X1889545Y1450938D01*
X1889545D02*
X1889773Y1451563D01*
X1889773D02*
X1890000Y1452500D01*
Y1454063*
X1890000D02*
X1889773Y1455000D01*
X1889545Y1455625*
X1889091Y1456250*
X1888636Y1456563*
X1888636D02*
X1887727D01*
X1895455Y1455000D02*
X1895227Y1455625D01*
X1894773Y1456250*
X1894318Y1456563*
X1894318D02*
X1893409D01*
X1893409D02*
X1892955Y1456250D01*
X1892500Y1455625*
X1892273Y1455000*
X1892045Y1454063*
X1892045D02*
Y1452500D01*
X1892273Y1451563*
X1892273D02*
X1892500Y1450938D01*
X1892500D02*
X1892955Y1450313D01*
X1892955D02*
X1893409Y1450000D01*
X1894318*
X1894773Y1450313*
X1894773D02*
X1895227Y1450938D01*
X1895227D02*
X1895455Y1451563D01*
X1895455D02*
Y1452500D01*
X1894318D02*
X1895455D01*
X1902727Y1456563D02*
Y1450000D01*
Y1456563D02*
X1904318D01*
X1904318D02*
X1905000Y1456250D01*
X1905455Y1455625*
X1905682Y1455000*
X1905909Y1454063*
X1905909D02*
Y1452500D01*
X1905682Y1451563*
X1905682D02*
X1905455Y1450938D01*
X1905455D02*
X1905000Y1450313D01*
X1905000D02*
X1904318Y1450000D01*
X1902727*
X1907955Y1456563D02*
Y1450000D01*
Y1456563D02*
X1910909D01*
X1907955Y1453438D02*
X1909773D01*
X1907955Y1450000D02*
X1910909D01*
X1912955Y1456563D02*
X1914773Y1450000D01*
X1916591Y1456563D02*
X1914773Y1450000D01*
X1918636Y1456563D02*
Y1450000D01*
X1924091Y1455000D02*
X1923864Y1455625D01*
X1923409Y1456250*
X1922955Y1456563*
X1922955D02*
X1922045D01*
X1922045D02*
X1921591Y1456250D01*
X1921136Y1455625*
X1920909Y1455000*
X1920682Y1454063*
X1920682D02*
Y1452500D01*
X1920909Y1451563*
X1920909D02*
X1921136Y1450938D01*
X1921136D02*
X1921591Y1450313D01*
X1921591D02*
X1922045Y1450000D01*
X1922955*
X1923409Y1450313*
X1923409D02*
X1923864Y1450938D01*
X1923864D02*
X1924091Y1451563D01*
X1926136Y1456563D02*
Y1450000D01*
Y1456563D02*
X1929091D01*
X1926136Y1453438D02*
X1927955D01*
X1926136Y1450000D02*
X1929091D01*
X1934318Y1455625D02*
X1933864Y1456250D01*
X1933182Y1456563*
X1933182D02*
X1932273D01*
X1932273D02*
X1931591Y1456250D01*
X1931136Y1455625*
Y1455000*
X1931364Y1454375*
X1931591Y1454063*
X1931591D02*
X1932045Y1453750D01*
X1933409Y1453125*
X1933864Y1452813*
X1933864D02*
X1934091Y1452500D01*
X1934318Y1451875*
Y1450938*
X1934318D02*
X1933864Y1450313D01*
X1933864D02*
X1933182Y1450000D01*
X1932273*
X1931591Y1450313*
X1931591D02*
X1931136Y1450938D01*
X1920000Y1444063D02*
Y1437500D01*
Y1444063D02*
X1921591D01*
X1921591D02*
X1922273Y1443750D01*
X1922727Y1443125*
X1922955Y1442500*
X1923182Y1441563*
X1923182D02*
Y1440000D01*
X1922955Y1439063*
X1922955D02*
X1922727Y1438438D01*
X1922727D02*
X1922273Y1437813D01*
X1922273D02*
X1921591Y1437500D01*
X1920000*
X1927045Y1444063D02*
X1925227Y1437500D01*
X1927045Y1444063D02*
X1928864Y1437500D01*
X1925909Y1439688D02*
X1928182D01*
X1932500Y1444063D02*
Y1437500D01*
X1930909Y1444063D02*
X1934091D01*
X1936136D02*
Y1437500D01*
Y1444063D02*
X1939091D01*
X1936136Y1440938D02*
X1937955D01*
X1936136Y1437500D02*
X1939091D01*
X1941364Y1441875D02*
X1941136Y1441563D01*
X1941136D02*
X1941364Y1441250D01*
X1941591Y1441563*
X1941591D02*
X1941364Y1441875D01*
Y1438125D02*
X1941136Y1437813D01*
X1941136D02*
X1941364Y1437500D01*
X1941591Y1437813*
X1941591D02*
X1941364Y1438125D01*
X1950227Y1444063D02*
X1949545Y1443750D01*
X1949091Y1442813*
X1949091D02*
X1948864Y1441250D01*
Y1440313*
X1948864D02*
X1949091Y1438750D01*
X1949545Y1437813*
X1949545D02*
X1950227Y1437500D01*
X1950682*
X1951364Y1437813*
X1951364D02*
X1951818Y1438750D01*
X1952045Y1440313*
X1952045D02*
Y1441250D01*
X1951818Y1442813*
X1951818D02*
X1951364Y1443750D01*
X1950682Y1444063*
X1950682D02*
X1950227D01*
X1957045Y1441875D02*
X1956818Y1440938D01*
X1956818D02*
X1956364Y1440313D01*
X1956364D02*
X1955682Y1440000D01*
X1955455*
X1954773Y1440313*
X1954773D02*
X1954318Y1440938D01*
X1954318D02*
X1954091Y1441875D01*
Y1442188*
X1954091D02*
X1954318Y1443125D01*
X1954773Y1443750*
X1955455Y1444063*
X1955455D02*
X1955682D01*
X1955682D02*
X1956364Y1443750D01*
X1956818Y1443125*
X1957045Y1441875*
Y1440313*
X1957045D02*
X1956818Y1438750D01*
X1956364Y1437813*
X1956364D02*
X1955682Y1437500D01*
X1955227*
X1954545Y1437813*
X1954545D02*
X1954318Y1438438D01*
X1959091Y1440313D02*
X1963182D01*
X1965455Y1442500D02*
Y1442813D01*
X1965455D02*
X1965682Y1443438D01*
X1965682D02*
X1965909Y1443750D01*
X1966364Y1444063*
X1966364D02*
X1967273D01*
X1967273D02*
X1967727Y1443750D01*
X1967955Y1443438*
X1967955D02*
X1968182Y1442813D01*
X1968182D02*
Y1442188D01*
X1968182D02*
X1967955Y1441563D01*
X1967955D02*
X1967500Y1440625D01*
X1965227Y1437500*
X1968409*
X1972727Y1444063D02*
X1970455Y1439688D01*
X1970455D02*
X1973864D01*
X1972727Y1444063D02*
Y1437500D01*
X1975909Y1440313D02*
X1980000D01*
X1982273Y1442500D02*
Y1442813D01*
X1982273D02*
X1982500Y1443438D01*
X1982500D02*
X1982727Y1443750D01*
X1983182Y1444063*
X1983182D02*
X1984091D01*
X1984091D02*
X1984545Y1443750D01*
X1984773Y1443438*
X1984773D02*
X1985000Y1442813D01*
X1985000D02*
Y1442188D01*
X1985000D02*
X1984773Y1441563D01*
X1984773D02*
X1984318Y1440625D01*
X1982045Y1437500*
X1985227*
X1988636Y1444063D02*
X1987955Y1443750D01*
X1987500Y1442813*
X1987500D02*
X1987273Y1441250D01*
Y1440313*
X1987273D02*
X1987500Y1438750D01*
X1987955Y1437813*
X1987955D02*
X1988636Y1437500D01*
X1989091*
X1989773Y1437813*
X1989773D02*
X1990227Y1438750D01*
X1990455Y1440313*
X1990455D02*
Y1441250D01*
X1990227Y1442813*
X1990227D02*
X1989773Y1443750D01*
X1989091Y1444063*
X1989091D02*
X1988636D01*
X1865000D02*
Y1437500D01*
Y1444063D02*
X1866591D01*
X1866591D02*
X1867273Y1443750D01*
X1867727Y1443125*
X1867955Y1442500*
X1868182Y1441563*
X1868182D02*
Y1440000D01*
X1867955Y1439063*
X1867955D02*
X1867727Y1438438D01*
X1867727D02*
X1867273Y1437813D01*
X1867273D02*
X1866591Y1437500D01*
X1865000*
X1873636Y1442500D02*
X1873409Y1443125D01*
X1872955Y1443750*
X1872500Y1444063*
X1872500D02*
X1871591D01*
X1871591D02*
X1871136Y1443750D01*
X1870682Y1443125*
X1870455Y1442500*
X1870227Y1441563*
X1870227D02*
Y1440000D01*
X1870455Y1439063*
X1870455D02*
X1870682Y1438438D01*
X1870682D02*
X1871136Y1437813D01*
X1871136D02*
X1871591Y1437500D01*
X1872500*
X1872955Y1437813*
X1872955D02*
X1873409Y1438438D01*
X1873409D02*
X1873636Y1439063D01*
X1876136Y1444063D02*
X1878636D01*
X1878636D02*
X1877273Y1441563D01*
X1877273D02*
X1877955D01*
X1877955D02*
X1878409Y1441250D01*
X1878636Y1440938*
X1878636D02*
X1878864Y1440000D01*
Y1439375*
X1878636Y1438438*
X1878636D02*
X1878182Y1437813D01*
X1878182D02*
X1877500Y1437500D01*
X1876818*
X1876136Y1437813*
X1876136D02*
X1875909Y1438125D01*
X1875682Y1438750*
X1880909Y1442813D02*
X1881364Y1443125D01*
X1882045Y1444063*
X1882045D02*
Y1437500D01*
X1886364Y1444063D02*
X1884091Y1439688D01*
X1884091D02*
X1887500D01*
X1886364Y1444063D02*
Y1437500D01*
X1892500Y1444063D02*
X1890227D01*
X1890227D02*
X1890000Y1441250D01*
X1890227Y1441563*
X1890227D02*
X1890909Y1441875D01*
X1891591*
X1892273Y1441563*
X1892273D02*
X1892727Y1440938D01*
X1892727D02*
X1892955Y1440000D01*
X1892727Y1439375*
X1892500Y1438438*
X1892500D02*
X1892045Y1437813D01*
X1892045D02*
X1891364Y1437500D01*
X1890682*
X1890000Y1437813*
X1890000D02*
X1889773Y1438125D01*
X1889545Y1438750*
X1896818Y1444063D02*
X1895000Y1437500D01*
X1896818Y1444063D02*
X1898636Y1437500D01*
X1895682Y1439688D02*
X1897955D01*
X1900682Y1440313D02*
X1904773D01*
X1907045Y1442500D02*
Y1442813D01*
X1907045D02*
X1907273Y1443438D01*
X1907273D02*
X1907500Y1443750D01*
X1907955Y1444063*
X1907955D02*
X1908864D01*
X1908864D02*
X1909318Y1443750D01*
X1909545Y1443438*
X1909545D02*
X1909773Y1442813D01*
X1909773D02*
Y1442188D01*
X1909773D02*
X1909545Y1441563D01*
X1909545D02*
X1909091Y1440625D01*
X1906818Y1437500*
X1910000*
X2030000Y1454063D02*
Y1447500D01*
Y1454063D02*
X2032045D01*
X2032045D02*
X2032727Y1453750D01*
X2032955Y1453438*
X2032955D02*
X2033182Y1452813D01*
X2033182D02*
Y1452188D01*
X2033182D02*
X2032955Y1451563D01*
X2032955D02*
X2032727Y1451250D01*
X2032045Y1450938*
X2030000D02*
X2032045D01*
X2032045D02*
X2032727Y1450625D01*
X2032955Y1450313*
X2032955D02*
X2033182Y1449688D01*
X2033182D02*
Y1448750D01*
X2032955Y1448125*
X2032727Y1447813*
X2032727D02*
X2032045Y1447500D01*
X2030000*
X2036591Y1454063D02*
X2036136Y1453750D01*
X2035682Y1453125*
X2035455Y1452500*
X2035227Y1451563*
X2035227D02*
Y1450000D01*
X2035455Y1449063*
X2035455D02*
X2035682Y1448438D01*
X2035682D02*
X2036136Y1447813D01*
X2036136D02*
X2036591Y1447500D01*
X2037500*
X2037955Y1447813*
X2037955D02*
X2038409Y1448438D01*
X2038409D02*
X2038636Y1449063D01*
X2038636D02*
X2038864Y1450000D01*
Y1451563*
X2038864D02*
X2038636Y1452500D01*
X2038409Y1453125*
X2037955Y1453750*
X2037500Y1454063*
X2037500D02*
X2036591D01*
X2042500D02*
Y1447500D01*
X2040909Y1454063D02*
X2044091D01*
X2047727D02*
Y1447500D01*
X2046136Y1454063D02*
X2049318D01*
X2052727D02*
X2052273Y1453750D01*
X2051818Y1453125*
X2051591Y1452500*
X2051364Y1451563*
X2051364D02*
Y1450000D01*
X2051591Y1449063*
X2051591D02*
X2051818Y1448438D01*
X2051818D02*
X2052273Y1447813D01*
X2052273D02*
X2052727Y1447500D01*
X2053636*
X2054091Y1447813*
X2054091D02*
X2054545Y1448438D01*
X2054545D02*
X2054773Y1449063D01*
X2054773D02*
X2055000Y1450000D01*
Y1451563*
X2055000D02*
X2054773Y1452500D01*
X2054545Y1453125*
X2054091Y1453750*
X2053636Y1454063*
X2053636D02*
X2052727D01*
X2057045D02*
Y1447500D01*
Y1454063D02*
X2058864Y1447500D01*
X2060682Y1454063D02*
X2058864Y1447500D01*
X2060682Y1454063D02*
Y1447500D01*
X2071136Y1453125D02*
X2070682Y1453750D01*
X2070000Y1454063*
X2070000D02*
X2069091D01*
X2069091D02*
X2068409Y1453750D01*
X2067955Y1453125*
Y1452500*
X2068182Y1451875*
X2068409Y1451563*
X2068409D02*
X2068864Y1451250D01*
X2070227Y1450625*
X2070682Y1450313*
X2070682D02*
X2070909Y1450000D01*
X2071136Y1449375*
Y1448438*
X2071136D02*
X2070682Y1447813D01*
X2070682D02*
X2070000Y1447500D01*
X2069091*
X2068409Y1447813*
X2068409D02*
X2067955Y1448438D01*
X2073182Y1454063D02*
Y1447500D01*
X2075227Y1454063D02*
Y1447500D01*
X2077955*
X2080000Y1454063D02*
Y1447500D01*
X2083182Y1454063D02*
X2080000Y1449688D01*
X2081136Y1451250D02*
X2083182Y1447500D01*
X2088409Y1453125D02*
X2087955Y1453750D01*
X2087273Y1454063*
X2087273D02*
X2086364D01*
X2086364D02*
X2085682Y1453750D01*
X2085227Y1453125*
Y1452500*
X2085455Y1451875*
X2085682Y1451563*
X2085682D02*
X2086136Y1451250D01*
X2087500Y1450625*
X2087955Y1450313*
X2087955D02*
X2088182Y1450000D01*
X2088409Y1449375*
Y1448438*
X2088409D02*
X2087955Y1447813D01*
X2087955D02*
X2087273Y1447500D01*
X2086364*
X2085682Y1447813*
X2085682D02*
X2085227Y1448438D01*
X2093864Y1452500D02*
X2093636Y1453125D01*
X2093182Y1453750*
X2092727Y1454063*
X2092727D02*
X2091818D01*
X2091818D02*
X2091364Y1453750D01*
X2090909Y1453125*
X2090682Y1452500*
X2090455Y1451563*
X2090455D02*
Y1450000D01*
X2090682Y1449063*
X2090682D02*
X2090909Y1448438D01*
X2090909D02*
X2091364Y1447813D01*
X2091364D02*
X2091818Y1447500D01*
X2092727*
X2093182Y1447813*
X2093182D02*
X2093636Y1448438D01*
X2093636D02*
X2093864Y1449063D01*
X2095909Y1454063D02*
Y1447500D01*
Y1454063D02*
X2097955D01*
X2097955D02*
X2098636Y1453750D01*
X2098864Y1453438*
X2098864D02*
X2099091Y1452813D01*
X2099091D02*
Y1452188D01*
X2099091D02*
X2098864Y1451563D01*
X2098864D02*
X2098636Y1451250D01*
X2097955Y1450938*
X2097955D02*
X2095909D01*
X2097500D02*
X2099091Y1447500D01*
X2101136Y1454063D02*
Y1447500D01*
Y1454063D02*
X2104091D01*
X2101136Y1450938D02*
X2102955D01*
X2101136Y1447500D02*
X2104091D01*
X2106136Y1454063D02*
Y1447500D01*
Y1454063D02*
X2109091D01*
X2106136Y1450938D02*
X2107955D01*
X2106136Y1447500D02*
X2109091D01*
X2111136Y1454063D02*
Y1447500D01*
Y1454063D02*
X2114318Y1447500D01*
Y1454063D02*
Y1447500D01*
X1850000Y1462500D02*
X2150000D01*
Y1762500*
X1850000*
Y1462500*
G54D35*
G54D41*
X1903500Y1470594D02*
Y1466000D01*
Y1470594D02*
X1902068D01*
X1901591Y1470375*
X1901432Y1470156*
X1901273Y1469719*
Y1469281*
X1901432Y1468844*
X1901591Y1468625*
X1902068Y1468406*
X1903500*
X1902386D02*
X1901273Y1466000D01*
X1899841Y1470594D02*
Y1466000D01*
Y1470594D02*
X1897773D01*
X1899841Y1468406D02*
X1898568D01*
X1899841Y1466000D02*
X1897773D01*
X1896341Y1470594D02*
X1895068Y1466000D01*
X1893795Y1470594D02*
X1895068Y1466000D01*
X1888545Y1469500D02*
Y1469719D01*
X1888386Y1470156*
X1888227Y1470375*
X1887909Y1470594*
X1887273*
X1886955Y1470375*
X1886795Y1470156*
X1886636Y1469719*
Y1469281*
X1886795Y1468844*
X1887114Y1468188*
X1887114D02*
X1888705Y1466000D01*
X1886477*
G54D121*
X2116000Y1469938D02*
Y1466000D01*
Y1469938D02*
X2114227D01*
X2116000Y1468063D02*
X2114909D01*
X2112182Y1469938D02*
X2112455Y1469750D01*
X2112727Y1469375*
X2112864Y1469000*
X2113000Y1468438*
X2113000D02*
Y1467500D01*
X2112864Y1466938*
X2112864D02*
X2112727Y1466563D01*
X2112727D02*
X2112455Y1466188D01*
X2112455D02*
X2112182Y1466000D01*
X2111636*
X2111364Y1466188*
X2111364D02*
X2111091Y1466563D01*
X2111091D02*
X2110955Y1466938D01*
X2110955D02*
X2110818Y1467500D01*
Y1468438*
X2110818D02*
X2110955Y1469000D01*
X2111091Y1469375*
X2111364Y1469750*
X2111636Y1469938*
X2111636D02*
X2112182D01*
X2109591D02*
Y1466000D01*
Y1469938D02*
X2108364D01*
X2108364D02*
X2107955Y1469750D01*
X2107818Y1469563*
X2107818D02*
X2107682Y1469188D01*
X2107682D02*
Y1468813D01*
X2107682D02*
X2107818Y1468438D01*
X2107818D02*
X2107955Y1468250D01*
X2108364Y1468063*
X2108364D02*
X2109591D01*
X2108636D02*
X2107682Y1466000D01*
X2102227Y1469938D02*
X2103318Y1466000D01*
X2102227Y1469938D02*
X2101136Y1466000D01*
X2102909Y1467313D02*
X2101545D01*
X2099909Y1469938D02*
Y1466000D01*
Y1469938D02*
X2098955D01*
X2098955D02*
X2098545Y1469750D01*
X2098273Y1469375*
X2098136Y1469000*
X2098000Y1468438*
X2098000D02*
Y1467500D01*
X2098136Y1466938*
X2098136D02*
X2098273Y1466563D01*
X2098273D02*
X2098545Y1466188D01*
X2098545D02*
X2098955Y1466000D01*
X2099909*
X2096773Y1469938D02*
Y1466000D01*
X2090364Y1469000D02*
X2090500Y1469375D01*
X2090773Y1469750*
X2091045Y1469938*
X2091045D02*
X2091591D01*
X2091591D02*
X2091864Y1469750D01*
X2092136Y1469375*
X2092273Y1469000*
X2092409Y1468438*
X2092409D02*
Y1467500D01*
X2092273Y1466938*
X2092273D02*
X2092136Y1466563D01*
X2092136D02*
X2091864Y1466188D01*
X2091864D02*
X2091591Y1466000D01*
X2091045*
X2090773Y1466188*
X2090773D02*
X2090500Y1466563D01*
X2090500D02*
X2090364Y1466938D01*
X2089136Y1469938D02*
Y1467125D01*
X2089000Y1466563*
X2089000D02*
X2088727Y1466188D01*
X2088727D02*
X2088318Y1466000D01*
X2088045*
X2087636Y1466188*
X2087636D02*
X2087364Y1466563D01*
X2087364D02*
X2087227Y1467125D01*
Y1469938*
X2084091Y1469375D02*
X2084364Y1469750D01*
X2084773Y1469938*
X2084773D02*
X2085318D01*
X2085318D02*
X2085727Y1469750D01*
X2086000Y1469375*
Y1469000*
X2085864Y1468625*
X2085727Y1468438*
X2085727D02*
X2085455Y1468250D01*
X2084636Y1467875*
X2084364Y1467688*
X2084364D02*
X2084227Y1467500D01*
X2084091Y1467125*
Y1466563*
X2084091D02*
X2084364Y1466188D01*
X2084364D02*
X2084773Y1466000D01*
X2085318*
X2085727Y1466188*
X2085727D02*
X2086000Y1466563D01*
X2081909Y1469938D02*
Y1466000D01*
X2082864Y1469938D02*
X2080955D01*
X2078909D02*
X2079182Y1469750D01*
X2079455Y1469375*
X2079591Y1469000*
X2079727Y1468438*
X2079727D02*
Y1467500D01*
X2079591Y1466938*
X2079591D02*
X2079455Y1466563D01*
X2079455D02*
X2079182Y1466188D01*
X2079182D02*
X2078909Y1466000D01*
X2078364*
X2078091Y1466188*
X2078091D02*
X2077818Y1466563D01*
X2077818D02*
X2077682Y1466938D01*
X2077682D02*
X2077545Y1467500D01*
Y1468438*
X2077545D02*
X2077682Y1469000D01*
X2077818Y1469375*
X2078091Y1469750*
X2078364Y1469938*
X2078364D02*
X2078909D01*
X2076318D02*
Y1466000D01*
Y1469938D02*
X2075227Y1466000D01*
X2074136Y1469938D02*
X2075227Y1466000D01*
X2074136Y1469938D02*
Y1466000D01*
X2072909Y1469938D02*
Y1466000D01*
Y1469938D02*
X2071136D01*
X2072909Y1468063D02*
X2071818D01*
X2072909Y1466000D02*
X2071136D01*
X2069909Y1469938D02*
Y1466000D01*
Y1469938D02*
X2068682D01*
X2068682D02*
X2068273Y1469750D01*
X2068136Y1469563*
X2068136D02*
X2068000Y1469188D01*
X2068000D02*
Y1468813D01*
X2068000D02*
X2068136Y1468438D01*
X2068136D02*
X2068273Y1468250D01*
X2068682Y1468063*
X2068682D02*
X2069909D01*
X2068955D02*
X2068000Y1466000D01*
X2063636Y1469938D02*
Y1467125D01*
X2063500Y1466563*
X2063500D02*
X2063227Y1466188D01*
X2063227D02*
X2062818Y1466000D01*
X2062545*
X2062136Y1466188*
X2062136D02*
X2061864Y1466563D01*
X2061864D02*
X2061727Y1467125D01*
Y1469938*
X2058591Y1469375D02*
X2058864Y1469750D01*
X2059273Y1469938*
X2059273D02*
X2059818D01*
X2059818D02*
X2060227Y1469750D01*
X2060500Y1469375*
Y1469000*
X2060364Y1468625*
X2060227Y1468438*
X2060227D02*
X2059955Y1468250D01*
X2059136Y1467875*
X2058864Y1467688*
X2058864D02*
X2058727Y1467500D01*
X2058591Y1467125*
Y1466563*
X2058591D02*
X2058864Y1466188D01*
X2058864D02*
X2059273Y1466000D01*
X2059818*
X2060227Y1466188*
X2060227D02*
X2060500Y1466563D01*
X2057364Y1469938D02*
Y1466000D01*
Y1469938D02*
X2055591D01*
X2057364Y1468063D02*
X2056273D01*
X2057364Y1466000D02*
X2055591D01*
X2050409Y1469938D02*
X2050682Y1469750D01*
X2050955Y1469375*
X2051091Y1469000*
X2051227Y1468438*
X2051227D02*
Y1467500D01*
X2051091Y1466938*
X2051091D02*
X2050955Y1466563D01*
X2050955D02*
X2050682Y1466188D01*
X2050682D02*
X2050409Y1466000D01*
X2049864*
X2049591Y1466188*
X2049591D02*
X2049318Y1466563D01*
X2049318D02*
X2049182Y1466938D01*
X2049182D02*
X2049045Y1467500D01*
Y1468438*
X2049045D02*
X2049182Y1469000D01*
X2049318Y1469375*
X2049591Y1469750*
X2049864Y1469938*
X2049864D02*
X2050409D01*
X2047818D02*
Y1466000D01*
Y1469938D02*
X2045909Y1466000D01*
Y1469938D02*
Y1466000D01*
X2044682Y1469938D02*
Y1466000D01*
X2043045*
X2041818Y1469938D02*
X2040727Y1468063D01*
X2040727D02*
Y1466000D01*
X2039636Y1469938D02*
X2040727Y1468063D01*
G74*
X0Y0D02*
M02*
