*
*
G04 PADS VX.1.1 Build Number: 678707 generated Gerber (RS-274-X) file*
G04 PC Version=2.1*
*
%IN "DC3145A2-0922.pcb"*%
*
%MOIN*%
*
%FSLAX35Y35*%
*
*
*
*
G04 PC Standard Apertures*
*
*
G04 Thermal Relief Aperture macro.*
%AMTER*
1,1,$1,0,0*
1,0,$1-$2,0,0*
21,0,$3,$4,0,0,45*
21,0,$3,$4,0,0,135*
%
*
*
G04 Annular Aperture macro.*
%AMANN*
1,1,$1,0,0*
1,0,$2,0,0*
%
*
*
G04 Odd Aperture macro.*
%AMODD*
1,1,$1,0,0*
1,0,$1-0.005,0,0*
%
*
*
G04 PC Custom Aperture Macros*
*
*
*
*
*
*
G04 PC Aperture Table*
*
%ADD013C,0.01*%
%ADD017R,0.02953X0.0315*%
%ADD020R,0.06X0.06*%
%ADD021C,0.06*%
%ADD029C,0.02*%
%ADD030C,0.015*%
%ADD035C,0.001*%
%ADD071C,0.07*%
%ADD075R,0.0315X0.02953*%
%ADD121C,0.007*%
%ADD133C,0.28*%
%ADD134C,0.325*%
%ADD147C,0.016*%
%ADD154C,0.004*%
%ADD173R,0.065X0.04*%
%ADD181C,0.175*%
%ADD184R,0.00984X0.02559*%
%ADD185R,0.02559X0.00984*%
%ADD186R,0.01181X0.02559*%
%ADD187R,0.03937X0.02756*%
%ADD188R,0.025X0.02*%
%ADD189R,0.06299X0.1378*%
%ADD190R,0.216X0.056*%
%ADD193R,0.15X0.08*%
*
*
*
*
G04 PC Circuitry*
G04 Layer Name DC3145A2-0922.pcb - circuitry*
%LPD*%
*
*
G04 PC Custom Flashes*
G04 Layer Name DC3145A2-0922.pcb - flashes*
%LPD*%
*
*
G04 PC Circuitry*
G04 Layer Name DC3145A2-0922.pcb - circuitry*
%LPD*%
*
G54D13*
G01X1866818Y1456563D02*
X1865000Y1450000D01*
X1866818Y1456563D02*
X1868636Y1450000D01*
X1865682Y1452188D02*
X1867955D01*
X1870682Y1456563D02*
Y1450000D01*
Y1456563D02*
X1873864Y1450000D01*
Y1456563D02*
Y1450000D01*
X1877727Y1456563D02*
X1875909Y1450000D01*
X1877727Y1456563D02*
X1879545Y1450000D01*
X1876591Y1452188D02*
X1878864D01*
X1881591Y1456563D02*
Y1450000D01*
X1884318*
X1887727Y1456563D02*
X1887273Y1456250D01*
X1886818Y1455625*
X1886591Y1455000*
X1886364Y1454063*
X1886364D02*
Y1452500D01*
X1886591Y1451563*
X1886591D02*
X1886818Y1450938D01*
X1886818D02*
X1887273Y1450313D01*
X1887273D02*
X1887727Y1450000D01*
X1888636*
X1889091Y1450313*
X1889091D02*
X1889545Y1450938D01*
X1889545D02*
X1889773Y1451563D01*
X1889773D02*
X1890000Y1452500D01*
Y1454063*
X1890000D02*
X1889773Y1455000D01*
X1889545Y1455625*
X1889091Y1456250*
X1888636Y1456563*
X1888636D02*
X1887727D01*
X1895455Y1455000D02*
X1895227Y1455625D01*
X1894773Y1456250*
X1894318Y1456563*
X1894318D02*
X1893409D01*
X1893409D02*
X1892955Y1456250D01*
X1892500Y1455625*
X1892273Y1455000*
X1892045Y1454063*
X1892045D02*
Y1452500D01*
X1892273Y1451563*
X1892273D02*
X1892500Y1450938D01*
X1892500D02*
X1892955Y1450313D01*
X1892955D02*
X1893409Y1450000D01*
X1894318*
X1894773Y1450313*
X1894773D02*
X1895227Y1450938D01*
X1895227D02*
X1895455Y1451563D01*
X1895455D02*
Y1452500D01*
X1894318D02*
X1895455D01*
X1902727Y1456563D02*
Y1450000D01*
Y1456563D02*
X1904318D01*
X1904318D02*
X1905000Y1456250D01*
X1905455Y1455625*
X1905682Y1455000*
X1905909Y1454063*
X1905909D02*
Y1452500D01*
X1905682Y1451563*
X1905682D02*
X1905455Y1450938D01*
X1905455D02*
X1905000Y1450313D01*
X1905000D02*
X1904318Y1450000D01*
X1902727*
X1907955Y1456563D02*
Y1450000D01*
Y1456563D02*
X1910909D01*
X1907955Y1453438D02*
X1909773D01*
X1907955Y1450000D02*
X1910909D01*
X1912955Y1456563D02*
X1914773Y1450000D01*
X1916591Y1456563D02*
X1914773Y1450000D01*
X1918636Y1456563D02*
Y1450000D01*
X1924091Y1455000D02*
X1923864Y1455625D01*
X1923409Y1456250*
X1922955Y1456563*
X1922955D02*
X1922045D01*
X1922045D02*
X1921591Y1456250D01*
X1921136Y1455625*
X1920909Y1455000*
X1920682Y1454063*
X1920682D02*
Y1452500D01*
X1920909Y1451563*
X1920909D02*
X1921136Y1450938D01*
X1921136D02*
X1921591Y1450313D01*
X1921591D02*
X1922045Y1450000D01*
X1922955*
X1923409Y1450313*
X1923409D02*
X1923864Y1450938D01*
X1923864D02*
X1924091Y1451563D01*
X1926136Y1456563D02*
Y1450000D01*
Y1456563D02*
X1929091D01*
X1926136Y1453438D02*
X1927955D01*
X1926136Y1450000D02*
X1929091D01*
X1934318Y1455625D02*
X1933864Y1456250D01*
X1933182Y1456563*
X1933182D02*
X1932273D01*
X1932273D02*
X1931591Y1456250D01*
X1931136Y1455625*
Y1455000*
X1931364Y1454375*
X1931591Y1454063*
X1931591D02*
X1932045Y1453750D01*
X1933409Y1453125*
X1933864Y1452813*
X1933864D02*
X1934091Y1452500D01*
X1934318Y1451875*
Y1450938*
X1934318D02*
X1933864Y1450313D01*
X1933864D02*
X1933182Y1450000D01*
X1932273*
X1931591Y1450313*
X1931591D02*
X1931136Y1450938D01*
X1920000Y1444063D02*
Y1437500D01*
Y1444063D02*
X1921591D01*
X1921591D02*
X1922273Y1443750D01*
X1922727Y1443125*
X1922955Y1442500*
X1923182Y1441563*
X1923182D02*
Y1440000D01*
X1922955Y1439063*
X1922955D02*
X1922727Y1438438D01*
X1922727D02*
X1922273Y1437813D01*
X1922273D02*
X1921591Y1437500D01*
X1920000*
X1927045Y1444063D02*
X1925227Y1437500D01*
X1927045Y1444063D02*
X1928864Y1437500D01*
X1925909Y1439688D02*
X1928182D01*
X1932500Y1444063D02*
Y1437500D01*
X1930909Y1444063D02*
X1934091D01*
X1936136D02*
Y1437500D01*
Y1444063D02*
X1939091D01*
X1936136Y1440938D02*
X1937955D01*
X1936136Y1437500D02*
X1939091D01*
X1941364Y1441875D02*
X1941136Y1441563D01*
X1941136D02*
X1941364Y1441250D01*
X1941591Y1441563*
X1941591D02*
X1941364Y1441875D01*
Y1438125D02*
X1941136Y1437813D01*
X1941136D02*
X1941364Y1437500D01*
X1941591Y1437813*
X1941591D02*
X1941364Y1438125D01*
X1950227Y1444063D02*
X1949545Y1443750D01*
X1949091Y1442813*
X1949091D02*
X1948864Y1441250D01*
Y1440313*
X1948864D02*
X1949091Y1438750D01*
X1949545Y1437813*
X1949545D02*
X1950227Y1437500D01*
X1950682*
X1951364Y1437813*
X1951364D02*
X1951818Y1438750D01*
X1952045Y1440313*
X1952045D02*
Y1441250D01*
X1951818Y1442813*
X1951818D02*
X1951364Y1443750D01*
X1950682Y1444063*
X1950682D02*
X1950227D01*
X1957045Y1441875D02*
X1956818Y1440938D01*
X1956818D02*
X1956364Y1440313D01*
X1956364D02*
X1955682Y1440000D01*
X1955455*
X1954773Y1440313*
X1954773D02*
X1954318Y1440938D01*
X1954318D02*
X1954091Y1441875D01*
Y1442188*
X1954091D02*
X1954318Y1443125D01*
X1954773Y1443750*
X1955455Y1444063*
X1955455D02*
X1955682D01*
X1955682D02*
X1956364Y1443750D01*
X1956818Y1443125*
X1957045Y1441875*
Y1440313*
X1957045D02*
X1956818Y1438750D01*
X1956364Y1437813*
X1956364D02*
X1955682Y1437500D01*
X1955227*
X1954545Y1437813*
X1954545D02*
X1954318Y1438438D01*
X1959091Y1440313D02*
X1963182D01*
X1965455Y1442500D02*
Y1442813D01*
X1965455D02*
X1965682Y1443438D01*
X1965682D02*
X1965909Y1443750D01*
X1966364Y1444063*
X1966364D02*
X1967273D01*
X1967273D02*
X1967727Y1443750D01*
X1967955Y1443438*
X1967955D02*
X1968182Y1442813D01*
X1968182D02*
Y1442188D01*
X1968182D02*
X1967955Y1441563D01*
X1967955D02*
X1967500Y1440625D01*
X1965227Y1437500*
X1968409*
X1972727Y1444063D02*
X1970455Y1439688D01*
X1970455D02*
X1973864D01*
X1972727Y1444063D02*
Y1437500D01*
X1975909Y1440313D02*
X1980000D01*
X1982273Y1442500D02*
Y1442813D01*
X1982273D02*
X1982500Y1443438D01*
X1982500D02*
X1982727Y1443750D01*
X1983182Y1444063*
X1983182D02*
X1984091D01*
X1984091D02*
X1984545Y1443750D01*
X1984773Y1443438*
X1984773D02*
X1985000Y1442813D01*
X1985000D02*
Y1442188D01*
X1985000D02*
X1984773Y1441563D01*
X1984773D02*
X1984318Y1440625D01*
X1982045Y1437500*
X1985227*
X1988636Y1444063D02*
X1987955Y1443750D01*
X1987500Y1442813*
X1987500D02*
X1987273Y1441250D01*
Y1440313*
X1987273D02*
X1987500Y1438750D01*
X1987955Y1437813*
X1987955D02*
X1988636Y1437500D01*
X1989091*
X1989773Y1437813*
X1989773D02*
X1990227Y1438750D01*
X1990455Y1440313*
X1990455D02*
Y1441250D01*
X1990227Y1442813*
X1990227D02*
X1989773Y1443750D01*
X1989091Y1444063*
X1989091D02*
X1988636D01*
X1865000D02*
Y1437500D01*
Y1444063D02*
X1866591D01*
X1866591D02*
X1867273Y1443750D01*
X1867727Y1443125*
X1867955Y1442500*
X1868182Y1441563*
X1868182D02*
Y1440000D01*
X1867955Y1439063*
X1867955D02*
X1867727Y1438438D01*
X1867727D02*
X1867273Y1437813D01*
X1867273D02*
X1866591Y1437500D01*
X1865000*
X1873636Y1442500D02*
X1873409Y1443125D01*
X1872955Y1443750*
X1872500Y1444063*
X1872500D02*
X1871591D01*
X1871591D02*
X1871136Y1443750D01*
X1870682Y1443125*
X1870455Y1442500*
X1870227Y1441563*
X1870227D02*
Y1440000D01*
X1870455Y1439063*
X1870455D02*
X1870682Y1438438D01*
X1870682D02*
X1871136Y1437813D01*
X1871136D02*
X1871591Y1437500D01*
X1872500*
X1872955Y1437813*
X1872955D02*
X1873409Y1438438D01*
X1873409D02*
X1873636Y1439063D01*
X1876136Y1444063D02*
X1878636D01*
X1878636D02*
X1877273Y1441563D01*
X1877273D02*
X1877955D01*
X1877955D02*
X1878409Y1441250D01*
X1878636Y1440938*
X1878636D02*
X1878864Y1440000D01*
Y1439375*
X1878636Y1438438*
X1878636D02*
X1878182Y1437813D01*
X1878182D02*
X1877500Y1437500D01*
X1876818*
X1876136Y1437813*
X1876136D02*
X1875909Y1438125D01*
X1875682Y1438750*
X1880909Y1442813D02*
X1881364Y1443125D01*
X1882045Y1444063*
X1882045D02*
Y1437500D01*
X1886364Y1444063D02*
X1884091Y1439688D01*
X1884091D02*
X1887500D01*
X1886364Y1444063D02*
Y1437500D01*
X1892500Y1444063D02*
X1890227D01*
X1890227D02*
X1890000Y1441250D01*
X1890227Y1441563*
X1890227D02*
X1890909Y1441875D01*
X1891591*
X1892273Y1441563*
X1892273D02*
X1892727Y1440938D01*
X1892727D02*
X1892955Y1440000D01*
X1892727Y1439375*
X1892500Y1438438*
X1892500D02*
X1892045Y1437813D01*
X1892045D02*
X1891364Y1437500D01*
X1890682*
X1890000Y1437813*
X1890000D02*
X1889773Y1438125D01*
X1889545Y1438750*
X1896818Y1444063D02*
X1895000Y1437500D01*
X1896818Y1444063D02*
X1898636Y1437500D01*
X1895682Y1439688D02*
X1897955D01*
X1900682Y1440313D02*
X1904773D01*
X1907045Y1442500D02*
Y1442813D01*
X1907045D02*
X1907273Y1443438D01*
X1907273D02*
X1907500Y1443750D01*
X1907955Y1444063*
X1907955D02*
X1908864D01*
X1908864D02*
X1909318Y1443750D01*
X1909545Y1443438*
X1909545D02*
X1909773Y1442813D01*
X1909773D02*
Y1442188D01*
X1909773D02*
X1909545Y1441563D01*
X1909545D02*
X1909091Y1440625D01*
X1906818Y1437500*
X1910000*
X2012500Y1454063D02*
Y1447500D01*
X2015227*
X2019091Y1454063D02*
X2017273Y1447500D01*
X2019091Y1454063D02*
X2020909Y1447500D01*
X2017955Y1449688D02*
X2020227D01*
X2022955Y1454063D02*
X2024773Y1450938D01*
X2024773D02*
Y1447500D01*
X2026591Y1454063D02*
X2024773Y1450938D01*
X2028636Y1454063D02*
Y1447500D01*
Y1454063D02*
X2031591D01*
X2028636Y1450938D02*
X2030455D01*
X2028636Y1447500D02*
X2031591D01*
X2033636Y1454063D02*
Y1447500D01*
Y1454063D02*
X2035682D01*
X2035682D02*
X2036364Y1453750D01*
X2036591Y1453438*
X2036591D02*
X2036818Y1452813D01*
X2036818D02*
Y1452188D01*
X2036818D02*
X2036591Y1451563D01*
X2036591D02*
X2036364Y1451250D01*
X2035682Y1450938*
X2035682D02*
X2033636D01*
X2035227D02*
X2036818Y1447500D01*
X2044091Y1452813D02*
X2044545Y1453125D01*
X2045227Y1454063*
X2045227D02*
Y1447500D01*
X2052500Y1450313D02*
X2056591D01*
X2065455Y1454063D02*
Y1447500D01*
X2063864Y1454063D02*
X2067045D01*
X2070455D02*
X2070000Y1453750D01*
X2069545Y1453125*
X2069318Y1452500*
X2069091Y1451563*
X2069091D02*
Y1450000D01*
X2069318Y1449063*
X2069318D02*
X2069545Y1448438D01*
X2069545D02*
X2070000Y1447813D01*
X2070000D02*
X2070455Y1447500D01*
X2071364*
X2071818Y1447813*
X2071818D02*
X2072273Y1448438D01*
X2072273D02*
X2072500Y1449063D01*
X2072500D02*
X2072727Y1450000D01*
Y1451563*
X2072727D02*
X2072500Y1452500D01*
X2072273Y1453125*
X2071818Y1453750*
X2071364Y1454063*
X2071364D02*
X2070455D01*
X2074773D02*
Y1447500D01*
Y1454063D02*
X2076818D01*
X2076818D02*
X2077500Y1453750D01*
X2077727Y1453438*
X2077727D02*
X2077955Y1452813D01*
X2077955D02*
Y1451875D01*
X2077727Y1451250*
X2077500Y1450938*
X2077500D02*
X2076818Y1450625D01*
X2074773*
X2088409Y1453125D02*
X2087955Y1453750D01*
X2087273Y1454063*
X2087273D02*
X2086364D01*
X2086364D02*
X2085682Y1453750D01*
X2085227Y1453125*
Y1452500*
X2085455Y1451875*
X2085682Y1451563*
X2085682D02*
X2086136Y1451250D01*
X2087500Y1450625*
X2087955Y1450313*
X2087955D02*
X2088182Y1450000D01*
X2088409Y1449375*
Y1448438*
X2088409D02*
X2087955Y1447813D01*
X2087955D02*
X2087273Y1447500D01*
X2086364*
X2085682Y1447813*
X2085682D02*
X2085227Y1448438D01*
X2090455Y1454063D02*
Y1447500D01*
X2092500Y1454063D02*
Y1447500D01*
Y1454063D02*
X2094091D01*
X2094091D02*
X2094773Y1453750D01*
X2095227Y1453125*
X2095455Y1452500*
X2095682Y1451563*
X2095682D02*
Y1450000D01*
X2095455Y1449063*
X2095455D02*
X2095227Y1448438D01*
X2095227D02*
X2094773Y1447813D01*
X2094773D02*
X2094091Y1447500D01*
X2092500*
X2097727Y1454063D02*
Y1447500D01*
Y1454063D02*
X2100682D01*
X2097727Y1450938D02*
X2099545D01*
X2097727Y1447500D02*
X2100682D01*
X1986000Y1583500D02*
X1991000Y1582000D01*
X1967500D02*
Y1586050D01*
X1956000Y1605000D02*
X1956274D01*
X1959324Y1601950*
X1967500*
X1985000Y1604047D02*
X1985453Y1603047D01*
X1989047Y1599453*
X1991890*
X1985000Y1609953D02*
Y1615500D01*
X1987000Y1617500*
X1996000*
X1997500Y1616000*
Y1605500*
X1989500Y1595000D02*
X1990000Y1595500D01*
Y1595516*
X1991890*
X1992000Y1602110D02*
X1993563D01*
X1990000Y1593547D02*
Y1595016D01*
X1990500Y1595516*
X1991890*
X1990000Y1593547D02*
X1991890D01*
X1989984Y1598000D02*
X1990500Y1597484D01*
X1991890*
X1989984Y1598000D02*
Y1599453D01*
X1991890*
X1992000Y1590000D02*
X1993563D01*
Y1590890*
X1990500Y1606000D02*
X1992000Y1604500D01*
Y1602110*
X1994500Y1606000D02*
X1995000Y1605500D01*
Y1604500*
X1995531Y1604000*
Y1602110*
X1990500Y1587000D02*
X1992000Y1590000D01*
X1994500Y1587000D02*
X1995531D01*
Y1590890*
X1996319Y1598272D02*
X1997100Y1598300D01*
X2000059Y1594630D02*
X2000100Y1594500D01*
X2000059Y1598370D02*
X2000100Y1598300D01*
X2003110Y1599453D02*
X2007453D01*
X2008500Y1600500*
X2003110Y1597484D02*
X2009000D01*
Y1597500*
X2003110Y1595516D02*
X2006984D01*
X2007500Y1595000*
X2003110Y1593547D02*
Y1593500D01*
X2004500*
X2005453Y1592547*
X2008953*
X2009000Y1592500*
X2001437Y1590890D02*
Y1589500D01*
X2001500*
X2003500Y1587500*
X1999469Y1590890D02*
Y1587531D01*
X2000000Y1587000*
X1997500Y1590890D02*
Y1585660D01*
X2001000Y1582160*
X2002000Y1582000*
X1997500Y1602110D02*
Y1605500D01*
X1999469Y1602110D02*
Y1604000D01*
X2000000Y1604500*
Y1607500*
X2001437Y1602110D02*
Y1603477D01*
X2002500Y1604540*
Y1605500*
X1992000Y1602000D02*
Y1602110D01*
X2052500Y1671500D02*
Y1672000D01*
X1850000Y1462500D02*
X2150000D01*
Y1762500*
X1850000*
Y1462500*
G54D17*
X1985000Y1609953D03*
Y1604047D03*
G54D20*
X1940000Y1745000D03*
X1985000D03*
X2025000Y1736500D03*
G54D21*
X1940000Y1737100D03*
Y1729200D03*
X1985000Y1737100D03*
Y1729200D03*
X2025000Y1746500D03*
X2035000Y1736500D03*
Y1746500D03*
X2045000Y1736500D03*
Y1746500D03*
X2055000Y1736500D03*
Y1746500D03*
X2065000Y1736500D03*
Y1746500D03*
X2075000Y1736500D03*
Y1746500D03*
X2085000Y1736500D03*
Y1746500D03*
G54D29*
X2002500Y1486500D03*
X1990500D03*
X2002500Y1492500D03*
X1990500D03*
X1992500Y1483000D03*
X2002500Y1490500D03*
X1990000Y1474500D03*
X1990500Y1490500D03*
X2006500Y1499000D03*
X1884000Y1585500D03*
Y1580000D03*
X1871000D03*
Y1585500D03*
X1896000Y1576500D03*
X1904000D03*
X1900000D03*
X1963500Y1579500D03*
Y1582000D03*
X2005000Y1573000D03*
X2001000D03*
X1967500Y1579500D03*
X1971500D03*
X1984000Y1583500D03*
Y1581000D03*
X1994500Y1573000D03*
X1988500D03*
X2003000D03*
X2006500Y1581000D03*
X1986000Y1583500D03*
Y1581000D03*
X1999000Y1573000D03*
X1971500Y1582000D03*
X1967500D03*
X2006500Y1583500D03*
X1990500Y1573000D03*
X1992500D03*
X2009000Y1583500D03*
Y1581000D03*
X2103000Y1558500D03*
X2122500Y1551500D03*
Y1571500D03*
X1884000Y1606500D03*
Y1611500D03*
Y1601500D03*
X1871000D03*
Y1606500D03*
Y1611500D03*
X1884000Y1590000D03*
X1871000D03*
X1920000Y1602500D03*
X1912500D03*
Y1590500D03*
X1920000D03*
X1920500Y1609500D03*
X1896500Y1617500D03*
X1903500D03*
X1900000D03*
X1956000Y1605000D03*
X1944500Y1616500D03*
X1977500Y1610000D03*
X1972500D03*
X1967500D03*
Y1614000D03*
X1972500D03*
X1977500D03*
X1988500D03*
X1990500D03*
X1992500D03*
X1994500D03*
X1989500Y1595000D03*
X2000000Y1620500D03*
X2003500Y1587500D03*
X2000000Y1587000D03*
X2002500Y1605500D03*
X1997500D03*
X1992000Y1590000D03*
X2000000Y1607500D03*
X1992000Y1602000D03*
X2014000Y1610000D03*
Y1590000D03*
X2009000Y1592500D03*
X2008500Y1600500D03*
X2007500Y1595000D03*
X2009000Y1597500D03*
X2122500Y1611500D03*
Y1591500D03*
X1941000Y1629000D03*
X1993000Y1627000D03*
X1990500D03*
X2122500Y1651500D03*
Y1631500D03*
X1938000Y1671000D03*
X1960000Y1671500D03*
X1985000D03*
X2007500D03*
X2030000D03*
X2052500Y1672000D03*
X2075000Y1671500D03*
X1923500Y1740500D03*
X1963500Y1737500D03*
X1929000Y1728500D03*
X1963500Y1745500D03*
X2075500Y1722500D03*
X2097000Y1719500D03*
G54D30*
X1990500Y1573000D02*
Y1570000D01*
X1991000*
X1992500*
Y1573000*
X1992000Y1623000D02*
X1993000D01*
Y1627000*
X1990500D02*
Y1623000D01*
X1992000*
G54D35*
G54D71*
X1870000Y1719000D03*
X2130000Y1506500D03*
G54D75*
X1998953Y1486500D03*
X1993047D03*
G54D121*
X1993500Y1601000D02*
X1996200Y1598272D01*
X1996319*
X1993500Y1601000D02*
Y1602047D01*
X1993563Y1602110*
Y1590890D02*
Y1592100D01*
X1996319Y1594800*
Y1594728*
G54D133*
X2130000Y1742500D03*
X1870000D03*
X2130000Y1482500D03*
X1870000D03*
G54D134*
X1962500Y1486500D03*
X1877500Y1636500D03*
X2027500Y1486500D03*
X1877500Y1556500D03*
G54D147*
X1995500Y1596500D03*
X1997000D03*
X1997100Y1594700D03*
X1995500D03*
X1997100Y1598300D03*
X1995500D03*
X2000100Y1594500D03*
Y1598300D03*
G54D154*
X1983200Y1565700D02*
X2006800D01*
Y1577800*
X1983200*
Y1565700*
X1956700Y1578200D02*
X1978300D01*
Y1588800*
X1956700*
Y1578200*
X1995000Y1597300D02*
X1997700D01*
Y1595700*
X1995000*
Y1597300*
X1983200Y1584800D02*
X1993200D01*
Y1587800*
X1995800*
Y1579700*
X1983200*
Y1584800*
X1990500Y1599300D02*
X1992900D01*
Y1597700*
X1990500*
Y1599300*
X1987200Y1628800D02*
X1996800D01*
Y1619700*
X1987200*
Y1628800*
X1990700Y1595300D02*
X1992800D01*
Y1593700*
X1990700*
Y1595300*
X1983200Y1577579D02*
X2006800D01*
X1983200Y1577219D02*
X2006800D01*
X1983200Y1576859D02*
X2006800D01*
X1983200Y1576499D02*
X2006800D01*
X1983200Y1576139D02*
X2006800D01*
X1983200Y1575779D02*
X2006800D01*
X1983200Y1575419D02*
X2006800D01*
X1983200Y1575059D02*
X2006800D01*
X1983200Y1574699D02*
X2006800D01*
X1983200Y1574339D02*
X2006800D01*
X1983200Y1573979D02*
X2006800D01*
X1983200Y1573619D02*
X2006800D01*
X1983200Y1573259D02*
X2006800D01*
X1983200Y1572899D02*
X2006800D01*
X1983200Y1572539D02*
X2006800D01*
X1983200Y1572179D02*
X2006800D01*
X1983200Y1571819D02*
X2006800D01*
X1983200Y1571459D02*
X2006800D01*
X1983200Y1571099D02*
X2006800D01*
X1983200Y1570739D02*
X2006800D01*
X1983200Y1570379D02*
X2006800D01*
X1983200Y1570019D02*
X2006800D01*
X1983200Y1569659D02*
X2006800D01*
X1983200Y1569299D02*
X2006800D01*
X1983200Y1568939D02*
X2006800D01*
X1983200Y1568579D02*
X2006800D01*
X1983200Y1568219D02*
X2006800D01*
X1983200Y1567859D02*
X2006800D01*
X1983200Y1567499D02*
X2006800D01*
X1983200Y1567139D02*
X2006800D01*
X1983200Y1566779D02*
X2006800D01*
X1983200Y1566419D02*
X2006800D01*
X1983200Y1566059D02*
X2006800D01*
X1956700Y1588639D02*
X1978300D01*
X1956700Y1588279D02*
X1978300D01*
X1956700Y1587919D02*
X1978300D01*
X1956700Y1587559D02*
X1978300D01*
X1956700Y1587199D02*
X1978300D01*
X1956700Y1586839D02*
X1978300D01*
X1956700Y1586479D02*
X1978300D01*
X1956700Y1586119D02*
X1978300D01*
X1956700Y1585759D02*
X1978300D01*
X1956700Y1585399D02*
X1978300D01*
X1956700Y1585039D02*
X1978300D01*
X1956700Y1584679D02*
X1978300D01*
X1956700Y1584319D02*
X1978300D01*
X1956700Y1583959D02*
X1978300D01*
X1956700Y1583599D02*
X1978300D01*
X1956700Y1583239D02*
X1978300D01*
X1956700Y1582879D02*
X1978300D01*
X1956700Y1582519D02*
X1978300D01*
X1956700Y1582159D02*
X1978300D01*
X1956700Y1581799D02*
X1978300D01*
X1956700Y1581439D02*
X1978300D01*
X1956700Y1581079D02*
X1978300D01*
X1956700Y1580719D02*
X1978300D01*
X1956700Y1580359D02*
X1978300D01*
X1956700Y1579999D02*
X1978300D01*
X1956700Y1579639D02*
X1978300D01*
X1956700Y1579279D02*
X1978300D01*
X1956700Y1578919D02*
X1978300D01*
X1956700Y1578559D02*
X1978300D01*
X1995000Y1597139D02*
X1997700D01*
X1995000Y1596779D02*
X1997700D01*
X1995000Y1596419D02*
X1997700D01*
X1995000Y1596059D02*
X1997700D01*
X1993200Y1587619D02*
X1995800D01*
X1993200Y1587259D02*
X1995800D01*
X1993200Y1586899D02*
X1995800D01*
X1993200Y1586539D02*
X1995800D01*
X1993200Y1586179D02*
X1995800D01*
X1993200Y1585819D02*
X1995800D01*
X1993200Y1585459D02*
X1995800D01*
X1993200Y1585099D02*
X1995800D01*
X1983200Y1584739D02*
X1995800D01*
X1983200Y1584379D02*
X1995800D01*
X1983200Y1584019D02*
X1995800D01*
X1983200Y1583659D02*
X1995800D01*
X1983200Y1583299D02*
X1995800D01*
X1983200Y1582939D02*
X1995800D01*
X1983200Y1582579D02*
X1995800D01*
X1983200Y1582219D02*
X1995800D01*
X1983200Y1581859D02*
X1995800D01*
X1983200Y1581499D02*
X1995800D01*
X1983200Y1581139D02*
X1995800D01*
X1983200Y1580779D02*
X1995800D01*
X1983200Y1580419D02*
X1995800D01*
X1983200Y1580059D02*
X1995800D01*
X1990500Y1599139D02*
X1992900D01*
X1990500Y1598779D02*
X1992900D01*
X1990500Y1598419D02*
X1992900D01*
X1990500Y1598059D02*
X1992900D01*
X1987200Y1628699D02*
X1996800D01*
X1987200Y1628339D02*
X1996800D01*
X1987200Y1627979D02*
X1996800D01*
X1987200Y1627619D02*
X1996800D01*
X1987200Y1627259D02*
X1996800D01*
X1987200Y1626899D02*
X1996800D01*
X1987200Y1626539D02*
X1996800D01*
X1987200Y1626179D02*
X1996800D01*
X1987200Y1625819D02*
X1996800D01*
X1987200Y1625459D02*
X1996800D01*
X1987200Y1625099D02*
X1996800D01*
X1987200Y1624739D02*
X1996800D01*
X1987200Y1624379D02*
X1996800D01*
X1987200Y1624019D02*
X1996800D01*
X1987200Y1623659D02*
X1996800D01*
X1987200Y1623299D02*
X1996800D01*
X1987200Y1622939D02*
X1996800D01*
X1987200Y1622579D02*
X1996800D01*
X1987200Y1622219D02*
X1996800D01*
X1987200Y1621859D02*
X1996800D01*
X1987200Y1621499D02*
X1996800D01*
X1987200Y1621139D02*
X1996800D01*
X1987200Y1620779D02*
X1996800D01*
X1987200Y1620419D02*
X1996800D01*
X1987200Y1620059D02*
X1996800D01*
X1990700Y1595139D02*
X1992800D01*
X1990700Y1594779D02*
X1992800D01*
X1990700Y1594419D02*
X1992800D01*
X1990700Y1594059D02*
X1992800D01*
X2146200Y1742500D02*
G75*
G03X2146200I-16200J0D01*
G01X2099200Y1719500D02*
G03X2099200I-2200J0D01*
G01X2089700Y1736500D02*
G03X2089700I-4700J0D01*
G01Y1746500D02*
G03X2089700I-4700J0D01*
G01X2077700Y1722500D02*
G03X2077700I-2200J0D01*
G01X2079700Y1736500D02*
G03X2079700I-4700J0D01*
G01Y1746500D02*
G03X2079700I-4700J0D01*
G01X2069700Y1736500D02*
G03X2069700I-4700J0D01*
G01Y1746500D02*
G03X2069700I-4700J0D01*
G01X2059700Y1736500D02*
G03X2059700I-4700J0D01*
G01Y1746500D02*
G03X2059700I-4700J0D01*
G01X2049700Y1736500D02*
G03X2049700I-4700J0D01*
G01Y1746500D02*
G03X2049700I-4700J0D01*
G01X2039700Y1736500D02*
G03X2039700I-4700J0D01*
G01Y1746500D02*
G03X2039700I-4700J0D01*
G01X2029700D02*
G03X2029700I-4700J0D01*
G01X2016200Y1610000D02*
G03X2016200I-2200J0D01*
G01X1965700Y1745500D02*
G03X1965700I-2200J0D01*
G01X1931200Y1728500D02*
G03X1931200I-2200J0D01*
G01X1925700Y1740500D02*
G03X1925700I-2200J0D01*
G01X1875200Y1719000D02*
G03X1875200I-5200J0D01*
G01X1886200Y1742500D02*
G03X1886200I-16200J0D01*
G01Y1482500D02*
G03X1886200I-16200J0D01*
G01X2135200Y1506500D02*
G03X2135200I-5200J0D01*
G01X2105200Y1558500D02*
G03X2105200I-2200J0D01*
G01X2008700Y1499000D02*
G03X2008700I-2200J0D01*
G01X1992200Y1474500D02*
G03X1992200I-2200J0D01*
G01X1922200Y1590500D02*
G03X1922200I-2200J0D01*
G01X1946700Y1616500D02*
G03X1946700I-2200J0D01*
G01X1943200Y1629000D02*
G03X1943200I-2200J0D01*
G01X2147300Y1592900D02*
Y1759600D01*
G03X2147100Y1759800I-200J-0*
G01X1852900*
G03X1852700Y1759600I0J-200*
G01Y1691900*
G03X1852900Y1691700I200J0*
G01X1904591*
X1933031Y1659268*
G03X1933181Y1659200I150J132*
G01X1997700*
Y1618287*
G03X1997759Y1618146I200J0*
G01X1998702Y1617202*
X1999200Y1616000D02*
G03X1998702Y1617202I-1700J0D01*
G01X1999200Y1616000D02*
Y1609824D01*
G03X1999450Y1609630I200J-0*
G01X2002170Y1607863D02*
G03X1999450Y1609630I-2170J-363D01*
G01X2002170Y1607863D02*
G03X2002378Y1607697I197J33D01*
G01X2004140Y1604034D02*
G03X2002378Y1607697I-1640J1466D01*
G01X2004140Y1604034D02*
G03X2004101Y1603968I149J-134D01*
G01X2003702Y1603338D02*
G03X2004101Y1603968I-1202J1202D01*
G01X2003702Y1603338D02*
X2003196Y1602831D01*
G03X2003137Y1602690I141J-141*
G01Y1602110*
X2003130Y1601956D02*
G03X2003137Y1602110I-1693J154D01*
G01X2003130Y1601956D02*
G03X2003129Y1601937I199J-19D01*
G01Y1601353*
G03X2003329Y1601153I200J-0*
G01X2006257*
G03X2006444Y1601282I-0J200*
G01X2010408Y1599405D02*
G03X2006444Y1601282I-1908J1095D01*
G01X2010408Y1599405D02*
G03X2010450Y1599155I174J-100D01*
G01X2009811Y1595455D02*
G03X2010450Y1599155I-811J2045D01*
G01X2009811Y1595455D02*
G03X2009686Y1595247I74J-186D01*
G01Y1594753D02*
G03Y1595247I-2186J247D01*
G01Y1594753D02*
G03X2009811Y1594545I199J-22D01*
G01X2011169Y1592867D02*
G03X2009811Y1594545I-2169J-367D01*
G01X2011169Y1592867D02*
G03X2011366Y1592700I197J33D01*
G01X2113600*
G03X2113800Y1592900I-0J200*
G01Y1595500*
X2115000Y1596700D02*
G03X2113800Y1595500I0J-1200D01*
G01X2115000Y1596700D02*
X2130000D01*
X2131200Y1595500D02*
G03X2130000Y1596700I-1200J0D01*
G01X2131200Y1595500D02*
Y1592900D01*
G03X2131400Y1592700I200J0*
G01X2147100*
G03X2147300Y1592900I-0J200*
G01X1998380Y1596416D02*
G03Y1596584I-181J84D01*
G01X1998268Y1597091D02*
G03X1998380Y1596584I1201J-0D01*
G01X1998268Y1597091D02*
Y1597456D01*
G03X1998253Y1597532I-200J-0*
G01X1998100Y1598291D02*
G03X1998253Y1597532I2000J9D01*
G01X1998100Y1598291D02*
G03Y1598300I-200J-1D01*
Y1598309I-200J10*
G01X1998199Y1598921D02*
G03X1998100Y1598309I1901J-621D01*
G01X1998199Y1598921D02*
G03X1997893Y1599146I-190J62D01*
G01X1997795Y1599081D02*
G03X1997893Y1599146I-995J1619D01*
G01X1997795Y1599081D02*
G03X1997700Y1598911I105J-170D01*
G01Y1598310*
G03Y1598300I200J-0*
Y1598290I200J-10*
G01Y1594510*
G03Y1594500I200J-0*
Y1594490I200J-10*
G01Y1593569*
G03X1997900Y1593369I200J0*
G01X1997992*
X1998058Y1593368D02*
G03X1997992Y1593369I-66J-1199D01*
G01X1998058Y1593368D02*
G03X1998268Y1593567I10J199D01*
G01Y1593656*
G03X1998253Y1593732I-200J-0*
G01X1998100Y1594491D02*
G03X1998253Y1593732I2000J9D01*
G01X1998100Y1594491D02*
G03Y1594500I-200J-1D01*
Y1594509I-200J10*
G01X1998253Y1595268D02*
G03X1998100Y1594509I1847J-768D01*
G01X1998253Y1595268D02*
G03X1998268Y1595344I-185J76D01*
G01Y1595909*
X1998380Y1596416D02*
G03X1998268Y1595909I1089J-507D01*
G01X1913800Y1465400D02*
Y1596100D01*
G03X1913600Y1596300I-200J0*
G01X1852900*
G03X1852700Y1596100I0J-200*
G01Y1465400*
G03X1852900Y1465200I200J0*
G01X1913600*
G03X1913800Y1465400I0J200*
G01X1995800Y1606966D02*
Y1611100D01*
G03X1995600Y1611300I-200J0*
G01X1993400*
G03X1993200Y1611100I0J-200*
G01Y1605785*
G03X1993253Y1605649I200J-0*
G01X1993680Y1604759D02*
G03X1993253Y1605649I-1680J-259D01*
G01X1993680Y1604759D02*
G03X1993878Y1604590I198J31D01*
G01X1994055*
X1995255Y1603390D02*
G03X1994055Y1604590I-1200J-0D01*
G01X1995255Y1603390D02*
Y1602283D01*
G03X1995256Y1602265I200J0*
G01Y1601956D02*
G03Y1602265I-1693J154D01*
G01Y1601956D02*
G03X1995255Y1601937I199J-19D01*
G01Y1601512*
G03X1995313Y1601372I200J0*
G01X1995458Y1601225*
G03X1995800Y1601366I142J141*
G01Y1604034*
G03X1995758Y1604156I-200J-0*
G01Y1606844D02*
G03Y1604156I1742J-1344D01*
G01Y1606844D02*
G03X1995800Y1606966I-158J122D01*
G01X2147300Y1466900D02*
Y1596100D01*
G03X2147100Y1596300I-200J0*
G01X2131265*
G03X2131084Y1596014I-0J-200*
G01X2131200Y1595500D02*
G03X2131084Y1596014I-1200J0D01*
G01X2131200Y1595500D02*
Y1587500D01*
X2130000Y1586300D02*
G03X2131200Y1587500I0J1200D01*
G01X2130000Y1586300D02*
X2115000D01*
X2113800Y1587500D02*
G03X2115000Y1586300I1200J0D01*
G01X2113800Y1587500D02*
Y1595500D01*
X2113916Y1596014D02*
G03X2113800Y1595500I1084J-514D01*
G01X2113916Y1596014D02*
G03X2113735Y1596300I-181J86D01*
G01X2077900*
G03X2077700Y1596100I0J-200*
G01Y1466900*
G03X2077900Y1466700I200J0*
G01X2124940*
G03X2125002Y1467090I0J200*
G01X2134998D02*
G03X2125002I-4998J15410D01*
G01X2134998D02*
G03X2135060Y1466700I62J-190D01*
G01X2147100*
G03X2147300Y1466900I-0J200*
G01X1992800Y1597408D02*
Y1598688D01*
G03X1992657Y1598879I-200J-0*
G01X1991536Y1599783D02*
G03X1992657Y1598879I1664J917D01*
G01X1991536Y1599783D02*
G03X1991414Y1599879I-175J-96D01*
G01X1990258Y1603344D02*
G03X1991414Y1599879I1742J-1344D01*
G01X1990258Y1603344D02*
G03X1990300Y1603466I-158J122D01*
G01Y1603600*
G03X1990100Y1603800I-200J-0*
G01X1989250*
X1988050Y1605000D02*
G03X1989250Y1603800I1200J0D01*
G01X1988050Y1605000D02*
Y1606100D01*
G03X1987850Y1606300I-200J0*
G01X1950400*
G03X1950200Y1606100I0J-200*
G01Y1596900*
G03X1950400Y1596700I200J0*
G01X1988034*
G03X1988156Y1596742I-0J200*
G01X1989682Y1597192D02*
G03X1988156Y1596742I-182J-2192D01*
G01X1989682Y1597192D02*
G03X1989731Y1597194I17J200D01*
G01X1990000Y1597216D02*
G03X1989731Y1597194I0J-1700D01*
G01X1990000Y1597216D02*
X1991890D01*
X1992044Y1597209D02*
G03X1991890Y1597216I-154J-1693D01*
G01X1992044Y1597209D02*
G03X1992063Y1597208I19J199D01*
G01X1992600*
G03X1992800Y1597408I0J200*
G01X2076051Y1465200D02*
G03X2076208Y1465524I-0J200D01*
G01X2075800Y1466700D02*
G03X2076208Y1465524I1900J0D01*
G01X2075800Y1466700D02*
Y1590600D01*
G03X2075600Y1590800I-200J-0*
G01X2016324*
G03X2016130Y1590550I-0J-200*
G01X2011870D02*
G03X2016130I2130J-550D01*
G01X2011870D02*
G03X2011676Y1590800I-194J50D01*
G01X2010466*
G03X2010344Y1590758I0J-200*
G01X2007656D02*
G03X2010344I1344J1742D01*
G01X2007656D02*
G03X2007534Y1590800I-122J-158D01*
G01X2003337*
G03X2003137Y1590600I0J-200*
G01Y1590350*
G03X2003196Y1590209I200J0*
G01X2003665Y1589739*
G03X2003781Y1589682I142J141*
G01X2002106Y1585798D02*
G03X2003781Y1589682I1394J1702D01*
G01X2002106Y1585798D02*
G03X2001815Y1585756I-126J-155D01*
G01X1998075Y1585935D02*
G03X2001815Y1585756I1925J1065D01*
G01X1998075Y1585935D02*
G03X1997700Y1585838I-175J-97D01*
G01Y1579900*
G03X1997900Y1579700I200J0*
G01X2006800*
X2008700Y1577800D02*
G03X2006800Y1579700I-1900J0D01*
G01X2008700Y1577800D02*
Y1565700D01*
X2006800Y1563800D02*
G03X2008700Y1565700I0J1900D01*
G01X2006800Y1563800D02*
X1996900D01*
G03X1996700Y1563600I0J-200*
G01Y1465400*
G03X1996900Y1465200I200J0*
G01X2076051*
X1997768Y1588933D02*
Y1590604D01*
G03X1997581Y1590804I-200J0*
G01X1997457Y1590816D02*
G03X1997581Y1590804I243J1884D01*
G01X1997457Y1590816D02*
G03X1997232Y1590617I-25J-199D01*
G01Y1589122*
G03X1997276Y1588996I200J0*
G01X1997400Y1588825D02*
G03X1997276Y1588996I-1600J-1025D01*
G01X1997400Y1588825D02*
G03X1997768Y1588933I168J108D01*
G01X1994800Y1465400D02*
Y1563600D01*
G03X1994600Y1563800I-200J-0*
G01X1983200*
X1981300Y1565700D02*
G03X1983200Y1563800I1900J0D01*
G01X1981300Y1565700D02*
Y1577800D01*
X1981506Y1578660D02*
G03X1981300Y1577800I1694J-860D01*
G01X1981506Y1578660D02*
G03Y1578840I-179J90D01*
G01X1981300Y1579700D02*
G03X1981506Y1578840I1900J0D01*
G01X1981300Y1579700D02*
Y1584800D01*
X1982697Y1586632D02*
G03X1981300Y1584800I503J-1832D01*
G01X1982697Y1586632D02*
G03X1982800Y1586700I-53J193D01*
G01X1983191*
X1983192*
X1983200D02*
G03X1983192I0J-1900D01*
G01X1983200D02*
X1987850D01*
G03X1988050Y1586900I-0J200*
G01Y1588000*
X1989250Y1589200D02*
G03X1988050Y1588000I0J-1200D01*
G01X1989250Y1589200D02*
X1989576D01*
G03X1989755Y1589311I-0J200*
G01X1989824Y1589449*
G03X1989841Y1589577I-179J89*
G01X1991713Y1592181D02*
G03X1989841Y1589577I287J-2181D01*
G01X1991713Y1592181D02*
G03X1991884Y1592349I-26J198D01*
G01X1992470Y1593208D02*
G03X1991884Y1592349I601J-1039D01*
G01X1992470Y1593208D02*
G03X1992510Y1593239I-100J173D01*
G01X1992740Y1593464*
G03X1992800Y1593606I-140J142*
G01Y1594600*
G03X1992600Y1594800I-200J-0*
G01X1950200*
X1948379Y1596157D02*
G03X1950200Y1594800I1821J543D01*
G01X1948379Y1596157D02*
G03X1948188Y1596300I-191J-57D01*
G01X1915900*
G03X1915700Y1596100I0J-200*
G01Y1465400*
G03X1915900Y1465200I200J0*
G01X1994600*
G03X1994800Y1465400I-0J200*
G01X1995800Y1606966D02*
Y1615213D01*
G03X1995741Y1615354I-200J-0*
G01X1995354Y1615741*
G03X1995213Y1615800I-141J-141*
G01X1987787*
G03X1987646Y1615741I0J-200*
G01X1986759Y1614854*
G03X1986700Y1614713I141J-141*
G01Y1612862*
G03X1986840Y1612671I200J-0*
G01X1987676Y1611528D02*
G03X1986839Y1612671I-1200J-0D01*
G01X1987676Y1611528D02*
Y1608400D01*
G03X1987876Y1608200I200J0*
G01X1992800*
X1994621Y1606843D02*
G03X1992800Y1608200I-1821J-543D01*
G01X1994621Y1606843D02*
G03X1994812Y1606700I191J57D01*
G01X1995551*
G03X1995713Y1606783I-0J200*
G01X1995758Y1606844D02*
G03X1995713Y1606783I1742J-1344D01*
G01X1995758Y1606844D02*
G03X1995800Y1606966I-158J122D01*
G01Y1630900D02*
Y1657100D01*
G03X1995600Y1657300I-200J-0*
G01X1933091*
X1931662Y1657947D02*
G03X1933091Y1657300I1429J1253D01*
G01X1931662Y1657947D02*
X1903789Y1689732D01*
G03X1903639Y1689800I-150J-132*
G01X1852900*
G03X1852700Y1689600I0J-200*
G01Y1598400*
G03X1852900Y1598200I200J0*
G01X1913800*
X1913981Y1598191D02*
G03X1913800Y1598200I-181J-1891D01*
G01X1913981Y1598191D02*
G03X1914019I19J199D01*
G01X1914200Y1598200D02*
G03X1914019Y1598191I0J-1900D01*
G01X1914200Y1598200D02*
X1948100D01*
G03X1948300Y1598400I-0J200*
G01Y1606300*
X1950200Y1608200D02*
G03X1948300Y1606300I0J-1900D01*
G01X1950200Y1608200D02*
X1982124D01*
G03X1982324Y1608400I-0J200*
G01Y1611528*
X1983160Y1612671D02*
G03X1982324Y1611528I364J-1143D01*
G01X1983160Y1612671D02*
G03X1983300Y1612862I-60J191D01*
G01Y1615500*
X1983798Y1616702D02*
G03X1983300Y1615500I1202J-1202D01*
G01X1983798Y1616702D02*
X1985553Y1618457D01*
G03X1985582Y1618704I-141J142*
G01X1985300Y1619700D02*
G03X1985582Y1618704I1900J0D01*
G01X1985300Y1619700D02*
Y1628800D01*
X1987200Y1630700D02*
G03X1985300Y1628800I0J-1900D01*
G01X1987200Y1630700D02*
X1995600D01*
G03X1995800Y1630900I-0J200*
G01X2131200Y1615500D02*
Y1607500D01*
X2130000Y1606300D02*
G03X2131200Y1607500I0J1200D01*
G01X2130000Y1606300D02*
X2115000D01*
X2113800Y1607500D02*
G03X2115000Y1606300I1200J0D01*
G01X2113800Y1607500D02*
Y1615500D01*
X2115000Y1616700D02*
G03X2113800Y1615500I0J-1200D01*
G01X2115000Y1616700D02*
X2130000D01*
X2131200Y1615500D02*
G03X2130000Y1616700I-1200J0D01*
G01X2131200Y1635500D02*
Y1627500D01*
X2130000Y1626300D02*
G03X2131200Y1627500I0J1200D01*
G01X2130000Y1626300D02*
X2115000D01*
X2113800Y1627500D02*
G03X2115000Y1626300I1200J0D01*
G01X2113800Y1627500D02*
Y1635500D01*
X2115000Y1636700D02*
G03X2113800Y1635500I0J-1200D01*
G01X2115000Y1636700D02*
X2130000D01*
X2131200Y1635500D02*
G03X2130000Y1636700I-1200J0D01*
G01X2131200Y1655500D02*
Y1647500D01*
X2130000Y1646300D02*
G03X2131200Y1647500I0J1200D01*
G01X2130000Y1646300D02*
X2115000D01*
X2113800Y1647500D02*
G03X2115000Y1646300I1200J0D01*
G01X2113800Y1647500D02*
Y1655500D01*
X2115000Y1656700D02*
G03X2113800Y1655500I0J-1200D01*
G01X2115000Y1656700D02*
X2130000D01*
X2131200Y1655500D02*
G03X2130000Y1656700I-1200J0D01*
G01X2146200Y1742500D02*
G03X2146200I-16200J0D01*
G01X2099200Y1719500D02*
G03X2099200I-2200J0D01*
G01X2083700Y1675500D02*
Y1667500D01*
X2082500Y1666300D02*
G03X2083700Y1667500I0J1200D01*
G01X2082500Y1666300D02*
X2067500D01*
X2066300Y1667500D02*
G03X2067500Y1666300I1200J0D01*
G01X2066300Y1667500D02*
Y1675500D01*
X2067500Y1676700D02*
G03X2066300Y1675500I0J-1200D01*
G01X2067500Y1676700D02*
X2082500D01*
X2083700Y1675500D02*
G03X2082500Y1676700I-1200J0D01*
G01X2089700Y1736500D02*
G03X2089700I-4700J0D01*
G01Y1746500D02*
G03X2089700I-4700J0D01*
G01X2077700Y1722500D02*
G03X2077700I-2200J0D01*
G01X2079700Y1736500D02*
G03X2079700I-4700J0D01*
G01Y1746500D02*
G03X2079700I-4700J0D01*
G01X2061200Y1675500D02*
Y1667500D01*
X2060000Y1666300D02*
G03X2061200Y1667500I0J1200D01*
G01X2060000Y1666300D02*
X2045000D01*
X2043800Y1667500D02*
G03X2045000Y1666300I1200J0D01*
G01X2043800Y1667500D02*
Y1675500D01*
X2045000Y1676700D02*
G03X2043800Y1675500I0J-1200D01*
G01X2045000Y1676700D02*
X2060000D01*
X2061200Y1675500D02*
G03X2060000Y1676700I-1200J0D01*
G01X2069700Y1736500D02*
G03X2069700I-4700J0D01*
G01Y1746500D02*
G03X2069700I-4700J0D01*
G01X2059700Y1736500D02*
G03X2059700I-4700J0D01*
G01Y1746500D02*
G03X2059700I-4700J0D01*
G01X2049700Y1736500D02*
G03X2049700I-4700J0D01*
G01Y1746500D02*
G03X2049700I-4700J0D01*
G01X2038700Y1675500D02*
Y1667500D01*
X2037500Y1666300D02*
G03X2038700Y1667500I0J1200D01*
G01X2037500Y1666300D02*
X2022500D01*
X2021300Y1667500D02*
G03X2022500Y1666300I1200J0D01*
G01X2021300Y1667500D02*
Y1675500D01*
X2022500Y1676700D02*
G03X2021300Y1675500I0J-1200D01*
G01X2022500Y1676700D02*
X2037500D01*
X2038700Y1675500D02*
G03X2037500Y1676700I-1200J0D01*
G01X2039700Y1736500D02*
G03X2039700I-4700J0D01*
G01Y1746500D02*
G03X2039700I-4700J0D01*
G01X2029700Y1739500D02*
Y1733500D01*
X2028000Y1731800D02*
G03X2029700Y1733500I0J1700D01*
G01X2028000Y1731800D02*
X2022000D01*
X2020300Y1733500D02*
G03X2022000Y1731800I1700J0D01*
G01X2020300Y1733500D02*
Y1739500D01*
X2022000Y1741200D02*
G03X2020300Y1739500I0J-1700D01*
G01X2022000Y1741200D02*
X2028000D01*
X2029700Y1739500D02*
G03X2028000Y1741200I-1700J0D01*
G01X2029700Y1746500D02*
G03X2029700I-4700J0D01*
G01X2016200Y1610000D02*
G03X2016200I-2200J0D01*
G01Y1675500D02*
Y1667500D01*
X2015000Y1666300D02*
G03X2016200Y1667500I0J1200D01*
G01X2015000Y1666300D02*
X2000000D01*
X1998800Y1667500D02*
G03X2000000Y1666300I1200J0D01*
G01X1998800Y1667500D02*
Y1675500D01*
X2000000Y1676700D02*
G03X1998800Y1675500I0J-1200D01*
G01X2000000Y1676700D02*
X2015000D01*
X2016200Y1675500D02*
G03X2015000Y1676700I-1200J0D01*
G01X1993700Y1675500D02*
Y1667500D01*
X1992500Y1666300D02*
G03X1993700Y1667500I0J1200D01*
G01X1992500Y1666300D02*
X1977500D01*
X1976300Y1667500D02*
G03X1977500Y1666300I1200J0D01*
G01X1976300Y1667500D02*
Y1675500D01*
X1977500Y1676700D02*
G03X1976300Y1675500I0J-1200D01*
G01X1977500Y1676700D02*
X1992500D01*
X1993700Y1675500D02*
G03X1992500Y1676700I-1200J0D01*
G01X1989700Y1748000D02*
Y1742000D01*
X1988671Y1740438D02*
G03X1989700Y1742000I-671J1562D01*
G01X1988671Y1740438D02*
G03X1988597Y1740125I79J-184D01*
G01X1987781Y1733311D02*
G03X1988597Y1740125I-2781J3789D01*
G01X1987781Y1733311D02*
G03Y1732989I119J-161D01*
G01X1982219D02*
G03X1987781I2781J-3789D01*
G01X1982219D02*
G03Y1733311I-119J161D01*
G01X1981403Y1740125D02*
G03X1982219Y1733311I3597J-3025D01*
G01X1981403Y1740125D02*
G03X1981329Y1740438I-153J129D01*
G01X1980300Y1742000D02*
G03X1981329Y1740438I1700J0D01*
G01X1980300Y1742000D02*
Y1748000D01*
X1982000Y1749700D02*
G03X1980300Y1748000I0J-1700D01*
G01X1982000Y1749700D02*
X1988000D01*
X1989700Y1748000D02*
G03X1988000Y1749700I-1700J0D01*
G01X1968700Y1675500D02*
Y1667500D01*
X1967500Y1666300D02*
G03X1968700Y1667500I0J1200D01*
G01X1967500Y1666300D02*
X1952500D01*
X1951300Y1667500D02*
G03X1952500Y1666300I1200J0D01*
G01X1951300Y1667500D02*
Y1675500D01*
X1952500Y1676700D02*
G03X1951300Y1675500I0J-1200D01*
G01X1952500Y1676700D02*
X1967500D01*
X1968700Y1675500D02*
G03X1967500Y1676700I-1200J0D01*
G01X1965700Y1745500D02*
G03X1965700I-2200J0D01*
G01X1946200Y1675500D02*
Y1667500D01*
X1945000Y1666300D02*
G03X1946200Y1667500I0J1200D01*
G01X1945000Y1666300D02*
X1930000D01*
X1928800Y1667500D02*
G03X1930000Y1666300I1200J0D01*
G01X1928800Y1667500D02*
Y1675500D01*
X1930000Y1676700D02*
G03X1928800Y1675500I0J-1200D01*
G01X1930000Y1676700D02*
X1945000D01*
X1946200Y1675500D02*
G03X1945000Y1676700I-1200J0D01*
G01X1944700Y1748000D02*
Y1742000D01*
X1943671Y1740438D02*
G03X1944700Y1742000I-671J1562D01*
G01X1943671Y1740438D02*
G03X1943597Y1740125I79J-184D01*
G01X1942781Y1733311D02*
G03X1943597Y1740125I-2781J3789D01*
G01X1942781Y1733311D02*
G03Y1732989I119J-161D01*
G01X1937219D02*
G03X1942781I2781J-3789D01*
G01X1937219D02*
G03Y1733311I-119J161D01*
G01X1936403Y1740125D02*
G03X1937219Y1733311I3597J-3025D01*
G01X1936403Y1740125D02*
G03X1936329Y1740438I-153J129D01*
G01X1935300Y1742000D02*
G03X1936329Y1740438I1700J0D01*
G01X1935300Y1742000D02*
Y1748000D01*
X1937000Y1749700D02*
G03X1935300Y1748000I0J-1700D01*
G01X1937000Y1749700D02*
X1943000D01*
X1944700Y1748000D02*
G03X1943000Y1749700I-1700J0D01*
G01X1931200Y1728500D02*
G03X1931200I-2200J0D01*
G01X1925700Y1740500D02*
G03X1925700I-2200J0D01*
G01X1875200Y1719000D02*
G03X1875200I-5200J0D01*
G01X1886200Y1742500D02*
G03X1886200I-16200J0D01*
G01Y1482500D02*
G03X1886200I-16200J0D01*
G01X2135200Y1506500D02*
G03X2135200I-5200J0D01*
G01X2131200Y1555500D02*
Y1547500D01*
X2130000Y1546300D02*
G03X2131200Y1547500I0J1200D01*
G01X2130000Y1546300D02*
X2115000D01*
X2113800Y1547500D02*
G03X2115000Y1546300I1200J0D01*
G01X2113800Y1547500D02*
Y1555500D01*
X2115000Y1556700D02*
G03X2113800Y1555500I0J-1200D01*
G01X2115000Y1556700D02*
X2130000D01*
X2131200Y1555500D02*
G03X2130000Y1556700I-1200J0D01*
G01X2131200Y1575500D02*
Y1567500D01*
X2130000Y1566300D02*
G03X2131200Y1567500I0J1200D01*
G01X2130000Y1566300D02*
X2115000D01*
X2113800Y1567500D02*
G03X2115000Y1566300I1200J0D01*
G01X2113800Y1567500D02*
Y1575500D01*
X2115000Y1576700D02*
G03X2113800Y1575500I0J-1200D01*
G01X2115000Y1576700D02*
X2130000D01*
X2131200Y1575500D02*
G03X2130000Y1576700I-1200J0D01*
G01X2105200Y1558500D02*
G03X2105200I-2200J0D01*
G01X2008700Y1499000D02*
G03X2008700I-2200J0D01*
G01X1992200Y1474500D02*
G03X1992200I-2200J0D01*
G01X1980200Y1588800D02*
Y1578200D01*
X1978300Y1576300D02*
G03X1980200Y1578200I0J1900D01*
G01X1978300Y1576300D02*
X1956700D01*
X1954800Y1578200D02*
G03X1956700Y1576300I1900J0D01*
G01X1954800Y1578200D02*
Y1588800D01*
X1956700Y1590700D02*
G03X1954800Y1588800I0J-1900D01*
G01X1956700Y1590700D02*
X1978300D01*
X1980200Y1588800D02*
G03X1978300Y1590700I-1900J0D01*
G01X1922200Y1590500D02*
G03X1922200I-2200J0D01*
G01X1946700Y1616500D02*
G03X1946700I-2200J0D01*
G01X1943200Y1629000D02*
G03X1943200I-2200J0D01*
G01X1997700Y1596659D02*
X1998349D01*
X1997700Y1596299D02*
X1998333D01*
X1997700Y1597019D02*
X1998271D01*
X1997700Y1595939D02*
X1998269D01*
X1997700Y1597379D02*
X1998268D01*
X1997700Y1595579D02*
X1998268D01*
X1997700Y1593779D02*
X1998235D01*
X1997700Y1595219D02*
X1998234D01*
X1997768Y1593419D02*
X1998202D01*
X1997700Y1597739D02*
X1998180D01*
X1997700Y1598819D02*
X1998168D01*
X1997700Y1594139D02*
X1998133D01*
X1997700Y1594859D02*
X1998132D01*
X1997700Y1598099D02*
X1998110D01*
X1997700Y1598459D02*
X1998106D01*
X1997700Y1594499D02*
X1998100D01*
X1997969Y1599179D02*
X1998048D01*
X1852700Y1759379D02*
X2147300D01*
X1852700Y1759019D02*
X2147300D01*
X2131157Y1758659D02*
X2147300D01*
X2133584Y1758299D02*
X2147300D01*
X2134908Y1757939D02*
X2147300D01*
X2135922Y1757579D02*
X2147300D01*
X2136768Y1757219D02*
X2147300D01*
X2137501Y1756859D02*
X2147300D01*
X2138153Y1756499D02*
X2147300D01*
X2138742Y1756139D02*
X2147300D01*
X2139280Y1755779D02*
X2147300D01*
X2139775Y1755419D02*
X2147300D01*
X2140233Y1755059D02*
X2147300D01*
X2140660Y1754699D02*
X2147300D01*
X2141058Y1754339D02*
X2147300D01*
X2141432Y1753979D02*
X2147300D01*
X2141782Y1753619D02*
X2147300D01*
X2142112Y1753259D02*
X2147300D01*
X2142422Y1752899D02*
X2147300D01*
X2142715Y1752539D02*
X2147300D01*
X2142991Y1752179D02*
X2147300D01*
X2143252Y1751819D02*
X2147300D01*
X2143498Y1751459D02*
X2147300D01*
X2143730Y1751099D02*
X2147300D01*
X2143949Y1750739D02*
X2147300D01*
X2144155Y1750379D02*
X2147300D01*
X2144350Y1750019D02*
X2147300D01*
X2144533Y1749659D02*
X2147300D01*
X2144704Y1749299D02*
X2147300D01*
X2144866Y1748939D02*
X2147300D01*
X2145016Y1748579D02*
X2147300D01*
X2145157Y1748219D02*
X2147300D01*
X2145288Y1747859D02*
X2147300D01*
X2145410Y1747499D02*
X2147300D01*
X2145522Y1747139D02*
X2147300D01*
X2145625Y1746779D02*
X2147300D01*
X2145719Y1746419D02*
X2147300D01*
X2145804Y1746059D02*
X2147300D01*
X2145881Y1745699D02*
X2147300D01*
X2145949Y1745339D02*
X2147300D01*
X2146009Y1744979D02*
X2147300D01*
X2146061Y1744619D02*
X2147300D01*
X2146104Y1744259D02*
X2147300D01*
X2146140Y1743899D02*
X2147300D01*
X2146167Y1743539D02*
X2147300D01*
X2146186Y1743179D02*
X2147300D01*
X2146197Y1742819D02*
X2147300D01*
X2146200Y1742459D02*
X2147300D01*
X2146195Y1742099D02*
X2147300D01*
X2146182Y1741739D02*
X2147300D01*
X2146161Y1741379D02*
X2147300D01*
X2146132Y1741019D02*
X2147300D01*
X2146095Y1740659D02*
X2147300D01*
X2146050Y1740299D02*
X2147300D01*
X2145996Y1739939D02*
X2147300D01*
X2145934Y1739579D02*
X2147300D01*
X2145864Y1739219D02*
X2147300D01*
X2145785Y1738859D02*
X2147300D01*
X2145698Y1738499D02*
X2147300D01*
X2145602Y1738139D02*
X2147300D01*
X2145497Y1737779D02*
X2147300D01*
X2145382Y1737419D02*
X2147300D01*
X2145259Y1737059D02*
X2147300D01*
X2145126Y1736699D02*
X2147300D01*
X2144983Y1736339D02*
X2147300D01*
X2144829Y1735979D02*
X2147300D01*
X2144666Y1735619D02*
X2147300D01*
X2144492Y1735259D02*
X2147300D01*
X2144306Y1734899D02*
X2147300D01*
X2144109Y1734539D02*
X2147300D01*
X2143900Y1734179D02*
X2147300D01*
X2143678Y1733819D02*
X2147300D01*
X2143442Y1733459D02*
X2147300D01*
X2143193Y1733099D02*
X2147300D01*
X2142929Y1732739D02*
X2147300D01*
X2142649Y1732379D02*
X2147300D01*
X2142352Y1732019D02*
X2147300D01*
X2142038Y1731659D02*
X2147300D01*
X2141703Y1731299D02*
X2147300D01*
X2141348Y1730939D02*
X2147300D01*
X2140969Y1730579D02*
X2147300D01*
X2140565Y1730219D02*
X2147300D01*
X2140131Y1729859D02*
X2147300D01*
X2139665Y1729499D02*
X2147300D01*
X2139161Y1729139D02*
X2147300D01*
X2138612Y1728779D02*
X2147300D01*
X2138010Y1728419D02*
X2147300D01*
X2137341Y1728059D02*
X2147300D01*
X2136585Y1727699D02*
X2147300D01*
X2135707Y1727339D02*
X2147300D01*
X2134640Y1726979D02*
X2147300D01*
X2133198Y1726619D02*
X2147300D01*
X1988666Y1726259D02*
X2147300D01*
X1988345Y1725899D02*
X2147300D01*
X1987947Y1725539D02*
X2147300D01*
X1987433Y1725179D02*
X2147300D01*
X1986701Y1724819D02*
X2147300D01*
X2076502Y1724459D02*
X2147300D01*
X2077011Y1724099D02*
X2147300D01*
X2077318Y1723739D02*
X2147300D01*
X2077517Y1723379D02*
X2147300D01*
X2077638Y1723019D02*
X2147300D01*
X2077694Y1722659D02*
X2147300D01*
X2077691Y1722299D02*
X2147300D01*
X2077627Y1721939D02*
X2147300D01*
X2097721Y1721579D02*
X2147300D01*
X2098373Y1721219D02*
X2147300D01*
X2098730Y1720859D02*
X2147300D01*
X2098960Y1720499D02*
X2147300D01*
X2099105Y1720139D02*
X2147300D01*
X2099182Y1719779D02*
X2147300D01*
X2099199Y1719419D02*
X2147300D01*
X2099155Y1719059D02*
X2147300D01*
X2099049Y1718699D02*
X2147300D01*
X2098869Y1718339D02*
X2147300D01*
X2098589Y1717979D02*
X2147300D01*
X2098141Y1717619D02*
X2147300D01*
X1874900Y1717259D02*
X2147300D01*
X1874757Y1716899D02*
X2147300D01*
X1874581Y1716539D02*
X2147300D01*
X1874368Y1716179D02*
X2147300D01*
X1874113Y1715819D02*
X2147300D01*
X1873808Y1715459D02*
X2147300D01*
X1873438Y1715099D02*
X2147300D01*
X1872980Y1714739D02*
X2147300D01*
X1872384Y1714379D02*
X2147300D01*
X1871492Y1714019D02*
X2147300D01*
X1852700Y1713659D02*
X2147300D01*
X1852700Y1713299D02*
X2147300D01*
X1852700Y1712939D02*
X2147300D01*
X1852700Y1712579D02*
X2147300D01*
X1852700Y1712219D02*
X2147300D01*
X1852700Y1711859D02*
X2147300D01*
X1852700Y1711499D02*
X2147300D01*
X1852700Y1711139D02*
X2147300D01*
X1852700Y1710779D02*
X2147300D01*
X1852700Y1710419D02*
X2147300D01*
X1852700Y1710059D02*
X2147300D01*
X1852700Y1709699D02*
X2147300D01*
X1852700Y1709339D02*
X2147300D01*
X1852700Y1708979D02*
X2147300D01*
X1852700Y1708619D02*
X2147300D01*
X1852700Y1708259D02*
X2147300D01*
X1852700Y1707899D02*
X2147300D01*
X1852700Y1707539D02*
X2147300D01*
X1852700Y1707179D02*
X2147300D01*
X1852700Y1706819D02*
X2147300D01*
X1852700Y1706459D02*
X2147300D01*
X1852700Y1706099D02*
X2147300D01*
X1852700Y1705739D02*
X2147300D01*
X1852700Y1705379D02*
X2147300D01*
X1852700Y1705019D02*
X2147300D01*
X1852700Y1704659D02*
X2147300D01*
X1852700Y1704299D02*
X2147300D01*
X1852700Y1703939D02*
X2147300D01*
X1852700Y1703579D02*
X2147300D01*
X1852700Y1703219D02*
X2147300D01*
X1852700Y1702859D02*
X2147300D01*
X1852700Y1702499D02*
X2147300D01*
X1852700Y1702139D02*
X2147300D01*
X1852700Y1701779D02*
X2147300D01*
X1852700Y1701419D02*
X2147300D01*
X1852700Y1701059D02*
X2147300D01*
X1852700Y1700699D02*
X2147300D01*
X1852700Y1700339D02*
X2147300D01*
X1852700Y1699979D02*
X2147300D01*
X1852700Y1699619D02*
X2147300D01*
X1852700Y1699259D02*
X2147300D01*
X1852700Y1698899D02*
X2147300D01*
X1852700Y1698539D02*
X2147300D01*
X1852700Y1698179D02*
X2147300D01*
X1852700Y1697819D02*
X2147300D01*
X1852700Y1697459D02*
X2147300D01*
X1852700Y1697099D02*
X2147300D01*
X1852700Y1696739D02*
X2147300D01*
X1852700Y1696379D02*
X2147300D01*
X1852700Y1696019D02*
X2147300D01*
X1852700Y1695659D02*
X2147300D01*
X1852700Y1695299D02*
X2147300D01*
X1852700Y1694939D02*
X2147300D01*
X1852700Y1694579D02*
X2147300D01*
X1852700Y1694219D02*
X2147300D01*
X1852700Y1693859D02*
X2147300D01*
X1852700Y1693499D02*
X2147300D01*
X1852700Y1693139D02*
X2147300D01*
X1852700Y1692779D02*
X2147300D01*
X1852700Y1692419D02*
X2147300D01*
X1852700Y1692059D02*
X2147300D01*
X1904592Y1691699D02*
X2147300D01*
X1904907Y1691339D02*
X2147300D01*
X1905223Y1690979D02*
X2147300D01*
X1905539Y1690619D02*
X2147300D01*
X1905855Y1690259D02*
X2147300D01*
X1906170Y1689899D02*
X2147300D01*
X1906486Y1689539D02*
X2147300D01*
X1906802Y1689179D02*
X2147300D01*
X1907117Y1688819D02*
X2147300D01*
X1907433Y1688459D02*
X2147300D01*
X1907749Y1688099D02*
X2147300D01*
X1908064Y1687739D02*
X2147300D01*
X1908380Y1687379D02*
X2147300D01*
X1908696Y1687019D02*
X2147300D01*
X1909011Y1686659D02*
X2147300D01*
X1909327Y1686299D02*
X2147300D01*
X1909643Y1685939D02*
X2147300D01*
X1909959Y1685579D02*
X2147300D01*
X1910274Y1685219D02*
X2147300D01*
X1910590Y1684859D02*
X2147300D01*
X1910906Y1684499D02*
X2147300D01*
X1911221Y1684139D02*
X2147300D01*
X1911537Y1683779D02*
X2147300D01*
X1911853Y1683419D02*
X2147300D01*
X1912168Y1683059D02*
X2147300D01*
X1912484Y1682699D02*
X2147300D01*
X1912800Y1682339D02*
X2147300D01*
X1913115Y1681979D02*
X2147300D01*
X1913431Y1681619D02*
X2147300D01*
X1913747Y1681259D02*
X2147300D01*
X1914063Y1680899D02*
X2147300D01*
X1914378Y1680539D02*
X2147300D01*
X1914694Y1680179D02*
X2147300D01*
X1915010Y1679819D02*
X2147300D01*
X1915325Y1679459D02*
X2147300D01*
X1915641Y1679099D02*
X2147300D01*
X1915957Y1678739D02*
X2147300D01*
X1916272Y1678379D02*
X2147300D01*
X1916588Y1678019D02*
X2147300D01*
X1916904Y1677659D02*
X2147300D01*
X1917219Y1677299D02*
X2147300D01*
X1917535Y1676939D02*
X2147300D01*
X2083026Y1676579D02*
X2147300D01*
X2083461Y1676219D02*
X2147300D01*
X2083645Y1675859D02*
X2147300D01*
X2083700Y1675499D02*
X2147300D01*
X2083700Y1675139D02*
X2147300D01*
X2083700Y1674779D02*
X2147300D01*
X2083700Y1674419D02*
X2147300D01*
X2083700Y1674059D02*
X2147300D01*
X2083700Y1673699D02*
X2147300D01*
X2083700Y1673339D02*
X2147300D01*
X2083700Y1672979D02*
X2147300D01*
X2083700Y1672619D02*
X2147300D01*
X2083700Y1672259D02*
X2147300D01*
X2083700Y1671899D02*
X2147300D01*
X2083700Y1671539D02*
X2147300D01*
X2083700Y1671179D02*
X2147300D01*
X2083700Y1670819D02*
X2147300D01*
X2083700Y1670459D02*
X2147300D01*
X2083700Y1670099D02*
X2147300D01*
X2083700Y1669739D02*
X2147300D01*
X2083700Y1669379D02*
X2147300D01*
X2083700Y1669019D02*
X2147300D01*
X2083700Y1668659D02*
X2147300D01*
X2083700Y1668299D02*
X2147300D01*
X2083700Y1667939D02*
X2147300D01*
X2083700Y1667579D02*
X2147300D01*
X2083667Y1667219D02*
X2147300D01*
X2083514Y1666859D02*
X2147300D01*
X2083161Y1666499D02*
X2147300D01*
X1927006Y1666139D02*
X2147300D01*
X1927322Y1665779D02*
X2147300D01*
X1927637Y1665419D02*
X2147300D01*
X1927953Y1665059D02*
X2147300D01*
X1928269Y1664699D02*
X2147300D01*
X1928584Y1664339D02*
X2147300D01*
X1928900Y1663979D02*
X2147300D01*
X1929216Y1663619D02*
X2147300D01*
X1929531Y1663259D02*
X2147300D01*
X1929847Y1662899D02*
X2147300D01*
X1930163Y1662539D02*
X2147300D01*
X1930479Y1662179D02*
X2147300D01*
X1930794Y1661819D02*
X2147300D01*
X1931110Y1661459D02*
X2147300D01*
X1931426Y1661099D02*
X2147300D01*
X1931741Y1660739D02*
X2147300D01*
X1932057Y1660379D02*
X2147300D01*
X1932373Y1660019D02*
X2147300D01*
X1932688Y1659659D02*
X2147300D01*
X1933004Y1659299D02*
X2147300D01*
X1997700Y1658939D02*
X2147300D01*
X1997700Y1658579D02*
X2147300D01*
X1997700Y1658219D02*
X2147300D01*
X1997700Y1657859D02*
X2147300D01*
X1997700Y1657499D02*
X2147300D01*
X1997700Y1657139D02*
X2147300D01*
X1997700Y1656779D02*
X2147300D01*
X2130772Y1656419D02*
X2147300D01*
X2131062Y1656059D02*
X2147300D01*
X2131183Y1655699D02*
X2147300D01*
X2131200Y1655339D02*
X2147300D01*
X2131200Y1654979D02*
X2147300D01*
X2131200Y1654619D02*
X2147300D01*
X2131200Y1654259D02*
X2147300D01*
X2131200Y1653899D02*
X2147300D01*
X2131200Y1653539D02*
X2147300D01*
X2131200Y1653179D02*
X2147300D01*
X2131200Y1652819D02*
X2147300D01*
X2131200Y1652459D02*
X2147300D01*
X2131200Y1652099D02*
X2147300D01*
X2131200Y1651739D02*
X2147300D01*
X2131200Y1651379D02*
X2147300D01*
X2131200Y1651019D02*
X2147300D01*
X2131200Y1650659D02*
X2147300D01*
X2131200Y1650299D02*
X2147300D01*
X2131200Y1649939D02*
X2147300D01*
X2131200Y1649579D02*
X2147300D01*
X2131200Y1649219D02*
X2147300D01*
X2131200Y1648859D02*
X2147300D01*
X2131200Y1648499D02*
X2147300D01*
X2131200Y1648139D02*
X2147300D01*
X2131200Y1647779D02*
X2147300D01*
X2131197Y1647419D02*
X2147300D01*
X2131116Y1647059D02*
X2147300D01*
X2130893Y1646699D02*
X2147300D01*
X2130302Y1646339D02*
X2147300D01*
X1997700Y1645979D02*
X2147300D01*
X1997700Y1645619D02*
X2147300D01*
X1997700Y1645259D02*
X2147300D01*
X1997700Y1644899D02*
X2147300D01*
X1997700Y1644539D02*
X2147300D01*
X1997700Y1644179D02*
X2147300D01*
X1997700Y1643819D02*
X2147300D01*
X1997700Y1643459D02*
X2147300D01*
X1997700Y1643099D02*
X2147300D01*
X1997700Y1642739D02*
X2147300D01*
X1997700Y1642379D02*
X2147300D01*
X1997700Y1642019D02*
X2147300D01*
X1997700Y1641659D02*
X2147300D01*
X1997700Y1641299D02*
X2147300D01*
X1997700Y1640939D02*
X2147300D01*
X1997700Y1640579D02*
X2147300D01*
X1997700Y1640219D02*
X2147300D01*
X1997700Y1639859D02*
X2147300D01*
X1997700Y1639499D02*
X2147300D01*
X1997700Y1639139D02*
X2147300D01*
X1997700Y1638779D02*
X2147300D01*
X1997700Y1638419D02*
X2147300D01*
X1997700Y1638059D02*
X2147300D01*
X1997700Y1637699D02*
X2147300D01*
X1997700Y1637339D02*
X2147300D01*
X1997700Y1636979D02*
X2147300D01*
X2130434Y1636619D02*
X2147300D01*
X2130930Y1636259D02*
X2147300D01*
X2131132Y1635899D02*
X2147300D01*
X2131199Y1635539D02*
X2147300D01*
X2131200Y1635179D02*
X2147300D01*
X2131200Y1634819D02*
X2147300D01*
X2131200Y1634459D02*
X2147300D01*
X2131200Y1634099D02*
X2147300D01*
X2131200Y1633739D02*
X2147300D01*
X2131200Y1633379D02*
X2147300D01*
X2131200Y1633019D02*
X2147300D01*
X2131200Y1632659D02*
X2147300D01*
X2131200Y1632299D02*
X2147300D01*
X2131200Y1631939D02*
X2147300D01*
X2131200Y1631579D02*
X2147300D01*
X2131200Y1631219D02*
X2147300D01*
X2131200Y1630859D02*
X2147300D01*
X2131200Y1630499D02*
X2147300D01*
X2131200Y1630139D02*
X2147300D01*
X2131200Y1629779D02*
X2147300D01*
X2131200Y1629419D02*
X2147300D01*
X2131200Y1629059D02*
X2147300D01*
X2131200Y1628699D02*
X2147300D01*
X2131200Y1628339D02*
X2147300D01*
X2131200Y1627979D02*
X2147300D01*
X2131200Y1627619D02*
X2147300D01*
X2131176Y1627259D02*
X2147300D01*
X2131038Y1626899D02*
X2147300D01*
X2130718Y1626539D02*
X2147300D01*
X1997700Y1626179D02*
X2147300D01*
X1997700Y1625819D02*
X2147300D01*
X1997700Y1625459D02*
X2147300D01*
X1997700Y1625099D02*
X2147300D01*
X1997700Y1624739D02*
X2147300D01*
X1997700Y1624379D02*
X2147300D01*
X1997700Y1624019D02*
X2147300D01*
X1997700Y1623659D02*
X2147300D01*
X1997700Y1623299D02*
X2147300D01*
X1997700Y1622939D02*
X2147300D01*
X1997700Y1622579D02*
X2147300D01*
X1997700Y1622219D02*
X2147300D01*
X1997700Y1621859D02*
X2147300D01*
X1997700Y1621499D02*
X2147300D01*
X1997700Y1621139D02*
X2147300D01*
X1997700Y1620779D02*
X2147300D01*
X1997700Y1620419D02*
X2147300D01*
X1997700Y1620059D02*
X2147300D01*
X1997700Y1619699D02*
X2147300D01*
X1997700Y1619339D02*
X2147300D01*
X1997700Y1618979D02*
X2147300D01*
X1997700Y1618619D02*
X2147300D01*
X1997702Y1618259D02*
X2147300D01*
X1998006Y1617899D02*
X2147300D01*
X1998366Y1617539D02*
X2147300D01*
X1998725Y1617179D02*
X2147300D01*
X1998990Y1616819D02*
X2147300D01*
X2130722Y1616459D02*
X2147300D01*
X2131040Y1616099D02*
X2147300D01*
X2131176Y1615739D02*
X2147300D01*
X2131200Y1615379D02*
X2147300D01*
X2131200Y1615019D02*
X2147300D01*
X2131200Y1614659D02*
X2147300D01*
X2131200Y1614299D02*
X2147300D01*
X2131200Y1613939D02*
X2147300D01*
X2131200Y1613579D02*
X2147300D01*
X2131200Y1613219D02*
X2147300D01*
X2131200Y1612859D02*
X2147300D01*
X2131200Y1612499D02*
X2147300D01*
X2131200Y1612139D02*
X2147300D01*
X2131200Y1611779D02*
X2147300D01*
X2131200Y1611419D02*
X2147300D01*
X2131200Y1611059D02*
X2147300D01*
X2131200Y1610699D02*
X2147300D01*
X2131200Y1610339D02*
X2147300D01*
X2131200Y1609979D02*
X2147300D01*
X2131200Y1609619D02*
X2147300D01*
X2131200Y1609259D02*
X2147300D01*
X2131200Y1608899D02*
X2147300D01*
X2131200Y1608539D02*
X2147300D01*
X2131200Y1608179D02*
X2147300D01*
X2131200Y1607819D02*
X2147300D01*
X2131199Y1607459D02*
X2147300D01*
X2131131Y1607099D02*
X2147300D01*
X2130928Y1606739D02*
X2147300D01*
X2130427Y1606379D02*
X2147300D01*
X2004638Y1606019D02*
X2147300D01*
X2004694Y1605659D02*
X2147300D01*
X2004691Y1605299D02*
X2147300D01*
X2004627Y1604939D02*
X2147300D01*
X2004498Y1604579D02*
X2147300D01*
X2004288Y1604219D02*
X2147300D01*
X2004058Y1603859D02*
X2147300D01*
X2003844Y1603499D02*
X2147300D01*
X2003503Y1603139D02*
X2147300D01*
X2003158Y1602779D02*
X2147300D01*
X2009576Y1602419D02*
X2147300D01*
X2010053Y1602059D02*
X2147300D01*
X2010345Y1601699D02*
X2147300D01*
X2010534Y1601339D02*
X2147300D01*
X2010647Y1600979D02*
X2147300D01*
X2010697Y1600619D02*
X2147300D01*
X2010687Y1600259D02*
X2147300D01*
X2010616Y1599899D02*
X2147300D01*
X2010479Y1599539D02*
X2147300D01*
X2010427Y1599179D02*
X2147300D01*
X2010761Y1598819D02*
X2147300D01*
X2010980Y1598459D02*
X2147300D01*
X2011117Y1598099D02*
X2147300D01*
X2011187Y1597739D02*
X2147300D01*
X2011197Y1597379D02*
X2147300D01*
X2011147Y1597019D02*
X2147300D01*
X2130312Y1596659D02*
X2147300D01*
X2130896Y1596299D02*
X2147300D01*
X2131117Y1595939D02*
X2147300D01*
X2131197Y1595579D02*
X2147300D01*
X2131200Y1595219D02*
X2147300D01*
X2131200Y1594859D02*
X2147300D01*
X2131200Y1594499D02*
X2147300D01*
X2131200Y1594139D02*
X2147300D01*
X2131200Y1593779D02*
X2147300D01*
X2131200Y1593419D02*
X2147300D01*
X2131200Y1593059D02*
X2147300D01*
X1852756Y1759739D02*
X2147244D01*
X1871157Y1758659D02*
X2128843D01*
X1988928Y1726619D02*
X2126802D01*
X1873584Y1758299D02*
X2126416D01*
X1989142Y1726979D02*
X2125360D01*
X1874908Y1757939D02*
X2125092D01*
X1989316Y1727339D02*
X2124293D01*
X1875922Y1757579D02*
X2124078D01*
X1989454Y1727699D02*
X2123415D01*
X1876768Y1757219D02*
X2123232D01*
X1989559Y1728059D02*
X2122659D01*
X1877501Y1756859D02*
X2122499D01*
X1989635Y1728419D02*
X2121990D01*
X1878153Y1756499D02*
X2121847D01*
X1989681Y1728779D02*
X2121388D01*
X1878742Y1756139D02*
X2121258D01*
X1989700Y1729139D02*
X2120839D01*
X1879280Y1755779D02*
X2120720D01*
X1989691Y1729499D02*
X2120335D01*
X1879775Y1755419D02*
X2120225D01*
X1989654Y1729859D02*
X2119869D01*
X1880233Y1755059D02*
X2119767D01*
X1989588Y1730219D02*
X2119435D01*
X1880660Y1754699D02*
X2119340D01*
X1989493Y1730579D02*
X2119031D01*
X1881058Y1754339D02*
X2118942D01*
X1989367Y1730939D02*
X2118652D01*
X1881432Y1753979D02*
X2118568D01*
X1989205Y1731299D02*
X2118297D01*
X1881782Y1753619D02*
X2118218D01*
X1989006Y1731659D02*
X2117962D01*
X1882112Y1753259D02*
X2117888D01*
X2086417Y1732019D02*
X2117648D01*
X1882422Y1752899D02*
X2117578D01*
X2087259Y1732379D02*
X2117351D01*
X1882715Y1752539D02*
X2117285D01*
X2087818Y1732739D02*
X2117071D01*
X1882991Y1752179D02*
X2117009D01*
X2088244Y1733099D02*
X2116807D01*
X1883252Y1751819D02*
X2116748D01*
X2088583Y1733459D02*
X2116558D01*
X1883498Y1751459D02*
X2116502D01*
X2088860Y1733819D02*
X2116322D01*
X2085971Y1751099D02*
X2116270D01*
X2089087Y1734179D02*
X2116100D01*
X2087031Y1750739D02*
X2116051D01*
X2089271Y1734539D02*
X2115891D01*
X2087654Y1750379D02*
X2115845D01*
X2089419Y1734899D02*
X2115694D01*
X2088116Y1750019D02*
X2115650D01*
X2089533Y1735259D02*
X2115508D01*
X2088480Y1749659D02*
X2115467D01*
X2089617Y1735619D02*
X2115334D01*
X2088776Y1749299D02*
X2115296D01*
X2089671Y1735979D02*
X2115171D01*
X2089018Y1748939D02*
X2115134D01*
X2089697Y1736339D02*
X2115017D01*
X2089215Y1748579D02*
X2114984D01*
X2089696Y1736699D02*
X2114874D01*
X2089375Y1748219D02*
X2114843D01*
X2089667Y1737059D02*
X2114741D01*
X2089499Y1747859D02*
X2114712D01*
X1997700Y1646339D02*
X2114698D01*
X2011033Y1596659D02*
X2114688D01*
X2089609Y1737419D02*
X2114618D01*
X2089593Y1747499D02*
X2114590D01*
X2004517Y1606379D02*
X2114573D01*
X1997700Y1636619D02*
X2114566D01*
X2089523Y1737779D02*
X2114503D01*
X2089656Y1747139D02*
X2114478D01*
X2089405Y1738139D02*
X2114398D01*
X2089692Y1746779D02*
X2114375D01*
X2089254Y1738499D02*
X2114302D01*
X1997700Y1626539D02*
X2114282D01*
X2089699Y1746419D02*
X2114281D01*
X1999137Y1616459D02*
X2114278D01*
X1997700Y1656419D02*
X2114228D01*
X2089065Y1738859D02*
X2114215D01*
X2089679Y1746059D02*
X2114196D01*
X2088834Y1739219D02*
X2114136D01*
X2089631Y1745699D02*
X2114119D01*
X1997700Y1646699D02*
X2114107D01*
X2010843Y1596299D02*
X2114104D01*
X2004318Y1606739D02*
X2114072D01*
X1997700Y1636259D02*
X2114070D01*
X2088551Y1739579D02*
X2114066D01*
X2089554Y1745339D02*
X2114051D01*
X2088204Y1739939D02*
X2114004D01*
X2089447Y1744979D02*
X2113991D01*
X1997700Y1626899D02*
X2113962D01*
X1999197Y1616099D02*
X2113960D01*
X2087768Y1740299D02*
X2113950D01*
X2089307Y1744619D02*
X2113939D01*
X1997700Y1656059D02*
X2113938D01*
X2087190Y1740659D02*
X2113905D01*
X2089131Y1744259D02*
X2113896D01*
X1997700Y1647059D02*
X2113884D01*
X2010550Y1595939D02*
X2113883D01*
X2004011Y1607099D02*
X2113869D01*
X1997700Y1635899D02*
X2113868D01*
X2086293Y1741019D02*
X2113868D01*
X2088915Y1743899D02*
X2113860D01*
X1989582Y1741379D02*
X2113839D01*
X2088650Y1743539D02*
X2113833D01*
X1997700Y1627259D02*
X2113824D01*
X1999200Y1615739D02*
X2113824D01*
X1989680Y1741739D02*
X2113818D01*
X1997700Y1655699D02*
X2113817D01*
X2088326Y1743179D02*
X2113814D01*
X2086649Y1742099D02*
X2113805D01*
X2087922Y1742819D02*
X2113803D01*
X1997700Y1647419D02*
X2113803D01*
X2010072Y1595579D02*
X2113803D01*
X2003502Y1607459D02*
X2113801D01*
X1997700Y1635539D02*
X2113801D01*
X2087400Y1742459D02*
X2113800D01*
X1997700Y1655339D02*
X2113800D01*
X1997700Y1654979D02*
X2113800D01*
X1997700Y1654619D02*
X2113800D01*
X1997700Y1654259D02*
X2113800D01*
X1997700Y1653899D02*
X2113800D01*
X1997700Y1653539D02*
X2113800D01*
X1997700Y1653179D02*
X2113800D01*
X1997700Y1652819D02*
X2113800D01*
X1997700Y1652459D02*
X2113800D01*
X1997700Y1652099D02*
X2113800D01*
X1997700Y1651739D02*
X2113800D01*
X1997700Y1651379D02*
X2113800D01*
X1997700Y1651019D02*
X2113800D01*
X1997700Y1650659D02*
X2113800D01*
X1997700Y1650299D02*
X2113800D01*
X1997700Y1649939D02*
X2113800D01*
X1997700Y1649579D02*
X2113800D01*
X1997700Y1649219D02*
X2113800D01*
X1997700Y1648859D02*
X2113800D01*
X1997700Y1648499D02*
X2113800D01*
X1997700Y1648139D02*
X2113800D01*
X1997700Y1647779D02*
X2113800D01*
X1997700Y1635179D02*
X2113800D01*
X1997700Y1634819D02*
X2113800D01*
X1997700Y1634459D02*
X2113800D01*
X1997700Y1634099D02*
X2113800D01*
X1997700Y1633739D02*
X2113800D01*
X1997700Y1633379D02*
X2113800D01*
X1997700Y1633019D02*
X2113800D01*
X1997700Y1632659D02*
X2113800D01*
X1997700Y1632299D02*
X2113800D01*
X1997700Y1631939D02*
X2113800D01*
X1997700Y1631579D02*
X2113800D01*
X1997700Y1631219D02*
X2113800D01*
X1997700Y1630859D02*
X2113800D01*
X1997700Y1630499D02*
X2113800D01*
X1997700Y1630139D02*
X2113800D01*
X1997700Y1629779D02*
X2113800D01*
X1997700Y1629419D02*
X2113800D01*
X1997700Y1629059D02*
X2113800D01*
X1997700Y1628699D02*
X2113800D01*
X1997700Y1628339D02*
X2113800D01*
X1997700Y1627979D02*
X2113800D01*
X1997700Y1627619D02*
X2113800D01*
X1999200Y1615379D02*
X2113800D01*
X1999200Y1615019D02*
X2113800D01*
X1999200Y1614659D02*
X2113800D01*
X1999200Y1614299D02*
X2113800D01*
X1999200Y1613939D02*
X2113800D01*
X1999200Y1613579D02*
X2113800D01*
X1999200Y1613219D02*
X2113800D01*
X1999200Y1612859D02*
X2113800D01*
X1999200Y1612499D02*
X2113800D01*
X2014516Y1612139D02*
X2113800D01*
X2015295Y1611779D02*
X2113800D01*
X2015681Y1611419D02*
X2113800D01*
X2015929Y1611059D02*
X2113800D01*
X2016086Y1610699D02*
X2113800D01*
X2016174Y1610339D02*
X2113800D01*
X2016200Y1609979D02*
X2113800D01*
X2016167Y1609619D02*
X2113800D01*
X2016071Y1609259D02*
X2113800D01*
X2015905Y1608899D02*
X2113800D01*
X2015645Y1608539D02*
X2113800D01*
X2015234Y1608179D02*
X2113800D01*
X2014286Y1607819D02*
X2113800D01*
X2009689Y1595219D02*
X2113800D01*
X2009695Y1594859D02*
X2113800D01*
X2009919Y1594499D02*
X2113800D01*
X2010468Y1594139D02*
X2113800D01*
X2010790Y1593779D02*
X2113800D01*
X2010999Y1593419D02*
X2113800D01*
X2011128Y1593059D02*
X2113800D01*
X2077498Y1721579D02*
X2096279D01*
X1875013Y1717619D02*
X2095859D01*
X2077288Y1721219D02*
X2095627D01*
X1875099Y1717979D02*
X2095411D01*
X2076965Y1720859D02*
X2095270D01*
X1875158Y1718339D02*
X2095131D01*
X2076414Y1720499D02*
X2095040D01*
X1875191Y1718699D02*
X2094951D01*
X1875074Y1720139D02*
X2094895D01*
X1875200Y1719059D02*
X2094845D01*
X1875141Y1719779D02*
X2094818D01*
X1875183Y1719419D02*
X2094801D01*
X2075971Y1751099D02*
X2084029D01*
X2076293Y1741019D02*
X2083707D01*
X2076417Y1732019D02*
X2083583D01*
X2076649Y1742099D02*
X2083351D01*
X2077031Y1750739D02*
X2082969D01*
X2077190Y1740659D02*
X2082810D01*
X2077259Y1732379D02*
X2082741D01*
X2077400Y1742459D02*
X2082600D01*
X2077654Y1750379D02*
X2082346D01*
X2077768Y1740299D02*
X2082232D01*
X2077818Y1732739D02*
X2082182D01*
X2077922Y1742819D02*
X2082078D01*
X2078116Y1750019D02*
X2081884D01*
X2078204Y1739939D02*
X2081796D01*
X2078244Y1733099D02*
X2081756D01*
X2078326Y1743179D02*
X2081674D01*
X2078480Y1749659D02*
X2081520D01*
X2078551Y1739579D02*
X2081449D01*
X2078583Y1733459D02*
X2081417D01*
X2078650Y1743539D02*
X2081350D01*
X2078776Y1749299D02*
X2081224D01*
X2078834Y1739219D02*
X2081166D01*
X2078860Y1733819D02*
X2081140D01*
X2078915Y1743899D02*
X2081085D01*
X2079018Y1748939D02*
X2080982D01*
X2079065Y1738859D02*
X2080935D01*
X2079087Y1734179D02*
X2080913D01*
X2079131Y1744259D02*
X2080869D01*
X2079215Y1748579D02*
X2080785D01*
X2079254Y1738499D02*
X2080746D01*
X2079271Y1734539D02*
X2080729D01*
X2079307Y1744619D02*
X2080693D01*
X2079375Y1748219D02*
X2080625D01*
X2079405Y1738139D02*
X2080595D01*
X2079419Y1734899D02*
X2080581D01*
X2079447Y1744979D02*
X2080553D01*
X2079499Y1747859D02*
X2080501D01*
X2079523Y1737779D02*
X2080477D01*
X2079533Y1735259D02*
X2080467D01*
X2079554Y1745339D02*
X2080446D01*
X2079593Y1747499D02*
X2080407D01*
X2079609Y1737419D02*
X2080391D01*
X2079617Y1735619D02*
X2080383D01*
X2079631Y1745699D02*
X2080369D01*
X2079656Y1747139D02*
X2080344D01*
X2079667Y1737059D02*
X2080333D01*
X2079671Y1735979D02*
X2080329D01*
X2079679Y1746059D02*
X2080321D01*
X2079692Y1746779D02*
X2080308D01*
X2079696Y1736699D02*
X2080304D01*
X2079697Y1736339D02*
X2080303D01*
X2079699Y1746419D02*
X2080301D01*
X1874979Y1720499D02*
X2074586D01*
X1852700Y1724459D02*
X2074498D01*
X1874856Y1720859D02*
X2074035D01*
X2065971Y1751099D02*
X2074029D01*
X1871022Y1724099D02*
X2073989D01*
X1874703Y1721219D02*
X2073712D01*
X2066293Y1741019D02*
X2073707D01*
X1872141Y1723739D02*
X2073682D01*
X2066417Y1732019D02*
X2073583D01*
X1874516Y1721579D02*
X2073502D01*
X1872805Y1723379D02*
X2073483D01*
X1874290Y1721939D02*
X2073373D01*
X1873300Y1723019D02*
X2073362D01*
X2066649Y1742099D02*
X2073351D01*
X1874020Y1722299D02*
X2073309D01*
X1873695Y1722659D02*
X2073306D01*
X2067031Y1750739D02*
X2072969D01*
X2067190Y1740659D02*
X2072810D01*
X2067259Y1732379D02*
X2072741D01*
X2067400Y1742459D02*
X2072600D01*
X2067654Y1750379D02*
X2072346D01*
X2067768Y1740299D02*
X2072232D01*
X2067818Y1732739D02*
X2072182D01*
X2067922Y1742819D02*
X2072078D01*
X2068116Y1750019D02*
X2071884D01*
X2068204Y1739939D02*
X2071796D01*
X2068244Y1733099D02*
X2071756D01*
X2068326Y1743179D02*
X2071674D01*
X2068480Y1749659D02*
X2071520D01*
X2068551Y1739579D02*
X2071449D01*
X2068583Y1733459D02*
X2071417D01*
X2068650Y1743539D02*
X2071350D01*
X2068776Y1749299D02*
X2071224D01*
X2068834Y1739219D02*
X2071166D01*
X2068860Y1733819D02*
X2071140D01*
X2068915Y1743899D02*
X2071085D01*
X2069018Y1748939D02*
X2070982D01*
X2069065Y1738859D02*
X2070935D01*
X2069087Y1734179D02*
X2070913D01*
X2069131Y1744259D02*
X2070869D01*
X2069215Y1748579D02*
X2070785D01*
X2069254Y1738499D02*
X2070746D01*
X2069271Y1734539D02*
X2070729D01*
X2069307Y1744619D02*
X2070693D01*
X2069375Y1748219D02*
X2070625D01*
X2069405Y1738139D02*
X2070595D01*
X2069419Y1734899D02*
X2070581D01*
X2069447Y1744979D02*
X2070553D01*
X2069499Y1747859D02*
X2070501D01*
X2069523Y1737779D02*
X2070477D01*
X2069533Y1735259D02*
X2070467D01*
X2069554Y1745339D02*
X2070446D01*
X2069593Y1747499D02*
X2070407D01*
X2069609Y1737419D02*
X2070391D01*
X2069617Y1735619D02*
X2070383D01*
X2069631Y1745699D02*
X2070369D01*
X2069656Y1747139D02*
X2070344D01*
X2069667Y1737059D02*
X2070333D01*
X2069671Y1735979D02*
X2070329D01*
X2069679Y1746059D02*
X2070321D01*
X2069692Y1746779D02*
X2070308D01*
X2069696Y1736699D02*
X2070304D01*
X2069697Y1736339D02*
X2070303D01*
X2069699Y1746419D02*
X2070301D01*
X2060526Y1676579D02*
X2066974D01*
X2060661Y1666499D02*
X2066839D01*
X2060961Y1676219D02*
X2066539D01*
X2061014Y1666859D02*
X2066486D01*
X2061145Y1675859D02*
X2066355D01*
X2061167Y1667219D02*
X2066333D01*
X2061200Y1675499D02*
X2066300D01*
X2061200Y1675139D02*
X2066300D01*
X2061200Y1674779D02*
X2066300D01*
X2061200Y1674419D02*
X2066300D01*
X2061200Y1674059D02*
X2066300D01*
X2061200Y1673699D02*
X2066300D01*
X2061200Y1673339D02*
X2066300D01*
X2061200Y1672979D02*
X2066300D01*
X2061200Y1672619D02*
X2066300D01*
X2061200Y1672259D02*
X2066300D01*
X2061200Y1671899D02*
X2066300D01*
X2061200Y1671539D02*
X2066300D01*
X2061200Y1671179D02*
X2066300D01*
X2061200Y1670819D02*
X2066300D01*
X2061200Y1670459D02*
X2066300D01*
X2061200Y1670099D02*
X2066300D01*
X2061200Y1669739D02*
X2066300D01*
X2061200Y1669379D02*
X2066300D01*
X2061200Y1669019D02*
X2066300D01*
X2061200Y1668659D02*
X2066300D01*
X2061200Y1668299D02*
X2066300D01*
X2061200Y1667939D02*
X2066300D01*
X2061200Y1667579D02*
X2066300D01*
X2055971Y1751099D02*
X2064029D01*
X2056293Y1741019D02*
X2063707D01*
X2056417Y1732019D02*
X2063583D01*
X2056649Y1742099D02*
X2063351D01*
X2057031Y1750739D02*
X2062969D01*
X2057190Y1740659D02*
X2062810D01*
X2057259Y1732379D02*
X2062741D01*
X2057400Y1742459D02*
X2062600D01*
X2057654Y1750379D02*
X2062346D01*
X2057768Y1740299D02*
X2062232D01*
X2057818Y1732739D02*
X2062182D01*
X2057922Y1742819D02*
X2062078D01*
X2058116Y1750019D02*
X2061884D01*
X2058204Y1739939D02*
X2061796D01*
X2058244Y1733099D02*
X2061756D01*
X2058326Y1743179D02*
X2061674D01*
X2058480Y1749659D02*
X2061520D01*
X2058551Y1739579D02*
X2061449D01*
X2058583Y1733459D02*
X2061417D01*
X2058650Y1743539D02*
X2061350D01*
X2058776Y1749299D02*
X2061224D01*
X2058834Y1739219D02*
X2061166D01*
X2058860Y1733819D02*
X2061140D01*
X2058915Y1743899D02*
X2061085D01*
X2059018Y1748939D02*
X2060982D01*
X2059065Y1738859D02*
X2060935D01*
X2059087Y1734179D02*
X2060913D01*
X2059131Y1744259D02*
X2060869D01*
X2059215Y1748579D02*
X2060785D01*
X2059254Y1738499D02*
X2060746D01*
X2059271Y1734539D02*
X2060729D01*
X2059307Y1744619D02*
X2060693D01*
X2059375Y1748219D02*
X2060625D01*
X2059405Y1738139D02*
X2060595D01*
X2059419Y1734899D02*
X2060581D01*
X2059447Y1744979D02*
X2060553D01*
X2059499Y1747859D02*
X2060501D01*
X2059523Y1737779D02*
X2060477D01*
X2059533Y1735259D02*
X2060467D01*
X2059554Y1745339D02*
X2060446D01*
X2059593Y1747499D02*
X2060407D01*
X2059609Y1737419D02*
X2060391D01*
X2059617Y1735619D02*
X2060383D01*
X2059631Y1745699D02*
X2060369D01*
X2059656Y1747139D02*
X2060344D01*
X2059667Y1737059D02*
X2060333D01*
X2059671Y1735979D02*
X2060329D01*
X2059679Y1746059D02*
X2060321D01*
X2059692Y1746779D02*
X2060308D01*
X2059696Y1736699D02*
X2060304D01*
X2059697Y1736339D02*
X2060303D01*
X2059699Y1746419D02*
X2060301D01*
X2045971Y1751099D02*
X2054029D01*
X2046293Y1741019D02*
X2053707D01*
X2046417Y1732019D02*
X2053583D01*
X2046649Y1742099D02*
X2053351D01*
X2047031Y1750739D02*
X2052969D01*
X2047190Y1740659D02*
X2052810D01*
X2047259Y1732379D02*
X2052741D01*
X2047400Y1742459D02*
X2052600D01*
X2047654Y1750379D02*
X2052346D01*
X2047768Y1740299D02*
X2052232D01*
X2047818Y1732739D02*
X2052182D01*
X2047922Y1742819D02*
X2052078D01*
X2048116Y1750019D02*
X2051884D01*
X2048204Y1739939D02*
X2051796D01*
X2048244Y1733099D02*
X2051756D01*
X2048326Y1743179D02*
X2051674D01*
X2048480Y1749659D02*
X2051520D01*
X2048551Y1739579D02*
X2051449D01*
X2048583Y1733459D02*
X2051417D01*
X2048650Y1743539D02*
X2051350D01*
X2048776Y1749299D02*
X2051224D01*
X2048834Y1739219D02*
X2051166D01*
X2048860Y1733819D02*
X2051140D01*
X2048915Y1743899D02*
X2051085D01*
X2049018Y1748939D02*
X2050982D01*
X2049065Y1738859D02*
X2050935D01*
X2049087Y1734179D02*
X2050913D01*
X2049131Y1744259D02*
X2050869D01*
X2049215Y1748579D02*
X2050785D01*
X2049254Y1738499D02*
X2050746D01*
X2049271Y1734539D02*
X2050729D01*
X2049307Y1744619D02*
X2050693D01*
X2049375Y1748219D02*
X2050625D01*
X2049405Y1738139D02*
X2050595D01*
X2049419Y1734899D02*
X2050581D01*
X2049447Y1744979D02*
X2050553D01*
X2049499Y1747859D02*
X2050501D01*
X2049523Y1737779D02*
X2050477D01*
X2049533Y1735259D02*
X2050467D01*
X2049554Y1745339D02*
X2050446D01*
X2049593Y1747499D02*
X2050407D01*
X2049609Y1737419D02*
X2050391D01*
X2049617Y1735619D02*
X2050383D01*
X2049631Y1745699D02*
X2050369D01*
X2049656Y1747139D02*
X2050344D01*
X2049667Y1737059D02*
X2050333D01*
X2049671Y1735979D02*
X2050329D01*
X2049679Y1746059D02*
X2050321D01*
X2049692Y1746779D02*
X2050308D01*
X2049696Y1736699D02*
X2050304D01*
X2049697Y1736339D02*
X2050303D01*
X2049699Y1746419D02*
X2050301D01*
X2038026Y1676579D02*
X2044474D01*
X2038161Y1666499D02*
X2044339D01*
X2038461Y1676219D02*
X2044039D01*
X2035971Y1751099D02*
X2044029D01*
X2038514Y1666859D02*
X2043986D01*
X2038645Y1675859D02*
X2043855D01*
X2038667Y1667219D02*
X2043833D01*
X2038700Y1675499D02*
X2043800D01*
X2038700Y1675139D02*
X2043800D01*
X2038700Y1674779D02*
X2043800D01*
X2038700Y1674419D02*
X2043800D01*
X2038700Y1674059D02*
X2043800D01*
X2038700Y1673699D02*
X2043800D01*
X2038700Y1673339D02*
X2043800D01*
X2038700Y1672979D02*
X2043800D01*
X2038700Y1672619D02*
X2043800D01*
X2038700Y1672259D02*
X2043800D01*
X2038700Y1671899D02*
X2043800D01*
X2038700Y1671539D02*
X2043800D01*
X2038700Y1671179D02*
X2043800D01*
X2038700Y1670819D02*
X2043800D01*
X2038700Y1670459D02*
X2043800D01*
X2038700Y1670099D02*
X2043800D01*
X2038700Y1669739D02*
X2043800D01*
X2038700Y1669379D02*
X2043800D01*
X2038700Y1669019D02*
X2043800D01*
X2038700Y1668659D02*
X2043800D01*
X2038700Y1668299D02*
X2043800D01*
X2038700Y1667939D02*
X2043800D01*
X2038700Y1667579D02*
X2043800D01*
X2036293Y1741019D02*
X2043707D01*
X2036417Y1732019D02*
X2043583D01*
X2036649Y1742099D02*
X2043351D01*
X2037031Y1750739D02*
X2042969D01*
X2037190Y1740659D02*
X2042810D01*
X2037259Y1732379D02*
X2042741D01*
X2037400Y1742459D02*
X2042600D01*
X2037654Y1750379D02*
X2042346D01*
X2037768Y1740299D02*
X2042232D01*
X2037818Y1732739D02*
X2042182D01*
X2037922Y1742819D02*
X2042078D01*
X2038116Y1750019D02*
X2041884D01*
X2038204Y1739939D02*
X2041796D01*
X2038244Y1733099D02*
X2041756D01*
X2038326Y1743179D02*
X2041674D01*
X2038480Y1749659D02*
X2041520D01*
X2038551Y1739579D02*
X2041449D01*
X2038583Y1733459D02*
X2041417D01*
X2038650Y1743539D02*
X2041350D01*
X2038776Y1749299D02*
X2041224D01*
X2038834Y1739219D02*
X2041166D01*
X2038860Y1733819D02*
X2041140D01*
X2038915Y1743899D02*
X2041085D01*
X2039018Y1748939D02*
X2040982D01*
X2039065Y1738859D02*
X2040935D01*
X2039087Y1734179D02*
X2040913D01*
X2039131Y1744259D02*
X2040869D01*
X2039215Y1748579D02*
X2040785D01*
X2039254Y1738499D02*
X2040746D01*
X2039271Y1734539D02*
X2040729D01*
X2039307Y1744619D02*
X2040693D01*
X2039375Y1748219D02*
X2040625D01*
X2039405Y1738139D02*
X2040595D01*
X2039419Y1734899D02*
X2040581D01*
X2039447Y1744979D02*
X2040553D01*
X2039499Y1747859D02*
X2040501D01*
X2039523Y1737779D02*
X2040477D01*
X2039533Y1735259D02*
X2040467D01*
X2039554Y1745339D02*
X2040446D01*
X2039593Y1747499D02*
X2040407D01*
X2039609Y1737419D02*
X2040391D01*
X2039617Y1735619D02*
X2040383D01*
X2039631Y1745699D02*
X2040369D01*
X2039656Y1747139D02*
X2040344D01*
X2039667Y1737059D02*
X2040333D01*
X2039671Y1735979D02*
X2040329D01*
X2039679Y1746059D02*
X2040321D01*
X2039692Y1746779D02*
X2040308D01*
X2039696Y1736699D02*
X2040304D01*
X2039697Y1736339D02*
X2040303D01*
X2039699Y1746419D02*
X2040301D01*
X2025971Y1751099D02*
X2034029D01*
X2028764Y1741019D02*
X2033707D01*
X2028834Y1732019D02*
X2033583D01*
X2026649Y1742099D02*
X2033351D01*
X2027031Y1750739D02*
X2032969D01*
X2029244Y1740659D02*
X2032810D01*
X2029278Y1732379D02*
X2032741D01*
X2027400Y1742459D02*
X2032600D01*
X2027654Y1750379D02*
X2032346D01*
X2029501Y1740299D02*
X2032232D01*
X2029520Y1732739D02*
X2032182D01*
X2027922Y1742819D02*
X2032078D01*
X2028116Y1750019D02*
X2031884D01*
X2029642Y1739939D02*
X2031796D01*
X2029652Y1733099D02*
X2031756D01*
X2028326Y1743179D02*
X2031674D01*
X2028480Y1749659D02*
X2031520D01*
X2029698Y1739579D02*
X2031449D01*
X2029700Y1733459D02*
X2031417D01*
X2028650Y1743539D02*
X2031350D01*
X2028776Y1749299D02*
X2031224D01*
X2029700Y1739219D02*
X2031166D01*
X2029700Y1733819D02*
X2031140D01*
X2028915Y1743899D02*
X2031085D01*
X2029018Y1748939D02*
X2030982D01*
X2029700Y1738859D02*
X2030935D01*
X2029700Y1734179D02*
X2030913D01*
X2029131Y1744259D02*
X2030869D01*
X2029215Y1748579D02*
X2030785D01*
X2029700Y1738499D02*
X2030746D01*
X2029700Y1734539D02*
X2030729D01*
X2029307Y1744619D02*
X2030693D01*
X2029375Y1748219D02*
X2030625D01*
X2029700Y1738139D02*
X2030595D01*
X2029700Y1734899D02*
X2030581D01*
X2029447Y1744979D02*
X2030553D01*
X2029499Y1747859D02*
X2030501D01*
X2029700Y1737779D02*
X2030477D01*
X2029700Y1735259D02*
X2030467D01*
X2029554Y1745339D02*
X2030446D01*
X2029593Y1747499D02*
X2030407D01*
X2029700Y1737419D02*
X2030391D01*
X2029700Y1735619D02*
X2030383D01*
X2029631Y1745699D02*
X2030369D01*
X2029656Y1747139D02*
X2030344D01*
X2029700Y1737059D02*
X2030333D01*
X2029700Y1735979D02*
X2030329D01*
X2029679Y1746059D02*
X2030321D01*
X2029692Y1746779D02*
X2030308D01*
X2029700Y1736699D02*
X2030304D01*
X2029700Y1736339D02*
X2030303D01*
X2029699Y1746419D02*
X2030301D01*
X1883730Y1751099D02*
X2024029D01*
X1989700Y1742099D02*
X2023351D01*
X1883949Y1750739D02*
X2022969D01*
X1989700Y1742459D02*
X2022600D01*
X1884155Y1750379D02*
X2022346D01*
X1989700Y1742819D02*
X2022078D01*
X2015526Y1676579D02*
X2021974D01*
X1884350Y1750019D02*
X2021884D01*
X2015661Y1666499D02*
X2021839D01*
X1989700Y1743179D02*
X2021674D01*
X2015961Y1676219D02*
X2021539D01*
X1988373Y1749659D02*
X2021520D01*
X2016014Y1666859D02*
X2021486D01*
X2016145Y1675859D02*
X2021355D01*
X1989700Y1743539D02*
X2021350D01*
X2016167Y1667219D02*
X2021333D01*
X2016200Y1675499D02*
X2021300D01*
X2016200Y1675139D02*
X2021300D01*
X2016200Y1674779D02*
X2021300D01*
X2016200Y1674419D02*
X2021300D01*
X2016200Y1674059D02*
X2021300D01*
X2016200Y1673699D02*
X2021300D01*
X2016200Y1673339D02*
X2021300D01*
X2016200Y1672979D02*
X2021300D01*
X2016200Y1672619D02*
X2021300D01*
X2016200Y1672259D02*
X2021300D01*
X2016200Y1671899D02*
X2021300D01*
X2016200Y1671539D02*
X2021300D01*
X2016200Y1671179D02*
X2021300D01*
X2016200Y1670819D02*
X2021300D01*
X2016200Y1670459D02*
X2021300D01*
X2016200Y1670099D02*
X2021300D01*
X2016200Y1669739D02*
X2021300D01*
X2016200Y1669379D02*
X2021300D01*
X2016200Y1669019D02*
X2021300D01*
X2016200Y1668659D02*
X2021300D01*
X2016200Y1668299D02*
X2021300D01*
X2016200Y1667939D02*
X2021300D01*
X2016200Y1667579D02*
X2021300D01*
X1989388Y1741019D02*
X2021236D01*
X1989097Y1749299D02*
X2021224D01*
X1988761Y1732019D02*
X2021166D01*
X1989700Y1743899D02*
X2021085D01*
X1989417Y1748939D02*
X2020982D01*
X1989700Y1744259D02*
X2020869D01*
X1989598Y1748579D02*
X2020785D01*
X1989044Y1740659D02*
X2020756D01*
X1988462Y1732379D02*
X2020722D01*
X1989700Y1744619D02*
X2020693D01*
X1989686Y1748219D02*
X2020625D01*
X1989700Y1744979D02*
X2020553D01*
X1989700Y1747859D02*
X2020501D01*
X1988555Y1740299D02*
X2020499D01*
X1988093Y1732739D02*
X2020480D01*
X1989700Y1745339D02*
X2020446D01*
X1989700Y1747499D02*
X2020407D01*
X1989700Y1745699D02*
X2020369D01*
X1988746Y1739939D02*
X2020358D01*
X1987706Y1733099D02*
X2020348D01*
X1989700Y1747139D02*
X2020344D01*
X1989700Y1746059D02*
X2020321D01*
X1989700Y1746779D02*
X2020308D01*
X1988993Y1739579D02*
X2020302D01*
X1989700Y1746419D02*
X2020301D01*
X1987972Y1733459D02*
X2020300D01*
X1989195Y1739219D02*
X2020300D01*
X1989359Y1738859D02*
X2020300D01*
X1989487Y1738499D02*
X2020300D01*
X1989584Y1738139D02*
X2020300D01*
X1989651Y1737779D02*
X2020300D01*
X1989689Y1737419D02*
X2020300D01*
X1989700Y1737059D02*
X2020300D01*
X1989683Y1736699D02*
X2020300D01*
X1989638Y1736339D02*
X2020300D01*
X1989564Y1735979D02*
X2020300D01*
X1989460Y1735619D02*
X2020300D01*
X1989324Y1735259D02*
X2020300D01*
X1989153Y1734899D02*
X2020300D01*
X1988941Y1734539D02*
X2020300D01*
X1988682Y1734179D02*
X2020300D01*
X1988365Y1733819D02*
X2020300D01*
X2002183Y1607819D02*
X2013714D01*
X1999200Y1612139D02*
X2013484D01*
X2002093Y1608179D02*
X2012766D01*
X1999200Y1611779D02*
X2012705D01*
X2001939Y1608539D02*
X2012355D01*
X1999200Y1611419D02*
X2012319D01*
X2001698Y1608899D02*
X2012095D01*
X1999200Y1611059D02*
X2012071D01*
X2001322Y1609259D02*
X2011929D01*
X1999200Y1610699D02*
X2011914D01*
X2000593Y1609619D02*
X2011833D01*
X1999200Y1610339D02*
X2011826D01*
X1999200Y1609979D02*
X2011800D01*
X2003137Y1602419D02*
X2007424D01*
X2003136Y1602059D02*
X2006947D01*
X2003129Y1601699D02*
X2006655D01*
X2003130Y1601339D02*
X2006466D01*
X1993026Y1676579D02*
X1999474D01*
X1993161Y1666499D02*
X1999339D01*
X1993461Y1676219D02*
X1999039D01*
X1993514Y1666859D02*
X1998986D01*
X1993645Y1675859D02*
X1998855D01*
X1993667Y1667219D02*
X1998833D01*
X1993700Y1675499D02*
X1998800D01*
X1993700Y1675139D02*
X1998800D01*
X1993700Y1674779D02*
X1998800D01*
X1993700Y1674419D02*
X1998800D01*
X1993700Y1674059D02*
X1998800D01*
X1993700Y1673699D02*
X1998800D01*
X1993700Y1673339D02*
X1998800D01*
X1993700Y1672979D02*
X1998800D01*
X1993700Y1672619D02*
X1998800D01*
X1993700Y1672259D02*
X1998800D01*
X1993700Y1671899D02*
X1998800D01*
X1993700Y1671539D02*
X1998800D01*
X1993700Y1671179D02*
X1998800D01*
X1993700Y1670819D02*
X1998800D01*
X1993700Y1670459D02*
X1998800D01*
X1993700Y1670099D02*
X1998800D01*
X1993700Y1669739D02*
X1998800D01*
X1993700Y1669379D02*
X1998800D01*
X1993700Y1669019D02*
X1998800D01*
X1993700Y1668659D02*
X1998800D01*
X1993700Y1668299D02*
X1998800D01*
X1993700Y1667939D02*
X1998800D01*
X1993700Y1667579D02*
X1998800D01*
X1941701Y1724819D02*
X1983299D01*
X1942433Y1725179D02*
X1982567D01*
X1942706Y1733099D02*
X1982294D01*
X1942947Y1725539D02*
X1982053D01*
X1942972Y1733459D02*
X1982028D01*
X1943093Y1732739D02*
X1981907D01*
X1943345Y1725899D02*
X1981655D01*
X1943365Y1733819D02*
X1981635D01*
X1943373Y1749659D02*
X1981627D01*
X1943462Y1732379D02*
X1981538D01*
X1943555Y1740299D02*
X1981445D01*
X1943666Y1726259D02*
X1981334D01*
X1943682Y1734179D02*
X1981318D01*
X1943746Y1739939D02*
X1981254D01*
X1943761Y1732019D02*
X1981239D01*
X1943928Y1726619D02*
X1981072D01*
X1943941Y1734539D02*
X1981059D01*
X1943993Y1739579D02*
X1981007D01*
X1944006Y1731659D02*
X1980994D01*
X1944044Y1740659D02*
X1980956D01*
X1944097Y1749299D02*
X1980903D01*
X1944142Y1726979D02*
X1980858D01*
X1944153Y1734899D02*
X1980847D01*
X1944195Y1739219D02*
X1980805D01*
X1944205Y1731299D02*
X1980795D01*
X1944316Y1727339D02*
X1980684D01*
X1944324Y1735259D02*
X1980676D01*
X1944359Y1738859D02*
X1980641D01*
X1944367Y1730939D02*
X1980633D01*
X1944388Y1741019D02*
X1980612D01*
X1944417Y1748939D02*
X1980583D01*
X1944454Y1727699D02*
X1980546D01*
X1944460Y1735619D02*
X1980540D01*
X1944487Y1738499D02*
X1980513D01*
X1944493Y1730579D02*
X1980507D01*
X1944559Y1728059D02*
X1980441D01*
X1944564Y1735979D02*
X1980436D01*
X1944582Y1741379D02*
X1980418D01*
X1944584Y1738139D02*
X1980416D01*
X1944588Y1730219D02*
X1980412D01*
X1944598Y1748579D02*
X1980402D01*
X1944635Y1728419D02*
X1980365D01*
X1944638Y1736339D02*
X1980362D01*
X1944651Y1737779D02*
X1980349D01*
X1944654Y1729859D02*
X1980346D01*
X1944680Y1741739D02*
X1980320D01*
X1944681Y1728779D02*
X1980319D01*
X1944683Y1736699D02*
X1980317D01*
X1944686Y1748219D02*
X1980314D01*
X1944689Y1737419D02*
X1980311D01*
X1944691Y1729499D02*
X1980309D01*
X1944700Y1729139D02*
X1980300D01*
X1944700Y1737059D02*
X1980300D01*
X1944700Y1747859D02*
X1980300D01*
X1964419Y1747499D02*
X1980300D01*
X1964968Y1747139D02*
X1980300D01*
X1965290Y1746779D02*
X1980300D01*
X1965499Y1746419D02*
X1980300D01*
X1965628Y1746059D02*
X1980300D01*
X1965691Y1745699D02*
X1980300D01*
X1965694Y1745339D02*
X1980300D01*
X1965637Y1744979D02*
X1980300D01*
X1965516Y1744619D02*
X1980300D01*
X1965316Y1744259D02*
X1980300D01*
X1965009Y1743899D02*
X1980300D01*
X1964497Y1743539D02*
X1980300D01*
X1944700Y1743179D02*
X1980300D01*
X1944700Y1742819D02*
X1980300D01*
X1944700Y1742459D02*
X1980300D01*
X1944700Y1742099D02*
X1980300D01*
X1968026Y1676579D02*
X1976974D01*
X1968161Y1666499D02*
X1976839D01*
X1968461Y1676219D02*
X1976539D01*
X1968514Y1666859D02*
X1976486D01*
X1968645Y1675859D02*
X1976355D01*
X1968667Y1667219D02*
X1976333D01*
X1968700Y1675499D02*
X1976300D01*
X1968700Y1675139D02*
X1976300D01*
X1968700Y1674779D02*
X1976300D01*
X1968700Y1674419D02*
X1976300D01*
X1968700Y1674059D02*
X1976300D01*
X1968700Y1673699D02*
X1976300D01*
X1968700Y1673339D02*
X1976300D01*
X1968700Y1672979D02*
X1976300D01*
X1968700Y1672619D02*
X1976300D01*
X1968700Y1672259D02*
X1976300D01*
X1968700Y1671899D02*
X1976300D01*
X1968700Y1671539D02*
X1976300D01*
X1968700Y1671179D02*
X1976300D01*
X1968700Y1670819D02*
X1976300D01*
X1968700Y1670459D02*
X1976300D01*
X1968700Y1670099D02*
X1976300D01*
X1968700Y1669739D02*
X1976300D01*
X1968700Y1669379D02*
X1976300D01*
X1968700Y1669019D02*
X1976300D01*
X1968700Y1668659D02*
X1976300D01*
X1968700Y1668299D02*
X1976300D01*
X1968700Y1667939D02*
X1976300D01*
X1968700Y1667579D02*
X1976300D01*
X1944700Y1747499D02*
X1962581D01*
X1944700Y1743539D02*
X1962503D01*
X1944700Y1747139D02*
X1962032D01*
X1944700Y1743899D02*
X1961991D01*
X1944700Y1746779D02*
X1961710D01*
X1944700Y1744259D02*
X1961684D01*
X1944700Y1746419D02*
X1961501D01*
X1944700Y1744619D02*
X1961484D01*
X1944700Y1746059D02*
X1961372D01*
X1944700Y1744979D02*
X1961363D01*
X1944700Y1745699D02*
X1961309D01*
X1944700Y1745339D02*
X1961306D01*
X1945526Y1676579D02*
X1951974D01*
X1945661Y1666499D02*
X1951839D01*
X1945961Y1676219D02*
X1951539D01*
X1946014Y1666859D02*
X1951486D01*
X1946145Y1675859D02*
X1951355D01*
X1946167Y1667219D02*
X1951333D01*
X1946200Y1675499D02*
X1951300D01*
X1946200Y1675139D02*
X1951300D01*
X1946200Y1674779D02*
X1951300D01*
X1946200Y1674419D02*
X1951300D01*
X1946200Y1674059D02*
X1951300D01*
X1946200Y1673699D02*
X1951300D01*
X1946200Y1673339D02*
X1951300D01*
X1946200Y1672979D02*
X1951300D01*
X1946200Y1672619D02*
X1951300D01*
X1946200Y1672259D02*
X1951300D01*
X1946200Y1671899D02*
X1951300D01*
X1946200Y1671539D02*
X1951300D01*
X1946200Y1671179D02*
X1951300D01*
X1946200Y1670819D02*
X1951300D01*
X1946200Y1670459D02*
X1951300D01*
X1946200Y1670099D02*
X1951300D01*
X1946200Y1669739D02*
X1951300D01*
X1946200Y1669379D02*
X1951300D01*
X1946200Y1669019D02*
X1951300D01*
X1946200Y1668659D02*
X1951300D01*
X1946200Y1668299D02*
X1951300D01*
X1946200Y1667939D02*
X1951300D01*
X1946200Y1667579D02*
X1951300D01*
X1852700Y1724819D02*
X1938299D01*
X1852700Y1725179D02*
X1937567D01*
X1883193Y1733099D02*
X1937294D01*
X1852700Y1725539D02*
X1937053D01*
X1883442Y1733459D02*
X1937028D01*
X1882929Y1732739D02*
X1936907D01*
X1852700Y1725899D02*
X1936655D01*
X1883678Y1733819D02*
X1936635D01*
X1884533Y1749659D02*
X1936627D01*
X1882649Y1732379D02*
X1936538D01*
X1925691Y1740299D02*
X1936445D01*
X1852700Y1726259D02*
X1936334D01*
X1883900Y1734179D02*
X1936318D01*
X1925627Y1739939D02*
X1936254D01*
X1882352Y1732019D02*
X1936239D01*
X1930141Y1726619D02*
X1936072D01*
X1884109Y1734539D02*
X1936059D01*
X1925498Y1739579D02*
X1936007D01*
X1882038Y1731659D02*
X1935994D01*
X1925694Y1740659D02*
X1935956D01*
X1884704Y1749299D02*
X1935903D01*
X1930589Y1726979D02*
X1935858D01*
X1884306Y1734899D02*
X1935847D01*
X1925288Y1739219D02*
X1935805D01*
X1881703Y1731299D02*
X1935795D01*
X1930869Y1727339D02*
X1935684D01*
X1884492Y1735259D02*
X1935676D01*
X1924965Y1738859D02*
X1935641D01*
X1881348Y1730939D02*
X1935633D01*
X1925638Y1741019D02*
X1935612D01*
X1884866Y1748939D02*
X1935583D01*
X1931049Y1727699D02*
X1935546D01*
X1884666Y1735619D02*
X1935540D01*
X1924414Y1738499D02*
X1935513D01*
X1929721Y1730579D02*
X1935507D01*
X1931155Y1728059D02*
X1935441D01*
X1884829Y1735979D02*
X1935436D01*
X1925517Y1741379D02*
X1935418D01*
X1885602Y1738139D02*
X1935416D01*
X1930373Y1730219D02*
X1935412D01*
X1885016Y1748579D02*
X1935402D01*
X1931199Y1728419D02*
X1935365D01*
X1884983Y1736339D02*
X1935362D01*
X1885497Y1737779D02*
X1935349D01*
X1930730Y1729859D02*
X1935346D01*
X1925318Y1741739D02*
X1935320D01*
X1931182Y1728779D02*
X1935319D01*
X1885126Y1736699D02*
X1935317D01*
X1885157Y1748219D02*
X1935314D01*
X1885382Y1737419D02*
X1935311D01*
X1930960Y1729499D02*
X1935309D01*
X1931105Y1729139D02*
X1935300D01*
X1885259Y1737059D02*
X1935300D01*
X1885288Y1747859D02*
X1935300D01*
X1885410Y1747499D02*
X1935300D01*
X1885522Y1747139D02*
X1935300D01*
X1885625Y1746779D02*
X1935300D01*
X1885719Y1746419D02*
X1935300D01*
X1885804Y1746059D02*
X1935300D01*
X1885881Y1745699D02*
X1935300D01*
X1885949Y1745339D02*
X1935300D01*
X1886009Y1744979D02*
X1935300D01*
X1886061Y1744619D02*
X1935300D01*
X1886104Y1744259D02*
X1935300D01*
X1886140Y1743899D02*
X1935300D01*
X1886167Y1743539D02*
X1935300D01*
X1886186Y1743179D02*
X1935300D01*
X1886197Y1742819D02*
X1935300D01*
X1924502Y1742459D02*
X1935300D01*
X1925011Y1742099D02*
X1935300D01*
X1917851Y1676579D02*
X1929474D01*
X1926690Y1666499D02*
X1929339D01*
X1918167Y1676219D02*
X1929039D01*
X1926375Y1666859D02*
X1928986D01*
X1918482Y1675859D02*
X1928855D01*
X1926059Y1667219D02*
X1928833D01*
X1918798Y1675499D02*
X1928800D01*
X1919114Y1675139D02*
X1928800D01*
X1919429Y1674779D02*
X1928800D01*
X1919745Y1674419D02*
X1928800D01*
X1920061Y1674059D02*
X1928800D01*
X1920376Y1673699D02*
X1928800D01*
X1920692Y1673339D02*
X1928800D01*
X1921008Y1672979D02*
X1928800D01*
X1921323Y1672619D02*
X1928800D01*
X1921639Y1672259D02*
X1928800D01*
X1921955Y1671899D02*
X1928800D01*
X1922271Y1671539D02*
X1928800D01*
X1922586Y1671179D02*
X1928800D01*
X1922902Y1670819D02*
X1928800D01*
X1923218Y1670459D02*
X1928800D01*
X1923533Y1670099D02*
X1928800D01*
X1923849Y1669739D02*
X1928800D01*
X1924165Y1669379D02*
X1928800D01*
X1924480Y1669019D02*
X1928800D01*
X1924796Y1668659D02*
X1928800D01*
X1925112Y1668299D02*
X1928800D01*
X1925427Y1667939D02*
X1928800D01*
X1925743Y1667579D02*
X1928800D01*
X1880969Y1730579D02*
X1928279D01*
X1873198Y1726619D02*
X1927859D01*
X1880565Y1730219D02*
X1927627D01*
X1874640Y1726979D02*
X1927411D01*
X1880131Y1729859D02*
X1927270D01*
X1875707Y1727339D02*
X1927131D01*
X1879665Y1729499D02*
X1927040D01*
X1876585Y1727699D02*
X1926951D01*
X1879161Y1729139D02*
X1926895D01*
X1877341Y1728059D02*
X1926845D01*
X1878612Y1728779D02*
X1926818D01*
X1878010Y1728419D02*
X1926801D01*
X1885698Y1738499D02*
X1922586D01*
X1886200Y1742459D02*
X1922498D01*
X1885785Y1738859D02*
X1922035D01*
X1886195Y1742099D02*
X1921989D01*
X1885864Y1739219D02*
X1921712D01*
X1886182Y1741739D02*
X1921682D01*
X1885934Y1739579D02*
X1921502D01*
X1886161Y1741379D02*
X1921483D01*
X1885996Y1739939D02*
X1921373D01*
X1886132Y1741019D02*
X1921362D01*
X1886050Y1740299D02*
X1921309D01*
X1886095Y1740659D02*
X1921306D01*
X1852700Y1724099D02*
X1868978D01*
X1852700Y1758659D02*
X1868843D01*
X1852700Y1714019D02*
X1868508D01*
X1852700Y1723739D02*
X1867859D01*
X1852700Y1714379D02*
X1867616D01*
X1852700Y1723379D02*
X1867195D01*
X1852700Y1714739D02*
X1867020D01*
X1852700Y1726619D02*
X1866802D01*
X1852700Y1723019D02*
X1866700D01*
X1852700Y1715099D02*
X1866562D01*
X1852700Y1758299D02*
X1866416D01*
X1852700Y1722659D02*
X1866305D01*
X1852700Y1715459D02*
X1866192D01*
X1852700Y1722299D02*
X1865980D01*
X1852700Y1715819D02*
X1865887D01*
X1852700Y1721939D02*
X1865710D01*
X1852700Y1716179D02*
X1865632D01*
X1852700Y1721579D02*
X1865484D01*
X1852700Y1716539D02*
X1865419D01*
X1852700Y1726979D02*
X1865360D01*
X1852700Y1721219D02*
X1865297D01*
X1852700Y1716899D02*
X1865243D01*
X1852700Y1720859D02*
X1865144D01*
X1852700Y1717259D02*
X1865100D01*
X1852700Y1757939D02*
X1865092D01*
X1852700Y1720499D02*
X1865021D01*
X1852700Y1717619D02*
X1864987D01*
X1852700Y1720139D02*
X1864926D01*
X1852700Y1717979D02*
X1864901D01*
X1852700Y1719779D02*
X1864859D01*
X1852700Y1718339D02*
X1864842D01*
X1852700Y1719419D02*
X1864817D01*
X1852700Y1718699D02*
X1864809D01*
X1852700Y1719059D02*
X1864800D01*
X1852700Y1727339D02*
X1864293D01*
X1852700Y1757579D02*
X1864078D01*
X1852700Y1727699D02*
X1863415D01*
X1852700Y1757219D02*
X1863232D01*
X1852700Y1728059D02*
X1862659D01*
X1852700Y1756859D02*
X1862499D01*
X1852700Y1728419D02*
X1861990D01*
X1852700Y1756499D02*
X1861847D01*
X1852700Y1728779D02*
X1861388D01*
X1852700Y1756139D02*
X1861258D01*
X1852700Y1729139D02*
X1860839D01*
X1852700Y1755779D02*
X1860720D01*
X1852700Y1729499D02*
X1860335D01*
X1852700Y1755419D02*
X1860225D01*
X1852700Y1729859D02*
X1859869D01*
X1852700Y1755059D02*
X1859767D01*
X1852700Y1730219D02*
X1859435D01*
X1852700Y1754699D02*
X1859340D01*
X1852700Y1730579D02*
X1859031D01*
X1852700Y1754339D02*
X1858942D01*
X1852700Y1730939D02*
X1858652D01*
X1852700Y1753979D02*
X1858568D01*
X1852700Y1731299D02*
X1858297D01*
X1852700Y1753619D02*
X1858218D01*
X1852700Y1731659D02*
X1857962D01*
X1852700Y1753259D02*
X1857888D01*
X1852700Y1732019D02*
X1857648D01*
X1852700Y1752899D02*
X1857578D01*
X1852700Y1732379D02*
X1857351D01*
X1852700Y1752539D02*
X1857285D01*
X1852700Y1732739D02*
X1857071D01*
X1852700Y1752179D02*
X1857009D01*
X1852700Y1733099D02*
X1856807D01*
X1852700Y1751819D02*
X1856748D01*
X1852700Y1733459D02*
X1856558D01*
X1852700Y1751459D02*
X1856502D01*
X1852700Y1733819D02*
X1856322D01*
X1852700Y1751099D02*
X1856270D01*
X1852700Y1734179D02*
X1856100D01*
X1852700Y1750739D02*
X1856051D01*
X1852700Y1734539D02*
X1855891D01*
X1852700Y1750379D02*
X1855845D01*
X1852700Y1734899D02*
X1855694D01*
X1852700Y1750019D02*
X1855650D01*
X1852700Y1735259D02*
X1855508D01*
X1852700Y1749659D02*
X1855467D01*
X1852700Y1735619D02*
X1855334D01*
X1852700Y1749299D02*
X1855296D01*
X1852700Y1735979D02*
X1855171D01*
X1852700Y1748939D02*
X1855134D01*
X1852700Y1736339D02*
X1855017D01*
X1852700Y1748579D02*
X1854984D01*
X1852700Y1736699D02*
X1854874D01*
X1852700Y1748219D02*
X1854843D01*
X1852700Y1737059D02*
X1854741D01*
X1852700Y1747859D02*
X1854712D01*
X1852700Y1737419D02*
X1854618D01*
X1852700Y1747499D02*
X1854590D01*
X1852700Y1737779D02*
X1854503D01*
X1852700Y1747139D02*
X1854478D01*
X1852700Y1738139D02*
X1854398D01*
X1852700Y1746779D02*
X1854375D01*
X1852700Y1738499D02*
X1854302D01*
X1852700Y1746419D02*
X1854281D01*
X1852700Y1738859D02*
X1854215D01*
X1852700Y1746059D02*
X1854196D01*
X1852700Y1739219D02*
X1854136D01*
X1852700Y1745699D02*
X1854119D01*
X1852700Y1739579D02*
X1854066D01*
X1852700Y1745339D02*
X1854051D01*
X1852700Y1739939D02*
X1854004D01*
X1852700Y1744979D02*
X1853991D01*
X1852700Y1740299D02*
X1853950D01*
X1852700Y1744619D02*
X1853939D01*
X1852700Y1740659D02*
X1853905D01*
X1852700Y1744259D02*
X1853896D01*
X1852700Y1741019D02*
X1853868D01*
X1852700Y1743899D02*
X1853860D01*
X1852700Y1741379D02*
X1853839D01*
X1852700Y1743539D02*
X1853833D01*
X1852700Y1741739D02*
X1853818D01*
X1852700Y1743179D02*
X1853814D01*
X1852700Y1742099D02*
X1853805D01*
X1852700Y1742819D02*
X1853803D01*
X1852700Y1742459D02*
X1853800D01*
X1852700Y1595879D02*
X1913800D01*
X1852700Y1595519D02*
X1913800D01*
X1852700Y1595159D02*
X1913800D01*
X1852700Y1594799D02*
X1913800D01*
X1852700Y1594439D02*
X1913800D01*
X1852700Y1594079D02*
X1913800D01*
X1852700Y1593719D02*
X1913800D01*
X1852700Y1593359D02*
X1913800D01*
X1852700Y1592999D02*
X1913800D01*
X1852700Y1592639D02*
X1913800D01*
X1852700Y1592279D02*
X1913800D01*
X1852700Y1591919D02*
X1913800D01*
X1852700Y1591559D02*
X1913800D01*
X1852700Y1591199D02*
X1913800D01*
X1852700Y1590839D02*
X1913800D01*
X1852700Y1590479D02*
X1913800D01*
X1852700Y1590119D02*
X1913800D01*
X1852700Y1589759D02*
X1913800D01*
X1852700Y1589399D02*
X1913800D01*
X1852700Y1589039D02*
X1913800D01*
X1852700Y1588679D02*
X1913800D01*
X1852700Y1588319D02*
X1913800D01*
X1852700Y1587959D02*
X1913800D01*
X1852700Y1587599D02*
X1913800D01*
X1852700Y1587239D02*
X1913800D01*
X1852700Y1586879D02*
X1913800D01*
X1852700Y1586519D02*
X1913800D01*
X1852700Y1586159D02*
X1913800D01*
X1852700Y1585799D02*
X1913800D01*
X1852700Y1585439D02*
X1913800D01*
X1852700Y1585079D02*
X1913800D01*
X1852700Y1584719D02*
X1913800D01*
X1852700Y1584359D02*
X1913800D01*
X1852700Y1583999D02*
X1913800D01*
X1852700Y1583639D02*
X1913800D01*
X1852700Y1583279D02*
X1913800D01*
X1852700Y1582919D02*
X1913800D01*
X1852700Y1582559D02*
X1913800D01*
X1852700Y1582199D02*
X1913800D01*
X1852700Y1581839D02*
X1913800D01*
X1852700Y1581479D02*
X1913800D01*
X1852700Y1581119D02*
X1913800D01*
X1852700Y1580759D02*
X1913800D01*
X1852700Y1580399D02*
X1913800D01*
X1852700Y1580039D02*
X1913800D01*
X1852700Y1579679D02*
X1913800D01*
X1852700Y1579319D02*
X1913800D01*
X1852700Y1578959D02*
X1913800D01*
X1852700Y1578599D02*
X1913800D01*
X1852700Y1578239D02*
X1913800D01*
X1852700Y1577879D02*
X1913800D01*
X1852700Y1577519D02*
X1913800D01*
X1852700Y1577159D02*
X1913800D01*
X1852700Y1576799D02*
X1913800D01*
X1852700Y1576439D02*
X1913800D01*
X1852700Y1576079D02*
X1913800D01*
X1852700Y1575719D02*
X1913800D01*
X1852700Y1575359D02*
X1913800D01*
X1852700Y1574999D02*
X1913800D01*
X1852700Y1574639D02*
X1913800D01*
X1852700Y1574279D02*
X1913800D01*
X1852700Y1573919D02*
X1913800D01*
X1852700Y1573559D02*
X1913800D01*
X1852700Y1573199D02*
X1913800D01*
X1852700Y1572839D02*
X1913800D01*
X1852700Y1572479D02*
X1913800D01*
X1852700Y1572119D02*
X1913800D01*
X1852700Y1571759D02*
X1913800D01*
X1852700Y1571399D02*
X1913800D01*
X1852700Y1571039D02*
X1913800D01*
X1852700Y1570679D02*
X1913800D01*
X1852700Y1570319D02*
X1913800D01*
X1852700Y1569959D02*
X1913800D01*
X1852700Y1569599D02*
X1913800D01*
X1852700Y1569239D02*
X1913800D01*
X1852700Y1568879D02*
X1913800D01*
X1852700Y1568519D02*
X1913800D01*
X1852700Y1568159D02*
X1913800D01*
X1852700Y1567799D02*
X1913800D01*
X1852700Y1567439D02*
X1913800D01*
X1852700Y1567079D02*
X1913800D01*
X1852700Y1566719D02*
X1913800D01*
X1852700Y1566359D02*
X1913800D01*
X1852700Y1565999D02*
X1913800D01*
X1852700Y1565639D02*
X1913800D01*
X1852700Y1565279D02*
X1913800D01*
X1852700Y1564919D02*
X1913800D01*
X1852700Y1564559D02*
X1913800D01*
X1852700Y1564199D02*
X1913800D01*
X1852700Y1563839D02*
X1913800D01*
X1852700Y1563479D02*
X1913800D01*
X1852700Y1563119D02*
X1913800D01*
X1852700Y1562759D02*
X1913800D01*
X1852700Y1562399D02*
X1913800D01*
X1852700Y1562039D02*
X1913800D01*
X1852700Y1561679D02*
X1913800D01*
X1852700Y1561319D02*
X1913800D01*
X1852700Y1560959D02*
X1913800D01*
X1852700Y1560599D02*
X1913800D01*
X1852700Y1560239D02*
X1913800D01*
X1852700Y1559879D02*
X1913800D01*
X1852700Y1559519D02*
X1913800D01*
X1852700Y1559159D02*
X1913800D01*
X1852700Y1558799D02*
X1913800D01*
X1852700Y1558439D02*
X1913800D01*
X1852700Y1558079D02*
X1913800D01*
X1852700Y1557719D02*
X1913800D01*
X1852700Y1557359D02*
X1913800D01*
X1852700Y1556999D02*
X1913800D01*
X1852700Y1556639D02*
X1913800D01*
X1852700Y1556279D02*
X1913800D01*
X1852700Y1555919D02*
X1913800D01*
X1852700Y1555559D02*
X1913800D01*
X1852700Y1555199D02*
X1913800D01*
X1852700Y1554839D02*
X1913800D01*
X1852700Y1554479D02*
X1913800D01*
X1852700Y1554119D02*
X1913800D01*
X1852700Y1553759D02*
X1913800D01*
X1852700Y1553399D02*
X1913800D01*
X1852700Y1553039D02*
X1913800D01*
X1852700Y1552679D02*
X1913800D01*
X1852700Y1552319D02*
X1913800D01*
X1852700Y1551959D02*
X1913800D01*
X1852700Y1551599D02*
X1913800D01*
X1852700Y1551239D02*
X1913800D01*
X1852700Y1550879D02*
X1913800D01*
X1852700Y1550519D02*
X1913800D01*
X1852700Y1550159D02*
X1913800D01*
X1852700Y1549799D02*
X1913800D01*
X1852700Y1549439D02*
X1913800D01*
X1852700Y1549079D02*
X1913800D01*
X1852700Y1548719D02*
X1913800D01*
X1852700Y1548359D02*
X1913800D01*
X1852700Y1547999D02*
X1913800D01*
X1852700Y1547639D02*
X1913800D01*
X1852700Y1547279D02*
X1913800D01*
X1852700Y1546919D02*
X1913800D01*
X1852700Y1546559D02*
X1913800D01*
X1852700Y1546199D02*
X1913800D01*
X1852700Y1545839D02*
X1913800D01*
X1852700Y1545479D02*
X1913800D01*
X1852700Y1545119D02*
X1913800D01*
X1852700Y1544759D02*
X1913800D01*
X1852700Y1544399D02*
X1913800D01*
X1852700Y1544039D02*
X1913800D01*
X1852700Y1543679D02*
X1913800D01*
X1852700Y1543319D02*
X1913800D01*
X1852700Y1542959D02*
X1913800D01*
X1852700Y1542599D02*
X1913800D01*
X1852700Y1542239D02*
X1913800D01*
X1852700Y1541879D02*
X1913800D01*
X1852700Y1541519D02*
X1913800D01*
X1852700Y1541159D02*
X1913800D01*
X1852700Y1540799D02*
X1913800D01*
X1852700Y1540439D02*
X1913800D01*
X1852700Y1540079D02*
X1913800D01*
X1852700Y1539719D02*
X1913800D01*
X1852700Y1539359D02*
X1913800D01*
X1852700Y1538999D02*
X1913800D01*
X1852700Y1538639D02*
X1913800D01*
X1852700Y1538279D02*
X1913800D01*
X1852700Y1537919D02*
X1913800D01*
X1852700Y1537559D02*
X1913800D01*
X1852700Y1537199D02*
X1913800D01*
X1852700Y1536839D02*
X1913800D01*
X1852700Y1536479D02*
X1913800D01*
X1852700Y1536119D02*
X1913800D01*
X1852700Y1535759D02*
X1913800D01*
X1852700Y1535399D02*
X1913800D01*
X1852700Y1535039D02*
X1913800D01*
X1852700Y1534679D02*
X1913800D01*
X1852700Y1534319D02*
X1913800D01*
X1852700Y1533959D02*
X1913800D01*
X1852700Y1533599D02*
X1913800D01*
X1852700Y1533239D02*
X1913800D01*
X1852700Y1532879D02*
X1913800D01*
X1852700Y1532519D02*
X1913800D01*
X1852700Y1532159D02*
X1913800D01*
X1852700Y1531799D02*
X1913800D01*
X1852700Y1531439D02*
X1913800D01*
X1852700Y1531079D02*
X1913800D01*
X1852700Y1530719D02*
X1913800D01*
X1852700Y1530359D02*
X1913800D01*
X1852700Y1529999D02*
X1913800D01*
X1852700Y1529639D02*
X1913800D01*
X1852700Y1529279D02*
X1913800D01*
X1852700Y1528919D02*
X1913800D01*
X1852700Y1528559D02*
X1913800D01*
X1852700Y1528199D02*
X1913800D01*
X1852700Y1527839D02*
X1913800D01*
X1852700Y1527479D02*
X1913800D01*
X1852700Y1527119D02*
X1913800D01*
X1852700Y1526759D02*
X1913800D01*
X1852700Y1526399D02*
X1913800D01*
X1852700Y1526039D02*
X1913800D01*
X1852700Y1525679D02*
X1913800D01*
X1852700Y1525319D02*
X1913800D01*
X1852700Y1524959D02*
X1913800D01*
X1852700Y1524599D02*
X1913800D01*
X1852700Y1524239D02*
X1913800D01*
X1852700Y1523879D02*
X1913800D01*
X1852700Y1523519D02*
X1913800D01*
X1852700Y1523159D02*
X1913800D01*
X1852700Y1522799D02*
X1913800D01*
X1852700Y1522439D02*
X1913800D01*
X1852700Y1522079D02*
X1913800D01*
X1852700Y1521719D02*
X1913800D01*
X1852700Y1521359D02*
X1913800D01*
X1852700Y1520999D02*
X1913800D01*
X1852700Y1520639D02*
X1913800D01*
X1852700Y1520279D02*
X1913800D01*
X1852700Y1519919D02*
X1913800D01*
X1852700Y1519559D02*
X1913800D01*
X1852700Y1519199D02*
X1913800D01*
X1852700Y1518839D02*
X1913800D01*
X1852700Y1518479D02*
X1913800D01*
X1852700Y1518119D02*
X1913800D01*
X1852700Y1517759D02*
X1913800D01*
X1852700Y1517399D02*
X1913800D01*
X1852700Y1517039D02*
X1913800D01*
X1852700Y1516679D02*
X1913800D01*
X1852700Y1516319D02*
X1913800D01*
X1852700Y1515959D02*
X1913800D01*
X1852700Y1515599D02*
X1913800D01*
X1852700Y1515239D02*
X1913800D01*
X1852700Y1514879D02*
X1913800D01*
X1852700Y1514519D02*
X1913800D01*
X1852700Y1514159D02*
X1913800D01*
X1852700Y1513799D02*
X1913800D01*
X1852700Y1513439D02*
X1913800D01*
X1852700Y1513079D02*
X1913800D01*
X1852700Y1512719D02*
X1913800D01*
X1852700Y1512359D02*
X1913800D01*
X1852700Y1511999D02*
X1913800D01*
X1852700Y1511639D02*
X1913800D01*
X1852700Y1511279D02*
X1913800D01*
X1852700Y1510919D02*
X1913800D01*
X1852700Y1510559D02*
X1913800D01*
X1852700Y1510199D02*
X1913800D01*
X1852700Y1509839D02*
X1913800D01*
X1852700Y1509479D02*
X1913800D01*
X1852700Y1509119D02*
X1913800D01*
X1852700Y1508759D02*
X1913800D01*
X1852700Y1508399D02*
X1913800D01*
X1852700Y1508039D02*
X1913800D01*
X1852700Y1507679D02*
X1913800D01*
X1852700Y1507319D02*
X1913800D01*
X1852700Y1506959D02*
X1913800D01*
X1852700Y1506599D02*
X1913800D01*
X1852700Y1506239D02*
X1913800D01*
X1852700Y1505879D02*
X1913800D01*
X1852700Y1505519D02*
X1913800D01*
X1852700Y1505159D02*
X1913800D01*
X1852700Y1504799D02*
X1913800D01*
X1852700Y1504439D02*
X1913800D01*
X1852700Y1504079D02*
X1913800D01*
X1852700Y1503719D02*
X1913800D01*
X1852700Y1503359D02*
X1913800D01*
X1852700Y1502999D02*
X1913800D01*
X1852700Y1502639D02*
X1913800D01*
X1852700Y1502279D02*
X1913800D01*
X1852700Y1501919D02*
X1913800D01*
X1852700Y1501559D02*
X1913800D01*
X1852700Y1501199D02*
X1913800D01*
X1852700Y1500839D02*
X1913800D01*
X1852700Y1500479D02*
X1913800D01*
X1852700Y1500119D02*
X1913800D01*
X1852700Y1499759D02*
X1913800D01*
X1852700Y1499399D02*
X1913800D01*
X1852700Y1499039D02*
X1913800D01*
X1870831Y1498679D02*
X1913800D01*
X1873494Y1498319D02*
X1913800D01*
X1874845Y1497959D02*
X1913800D01*
X1875871Y1497599D02*
X1913800D01*
X1876724Y1497239D02*
X1913800D01*
X1877463Y1496879D02*
X1913800D01*
X1878119Y1496519D02*
X1913800D01*
X1878711Y1496159D02*
X1913800D01*
X1879251Y1495799D02*
X1913800D01*
X1879748Y1495439D02*
X1913800D01*
X1880209Y1495079D02*
X1913800D01*
X1880637Y1494719D02*
X1913800D01*
X1881037Y1494359D02*
X1913800D01*
X1881411Y1493999D02*
X1913800D01*
X1881763Y1493639D02*
X1913800D01*
X1882094Y1493279D02*
X1913800D01*
X1882405Y1492919D02*
X1913800D01*
X1882699Y1492559D02*
X1913800D01*
X1882976Y1492199D02*
X1913800D01*
X1883237Y1491839D02*
X1913800D01*
X1883484Y1491479D02*
X1913800D01*
X1883717Y1491119D02*
X1913800D01*
X1883937Y1490759D02*
X1913800D01*
X1884144Y1490399D02*
X1913800D01*
X1884339Y1490039D02*
X1913800D01*
X1884523Y1489679D02*
X1913800D01*
X1884695Y1489319D02*
X1913800D01*
X1884857Y1488959D02*
X1913800D01*
X1885008Y1488599D02*
X1913800D01*
X1885150Y1488239D02*
X1913800D01*
X1885281Y1487879D02*
X1913800D01*
X1885403Y1487519D02*
X1913800D01*
X1885516Y1487159D02*
X1913800D01*
X1885619Y1486799D02*
X1913800D01*
X1885714Y1486439D02*
X1913800D01*
X1885800Y1486079D02*
X1913800D01*
X1885877Y1485719D02*
X1913800D01*
X1885946Y1485359D02*
X1913800D01*
X1886006Y1484999D02*
X1913800D01*
X1886058Y1484639D02*
X1913800D01*
X1886102Y1484279D02*
X1913800D01*
X1886138Y1483919D02*
X1913800D01*
X1886165Y1483559D02*
X1913800D01*
X1886185Y1483199D02*
X1913800D01*
X1886196Y1482839D02*
X1913800D01*
X1886200Y1482479D02*
X1913800D01*
X1886196Y1482119D02*
X1913800D01*
X1886183Y1481759D02*
X1913800D01*
X1886163Y1481399D02*
X1913800D01*
X1886134Y1481039D02*
X1913800D01*
X1886097Y1480679D02*
X1913800D01*
X1886052Y1480319D02*
X1913800D01*
X1885999Y1479959D02*
X1913800D01*
X1885938Y1479599D02*
X1913800D01*
X1885868Y1479239D02*
X1913800D01*
X1885790Y1478879D02*
X1913800D01*
X1885703Y1478519D02*
X1913800D01*
X1885607Y1478159D02*
X1913800D01*
X1885503Y1477799D02*
X1913800D01*
X1885389Y1477439D02*
X1913800D01*
X1885266Y1477079D02*
X1913800D01*
X1885133Y1476719D02*
X1913800D01*
X1884991Y1476359D02*
X1913800D01*
X1884838Y1475999D02*
X1913800D01*
X1884675Y1475639D02*
X1913800D01*
X1884501Y1475279D02*
X1913800D01*
X1884317Y1474919D02*
X1913800D01*
X1884120Y1474559D02*
X1913800D01*
X1883911Y1474199D02*
X1913800D01*
X1883690Y1473839D02*
X1913800D01*
X1883456Y1473479D02*
X1913800D01*
X1883207Y1473119D02*
X1913800D01*
X1882944Y1472759D02*
X1913800D01*
X1882665Y1472399D02*
X1913800D01*
X1882369Y1472039D02*
X1913800D01*
X1882056Y1471679D02*
X1913800D01*
X1881723Y1471319D02*
X1913800D01*
X1881368Y1470959D02*
X1913800D01*
X1880991Y1470599D02*
X1913800D01*
X1880588Y1470239D02*
X1913800D01*
X1880156Y1469879D02*
X1913800D01*
X1879692Y1469519D02*
X1913800D01*
X1879190Y1469159D02*
X1913800D01*
X1878644Y1468799D02*
X1913800D01*
X1878045Y1468439D02*
X1913800D01*
X1877380Y1468079D02*
X1913800D01*
X1876630Y1467719D02*
X1913800D01*
X1875760Y1467359D02*
X1913800D01*
X1874706Y1466999D02*
X1913800D01*
X1873295Y1466639D02*
X1913800D01*
X1852700Y1466279D02*
X1913800D01*
X1852700Y1465919D02*
X1913800D01*
X1852700Y1465559D02*
X1913800D01*
X1852756Y1596239D02*
X1913744D01*
X1852700Y1498679D02*
X1869169D01*
X1852700Y1466639D02*
X1866705D01*
X1852700Y1498319D02*
X1866506D01*
X1852700Y1466999D02*
X1865294D01*
X1852700Y1497959D02*
X1865155D01*
X1852700Y1467359D02*
X1864240D01*
X1852700Y1497599D02*
X1864129D01*
X1852700Y1467719D02*
X1863370D01*
X1852700Y1497239D02*
X1863276D01*
X1852700Y1468079D02*
X1862620D01*
X1852700Y1496879D02*
X1862537D01*
X1852700Y1468439D02*
X1861955D01*
X1852700Y1496519D02*
X1861881D01*
X1852700Y1468799D02*
X1861356D01*
X1852700Y1496159D02*
X1861289D01*
X1852700Y1469159D02*
X1860810D01*
X1852700Y1495799D02*
X1860749D01*
X1852700Y1469519D02*
X1860308D01*
X1852700Y1495439D02*
X1860252D01*
X1852700Y1469879D02*
X1859844D01*
X1852700Y1495079D02*
X1859791D01*
X1852700Y1470239D02*
X1859412D01*
X1852700Y1494719D02*
X1859363D01*
X1852700Y1470599D02*
X1859009D01*
X1852700Y1494359D02*
X1858963D01*
X1852700Y1470959D02*
X1858632D01*
X1852700Y1493999D02*
X1858589D01*
X1852700Y1471319D02*
X1858277D01*
X1852700Y1493639D02*
X1858237D01*
X1852700Y1471679D02*
X1857944D01*
X1852700Y1493279D02*
X1857906D01*
X1852700Y1472039D02*
X1857631D01*
X1852700Y1492919D02*
X1857595D01*
X1852700Y1472399D02*
X1857335D01*
X1852700Y1492559D02*
X1857301D01*
X1852700Y1472759D02*
X1857056D01*
X1852700Y1492199D02*
X1857024D01*
X1852700Y1473119D02*
X1856793D01*
X1852700Y1491839D02*
X1856763D01*
X1852700Y1473479D02*
X1856544D01*
X1852700Y1491479D02*
X1856516D01*
X1852700Y1473839D02*
X1856310D01*
X1852700Y1491119D02*
X1856283D01*
X1852700Y1474199D02*
X1856089D01*
X1852700Y1490759D02*
X1856063D01*
X1852700Y1474559D02*
X1855880D01*
X1852700Y1490399D02*
X1855856D01*
X1852700Y1474919D02*
X1855683D01*
X1852700Y1490039D02*
X1855661D01*
X1852700Y1475279D02*
X1855499D01*
X1852700Y1489679D02*
X1855477D01*
X1852700Y1475639D02*
X1855325D01*
X1852700Y1489319D02*
X1855305D01*
X1852700Y1475999D02*
X1855162D01*
X1852700Y1488959D02*
X1855143D01*
X1852700Y1476359D02*
X1855009D01*
X1852700Y1488599D02*
X1854992D01*
X1852700Y1476719D02*
X1854867D01*
X1852700Y1488239D02*
X1854850D01*
X1852700Y1477079D02*
X1854734D01*
X1852700Y1487879D02*
X1854719D01*
X1852700Y1477439D02*
X1854611D01*
X1852700Y1487519D02*
X1854597D01*
X1852700Y1477799D02*
X1854497D01*
X1852700Y1487159D02*
X1854484D01*
X1852700Y1478159D02*
X1854393D01*
X1852700Y1486799D02*
X1854381D01*
X1852700Y1478519D02*
X1854297D01*
X1852700Y1486439D02*
X1854286D01*
X1852700Y1478879D02*
X1854210D01*
X1852700Y1486079D02*
X1854200D01*
X1852700Y1479239D02*
X1854132D01*
X1852700Y1485719D02*
X1854123D01*
X1852700Y1479599D02*
X1854062D01*
X1852700Y1485359D02*
X1854054D01*
X1852700Y1479959D02*
X1854001D01*
X1852700Y1484999D02*
X1853994D01*
X1852700Y1480319D02*
X1853948D01*
X1852700Y1484639D02*
X1853942D01*
X1852700Y1480679D02*
X1853903D01*
X1852700Y1484279D02*
X1853898D01*
X1852700Y1481039D02*
X1853866D01*
X1852700Y1483919D02*
X1853862D01*
X1852700Y1481399D02*
X1853837D01*
X1852700Y1483559D02*
X1853835D01*
X1852700Y1481759D02*
X1853817D01*
X1852700Y1483199D02*
X1853815D01*
X1852700Y1482119D02*
X1853804D01*
X1852700Y1482839D02*
X1853804D01*
X1852700Y1482479D02*
X1853800D01*
X1993200Y1610779D02*
X1995800D01*
X1993200Y1610419D02*
X1995800D01*
X1993200Y1610059D02*
X1995800D01*
X1993200Y1609699D02*
X1995800D01*
X1993200Y1609339D02*
X1995800D01*
X1993200Y1608979D02*
X1995800D01*
X1993200Y1608619D02*
X1995800D01*
X1993200Y1608259D02*
X1995800D01*
X1993200Y1607899D02*
X1995800D01*
X1993200Y1607539D02*
X1995800D01*
X1993200Y1607179D02*
X1995800D01*
X1995122Y1603939D02*
X1995800D01*
X1995240Y1603579D02*
X1995800D01*
X1995255Y1603219D02*
X1995800D01*
X1995255Y1602859D02*
X1995800D01*
X1995255Y1602499D02*
X1995800D01*
X1995263Y1602139D02*
X1995800D01*
X1995255Y1601779D02*
X1995800D01*
X1995278Y1601419D02*
X1995800D01*
X1993204Y1611139D02*
X1995796D01*
X1993200Y1606819D02*
X1995739D01*
X1994839Y1604299D02*
X1995657D01*
X1993200Y1606459D02*
X1995520D01*
X1993727Y1604659D02*
X1995467D01*
X1993200Y1606099D02*
X1995383D01*
X1993619Y1605019D02*
X1995353D01*
X1993205Y1605739D02*
X1995313D01*
X1993455Y1605379D02*
X1995303D01*
X2131117Y1595939D02*
X2147300D01*
X2131197Y1595579D02*
X2147300D01*
X2131200Y1595219D02*
X2147300D01*
X2131200Y1594859D02*
X2147300D01*
X2131200Y1594499D02*
X2147300D01*
X2131200Y1594139D02*
X2147300D01*
X2131200Y1593779D02*
X2147300D01*
X2131200Y1593419D02*
X2147300D01*
X2131200Y1593059D02*
X2147300D01*
X2131200Y1592699D02*
X2147300D01*
X2131200Y1592339D02*
X2147300D01*
X2131200Y1591979D02*
X2147300D01*
X2131200Y1591619D02*
X2147300D01*
X2131200Y1591259D02*
X2147300D01*
X2131200Y1590899D02*
X2147300D01*
X2131200Y1590539D02*
X2147300D01*
X2131200Y1590179D02*
X2147300D01*
X2131200Y1589819D02*
X2147300D01*
X2131200Y1589459D02*
X2147300D01*
X2131200Y1589099D02*
X2147300D01*
X2131200Y1588739D02*
X2147300D01*
X2131200Y1588379D02*
X2147300D01*
X2131200Y1588019D02*
X2147300D01*
X2131200Y1587659D02*
X2147300D01*
X2131183Y1587299D02*
X2147300D01*
X2131061Y1586939D02*
X2147300D01*
X2130769Y1586579D02*
X2147300D01*
X2077700Y1586219D02*
X2147300D01*
X2077700Y1585859D02*
X2147300D01*
X2077700Y1585499D02*
X2147300D01*
X2077700Y1585139D02*
X2147300D01*
X2077700Y1584779D02*
X2147300D01*
X2077700Y1584419D02*
X2147300D01*
X2077700Y1584059D02*
X2147300D01*
X2077700Y1583699D02*
X2147300D01*
X2077700Y1583339D02*
X2147300D01*
X2077700Y1582979D02*
X2147300D01*
X2077700Y1582619D02*
X2147300D01*
X2077700Y1582259D02*
X2147300D01*
X2077700Y1581899D02*
X2147300D01*
X2077700Y1581539D02*
X2147300D01*
X2077700Y1581179D02*
X2147300D01*
X2077700Y1580819D02*
X2147300D01*
X2077700Y1580459D02*
X2147300D01*
X2077700Y1580099D02*
X2147300D01*
X2077700Y1579739D02*
X2147300D01*
X2077700Y1579379D02*
X2147300D01*
X2077700Y1579019D02*
X2147300D01*
X2077700Y1578659D02*
X2147300D01*
X2077700Y1578299D02*
X2147300D01*
X2077700Y1577939D02*
X2147300D01*
X2077700Y1577579D02*
X2147300D01*
X2077700Y1577219D02*
X2147300D01*
X2077700Y1576859D02*
X2147300D01*
X2130665Y1576499D02*
X2147300D01*
X2131016Y1576139D02*
X2147300D01*
X2131167Y1575779D02*
X2147300D01*
X2131200Y1575419D02*
X2147300D01*
X2131200Y1575059D02*
X2147300D01*
X2131200Y1574699D02*
X2147300D01*
X2131200Y1574339D02*
X2147300D01*
X2131200Y1573979D02*
X2147300D01*
X2131200Y1573619D02*
X2147300D01*
X2131200Y1573259D02*
X2147300D01*
X2131200Y1572899D02*
X2147300D01*
X2131200Y1572539D02*
X2147300D01*
X2131200Y1572179D02*
X2147300D01*
X2131200Y1571819D02*
X2147300D01*
X2131200Y1571459D02*
X2147300D01*
X2131200Y1571099D02*
X2147300D01*
X2131200Y1570739D02*
X2147300D01*
X2131200Y1570379D02*
X2147300D01*
X2131200Y1570019D02*
X2147300D01*
X2131200Y1569659D02*
X2147300D01*
X2131200Y1569299D02*
X2147300D01*
X2131200Y1568939D02*
X2147300D01*
X2131200Y1568579D02*
X2147300D01*
X2131200Y1568219D02*
X2147300D01*
X2131200Y1567859D02*
X2147300D01*
X2131200Y1567499D02*
X2147300D01*
X2131144Y1567139D02*
X2147300D01*
X2130959Y1566779D02*
X2147300D01*
X2130520Y1566419D02*
X2147300D01*
X2077700Y1566059D02*
X2147300D01*
X2077700Y1565699D02*
X2147300D01*
X2077700Y1565339D02*
X2147300D01*
X2077700Y1564979D02*
X2147300D01*
X2077700Y1564619D02*
X2147300D01*
X2077700Y1564259D02*
X2147300D01*
X2077700Y1563899D02*
X2147300D01*
X2077700Y1563539D02*
X2147300D01*
X2077700Y1563179D02*
X2147300D01*
X2077700Y1562819D02*
X2147300D01*
X2077700Y1562459D02*
X2147300D01*
X2077700Y1562099D02*
X2147300D01*
X2077700Y1561739D02*
X2147300D01*
X2077700Y1561379D02*
X2147300D01*
X2077700Y1561019D02*
X2147300D01*
X2103424Y1560659D02*
X2147300D01*
X2104267Y1560299D02*
X2147300D01*
X2104664Y1559939D02*
X2147300D01*
X2104917Y1559579D02*
X2147300D01*
X2105079Y1559219D02*
X2147300D01*
X2105171Y1558859D02*
X2147300D01*
X2105200Y1558499D02*
X2147300D01*
X2105170Y1558139D02*
X2147300D01*
X2105078Y1557779D02*
X2147300D01*
X2104916Y1557419D02*
X2147300D01*
X2104662Y1557059D02*
X2147300D01*
X2130057Y1556699D02*
X2147300D01*
X2130858Y1556339D02*
X2147300D01*
X2131100Y1555979D02*
X2147300D01*
X2131194Y1555619D02*
X2147300D01*
X2131200Y1555259D02*
X2147300D01*
X2131200Y1554899D02*
X2147300D01*
X2131200Y1554539D02*
X2147300D01*
X2131200Y1554179D02*
X2147300D01*
X2131200Y1553819D02*
X2147300D01*
X2131200Y1553459D02*
X2147300D01*
X2131200Y1553099D02*
X2147300D01*
X2131200Y1552739D02*
X2147300D01*
X2131200Y1552379D02*
X2147300D01*
X2131200Y1552019D02*
X2147300D01*
X2131200Y1551659D02*
X2147300D01*
X2131200Y1551299D02*
X2147300D01*
X2131200Y1550939D02*
X2147300D01*
X2131200Y1550579D02*
X2147300D01*
X2131200Y1550219D02*
X2147300D01*
X2131200Y1549859D02*
X2147300D01*
X2131200Y1549499D02*
X2147300D01*
X2131200Y1549139D02*
X2147300D01*
X2131200Y1548779D02*
X2147300D01*
X2131200Y1548419D02*
X2147300D01*
X2131200Y1548059D02*
X2147300D01*
X2131200Y1547699D02*
X2147300D01*
X2131189Y1547339D02*
X2147300D01*
X2131081Y1546979D02*
X2147300D01*
X2130814Y1546619D02*
X2147300D01*
X2077700Y1546259D02*
X2147300D01*
X2077700Y1545899D02*
X2147300D01*
X2077700Y1545539D02*
X2147300D01*
X2077700Y1545179D02*
X2147300D01*
X2077700Y1544819D02*
X2147300D01*
X2077700Y1544459D02*
X2147300D01*
X2077700Y1544099D02*
X2147300D01*
X2077700Y1543739D02*
X2147300D01*
X2077700Y1543379D02*
X2147300D01*
X2077700Y1543019D02*
X2147300D01*
X2077700Y1542659D02*
X2147300D01*
X2077700Y1542299D02*
X2147300D01*
X2077700Y1541939D02*
X2147300D01*
X2077700Y1541579D02*
X2147300D01*
X2077700Y1541219D02*
X2147300D01*
X2077700Y1540859D02*
X2147300D01*
X2077700Y1540499D02*
X2147300D01*
X2077700Y1540139D02*
X2147300D01*
X2077700Y1539779D02*
X2147300D01*
X2077700Y1539419D02*
X2147300D01*
X2077700Y1539059D02*
X2147300D01*
X2077700Y1538699D02*
X2147300D01*
X2077700Y1538339D02*
X2147300D01*
X2077700Y1537979D02*
X2147300D01*
X2077700Y1537619D02*
X2147300D01*
X2077700Y1537259D02*
X2147300D01*
X2077700Y1536899D02*
X2147300D01*
X2077700Y1536539D02*
X2147300D01*
X2077700Y1536179D02*
X2147300D01*
X2077700Y1535819D02*
X2147300D01*
X2077700Y1535459D02*
X2147300D01*
X2077700Y1535099D02*
X2147300D01*
X2077700Y1534739D02*
X2147300D01*
X2077700Y1534379D02*
X2147300D01*
X2077700Y1534019D02*
X2147300D01*
X2077700Y1533659D02*
X2147300D01*
X2077700Y1533299D02*
X2147300D01*
X2077700Y1532939D02*
X2147300D01*
X2077700Y1532579D02*
X2147300D01*
X2077700Y1532219D02*
X2147300D01*
X2077700Y1531859D02*
X2147300D01*
X2077700Y1531499D02*
X2147300D01*
X2077700Y1531139D02*
X2147300D01*
X2077700Y1530779D02*
X2147300D01*
X2077700Y1530419D02*
X2147300D01*
X2077700Y1530059D02*
X2147300D01*
X2077700Y1529699D02*
X2147300D01*
X2077700Y1529339D02*
X2147300D01*
X2077700Y1528979D02*
X2147300D01*
X2077700Y1528619D02*
X2147300D01*
X2077700Y1528259D02*
X2147300D01*
X2077700Y1527899D02*
X2147300D01*
X2077700Y1527539D02*
X2147300D01*
X2077700Y1527179D02*
X2147300D01*
X2077700Y1526819D02*
X2147300D01*
X2077700Y1526459D02*
X2147300D01*
X2077700Y1526099D02*
X2147300D01*
X2077700Y1525739D02*
X2147300D01*
X2077700Y1525379D02*
X2147300D01*
X2077700Y1525019D02*
X2147300D01*
X2077700Y1524659D02*
X2147300D01*
X2077700Y1524299D02*
X2147300D01*
X2077700Y1523939D02*
X2147300D01*
X2077700Y1523579D02*
X2147300D01*
X2077700Y1523219D02*
X2147300D01*
X2077700Y1522859D02*
X2147300D01*
X2077700Y1522499D02*
X2147300D01*
X2077700Y1522139D02*
X2147300D01*
X2077700Y1521779D02*
X2147300D01*
X2077700Y1521419D02*
X2147300D01*
X2077700Y1521059D02*
X2147300D01*
X2077700Y1520699D02*
X2147300D01*
X2077700Y1520339D02*
X2147300D01*
X2077700Y1519979D02*
X2147300D01*
X2077700Y1519619D02*
X2147300D01*
X2077700Y1519259D02*
X2147300D01*
X2077700Y1518899D02*
X2147300D01*
X2077700Y1518539D02*
X2147300D01*
X2077700Y1518179D02*
X2147300D01*
X2077700Y1517819D02*
X2147300D01*
X2077700Y1517459D02*
X2147300D01*
X2077700Y1517099D02*
X2147300D01*
X2077700Y1516739D02*
X2147300D01*
X2077700Y1516379D02*
X2147300D01*
X2077700Y1516019D02*
X2147300D01*
X2077700Y1515659D02*
X2147300D01*
X2077700Y1515299D02*
X2147300D01*
X2077700Y1514939D02*
X2147300D01*
X2077700Y1514579D02*
X2147300D01*
X2077700Y1514219D02*
X2147300D01*
X2077700Y1513859D02*
X2147300D01*
X2077700Y1513499D02*
X2147300D01*
X2077700Y1513139D02*
X2147300D01*
X2077700Y1512779D02*
X2147300D01*
X2077700Y1512419D02*
X2147300D01*
X2077700Y1512059D02*
X2147300D01*
X2130118Y1511699D02*
X2147300D01*
X2131905Y1511339D02*
X2147300D01*
X2132642Y1510979D02*
X2147300D01*
X2133174Y1510619D02*
X2147300D01*
X2133593Y1510259D02*
X2147300D01*
X2133936Y1509899D02*
X2147300D01*
X2134220Y1509539D02*
X2147300D01*
X2134457Y1509179D02*
X2147300D01*
X2134654Y1508819D02*
X2147300D01*
X2134817Y1508459D02*
X2147300D01*
X2134948Y1508099D02*
X2147300D01*
X2135050Y1507739D02*
X2147300D01*
X2135125Y1507379D02*
X2147300D01*
X2135174Y1507019D02*
X2147300D01*
X2135198Y1506659D02*
X2147300D01*
X2135196Y1506299D02*
X2147300D01*
X2135170Y1505939D02*
X2147300D01*
X2135118Y1505579D02*
X2147300D01*
X2135040Y1505219D02*
X2147300D01*
X2134934Y1504859D02*
X2147300D01*
X2134799Y1504499D02*
X2147300D01*
X2134633Y1504139D02*
X2147300D01*
X2134431Y1503779D02*
X2147300D01*
X2134189Y1503419D02*
X2147300D01*
X2133898Y1503059D02*
X2147300D01*
X2133548Y1502699D02*
X2147300D01*
X2133118Y1502339D02*
X2147300D01*
X2132569Y1501979D02*
X2147300D01*
X2131792Y1501619D02*
X2147300D01*
X2077700Y1501259D02*
X2147300D01*
X2077700Y1500899D02*
X2147300D01*
X2077700Y1500539D02*
X2147300D01*
X2077700Y1500179D02*
X2147300D01*
X2077700Y1499819D02*
X2147300D01*
X2077700Y1499459D02*
X2147300D01*
X2077700Y1499099D02*
X2147300D01*
X2077700Y1498739D02*
X2147300D01*
X2133211Y1498379D02*
X2147300D01*
X2134649Y1498019D02*
X2147300D01*
X2135714Y1497659D02*
X2147300D01*
X2136591Y1497299D02*
X2147300D01*
X2137346Y1496939D02*
X2147300D01*
X2138014Y1496579D02*
X2147300D01*
X2138616Y1496219D02*
X2147300D01*
X2139164Y1495859D02*
X2147300D01*
X2139668Y1495499D02*
X2147300D01*
X2140134Y1495139D02*
X2147300D01*
X2140568Y1494779D02*
X2147300D01*
X2140972Y1494419D02*
X2147300D01*
X2141351Y1494059D02*
X2147300D01*
X2141706Y1493699D02*
X2147300D01*
X2142040Y1493339D02*
X2147300D01*
X2142355Y1492979D02*
X2147300D01*
X2142651Y1492619D02*
X2147300D01*
X2142931Y1492259D02*
X2147300D01*
X2143195Y1491899D02*
X2147300D01*
X2143444Y1491539D02*
X2147300D01*
X2143679Y1491179D02*
X2147300D01*
X2143901Y1490819D02*
X2147300D01*
X2144110Y1490459D02*
X2147300D01*
X2144307Y1490099D02*
X2147300D01*
X2144493Y1489739D02*
X2147300D01*
X2144667Y1489379D02*
X2147300D01*
X2144831Y1489019D02*
X2147300D01*
X2144984Y1488659D02*
X2147300D01*
X2145127Y1488299D02*
X2147300D01*
X2145260Y1487939D02*
X2147300D01*
X2145383Y1487579D02*
X2147300D01*
X2145498Y1487219D02*
X2147300D01*
X2145603Y1486859D02*
X2147300D01*
X2145699Y1486499D02*
X2147300D01*
X2145786Y1486139D02*
X2147300D01*
X2145865Y1485779D02*
X2147300D01*
X2145935Y1485419D02*
X2147300D01*
X2145997Y1485059D02*
X2147300D01*
X2146050Y1484699D02*
X2147300D01*
X2146095Y1484339D02*
X2147300D01*
X2146132Y1483979D02*
X2147300D01*
X2146161Y1483619D02*
X2147300D01*
X2146182Y1483259D02*
X2147300D01*
X2146195Y1482899D02*
X2147300D01*
X2146200Y1482539D02*
X2147300D01*
X2146197Y1482179D02*
X2147300D01*
X2146186Y1481819D02*
X2147300D01*
X2146167Y1481459D02*
X2147300D01*
X2146139Y1481099D02*
X2147300D01*
X2146104Y1480739D02*
X2147300D01*
X2146061Y1480379D02*
X2147300D01*
X2146009Y1480019D02*
X2147300D01*
X2145949Y1479659D02*
X2147300D01*
X2145881Y1479299D02*
X2147300D01*
X2145804Y1478939D02*
X2147300D01*
X2145718Y1478579D02*
X2147300D01*
X2145624Y1478219D02*
X2147300D01*
X2145521Y1477859D02*
X2147300D01*
X2145409Y1477499D02*
X2147300D01*
X2145287Y1477139D02*
X2147300D01*
X2145156Y1476779D02*
X2147300D01*
X2145015Y1476419D02*
X2147300D01*
X2144864Y1476059D02*
X2147300D01*
X2144703Y1475699D02*
X2147300D01*
X2144531Y1475339D02*
X2147300D01*
X2144348Y1474979D02*
X2147300D01*
X2144154Y1474619D02*
X2147300D01*
X2143947Y1474259D02*
X2147300D01*
X2143728Y1473899D02*
X2147300D01*
X2143496Y1473539D02*
X2147300D01*
X2143250Y1473179D02*
X2147300D01*
X2142989Y1472819D02*
X2147300D01*
X2142713Y1472459D02*
X2147300D01*
X2142420Y1472099D02*
X2147300D01*
X2142109Y1471739D02*
X2147300D01*
X2141780Y1471379D02*
X2147300D01*
X2141429Y1471019D02*
X2147300D01*
X2141055Y1470659D02*
X2147300D01*
X2140657Y1470299D02*
X2147300D01*
X2140230Y1469939D02*
X2147300D01*
X2139771Y1469579D02*
X2147300D01*
X2139276Y1469219D02*
X2147300D01*
X2138738Y1468859D02*
X2147300D01*
X2138149Y1468499D02*
X2147300D01*
X2137496Y1468139D02*
X2147300D01*
X2136762Y1467779D02*
X2147300D01*
X2135916Y1467419D02*
X2147300D01*
X2134938Y1467059D02*
X2147300D01*
X2131242Y1596299D02*
X2147123D01*
X2077700Y1511699D02*
X2129882D01*
X2077700Y1501619D02*
X2128208D01*
X2077700Y1511339D02*
X2128095D01*
X2077700Y1501979D02*
X2127431D01*
X2077700Y1510979D02*
X2127358D01*
X2077700Y1502339D02*
X2126882D01*
X2077700Y1510619D02*
X2126826D01*
X2077700Y1498379D02*
X2126789D01*
X2077700Y1502699D02*
X2126452D01*
X2077700Y1510259D02*
X2126407D01*
X2077700Y1503059D02*
X2126102D01*
X2077700Y1509899D02*
X2126064D01*
X2077700Y1503419D02*
X2125811D01*
X2077700Y1509539D02*
X2125780D01*
X2077700Y1503779D02*
X2125569D01*
X2077700Y1509179D02*
X2125543D01*
X2077700Y1504139D02*
X2125367D01*
X2077700Y1498019D02*
X2125351D01*
X2077700Y1508819D02*
X2125346D01*
X2077700Y1504499D02*
X2125201D01*
X2077700Y1508459D02*
X2125183D01*
X2077700Y1504859D02*
X2125066D01*
X2077700Y1467059D02*
X2125062D01*
X2077700Y1508099D02*
X2125052D01*
X2077700Y1505219D02*
X2124960D01*
X2077700Y1507739D02*
X2124950D01*
X2077700Y1505579D02*
X2124882D01*
X2077700Y1507379D02*
X2124875D01*
X2077700Y1505939D02*
X2124830D01*
X2077700Y1507019D02*
X2124826D01*
X2077700Y1506299D02*
X2124804D01*
X2077700Y1506659D02*
X2124802D01*
X2077700Y1497659D02*
X2124286D01*
X2077700Y1467419D02*
X2124084D01*
X2077700Y1497299D02*
X2123409D01*
X2077700Y1467779D02*
X2123238D01*
X2077700Y1496939D02*
X2122654D01*
X2077700Y1468139D02*
X2122504D01*
X2077700Y1496579D02*
X2121986D01*
X2077700Y1468499D02*
X2121851D01*
X2077700Y1496219D02*
X2121384D01*
X2077700Y1468859D02*
X2121262D01*
X2077700Y1495859D02*
X2120836D01*
X2077700Y1469219D02*
X2120724D01*
X2077700Y1495499D02*
X2120332D01*
X2077700Y1469579D02*
X2120229D01*
X2077700Y1495139D02*
X2119866D01*
X2077700Y1469939D02*
X2119770D01*
X2077700Y1494779D02*
X2119432D01*
X2077700Y1470299D02*
X2119343D01*
X2077700Y1494419D02*
X2119028D01*
X2077700Y1470659D02*
X2118945D01*
X2077700Y1494059D02*
X2118649D01*
X2077700Y1471019D02*
X2118571D01*
X2077700Y1493699D02*
X2118294D01*
X2077700Y1471379D02*
X2118220D01*
X2077700Y1493339D02*
X2117960D01*
X2077700Y1471739D02*
X2117891D01*
X2077700Y1492979D02*
X2117645D01*
X2077700Y1472099D02*
X2117580D01*
X2077700Y1492619D02*
X2117349D01*
X2077700Y1472459D02*
X2117287D01*
X2077700Y1492259D02*
X2117069D01*
X2077700Y1472819D02*
X2117011D01*
X2077700Y1491899D02*
X2116805D01*
X2077700Y1473179D02*
X2116750D01*
X2077700Y1491539D02*
X2116556D01*
X2077700Y1473539D02*
X2116504D01*
X2077700Y1491179D02*
X2116321D01*
X2077700Y1473899D02*
X2116272D01*
X2077700Y1490819D02*
X2116099D01*
X2077700Y1474259D02*
X2116053D01*
X2077700Y1490459D02*
X2115890D01*
X2077700Y1474619D02*
X2115846D01*
X2077700Y1490099D02*
X2115693D01*
X2077700Y1474979D02*
X2115652D01*
X2077700Y1489739D02*
X2115507D01*
X2077700Y1475339D02*
X2115469D01*
X2077700Y1489379D02*
X2115333D01*
X2077700Y1475699D02*
X2115297D01*
X2077700Y1489019D02*
X2115169D01*
X2077700Y1476059D02*
X2115136D01*
X2077700Y1488659D02*
X2115016D01*
X2077700Y1476419D02*
X2114985D01*
X2104263Y1556699D02*
X2114943D01*
X2077700Y1488299D02*
X2114873D01*
X2077700Y1476779D02*
X2114844D01*
X2077700Y1487939D02*
X2114740D01*
X2077700Y1477139D02*
X2114713D01*
X2077700Y1487579D02*
X2114617D01*
X2077700Y1477499D02*
X2114591D01*
X2077700Y1487219D02*
X2114502D01*
X2077700Y1566419D02*
X2114480D01*
X2077700Y1477859D02*
X2114479D01*
X2077700Y1486859D02*
X2114397D01*
X2077700Y1478219D02*
X2114376D01*
X2077700Y1576499D02*
X2114335D01*
X2077700Y1486499D02*
X2114301D01*
X2077700Y1478579D02*
X2114282D01*
X2077700Y1586579D02*
X2114231D01*
X2077700Y1486139D02*
X2114214D01*
X2077700Y1478939D02*
X2114196D01*
X2077700Y1546619D02*
X2114186D01*
X2103411Y1556339D02*
X2114142D01*
X2077700Y1485779D02*
X2114135D01*
X2077700Y1479299D02*
X2114119D01*
X2077700Y1485419D02*
X2114065D01*
X2077700Y1479659D02*
X2114051D01*
X2077700Y1566779D02*
X2114041D01*
X2077700Y1485059D02*
X2114003D01*
X2077700Y1480019D02*
X2113991D01*
X2077700Y1576139D02*
X2113984D01*
X2077700Y1484699D02*
X2113950D01*
X2077700Y1480379D02*
X2113939D01*
X2077700Y1586939D02*
X2113939D01*
X2077700Y1546979D02*
X2113919D01*
X2077700Y1484339D02*
X2113905D01*
X2077700Y1555979D02*
X2113900D01*
X2077700Y1480739D02*
X2113896D01*
X2077700Y1595939D02*
X2113883D01*
X2077700Y1483979D02*
X2113868D01*
X2077700Y1481099D02*
X2113861D01*
X2077700Y1567139D02*
X2113856D01*
X2077700Y1483619D02*
X2113839D01*
X2077700Y1481459D02*
X2113833D01*
X2077700Y1575779D02*
X2113833D01*
X2077700Y1483259D02*
X2113818D01*
X2077700Y1587299D02*
X2113817D01*
X2077700Y1481819D02*
X2113814D01*
X2077700Y1547339D02*
X2113811D01*
X2077700Y1555619D02*
X2113806D01*
X2077700Y1482899D02*
X2113805D01*
X2077700Y1482179D02*
X2113803D01*
X2077700Y1595579D02*
X2113803D01*
X2077700Y1482539D02*
X2113800D01*
X2077700Y1595219D02*
X2113800D01*
X2077700Y1594859D02*
X2113800D01*
X2077700Y1594499D02*
X2113800D01*
X2077700Y1594139D02*
X2113800D01*
X2077700Y1593779D02*
X2113800D01*
X2077700Y1593419D02*
X2113800D01*
X2077700Y1593059D02*
X2113800D01*
X2077700Y1592699D02*
X2113800D01*
X2077700Y1592339D02*
X2113800D01*
X2077700Y1591979D02*
X2113800D01*
X2077700Y1591619D02*
X2113800D01*
X2077700Y1591259D02*
X2113800D01*
X2077700Y1590899D02*
X2113800D01*
X2077700Y1590539D02*
X2113800D01*
X2077700Y1590179D02*
X2113800D01*
X2077700Y1589819D02*
X2113800D01*
X2077700Y1589459D02*
X2113800D01*
X2077700Y1589099D02*
X2113800D01*
X2077700Y1588739D02*
X2113800D01*
X2077700Y1588379D02*
X2113800D01*
X2077700Y1588019D02*
X2113800D01*
X2077700Y1587659D02*
X2113800D01*
X2077700Y1575419D02*
X2113800D01*
X2077700Y1575059D02*
X2113800D01*
X2077700Y1574699D02*
X2113800D01*
X2077700Y1574339D02*
X2113800D01*
X2077700Y1573979D02*
X2113800D01*
X2077700Y1573619D02*
X2113800D01*
X2077700Y1573259D02*
X2113800D01*
X2077700Y1572899D02*
X2113800D01*
X2077700Y1572539D02*
X2113800D01*
X2077700Y1572179D02*
X2113800D01*
X2077700Y1571819D02*
X2113800D01*
X2077700Y1571459D02*
X2113800D01*
X2077700Y1571099D02*
X2113800D01*
X2077700Y1570739D02*
X2113800D01*
X2077700Y1570379D02*
X2113800D01*
X2077700Y1570019D02*
X2113800D01*
X2077700Y1569659D02*
X2113800D01*
X2077700Y1569299D02*
X2113800D01*
X2077700Y1568939D02*
X2113800D01*
X2077700Y1568579D02*
X2113800D01*
X2077700Y1568219D02*
X2113800D01*
X2077700Y1567859D02*
X2113800D01*
X2077700Y1567499D02*
X2113800D01*
X2077700Y1555259D02*
X2113800D01*
X2077700Y1554899D02*
X2113800D01*
X2077700Y1554539D02*
X2113800D01*
X2077700Y1554179D02*
X2113800D01*
X2077700Y1553819D02*
X2113800D01*
X2077700Y1553459D02*
X2113800D01*
X2077700Y1553099D02*
X2113800D01*
X2077700Y1552739D02*
X2113800D01*
X2077700Y1552379D02*
X2113800D01*
X2077700Y1552019D02*
X2113800D01*
X2077700Y1551659D02*
X2113800D01*
X2077700Y1551299D02*
X2113800D01*
X2077700Y1550939D02*
X2113800D01*
X2077700Y1550579D02*
X2113800D01*
X2077700Y1550219D02*
X2113800D01*
X2077700Y1549859D02*
X2113800D01*
X2077700Y1549499D02*
X2113800D01*
X2077700Y1549139D02*
X2113800D01*
X2077700Y1548779D02*
X2113800D01*
X2077700Y1548419D02*
X2113800D01*
X2077700Y1548059D02*
X2113800D01*
X2077700Y1547699D02*
X2113800D01*
X2077877Y1596299D02*
X2113758D01*
X2077700Y1556339D02*
X2102589D01*
X2077700Y1560659D02*
X2102576D01*
X2077700Y1556699D02*
X2101737D01*
X2077700Y1560299D02*
X2101733D01*
X2077700Y1557059D02*
X2101338D01*
X2077700Y1559939D02*
X2101336D01*
X2077700Y1557419D02*
X2101084D01*
X2077700Y1559579D02*
X2101083D01*
X2077700Y1557779D02*
X2100922D01*
X2077700Y1559219D02*
X2100921D01*
X2077700Y1558139D02*
X2100830D01*
X2077700Y1558859D02*
X2100829D01*
X2077700Y1558499D02*
X2100800D01*
X1950200Y1598499D02*
X1992800D01*
X1950200Y1598139D02*
X1992800D01*
X1950200Y1597779D02*
X1992800D01*
X1950200Y1597419D02*
X1992800D01*
X1950200Y1598859D02*
X1992703D01*
X1950200Y1599219D02*
X1992010D01*
X1950200Y1599579D02*
X1991666D01*
X1950200Y1599939D02*
X1991231D01*
X1950200Y1600299D02*
X1990605D01*
X1950200Y1603539D02*
X1990300D01*
X1950200Y1600659D02*
X1990256D01*
X1950200Y1603179D02*
X1990142D01*
X1950200Y1601019D02*
X1990031D01*
X1950200Y1602819D02*
X1989958D01*
X1950200Y1601379D02*
X1989890D01*
X1950200Y1602459D02*
X1989848D01*
X1950200Y1601739D02*
X1989816D01*
X1950200Y1602099D02*
X1989802D01*
X1950200Y1603899D02*
X1988773D01*
X1950200Y1597059D02*
X1988724D01*
X1950200Y1604259D02*
X1988306D01*
X1950200Y1604619D02*
X1988112D01*
X1950200Y1604979D02*
X1988050D01*
X1950200Y1606059D02*
X1988050D01*
X1950200Y1605699D02*
X1988050D01*
X1950200Y1605339D02*
X1988050D01*
X1997232Y1590479D02*
X1997768D01*
X1997232Y1590119D02*
X1997768D01*
X1997232Y1589759D02*
X1997768D01*
X1997232Y1589399D02*
X1997768D01*
X1997250Y1589039D02*
X1997768D01*
X1996700Y1465559D02*
X2076181D01*
X1996700Y1465919D02*
X2075968D01*
X1996700Y1466279D02*
X2075847D01*
X1996700Y1466639D02*
X2075801D01*
X2016147Y1590479D02*
X2075800D01*
X2016197Y1590119D02*
X2075800D01*
X2016187Y1589759D02*
X2075800D01*
X2016116Y1589399D02*
X2075800D01*
X2015979Y1589039D02*
X2075800D01*
X2015759Y1588679D02*
X2075800D01*
X2015419Y1588319D02*
X2075800D01*
X2014820Y1587959D02*
X2075800D01*
X2005698Y1587599D02*
X2075800D01*
X2005684Y1587239D02*
X2075800D01*
X2005610Y1586879D02*
X2075800D01*
X2005469Y1586519D02*
X2075800D01*
X2005244Y1586159D02*
X2075800D01*
X2004895Y1585799D02*
X2075800D01*
X2004269Y1585439D02*
X2075800D01*
X2001072Y1585079D02*
X2075800D01*
X1997700Y1584719D02*
X2075800D01*
X1997700Y1584359D02*
X2075800D01*
X1997700Y1583999D02*
X2075800D01*
X1997700Y1583639D02*
X2075800D01*
X1997700Y1583279D02*
X2075800D01*
X1997700Y1582919D02*
X2075800D01*
X1997700Y1582559D02*
X2075800D01*
X1997700Y1582199D02*
X2075800D01*
X1997700Y1581839D02*
X2075800D01*
X1997700Y1581479D02*
X2075800D01*
X1997700Y1581119D02*
X2075800D01*
X1997700Y1580759D02*
X2075800D01*
X1997700Y1580399D02*
X2075800D01*
X1997700Y1580039D02*
X2075800D01*
X2007084Y1579679D02*
X2075800D01*
X2007942Y1579319D02*
X2075800D01*
X2008306Y1578959D02*
X2075800D01*
X2008524Y1578599D02*
X2075800D01*
X2008649Y1578239D02*
X2075800D01*
X2008698Y1577879D02*
X2075800D01*
X2008700Y1577519D02*
X2075800D01*
X2008700Y1577159D02*
X2075800D01*
X2008700Y1576799D02*
X2075800D01*
X2008700Y1576439D02*
X2075800D01*
X2008700Y1576079D02*
X2075800D01*
X2008700Y1575719D02*
X2075800D01*
X2008700Y1575359D02*
X2075800D01*
X2008700Y1574999D02*
X2075800D01*
X2008700Y1574639D02*
X2075800D01*
X2008700Y1574279D02*
X2075800D01*
X2008700Y1573919D02*
X2075800D01*
X2008700Y1573559D02*
X2075800D01*
X2008700Y1573199D02*
X2075800D01*
X2008700Y1572839D02*
X2075800D01*
X2008700Y1572479D02*
X2075800D01*
X2008700Y1572119D02*
X2075800D01*
X2008700Y1571759D02*
X2075800D01*
X2008700Y1571399D02*
X2075800D01*
X2008700Y1571039D02*
X2075800D01*
X2008700Y1570679D02*
X2075800D01*
X2008700Y1570319D02*
X2075800D01*
X2008700Y1569959D02*
X2075800D01*
X2008700Y1569599D02*
X2075800D01*
X2008700Y1569239D02*
X2075800D01*
X2008700Y1568879D02*
X2075800D01*
X2008700Y1568519D02*
X2075800D01*
X2008700Y1568159D02*
X2075800D01*
X2008700Y1567799D02*
X2075800D01*
X2008700Y1567439D02*
X2075800D01*
X2008700Y1567079D02*
X2075800D01*
X2008700Y1566719D02*
X2075800D01*
X2008700Y1566359D02*
X2075800D01*
X2008700Y1565999D02*
X2075800D01*
X2008699Y1565639D02*
X2075800D01*
X2008653Y1565279D02*
X2075800D01*
X2008532Y1564919D02*
X2075800D01*
X2008319Y1564559D02*
X2075800D01*
X2007965Y1564199D02*
X2075800D01*
X2007182Y1563839D02*
X2075800D01*
X1996700Y1563479D02*
X2075800D01*
X1996700Y1563119D02*
X2075800D01*
X1996700Y1562759D02*
X2075800D01*
X1996700Y1562399D02*
X2075800D01*
X1996700Y1562039D02*
X2075800D01*
X1996700Y1561679D02*
X2075800D01*
X1996700Y1561319D02*
X2075800D01*
X1996700Y1560959D02*
X2075800D01*
X1996700Y1560599D02*
X2075800D01*
X1996700Y1560239D02*
X2075800D01*
X1996700Y1559879D02*
X2075800D01*
X1996700Y1559519D02*
X2075800D01*
X1996700Y1559159D02*
X2075800D01*
X1996700Y1558799D02*
X2075800D01*
X1996700Y1558439D02*
X2075800D01*
X1996700Y1558079D02*
X2075800D01*
X1996700Y1557719D02*
X2075800D01*
X1996700Y1557359D02*
X2075800D01*
X1996700Y1556999D02*
X2075800D01*
X1996700Y1556639D02*
X2075800D01*
X1996700Y1556279D02*
X2075800D01*
X1996700Y1555919D02*
X2075800D01*
X1996700Y1555559D02*
X2075800D01*
X1996700Y1555199D02*
X2075800D01*
X1996700Y1554839D02*
X2075800D01*
X1996700Y1554479D02*
X2075800D01*
X1996700Y1554119D02*
X2075800D01*
X1996700Y1553759D02*
X2075800D01*
X1996700Y1553399D02*
X2075800D01*
X1996700Y1553039D02*
X2075800D01*
X1996700Y1552679D02*
X2075800D01*
X1996700Y1552319D02*
X2075800D01*
X1996700Y1551959D02*
X2075800D01*
X1996700Y1551599D02*
X2075800D01*
X1996700Y1551239D02*
X2075800D01*
X1996700Y1550879D02*
X2075800D01*
X1996700Y1550519D02*
X2075800D01*
X1996700Y1550159D02*
X2075800D01*
X1996700Y1549799D02*
X2075800D01*
X1996700Y1549439D02*
X2075800D01*
X1996700Y1549079D02*
X2075800D01*
X1996700Y1548719D02*
X2075800D01*
X1996700Y1548359D02*
X2075800D01*
X1996700Y1547999D02*
X2075800D01*
X1996700Y1547639D02*
X2075800D01*
X1996700Y1547279D02*
X2075800D01*
X1996700Y1546919D02*
X2075800D01*
X1996700Y1546559D02*
X2075800D01*
X1996700Y1546199D02*
X2075800D01*
X1996700Y1545839D02*
X2075800D01*
X1996700Y1545479D02*
X2075800D01*
X1996700Y1545119D02*
X2075800D01*
X1996700Y1544759D02*
X2075800D01*
X1996700Y1544399D02*
X2075800D01*
X1996700Y1544039D02*
X2075800D01*
X1996700Y1543679D02*
X2075800D01*
X1996700Y1543319D02*
X2075800D01*
X1996700Y1542959D02*
X2075800D01*
X1996700Y1542599D02*
X2075800D01*
X1996700Y1542239D02*
X2075800D01*
X1996700Y1541879D02*
X2075800D01*
X1996700Y1541519D02*
X2075800D01*
X1996700Y1541159D02*
X2075800D01*
X1996700Y1540799D02*
X2075800D01*
X1996700Y1540439D02*
X2075800D01*
X1996700Y1540079D02*
X2075800D01*
X1996700Y1539719D02*
X2075800D01*
X1996700Y1539359D02*
X2075800D01*
X1996700Y1538999D02*
X2075800D01*
X1996700Y1538639D02*
X2075800D01*
X1996700Y1538279D02*
X2075800D01*
X1996700Y1537919D02*
X2075800D01*
X1996700Y1537559D02*
X2075800D01*
X1996700Y1537199D02*
X2075800D01*
X1996700Y1536839D02*
X2075800D01*
X1996700Y1536479D02*
X2075800D01*
X1996700Y1536119D02*
X2075800D01*
X1996700Y1535759D02*
X2075800D01*
X1996700Y1535399D02*
X2075800D01*
X1996700Y1535039D02*
X2075800D01*
X1996700Y1534679D02*
X2075800D01*
X1996700Y1534319D02*
X2075800D01*
X1996700Y1533959D02*
X2075800D01*
X1996700Y1533599D02*
X2075800D01*
X1996700Y1533239D02*
X2075800D01*
X1996700Y1532879D02*
X2075800D01*
X1996700Y1532519D02*
X2075800D01*
X1996700Y1532159D02*
X2075800D01*
X1996700Y1531799D02*
X2075800D01*
X1996700Y1531439D02*
X2075800D01*
X1996700Y1531079D02*
X2075800D01*
X1996700Y1530719D02*
X2075800D01*
X1996700Y1530359D02*
X2075800D01*
X1996700Y1529999D02*
X2075800D01*
X1996700Y1529639D02*
X2075800D01*
X1996700Y1529279D02*
X2075800D01*
X1996700Y1528919D02*
X2075800D01*
X1996700Y1528559D02*
X2075800D01*
X1996700Y1528199D02*
X2075800D01*
X1996700Y1527839D02*
X2075800D01*
X1996700Y1527479D02*
X2075800D01*
X1996700Y1527119D02*
X2075800D01*
X1996700Y1526759D02*
X2075800D01*
X1996700Y1526399D02*
X2075800D01*
X1996700Y1526039D02*
X2075800D01*
X1996700Y1525679D02*
X2075800D01*
X1996700Y1525319D02*
X2075800D01*
X1996700Y1524959D02*
X2075800D01*
X1996700Y1524599D02*
X2075800D01*
X1996700Y1524239D02*
X2075800D01*
X1996700Y1523879D02*
X2075800D01*
X1996700Y1523519D02*
X2075800D01*
X1996700Y1523159D02*
X2075800D01*
X1996700Y1522799D02*
X2075800D01*
X1996700Y1522439D02*
X2075800D01*
X1996700Y1522079D02*
X2075800D01*
X1996700Y1521719D02*
X2075800D01*
X1996700Y1521359D02*
X2075800D01*
X1996700Y1520999D02*
X2075800D01*
X1996700Y1520639D02*
X2075800D01*
X1996700Y1520279D02*
X2075800D01*
X1996700Y1519919D02*
X2075800D01*
X1996700Y1519559D02*
X2075800D01*
X1996700Y1519199D02*
X2075800D01*
X1996700Y1518839D02*
X2075800D01*
X1996700Y1518479D02*
X2075800D01*
X1996700Y1518119D02*
X2075800D01*
X1996700Y1517759D02*
X2075800D01*
X1996700Y1517399D02*
X2075800D01*
X1996700Y1517039D02*
X2075800D01*
X1996700Y1516679D02*
X2075800D01*
X1996700Y1516319D02*
X2075800D01*
X1996700Y1515959D02*
X2075800D01*
X1996700Y1515599D02*
X2075800D01*
X1996700Y1515239D02*
X2075800D01*
X1996700Y1514879D02*
X2075800D01*
X1996700Y1514519D02*
X2075800D01*
X1996700Y1514159D02*
X2075800D01*
X1996700Y1513799D02*
X2075800D01*
X1996700Y1513439D02*
X2075800D01*
X1996700Y1513079D02*
X2075800D01*
X1996700Y1512719D02*
X2075800D01*
X1996700Y1512359D02*
X2075800D01*
X1996700Y1511999D02*
X2075800D01*
X1996700Y1511639D02*
X2075800D01*
X1996700Y1511279D02*
X2075800D01*
X1996700Y1510919D02*
X2075800D01*
X1996700Y1510559D02*
X2075800D01*
X1996700Y1510199D02*
X2075800D01*
X1996700Y1509839D02*
X2075800D01*
X1996700Y1509479D02*
X2075800D01*
X1996700Y1509119D02*
X2075800D01*
X1996700Y1508759D02*
X2075800D01*
X1996700Y1508399D02*
X2075800D01*
X1996700Y1508039D02*
X2075800D01*
X1996700Y1507679D02*
X2075800D01*
X1996700Y1507319D02*
X2075800D01*
X1996700Y1506959D02*
X2075800D01*
X1996700Y1506599D02*
X2075800D01*
X1996700Y1506239D02*
X2075800D01*
X1996700Y1505879D02*
X2075800D01*
X1996700Y1505519D02*
X2075800D01*
X1996700Y1505159D02*
X2075800D01*
X1996700Y1504799D02*
X2075800D01*
X1996700Y1504439D02*
X2075800D01*
X1996700Y1504079D02*
X2075800D01*
X1996700Y1503719D02*
X2075800D01*
X1996700Y1503359D02*
X2075800D01*
X1996700Y1502999D02*
X2075800D01*
X1996700Y1502639D02*
X2075800D01*
X1996700Y1502279D02*
X2075800D01*
X1996700Y1501919D02*
X2075800D01*
X1996700Y1501559D02*
X2075800D01*
X2006577Y1501199D02*
X2075800D01*
X2007708Y1500839D02*
X2075800D01*
X2008129Y1500479D02*
X2075800D01*
X2008394Y1500119D02*
X2075800D01*
X2008565Y1499759D02*
X2075800D01*
X2008664Y1499399D02*
X2075800D01*
X2008700Y1499039D02*
X2075800D01*
X2008676Y1498679D02*
X2075800D01*
X2008592Y1498319D02*
X2075800D01*
X2008438Y1497959D02*
X2075800D01*
X2008196Y1497599D02*
X2075800D01*
X2007818Y1497239D02*
X2075800D01*
X2007083Y1496879D02*
X2075800D01*
X1996700Y1496519D02*
X2075800D01*
X1996700Y1496159D02*
X2075800D01*
X1996700Y1495799D02*
X2075800D01*
X1996700Y1495439D02*
X2075800D01*
X1996700Y1495079D02*
X2075800D01*
X1996700Y1494719D02*
X2075800D01*
X1996700Y1494359D02*
X2075800D01*
X1996700Y1493999D02*
X2075800D01*
X1996700Y1493639D02*
X2075800D01*
X1996700Y1493279D02*
X2075800D01*
X1996700Y1492919D02*
X2075800D01*
X1996700Y1492559D02*
X2075800D01*
X1996700Y1492199D02*
X2075800D01*
X1996700Y1491839D02*
X2075800D01*
X1996700Y1491479D02*
X2075800D01*
X1996700Y1491119D02*
X2075800D01*
X1996700Y1490759D02*
X2075800D01*
X1996700Y1490399D02*
X2075800D01*
X1996700Y1490039D02*
X2075800D01*
X1996700Y1489679D02*
X2075800D01*
X1996700Y1489319D02*
X2075800D01*
X1996700Y1488959D02*
X2075800D01*
X1996700Y1488599D02*
X2075800D01*
X1996700Y1488239D02*
X2075800D01*
X1996700Y1487879D02*
X2075800D01*
X1996700Y1487519D02*
X2075800D01*
X1996700Y1487159D02*
X2075800D01*
X1996700Y1486799D02*
X2075800D01*
X1996700Y1486439D02*
X2075800D01*
X1996700Y1486079D02*
X2075800D01*
X1996700Y1485719D02*
X2075800D01*
X1996700Y1485359D02*
X2075800D01*
X1996700Y1484999D02*
X2075800D01*
X1996700Y1484639D02*
X2075800D01*
X1996700Y1484279D02*
X2075800D01*
X1996700Y1483919D02*
X2075800D01*
X1996700Y1483559D02*
X2075800D01*
X1996700Y1483199D02*
X2075800D01*
X1996700Y1482839D02*
X2075800D01*
X1996700Y1482479D02*
X2075800D01*
X1996700Y1482119D02*
X2075800D01*
X1996700Y1481759D02*
X2075800D01*
X1996700Y1481399D02*
X2075800D01*
X1996700Y1481039D02*
X2075800D01*
X1996700Y1480679D02*
X2075800D01*
X1996700Y1480319D02*
X2075800D01*
X1996700Y1479959D02*
X2075800D01*
X1996700Y1479599D02*
X2075800D01*
X1996700Y1479239D02*
X2075800D01*
X1996700Y1478879D02*
X2075800D01*
X1996700Y1478519D02*
X2075800D01*
X1996700Y1478159D02*
X2075800D01*
X1996700Y1477799D02*
X2075800D01*
X1996700Y1477439D02*
X2075800D01*
X1996700Y1477079D02*
X2075800D01*
X1996700Y1476719D02*
X2075800D01*
X1996700Y1476359D02*
X2075800D01*
X1996700Y1475999D02*
X2075800D01*
X1996700Y1475639D02*
X2075800D01*
X1996700Y1475279D02*
X2075800D01*
X1996700Y1474919D02*
X2075800D01*
X1996700Y1474559D02*
X2075800D01*
X1996700Y1474199D02*
X2075800D01*
X1996700Y1473839D02*
X2075800D01*
X1996700Y1473479D02*
X2075800D01*
X1996700Y1473119D02*
X2075800D01*
X1996700Y1472759D02*
X2075800D01*
X1996700Y1472399D02*
X2075800D01*
X1996700Y1472039D02*
X2075800D01*
X1996700Y1471679D02*
X2075800D01*
X1996700Y1471319D02*
X2075800D01*
X1996700Y1470959D02*
X2075800D01*
X1996700Y1470599D02*
X2075800D01*
X1996700Y1470239D02*
X2075800D01*
X1996700Y1469879D02*
X2075800D01*
X1996700Y1469519D02*
X2075800D01*
X1996700Y1469159D02*
X2075800D01*
X1996700Y1468799D02*
X2075800D01*
X1996700Y1468439D02*
X2075800D01*
X1996700Y1468079D02*
X2075800D01*
X1996700Y1467719D02*
X2075800D01*
X1996700Y1467359D02*
X2075800D01*
X1996700Y1466999D02*
X2075800D01*
X2005652Y1587959D02*
X2013180D01*
X2005542Y1588319D02*
X2012581D01*
X2005358Y1588679D02*
X2012241D01*
X2005072Y1589039D02*
X2012021D01*
X2004611Y1589399D02*
X2011884D01*
X2009869Y1590479D02*
X2011853D01*
X2003646Y1589759D02*
X2011813D01*
X2003286Y1590119D02*
X2011803D01*
X2003137Y1590479D02*
X2008131D01*
X1996700Y1501199D02*
X2006423D01*
X1996700Y1496879D02*
X2005917D01*
X1996700Y1500839D02*
X2005292D01*
X1996700Y1497239D02*
X2005182D01*
X1996700Y1500479D02*
X2004871D01*
X1996700Y1497599D02*
X2004804D01*
X1996700Y1500119D02*
X2004606D01*
X1996700Y1497959D02*
X2004562D01*
X1996700Y1499759D02*
X2004435D01*
X1996700Y1498319D02*
X2004408D01*
X1996700Y1499399D02*
X2004336D01*
X1996700Y1498679D02*
X2004324D01*
X1996700Y1499039D02*
X2004300D01*
X2001550Y1585439D02*
X2002731D01*
X2001854Y1585799D02*
X2002105D01*
X1997700Y1585079D02*
X1998928D01*
X1997700Y1585439D02*
X1998450D01*
X1997700Y1585799D02*
X1998157D01*
X1915700Y1563479D02*
X1994800D01*
X1915700Y1563119D02*
X1994800D01*
X1915700Y1562759D02*
X1994800D01*
X1915700Y1562399D02*
X1994800D01*
X1915700Y1562039D02*
X1994800D01*
X1915700Y1561679D02*
X1994800D01*
X1915700Y1561319D02*
X1994800D01*
X1915700Y1560959D02*
X1994800D01*
X1915700Y1560599D02*
X1994800D01*
X1915700Y1560239D02*
X1994800D01*
X1915700Y1559879D02*
X1994800D01*
X1915700Y1559519D02*
X1994800D01*
X1915700Y1559159D02*
X1994800D01*
X1915700Y1558799D02*
X1994800D01*
X1915700Y1558439D02*
X1994800D01*
X1915700Y1558079D02*
X1994800D01*
X1915700Y1557719D02*
X1994800D01*
X1915700Y1557359D02*
X1994800D01*
X1915700Y1556999D02*
X1994800D01*
X1915700Y1556639D02*
X1994800D01*
X1915700Y1556279D02*
X1994800D01*
X1915700Y1555919D02*
X1994800D01*
X1915700Y1555559D02*
X1994800D01*
X1915700Y1555199D02*
X1994800D01*
X1915700Y1554839D02*
X1994800D01*
X1915700Y1554479D02*
X1994800D01*
X1915700Y1554119D02*
X1994800D01*
X1915700Y1553759D02*
X1994800D01*
X1915700Y1553399D02*
X1994800D01*
X1915700Y1553039D02*
X1994800D01*
X1915700Y1552679D02*
X1994800D01*
X1915700Y1552319D02*
X1994800D01*
X1915700Y1551959D02*
X1994800D01*
X1915700Y1551599D02*
X1994800D01*
X1915700Y1551239D02*
X1994800D01*
X1915700Y1550879D02*
X1994800D01*
X1915700Y1550519D02*
X1994800D01*
X1915700Y1550159D02*
X1994800D01*
X1915700Y1549799D02*
X1994800D01*
X1915700Y1549439D02*
X1994800D01*
X1915700Y1549079D02*
X1994800D01*
X1915700Y1548719D02*
X1994800D01*
X1915700Y1548359D02*
X1994800D01*
X1915700Y1547999D02*
X1994800D01*
X1915700Y1547639D02*
X1994800D01*
X1915700Y1547279D02*
X1994800D01*
X1915700Y1546919D02*
X1994800D01*
X1915700Y1546559D02*
X1994800D01*
X1915700Y1546199D02*
X1994800D01*
X1915700Y1545839D02*
X1994800D01*
X1915700Y1545479D02*
X1994800D01*
X1915700Y1545119D02*
X1994800D01*
X1915700Y1544759D02*
X1994800D01*
X1915700Y1544399D02*
X1994800D01*
X1915700Y1544039D02*
X1994800D01*
X1915700Y1543679D02*
X1994800D01*
X1915700Y1543319D02*
X1994800D01*
X1915700Y1542959D02*
X1994800D01*
X1915700Y1542599D02*
X1994800D01*
X1915700Y1542239D02*
X1994800D01*
X1915700Y1541879D02*
X1994800D01*
X1915700Y1541519D02*
X1994800D01*
X1915700Y1541159D02*
X1994800D01*
X1915700Y1540799D02*
X1994800D01*
X1915700Y1540439D02*
X1994800D01*
X1915700Y1540079D02*
X1994800D01*
X1915700Y1539719D02*
X1994800D01*
X1915700Y1539359D02*
X1994800D01*
X1915700Y1538999D02*
X1994800D01*
X1915700Y1538639D02*
X1994800D01*
X1915700Y1538279D02*
X1994800D01*
X1915700Y1537919D02*
X1994800D01*
X1915700Y1537559D02*
X1994800D01*
X1915700Y1537199D02*
X1994800D01*
X1915700Y1536839D02*
X1994800D01*
X1915700Y1536479D02*
X1994800D01*
X1915700Y1536119D02*
X1994800D01*
X1915700Y1535759D02*
X1994800D01*
X1915700Y1535399D02*
X1994800D01*
X1915700Y1535039D02*
X1994800D01*
X1915700Y1534679D02*
X1994800D01*
X1915700Y1534319D02*
X1994800D01*
X1915700Y1533959D02*
X1994800D01*
X1915700Y1533599D02*
X1994800D01*
X1915700Y1533239D02*
X1994800D01*
X1915700Y1532879D02*
X1994800D01*
X1915700Y1532519D02*
X1994800D01*
X1915700Y1532159D02*
X1994800D01*
X1915700Y1531799D02*
X1994800D01*
X1915700Y1531439D02*
X1994800D01*
X1915700Y1531079D02*
X1994800D01*
X1915700Y1530719D02*
X1994800D01*
X1915700Y1530359D02*
X1994800D01*
X1915700Y1529999D02*
X1994800D01*
X1915700Y1529639D02*
X1994800D01*
X1915700Y1529279D02*
X1994800D01*
X1915700Y1528919D02*
X1994800D01*
X1915700Y1528559D02*
X1994800D01*
X1915700Y1528199D02*
X1994800D01*
X1915700Y1527839D02*
X1994800D01*
X1915700Y1527479D02*
X1994800D01*
X1915700Y1527119D02*
X1994800D01*
X1915700Y1526759D02*
X1994800D01*
X1915700Y1526399D02*
X1994800D01*
X1915700Y1526039D02*
X1994800D01*
X1915700Y1525679D02*
X1994800D01*
X1915700Y1525319D02*
X1994800D01*
X1915700Y1524959D02*
X1994800D01*
X1915700Y1524599D02*
X1994800D01*
X1915700Y1524239D02*
X1994800D01*
X1915700Y1523879D02*
X1994800D01*
X1915700Y1523519D02*
X1994800D01*
X1915700Y1523159D02*
X1994800D01*
X1915700Y1522799D02*
X1994800D01*
X1915700Y1522439D02*
X1994800D01*
X1915700Y1522079D02*
X1994800D01*
X1915700Y1521719D02*
X1994800D01*
X1915700Y1521359D02*
X1994800D01*
X1915700Y1520999D02*
X1994800D01*
X1915700Y1520639D02*
X1994800D01*
X1915700Y1520279D02*
X1994800D01*
X1915700Y1519919D02*
X1994800D01*
X1915700Y1519559D02*
X1994800D01*
X1915700Y1519199D02*
X1994800D01*
X1915700Y1518839D02*
X1994800D01*
X1915700Y1518479D02*
X1994800D01*
X1915700Y1518119D02*
X1994800D01*
X1915700Y1517759D02*
X1994800D01*
X1915700Y1517399D02*
X1994800D01*
X1915700Y1517039D02*
X1994800D01*
X1915700Y1516679D02*
X1994800D01*
X1915700Y1516319D02*
X1994800D01*
X1915700Y1515959D02*
X1994800D01*
X1915700Y1515599D02*
X1994800D01*
X1915700Y1515239D02*
X1994800D01*
X1915700Y1514879D02*
X1994800D01*
X1915700Y1514519D02*
X1994800D01*
X1915700Y1514159D02*
X1994800D01*
X1915700Y1513799D02*
X1994800D01*
X1915700Y1513439D02*
X1994800D01*
X1915700Y1513079D02*
X1994800D01*
X1915700Y1512719D02*
X1994800D01*
X1915700Y1512359D02*
X1994800D01*
X1915700Y1511999D02*
X1994800D01*
X1915700Y1511639D02*
X1994800D01*
X1915700Y1511279D02*
X1994800D01*
X1915700Y1510919D02*
X1994800D01*
X1915700Y1510559D02*
X1994800D01*
X1915700Y1510199D02*
X1994800D01*
X1915700Y1509839D02*
X1994800D01*
X1915700Y1509479D02*
X1994800D01*
X1915700Y1509119D02*
X1994800D01*
X1915700Y1508759D02*
X1994800D01*
X1915700Y1508399D02*
X1994800D01*
X1915700Y1508039D02*
X1994800D01*
X1915700Y1507679D02*
X1994800D01*
X1915700Y1507319D02*
X1994800D01*
X1915700Y1506959D02*
X1994800D01*
X1915700Y1506599D02*
X1994800D01*
X1915700Y1506239D02*
X1994800D01*
X1915700Y1505879D02*
X1994800D01*
X1915700Y1505519D02*
X1994800D01*
X1915700Y1505159D02*
X1994800D01*
X1915700Y1504799D02*
X1994800D01*
X1915700Y1504439D02*
X1994800D01*
X1915700Y1504079D02*
X1994800D01*
X1915700Y1503719D02*
X1994800D01*
X1915700Y1503359D02*
X1994800D01*
X1915700Y1502999D02*
X1994800D01*
X1915700Y1502639D02*
X1994800D01*
X1915700Y1502279D02*
X1994800D01*
X1915700Y1501919D02*
X1994800D01*
X1915700Y1501559D02*
X1994800D01*
X1915700Y1501199D02*
X1994800D01*
X1915700Y1500839D02*
X1994800D01*
X1915700Y1500479D02*
X1994800D01*
X1915700Y1500119D02*
X1994800D01*
X1915700Y1499759D02*
X1994800D01*
X1915700Y1499399D02*
X1994800D01*
X1915700Y1499039D02*
X1994800D01*
X1915700Y1498679D02*
X1994800D01*
X1915700Y1498319D02*
X1994800D01*
X1915700Y1497959D02*
X1994800D01*
X1915700Y1497599D02*
X1994800D01*
X1915700Y1497239D02*
X1994800D01*
X1915700Y1496879D02*
X1994800D01*
X1915700Y1496519D02*
X1994800D01*
X1915700Y1496159D02*
X1994800D01*
X1915700Y1495799D02*
X1994800D01*
X1915700Y1495439D02*
X1994800D01*
X1915700Y1495079D02*
X1994800D01*
X1915700Y1494719D02*
X1994800D01*
X1915700Y1494359D02*
X1994800D01*
X1915700Y1493999D02*
X1994800D01*
X1915700Y1493639D02*
X1994800D01*
X1915700Y1493279D02*
X1994800D01*
X1915700Y1492919D02*
X1994800D01*
X1915700Y1492559D02*
X1994800D01*
X1915700Y1492199D02*
X1994800D01*
X1915700Y1491839D02*
X1994800D01*
X1915700Y1491479D02*
X1994800D01*
X1915700Y1491119D02*
X1994800D01*
X1915700Y1490759D02*
X1994800D01*
X1915700Y1490399D02*
X1994800D01*
X1915700Y1490039D02*
X1994800D01*
X1915700Y1489679D02*
X1994800D01*
X1915700Y1489319D02*
X1994800D01*
X1915700Y1488959D02*
X1994800D01*
X1915700Y1488599D02*
X1994800D01*
X1915700Y1488239D02*
X1994800D01*
X1915700Y1487879D02*
X1994800D01*
X1915700Y1487519D02*
X1994800D01*
X1915700Y1487159D02*
X1994800D01*
X1915700Y1486799D02*
X1994800D01*
X1915700Y1486439D02*
X1994800D01*
X1915700Y1486079D02*
X1994800D01*
X1915700Y1485719D02*
X1994800D01*
X1915700Y1485359D02*
X1994800D01*
X1915700Y1484999D02*
X1994800D01*
X1915700Y1484639D02*
X1994800D01*
X1915700Y1484279D02*
X1994800D01*
X1915700Y1483919D02*
X1994800D01*
X1915700Y1483559D02*
X1994800D01*
X1915700Y1483199D02*
X1994800D01*
X1915700Y1482839D02*
X1994800D01*
X1915700Y1482479D02*
X1994800D01*
X1915700Y1482119D02*
X1994800D01*
X1915700Y1481759D02*
X1994800D01*
X1915700Y1481399D02*
X1994800D01*
X1915700Y1481039D02*
X1994800D01*
X1915700Y1480679D02*
X1994800D01*
X1915700Y1480319D02*
X1994800D01*
X1915700Y1479959D02*
X1994800D01*
X1915700Y1479599D02*
X1994800D01*
X1915700Y1479239D02*
X1994800D01*
X1915700Y1478879D02*
X1994800D01*
X1915700Y1478519D02*
X1994800D01*
X1915700Y1478159D02*
X1994800D01*
X1915700Y1477799D02*
X1994800D01*
X1915700Y1477439D02*
X1994800D01*
X1915700Y1477079D02*
X1994800D01*
X1915700Y1476719D02*
X1994800D01*
X1991177Y1476359D02*
X1994800D01*
X1991611Y1475999D02*
X1994800D01*
X1991882Y1475639D02*
X1994800D01*
X1992058Y1475279D02*
X1994800D01*
X1992160Y1474919D02*
X1994800D01*
X1992199Y1474559D02*
X1994800D01*
X1992179Y1474199D02*
X1994800D01*
X1992098Y1473839D02*
X1994800D01*
X1991949Y1473479D02*
X1994800D01*
X1991712Y1473119D02*
X1994800D01*
X1991345Y1472759D02*
X1994800D01*
X1990652Y1472399D02*
X1994800D01*
X1915700Y1472039D02*
X1994800D01*
X1915700Y1471679D02*
X1994800D01*
X1915700Y1471319D02*
X1994800D01*
X1915700Y1470959D02*
X1994800D01*
X1915700Y1470599D02*
X1994800D01*
X1915700Y1470239D02*
X1994800D01*
X1915700Y1469879D02*
X1994800D01*
X1915700Y1469519D02*
X1994800D01*
X1915700Y1469159D02*
X1994800D01*
X1915700Y1468799D02*
X1994800D01*
X1915700Y1468439D02*
X1994800D01*
X1915700Y1468079D02*
X1994800D01*
X1915700Y1467719D02*
X1994800D01*
X1915700Y1467359D02*
X1994800D01*
X1915700Y1466999D02*
X1994800D01*
X1915700Y1466639D02*
X1994800D01*
X1915700Y1466279D02*
X1994800D01*
X1915700Y1465919D02*
X1994800D01*
X1915700Y1465559D02*
X1994800D01*
X1915700Y1594439D02*
X1992800D01*
X1915700Y1594079D02*
X1992800D01*
X1915700Y1593719D02*
X1992800D01*
X1915700Y1593359D02*
X1992633D01*
X1915700Y1594799D02*
X1992623D01*
X1915700Y1592999D02*
X1992204D01*
X1920516Y1592639D02*
X1991966D01*
X1921295Y1592279D02*
X1991859D01*
X1921681Y1591919D02*
X1990924D01*
X1921929Y1591559D02*
X1990447D01*
X1922086Y1591199D02*
X1990155D01*
X1922174Y1590839D02*
X1989966D01*
X1979190Y1590479D02*
X1989853D01*
X1979940Y1589759D02*
X1989813D01*
X1979668Y1590119D02*
X1989803D01*
X1980103Y1589399D02*
X1989799D01*
X1915700Y1472399D02*
X1989348D01*
X1915700Y1476359D02*
X1988823D01*
X1915700Y1472759D02*
X1988655D01*
X1980185Y1589039D02*
X1988649D01*
X1915700Y1475999D02*
X1988389D01*
X1915700Y1473119D02*
X1988288D01*
X1980200Y1588679D02*
X1988260D01*
X1915700Y1475639D02*
X1988118D01*
X1980200Y1588319D02*
X1988093D01*
X1915700Y1473479D02*
X1988051D01*
X1980200Y1587959D02*
X1988050D01*
X1980200Y1587599D02*
X1988050D01*
X1980200Y1587239D02*
X1988050D01*
X1980200Y1586879D02*
X1988049D01*
X1915700Y1475279D02*
X1987942D01*
X1915700Y1473839D02*
X1987902D01*
X1915700Y1474919D02*
X1987840D01*
X1915700Y1474199D02*
X1987821D01*
X1915700Y1474559D02*
X1987801D01*
X1915700Y1563839D02*
X1982818D01*
X1980200Y1586519D02*
X1982390D01*
X1915700Y1564199D02*
X1982035D01*
X1980200Y1586159D02*
X1981872D01*
X1915700Y1564559D02*
X1981681D01*
X1980200Y1585799D02*
X1981584D01*
X1980200Y1578599D02*
X1981476D01*
X1915700Y1564919D02*
X1981468D01*
X1980200Y1578959D02*
X1981451D01*
X1980200Y1585439D02*
X1981411D01*
X1980200Y1578239D02*
X1981351D01*
X1915700Y1565279D02*
X1981347D01*
X1980200Y1579319D02*
X1981339D01*
X1980200Y1585079D02*
X1981321D01*
X1980173Y1577879D02*
X1981302D01*
X1915700Y1565639D02*
X1981301D01*
X1980200Y1579679D02*
X1981300D01*
X1980200Y1584719D02*
X1981300D01*
X1980200Y1584359D02*
X1981300D01*
X1980200Y1583999D02*
X1981300D01*
X1980200Y1583639D02*
X1981300D01*
X1980200Y1583279D02*
X1981300D01*
X1980200Y1582919D02*
X1981300D01*
X1980200Y1582559D02*
X1981300D01*
X1980200Y1582199D02*
X1981300D01*
X1980200Y1581839D02*
X1981300D01*
X1980200Y1581479D02*
X1981300D01*
X1980200Y1581119D02*
X1981300D01*
X1980200Y1580759D02*
X1981300D01*
X1980200Y1580399D02*
X1981300D01*
X1980200Y1580039D02*
X1981300D01*
X1980074Y1577519D02*
X1981300D01*
X1979889Y1577159D02*
X1981300D01*
X1979583Y1576799D02*
X1981300D01*
X1979013Y1576439D02*
X1981300D01*
X1915700Y1576079D02*
X1981300D01*
X1915700Y1575719D02*
X1981300D01*
X1915700Y1575359D02*
X1981300D01*
X1915700Y1574999D02*
X1981300D01*
X1915700Y1574639D02*
X1981300D01*
X1915700Y1574279D02*
X1981300D01*
X1915700Y1573919D02*
X1981300D01*
X1915700Y1573559D02*
X1981300D01*
X1915700Y1573199D02*
X1981300D01*
X1915700Y1572839D02*
X1981300D01*
X1915700Y1572479D02*
X1981300D01*
X1915700Y1572119D02*
X1981300D01*
X1915700Y1571759D02*
X1981300D01*
X1915700Y1571399D02*
X1981300D01*
X1915700Y1571039D02*
X1981300D01*
X1915700Y1570679D02*
X1981300D01*
X1915700Y1570319D02*
X1981300D01*
X1915700Y1569959D02*
X1981300D01*
X1915700Y1569599D02*
X1981300D01*
X1915700Y1569239D02*
X1981300D01*
X1915700Y1568879D02*
X1981300D01*
X1915700Y1568519D02*
X1981300D01*
X1915700Y1568159D02*
X1981300D01*
X1915700Y1567799D02*
X1981300D01*
X1915700Y1567439D02*
X1981300D01*
X1915700Y1567079D02*
X1981300D01*
X1915700Y1566719D02*
X1981300D01*
X1915700Y1566359D02*
X1981300D01*
X1915700Y1565999D02*
X1981300D01*
X1915700Y1576439D02*
X1955987D01*
X1922200Y1590479D02*
X1955810D01*
X1915700Y1576799D02*
X1955417D01*
X1922167Y1590119D02*
X1955332D01*
X1915700Y1577159D02*
X1955111D01*
X1922071Y1589759D02*
X1955060D01*
X1915700Y1577519D02*
X1954926D01*
X1921905Y1589399D02*
X1954897D01*
X1915700Y1577879D02*
X1954827D01*
X1921645Y1589039D02*
X1954815D01*
X1921234Y1588679D02*
X1954800D01*
X1920286Y1588319D02*
X1954800D01*
X1915700Y1587959D02*
X1954800D01*
X1915700Y1587599D02*
X1954800D01*
X1915700Y1587239D02*
X1954800D01*
X1915700Y1586879D02*
X1954800D01*
X1915700Y1586519D02*
X1954800D01*
X1915700Y1586159D02*
X1954800D01*
X1915700Y1585799D02*
X1954800D01*
X1915700Y1585439D02*
X1954800D01*
X1915700Y1585079D02*
X1954800D01*
X1915700Y1584719D02*
X1954800D01*
X1915700Y1584359D02*
X1954800D01*
X1915700Y1583999D02*
X1954800D01*
X1915700Y1583639D02*
X1954800D01*
X1915700Y1583279D02*
X1954800D01*
X1915700Y1582919D02*
X1954800D01*
X1915700Y1582559D02*
X1954800D01*
X1915700Y1582199D02*
X1954800D01*
X1915700Y1581839D02*
X1954800D01*
X1915700Y1581479D02*
X1954800D01*
X1915700Y1581119D02*
X1954800D01*
X1915700Y1580759D02*
X1954800D01*
X1915700Y1580399D02*
X1954800D01*
X1915700Y1580039D02*
X1954800D01*
X1915700Y1579679D02*
X1954800D01*
X1915700Y1579319D02*
X1954800D01*
X1915700Y1578959D02*
X1954800D01*
X1915700Y1578599D02*
X1954800D01*
X1915700Y1578239D02*
X1954800D01*
X1915700Y1595159D02*
X1949089D01*
X1915700Y1595519D02*
X1948712D01*
X1915700Y1595879D02*
X1948487D01*
X1915756Y1596239D02*
X1948332D01*
X1915700Y1588319D02*
X1919714D01*
X1915700Y1592639D02*
X1919484D01*
X1915700Y1588679D02*
X1918766D01*
X1915700Y1592279D02*
X1918705D01*
X1915700Y1589039D02*
X1918355D01*
X1915700Y1591919D02*
X1918319D01*
X1915700Y1589399D02*
X1918095D01*
X1915700Y1591559D02*
X1918071D01*
X1915700Y1589759D02*
X1917929D01*
X1915700Y1591199D02*
X1917914D01*
X1915700Y1590119D02*
X1917833D01*
X1915700Y1590839D02*
X1917826D01*
X1915700Y1590479D02*
X1917800D01*
X1852700Y1656819D02*
X1995800D01*
X1852700Y1656459D02*
X1995800D01*
X1852700Y1656099D02*
X1995800D01*
X1852700Y1655739D02*
X1995800D01*
X1852700Y1655379D02*
X1995800D01*
X1852700Y1655019D02*
X1995800D01*
X1852700Y1654659D02*
X1995800D01*
X1852700Y1654299D02*
X1995800D01*
X1852700Y1653939D02*
X1995800D01*
X1852700Y1653579D02*
X1995800D01*
X1852700Y1653219D02*
X1995800D01*
X1852700Y1652859D02*
X1995800D01*
X1852700Y1652499D02*
X1995800D01*
X1852700Y1652139D02*
X1995800D01*
X1852700Y1651779D02*
X1995800D01*
X1852700Y1651419D02*
X1995800D01*
X1852700Y1651059D02*
X1995800D01*
X1852700Y1650699D02*
X1995800D01*
X1852700Y1650339D02*
X1995800D01*
X1852700Y1649979D02*
X1995800D01*
X1852700Y1649619D02*
X1995800D01*
X1852700Y1649259D02*
X1995800D01*
X1852700Y1648899D02*
X1995800D01*
X1852700Y1648539D02*
X1995800D01*
X1852700Y1648179D02*
X1995800D01*
X1852700Y1647819D02*
X1995800D01*
X1852700Y1647459D02*
X1995800D01*
X1852700Y1647099D02*
X1995800D01*
X1852700Y1646739D02*
X1995800D01*
X1852700Y1646379D02*
X1995800D01*
X1852700Y1646019D02*
X1995800D01*
X1852700Y1645659D02*
X1995800D01*
X1852700Y1645299D02*
X1995800D01*
X1852700Y1644939D02*
X1995800D01*
X1852700Y1644579D02*
X1995800D01*
X1852700Y1644219D02*
X1995800D01*
X1852700Y1643859D02*
X1995800D01*
X1852700Y1643499D02*
X1995800D01*
X1852700Y1643139D02*
X1995800D01*
X1852700Y1642779D02*
X1995800D01*
X1852700Y1642419D02*
X1995800D01*
X1852700Y1642059D02*
X1995800D01*
X1852700Y1641699D02*
X1995800D01*
X1852700Y1641339D02*
X1995800D01*
X1852700Y1640979D02*
X1995800D01*
X1852700Y1640619D02*
X1995800D01*
X1852700Y1640259D02*
X1995800D01*
X1852700Y1639899D02*
X1995800D01*
X1852700Y1639539D02*
X1995800D01*
X1852700Y1639179D02*
X1995800D01*
X1852700Y1638819D02*
X1995800D01*
X1852700Y1638459D02*
X1995800D01*
X1852700Y1638099D02*
X1995800D01*
X1852700Y1637739D02*
X1995800D01*
X1852700Y1637379D02*
X1995800D01*
X1852700Y1637019D02*
X1995800D01*
X1852700Y1636659D02*
X1995800D01*
X1852700Y1636299D02*
X1995800D01*
X1852700Y1635939D02*
X1995800D01*
X1852700Y1635579D02*
X1995800D01*
X1852700Y1635219D02*
X1995800D01*
X1852700Y1634859D02*
X1995800D01*
X1852700Y1634499D02*
X1995800D01*
X1852700Y1634139D02*
X1995800D01*
X1852700Y1633779D02*
X1995800D01*
X1852700Y1633419D02*
X1995800D01*
X1852700Y1633059D02*
X1995800D01*
X1852700Y1632699D02*
X1995800D01*
X1852700Y1632339D02*
X1995800D01*
X1852700Y1631979D02*
X1995800D01*
X1852700Y1631619D02*
X1995800D01*
X1852700Y1631259D02*
X1995800D01*
X1942111Y1630899D02*
X1995800D01*
X1852700Y1657179D02*
X1995784D01*
X1942572Y1630539D02*
X1986434D01*
X1942858Y1630179D02*
X1985893D01*
X1944924Y1618659D02*
X1985603D01*
X1943042Y1629819D02*
X1985596D01*
X1852700Y1619019D02*
X1985426D01*
X1943152Y1629459D02*
X1985418D01*
X1945767Y1618299D02*
X1985394D01*
X1852700Y1619379D02*
X1985327D01*
X1943198Y1629099D02*
X1985324D01*
X1943184Y1628739D02*
X1985300D01*
X1943110Y1628379D02*
X1985300D01*
X1942969Y1628019D02*
X1985300D01*
X1942744Y1627659D02*
X1985300D01*
X1942395Y1627299D02*
X1985300D01*
X1941769Y1626939D02*
X1985300D01*
X1852700Y1626579D02*
X1985300D01*
X1852700Y1626219D02*
X1985300D01*
X1852700Y1625859D02*
X1985300D01*
X1852700Y1625499D02*
X1985300D01*
X1852700Y1625139D02*
X1985300D01*
X1852700Y1624779D02*
X1985300D01*
X1852700Y1624419D02*
X1985300D01*
X1852700Y1624059D02*
X1985300D01*
X1852700Y1623699D02*
X1985300D01*
X1852700Y1623339D02*
X1985300D01*
X1852700Y1622979D02*
X1985300D01*
X1852700Y1622619D02*
X1985300D01*
X1852700Y1622259D02*
X1985300D01*
X1852700Y1621899D02*
X1985300D01*
X1852700Y1621539D02*
X1985300D01*
X1852700Y1621179D02*
X1985300D01*
X1852700Y1620819D02*
X1985300D01*
X1852700Y1620459D02*
X1985300D01*
X1852700Y1620099D02*
X1985300D01*
X1852700Y1619739D02*
X1985300D01*
X1946164Y1617939D02*
X1985034D01*
X1946417Y1617579D02*
X1984674D01*
X1946579Y1617219D02*
X1984314D01*
X1946671Y1616859D02*
X1983954D01*
X1946700Y1616499D02*
X1983624D01*
X1946670Y1616139D02*
X1983425D01*
X1946578Y1615779D02*
X1983323D01*
X1946416Y1615419D02*
X1983300D01*
X1946162Y1615059D02*
X1983300D01*
X1945763Y1614699D02*
X1983300D01*
X1944911Y1614339D02*
X1983300D01*
X1852700Y1613979D02*
X1983300D01*
X1852700Y1613619D02*
X1983300D01*
X1852700Y1613259D02*
X1983300D01*
X1852700Y1612899D02*
X1983300D01*
X1852700Y1612539D02*
X1982877D01*
X1852700Y1612179D02*
X1982516D01*
X1852700Y1611819D02*
X1982359D01*
X1852700Y1611459D02*
X1982324D01*
X1852700Y1611099D02*
X1982324D01*
X1852700Y1610739D02*
X1982324D01*
X1852700Y1610379D02*
X1982324D01*
X1852700Y1610019D02*
X1982324D01*
X1852700Y1609659D02*
X1982324D01*
X1852700Y1609299D02*
X1982324D01*
X1852700Y1608939D02*
X1982324D01*
X1852700Y1608579D02*
X1982324D01*
X1852700Y1608219D02*
X1982208D01*
X1852700Y1607859D02*
X1949113D01*
X1852700Y1607499D02*
X1948726D01*
X1852700Y1607139D02*
X1948495D01*
X1852700Y1606779D02*
X1948361D01*
X1852700Y1606419D02*
X1948304D01*
X1852700Y1606059D02*
X1948300D01*
X1852700Y1605699D02*
X1948300D01*
X1852700Y1605339D02*
X1948300D01*
X1852700Y1604979D02*
X1948300D01*
X1852700Y1604619D02*
X1948300D01*
X1852700Y1604259D02*
X1948300D01*
X1852700Y1603899D02*
X1948300D01*
X1852700Y1603539D02*
X1948300D01*
X1852700Y1603179D02*
X1948300D01*
X1852700Y1602819D02*
X1948300D01*
X1852700Y1602459D02*
X1948300D01*
X1852700Y1602099D02*
X1948300D01*
X1852700Y1601739D02*
X1948300D01*
X1852700Y1601379D02*
X1948300D01*
X1852700Y1601019D02*
X1948300D01*
X1852700Y1600659D02*
X1948300D01*
X1852700Y1600299D02*
X1948300D01*
X1852700Y1599939D02*
X1948300D01*
X1852700Y1599579D02*
X1948300D01*
X1852700Y1599219D02*
X1948300D01*
X1852700Y1598859D02*
X1948300D01*
X1852700Y1598499D02*
X1948300D01*
X1852700Y1614339D02*
X1944089D01*
X1852700Y1618659D02*
X1944076D01*
X1852700Y1614699D02*
X1943237D01*
X1852700Y1618299D02*
X1943233D01*
X1852700Y1615059D02*
X1942838D01*
X1852700Y1617939D02*
X1942836D01*
X1852700Y1615419D02*
X1942584D01*
X1852700Y1617579D02*
X1942583D01*
X1852700Y1615779D02*
X1942422D01*
X1852700Y1617219D02*
X1942421D01*
X1852700Y1616139D02*
X1942330D01*
X1852700Y1616859D02*
X1942329D01*
X1852700Y1616499D02*
X1942300D01*
X1852700Y1626939D02*
X1940231D01*
X1852700Y1630899D02*
X1939889D01*
X1852700Y1627299D02*
X1939605D01*
X1852700Y1630539D02*
X1939428D01*
X1852700Y1627659D02*
X1939256D01*
X1852700Y1630179D02*
X1939142D01*
X1852700Y1628019D02*
X1939031D01*
X1852700Y1629819D02*
X1938958D01*
X1852700Y1628379D02*
X1938890D01*
X1852700Y1629459D02*
X1938848D01*
X1852700Y1628739D02*
X1938816D01*
X1852700Y1629099D02*
X1938802D01*
X1852700Y1657539D02*
X1932169D01*
X1852700Y1657899D02*
X1931706D01*
X1852700Y1658259D02*
X1931389D01*
X1852700Y1658619D02*
X1931073D01*
X1852700Y1658979D02*
X1930758D01*
X1852700Y1659339D02*
X1930442D01*
X1852700Y1659699D02*
X1930126D01*
X1852700Y1660059D02*
X1929811D01*
X1852700Y1660419D02*
X1929495D01*
X1852700Y1660779D02*
X1929179D01*
X1852700Y1661139D02*
X1928863D01*
X1852700Y1661499D02*
X1928548D01*
X1852700Y1661859D02*
X1928232D01*
X1852700Y1662219D02*
X1927916D01*
X1852700Y1662579D02*
X1927601D01*
X1852700Y1662939D02*
X1927285D01*
X1852700Y1663299D02*
X1926969D01*
X1852700Y1663659D02*
X1926654D01*
X1852700Y1664019D02*
X1926338D01*
X1852700Y1664379D02*
X1926022D01*
X1852700Y1664739D02*
X1925707D01*
X1852700Y1665099D02*
X1925391D01*
X1852700Y1665459D02*
X1925075D01*
X1852700Y1665819D02*
X1924759D01*
X1852700Y1666179D02*
X1924444D01*
X1852700Y1666539D02*
X1924128D01*
X1852700Y1666899D02*
X1923812D01*
X1852700Y1667259D02*
X1923497D01*
X1852700Y1667619D02*
X1923181D01*
X1852700Y1667979D02*
X1922865D01*
X1852700Y1668339D02*
X1922550D01*
X1852700Y1668699D02*
X1922234D01*
X1852700Y1669059D02*
X1921918D01*
X1852700Y1669419D02*
X1921603D01*
X1852700Y1669779D02*
X1921287D01*
X1852700Y1670139D02*
X1920971D01*
X1852700Y1670499D02*
X1920655D01*
X1852700Y1670859D02*
X1920340D01*
X1852700Y1671219D02*
X1920024D01*
X1852700Y1671579D02*
X1919708D01*
X1852700Y1671939D02*
X1919393D01*
X1852700Y1672299D02*
X1919077D01*
X1852700Y1672659D02*
X1918761D01*
X1852700Y1673019D02*
X1918446D01*
X1852700Y1673379D02*
X1918130D01*
X1852700Y1673739D02*
X1917814D01*
X1852700Y1674099D02*
X1917499D01*
X1852700Y1674459D02*
X1917183D01*
X1852700Y1674819D02*
X1916867D01*
X1852700Y1675179D02*
X1916551D01*
X1852700Y1675539D02*
X1916236D01*
X1852700Y1675899D02*
X1915920D01*
X1852700Y1676259D02*
X1915604D01*
X1852700Y1676619D02*
X1915289D01*
X1852700Y1676979D02*
X1914973D01*
X1852700Y1677339D02*
X1914657D01*
X1852700Y1677699D02*
X1914342D01*
X1852700Y1678059D02*
X1914026D01*
X1852700Y1678419D02*
X1913710D01*
X1852700Y1678779D02*
X1913395D01*
X1852700Y1679139D02*
X1913079D01*
X1852700Y1679499D02*
X1912763D01*
X1852700Y1679859D02*
X1912447D01*
X1852700Y1680219D02*
X1912132D01*
X1852700Y1680579D02*
X1911816D01*
X1852700Y1680939D02*
X1911500D01*
X1852700Y1681299D02*
X1911185D01*
X1852700Y1681659D02*
X1910869D01*
X1852700Y1682019D02*
X1910553D01*
X1852700Y1682379D02*
X1910238D01*
X1852700Y1682739D02*
X1909922D01*
X1852700Y1683099D02*
X1909606D01*
X1852700Y1683459D02*
X1909291D01*
X1852700Y1683819D02*
X1908975D01*
X1852700Y1684179D02*
X1908659D01*
X1852700Y1684539D02*
X1908343D01*
X1852700Y1684899D02*
X1908028D01*
X1852700Y1685259D02*
X1907712D01*
X1852700Y1685619D02*
X1907396D01*
X1852700Y1685979D02*
X1907081D01*
X1852700Y1686339D02*
X1906765D01*
X1852700Y1686699D02*
X1906449D01*
X1852700Y1687059D02*
X1906134D01*
X1852700Y1687419D02*
X1905818D01*
X1852700Y1687779D02*
X1905502D01*
X1852700Y1688139D02*
X1905187D01*
X1852700Y1688499D02*
X1904871D01*
X1852700Y1688859D02*
X1904555D01*
X1852700Y1689219D02*
X1904239D01*
X1852700Y1689579D02*
X1903924D01*
X1986963Y1615059D02*
X1995800D01*
X1986700Y1614699D02*
X1995800D01*
X1986700Y1614339D02*
X1995800D01*
X1986700Y1613979D02*
X1995800D01*
X1986700Y1613619D02*
X1995800D01*
X1986700Y1613259D02*
X1995800D01*
X1986700Y1612899D02*
X1995800D01*
X1987123Y1612539D02*
X1995800D01*
X1987484Y1612179D02*
X1995800D01*
X1987641Y1611819D02*
X1995800D01*
X1987676Y1611459D02*
X1995800D01*
X1987676Y1611099D02*
X1995800D01*
X1987676Y1610739D02*
X1995800D01*
X1987676Y1610379D02*
X1995800D01*
X1987676Y1610019D02*
X1995800D01*
X1987676Y1609659D02*
X1995800D01*
X1987676Y1609299D02*
X1995800D01*
X1987676Y1608939D02*
X1995800D01*
X1987676Y1608579D02*
X1995800D01*
X1987792Y1608219D02*
X1995800D01*
X1993887Y1607859D02*
X1995800D01*
X1994274Y1607499D02*
X1995800D01*
X1994505Y1607139D02*
X1995800D01*
X1994653Y1606779D02*
X1995710D01*
X1987323Y1615419D02*
X1995677D01*
X1987697Y1615779D02*
X1995303D01*
G54D173*
X1992000Y1611000D03*
Y1623000D03*
X1991000Y1582000D03*
Y1570000D03*
X1897500Y1602500D03*
Y1590500D03*
X2002000Y1582000D03*
Y1570000D03*
G54D181*
X1877500Y1521500D03*
Y1671500D03*
X1927500Y1486500D03*
X2062500D03*
X2097500D03*
X2122500Y1679000D03*
G54D184*
X2001437Y1602110D03*
X1999469D03*
X1997500D03*
X1995531D03*
X1993563D03*
Y1590890D03*
X1995531D03*
X1997500D03*
X1999469D03*
X2001437D03*
G54D185*
X1991890Y1599453D03*
Y1597484D03*
Y1595516D03*
Y1593547D03*
X2003110D03*
Y1595516D03*
Y1597484D03*
Y1599453D03*
G54D186*
X2000059Y1598370D03*
Y1594630D03*
G54D187*
X1996319Y1598272D03*
Y1594728D03*
G54D188*
X1994500Y1587000D03*
X1990500D03*
X1994500Y1606000D03*
X1990500D03*
G54D189*
X1877500Y1607524D03*
Y1585476D03*
G54D190*
X1967500Y1601950D03*
Y1586050D03*
G54D193*
X1937500Y1671500D03*
X1960000D03*
X1985000D03*
X2007500D03*
X2030000D03*
X2052500D03*
X2075000D03*
X2122500Y1651500D03*
Y1631500D03*
Y1611500D03*
Y1591500D03*
Y1571500D03*
Y1551500D03*
X1960000Y1694000D03*
X1985000D03*
G74*
X0Y0D02*
M02*
