*
*
G04 PADS VX.1.1 Build Number: 678707 generated Gerber (RS-274-X) file*
G04 PC Version=2.1*
*
%IN "DC3145A2-0922.pcb"*%
*
%MOIN*%
*
%FSLAX35Y35*%
*
*
*
*
G04 PC Standard Apertures*
*
*
G04 Thermal Relief Aperture macro.*
%AMTER*
1,1,$1,0,0*
1,0,$1-$2,0,0*
21,0,$3,$4,0,0,45*
21,0,$3,$4,0,0,135*
%
*
*
G04 Annular Aperture macro.*
%AMANN*
1,1,$1,0,0*
1,0,$2,0,0*
%
*
*
G04 Odd Aperture macro.*
%AMODD*
1,1,$1,0,0*
1,0,$1-0.005,0,0*
%
*
*
G04 PC Custom Aperture Macros*
*
*
*
*
*
*
G04 PC Aperture Table*
*
%ADD013C,0.01*%
%ADD020R,0.06X0.06*%
%ADD021C,0.06*%
%ADD029C,0.02*%
%ADD030C,0.015*%
%ADD035C,0.001*%
%ADD071C,0.07*%
%ADD133C,0.28*%
%ADD134C,0.325*%
%ADD147C,0.016*%
%ADD154C,0.004*%
%ADD181C,0.175*%
*
*
*
*
G04 PC Circuitry*
G04 Layer Name DC3145A2-0922.pcb - circuitry*
%LPD*%
*
*
G04 PC Custom Flashes*
G04 Layer Name DC3145A2-0922.pcb - flashes*
%LPD*%
*
*
G04 PC Circuitry*
G04 Layer Name DC3145A2-0922.pcb - circuitry*
%LPD*%
*
G54D13*
G01X1866818Y1456563D02*
X1865000Y1450000D01*
X1866818Y1456563D02*
X1868636Y1450000D01*
X1865682Y1452188D02*
X1867955D01*
X1870682Y1456563D02*
Y1450000D01*
Y1456563D02*
X1873864Y1450000D01*
Y1456563D02*
Y1450000D01*
X1877727Y1456563D02*
X1875909Y1450000D01*
X1877727Y1456563D02*
X1879545Y1450000D01*
X1876591Y1452188D02*
X1878864D01*
X1881591Y1456563D02*
Y1450000D01*
X1884318*
X1887727Y1456563D02*
X1887273Y1456250D01*
X1886818Y1455625*
X1886591Y1455000*
X1886364Y1454063*
X1886364D02*
Y1452500D01*
X1886591Y1451563*
X1886591D02*
X1886818Y1450938D01*
X1886818D02*
X1887273Y1450313D01*
X1887273D02*
X1887727Y1450000D01*
X1888636*
X1889091Y1450313*
X1889091D02*
X1889545Y1450938D01*
X1889545D02*
X1889773Y1451563D01*
X1889773D02*
X1890000Y1452500D01*
Y1454063*
X1890000D02*
X1889773Y1455000D01*
X1889545Y1455625*
X1889091Y1456250*
X1888636Y1456563*
X1888636D02*
X1887727D01*
X1895455Y1455000D02*
X1895227Y1455625D01*
X1894773Y1456250*
X1894318Y1456563*
X1894318D02*
X1893409D01*
X1893409D02*
X1892955Y1456250D01*
X1892500Y1455625*
X1892273Y1455000*
X1892045Y1454063*
X1892045D02*
Y1452500D01*
X1892273Y1451563*
X1892273D02*
X1892500Y1450938D01*
X1892500D02*
X1892955Y1450313D01*
X1892955D02*
X1893409Y1450000D01*
X1894318*
X1894773Y1450313*
X1894773D02*
X1895227Y1450938D01*
X1895227D02*
X1895455Y1451563D01*
X1895455D02*
Y1452500D01*
X1894318D02*
X1895455D01*
X1902727Y1456563D02*
Y1450000D01*
Y1456563D02*
X1904318D01*
X1904318D02*
X1905000Y1456250D01*
X1905455Y1455625*
X1905682Y1455000*
X1905909Y1454063*
X1905909D02*
Y1452500D01*
X1905682Y1451563*
X1905682D02*
X1905455Y1450938D01*
X1905455D02*
X1905000Y1450313D01*
X1905000D02*
X1904318Y1450000D01*
X1902727*
X1907955Y1456563D02*
Y1450000D01*
Y1456563D02*
X1910909D01*
X1907955Y1453438D02*
X1909773D01*
X1907955Y1450000D02*
X1910909D01*
X1912955Y1456563D02*
X1914773Y1450000D01*
X1916591Y1456563D02*
X1914773Y1450000D01*
X1918636Y1456563D02*
Y1450000D01*
X1924091Y1455000D02*
X1923864Y1455625D01*
X1923409Y1456250*
X1922955Y1456563*
X1922955D02*
X1922045D01*
X1922045D02*
X1921591Y1456250D01*
X1921136Y1455625*
X1920909Y1455000*
X1920682Y1454063*
X1920682D02*
Y1452500D01*
X1920909Y1451563*
X1920909D02*
X1921136Y1450938D01*
X1921136D02*
X1921591Y1450313D01*
X1921591D02*
X1922045Y1450000D01*
X1922955*
X1923409Y1450313*
X1923409D02*
X1923864Y1450938D01*
X1923864D02*
X1924091Y1451563D01*
X1926136Y1456563D02*
Y1450000D01*
Y1456563D02*
X1929091D01*
X1926136Y1453438D02*
X1927955D01*
X1926136Y1450000D02*
X1929091D01*
X1934318Y1455625D02*
X1933864Y1456250D01*
X1933182Y1456563*
X1933182D02*
X1932273D01*
X1932273D02*
X1931591Y1456250D01*
X1931136Y1455625*
Y1455000*
X1931364Y1454375*
X1931591Y1454063*
X1931591D02*
X1932045Y1453750D01*
X1933409Y1453125*
X1933864Y1452813*
X1933864D02*
X1934091Y1452500D01*
X1934318Y1451875*
Y1450938*
X1934318D02*
X1933864Y1450313D01*
X1933864D02*
X1933182Y1450000D01*
X1932273*
X1931591Y1450313*
X1931591D02*
X1931136Y1450938D01*
X1920000Y1444063D02*
Y1437500D01*
Y1444063D02*
X1921591D01*
X1921591D02*
X1922273Y1443750D01*
X1922727Y1443125*
X1922955Y1442500*
X1923182Y1441563*
X1923182D02*
Y1440000D01*
X1922955Y1439063*
X1922955D02*
X1922727Y1438438D01*
X1922727D02*
X1922273Y1437813D01*
X1922273D02*
X1921591Y1437500D01*
X1920000*
X1927045Y1444063D02*
X1925227Y1437500D01*
X1927045Y1444063D02*
X1928864Y1437500D01*
X1925909Y1439688D02*
X1928182D01*
X1932500Y1444063D02*
Y1437500D01*
X1930909Y1444063D02*
X1934091D01*
X1936136D02*
Y1437500D01*
Y1444063D02*
X1939091D01*
X1936136Y1440938D02*
X1937955D01*
X1936136Y1437500D02*
X1939091D01*
X1941364Y1441875D02*
X1941136Y1441563D01*
X1941136D02*
X1941364Y1441250D01*
X1941591Y1441563*
X1941591D02*
X1941364Y1441875D01*
Y1438125D02*
X1941136Y1437813D01*
X1941136D02*
X1941364Y1437500D01*
X1941591Y1437813*
X1941591D02*
X1941364Y1438125D01*
X1950227Y1444063D02*
X1949545Y1443750D01*
X1949091Y1442813*
X1949091D02*
X1948864Y1441250D01*
Y1440313*
X1948864D02*
X1949091Y1438750D01*
X1949545Y1437813*
X1949545D02*
X1950227Y1437500D01*
X1950682*
X1951364Y1437813*
X1951364D02*
X1951818Y1438750D01*
X1952045Y1440313*
X1952045D02*
Y1441250D01*
X1951818Y1442813*
X1951818D02*
X1951364Y1443750D01*
X1950682Y1444063*
X1950682D02*
X1950227D01*
X1957045Y1441875D02*
X1956818Y1440938D01*
X1956818D02*
X1956364Y1440313D01*
X1956364D02*
X1955682Y1440000D01*
X1955455*
X1954773Y1440313*
X1954773D02*
X1954318Y1440938D01*
X1954318D02*
X1954091Y1441875D01*
Y1442188*
X1954091D02*
X1954318Y1443125D01*
X1954773Y1443750*
X1955455Y1444063*
X1955455D02*
X1955682D01*
X1955682D02*
X1956364Y1443750D01*
X1956818Y1443125*
X1957045Y1441875*
Y1440313*
X1957045D02*
X1956818Y1438750D01*
X1956364Y1437813*
X1956364D02*
X1955682Y1437500D01*
X1955227*
X1954545Y1437813*
X1954545D02*
X1954318Y1438438D01*
X1959091Y1440313D02*
X1963182D01*
X1965455Y1442500D02*
Y1442813D01*
X1965455D02*
X1965682Y1443438D01*
X1965682D02*
X1965909Y1443750D01*
X1966364Y1444063*
X1966364D02*
X1967273D01*
X1967273D02*
X1967727Y1443750D01*
X1967955Y1443438*
X1967955D02*
X1968182Y1442813D01*
X1968182D02*
Y1442188D01*
X1968182D02*
X1967955Y1441563D01*
X1967955D02*
X1967500Y1440625D01*
X1965227Y1437500*
X1968409*
X1972727Y1444063D02*
X1970455Y1439688D01*
X1970455D02*
X1973864D01*
X1972727Y1444063D02*
Y1437500D01*
X1975909Y1440313D02*
X1980000D01*
X1982273Y1442500D02*
Y1442813D01*
X1982273D02*
X1982500Y1443438D01*
X1982500D02*
X1982727Y1443750D01*
X1983182Y1444063*
X1983182D02*
X1984091D01*
X1984091D02*
X1984545Y1443750D01*
X1984773Y1443438*
X1984773D02*
X1985000Y1442813D01*
X1985000D02*
Y1442188D01*
X1985000D02*
X1984773Y1441563D01*
X1984773D02*
X1984318Y1440625D01*
X1982045Y1437500*
X1985227*
X1988636Y1444063D02*
X1987955Y1443750D01*
X1987500Y1442813*
X1987500D02*
X1987273Y1441250D01*
Y1440313*
X1987273D02*
X1987500Y1438750D01*
X1987955Y1437813*
X1987955D02*
X1988636Y1437500D01*
X1989091*
X1989773Y1437813*
X1989773D02*
X1990227Y1438750D01*
X1990455Y1440313*
X1990455D02*
Y1441250D01*
X1990227Y1442813*
X1990227D02*
X1989773Y1443750D01*
X1989091Y1444063*
X1989091D02*
X1988636D01*
X1865000D02*
Y1437500D01*
Y1444063D02*
X1866591D01*
X1866591D02*
X1867273Y1443750D01*
X1867727Y1443125*
X1867955Y1442500*
X1868182Y1441563*
X1868182D02*
Y1440000D01*
X1867955Y1439063*
X1867955D02*
X1867727Y1438438D01*
X1867727D02*
X1867273Y1437813D01*
X1867273D02*
X1866591Y1437500D01*
X1865000*
X1873636Y1442500D02*
X1873409Y1443125D01*
X1872955Y1443750*
X1872500Y1444063*
X1872500D02*
X1871591D01*
X1871591D02*
X1871136Y1443750D01*
X1870682Y1443125*
X1870455Y1442500*
X1870227Y1441563*
X1870227D02*
Y1440000D01*
X1870455Y1439063*
X1870455D02*
X1870682Y1438438D01*
X1870682D02*
X1871136Y1437813D01*
X1871136D02*
X1871591Y1437500D01*
X1872500*
X1872955Y1437813*
X1872955D02*
X1873409Y1438438D01*
X1873409D02*
X1873636Y1439063D01*
X1876136Y1444063D02*
X1878636D01*
X1878636D02*
X1877273Y1441563D01*
X1877273D02*
X1877955D01*
X1877955D02*
X1878409Y1441250D01*
X1878636Y1440938*
X1878636D02*
X1878864Y1440000D01*
Y1439375*
X1878636Y1438438*
X1878636D02*
X1878182Y1437813D01*
X1878182D02*
X1877500Y1437500D01*
X1876818*
X1876136Y1437813*
X1876136D02*
X1875909Y1438125D01*
X1875682Y1438750*
X1880909Y1442813D02*
X1881364Y1443125D01*
X1882045Y1444063*
X1882045D02*
Y1437500D01*
X1886364Y1444063D02*
X1884091Y1439688D01*
X1884091D02*
X1887500D01*
X1886364Y1444063D02*
Y1437500D01*
X1892500Y1444063D02*
X1890227D01*
X1890227D02*
X1890000Y1441250D01*
X1890227Y1441563*
X1890227D02*
X1890909Y1441875D01*
X1891591*
X1892273Y1441563*
X1892273D02*
X1892727Y1440938D01*
X1892727D02*
X1892955Y1440000D01*
X1892727Y1439375*
X1892500Y1438438*
X1892500D02*
X1892045Y1437813D01*
X1892045D02*
X1891364Y1437500D01*
X1890682*
X1890000Y1437813*
X1890000D02*
X1889773Y1438125D01*
X1889545Y1438750*
X1896818Y1444063D02*
X1895000Y1437500D01*
X1896818Y1444063D02*
X1898636Y1437500D01*
X1895682Y1439688D02*
X1897955D01*
X1900682Y1440313D02*
X1904773D01*
X1907045Y1442500D02*
Y1442813D01*
X1907045D02*
X1907273Y1443438D01*
X1907273D02*
X1907500Y1443750D01*
X1907955Y1444063*
X1907955D02*
X1908864D01*
X1908864D02*
X1909318Y1443750D01*
X1909545Y1443438*
X1909545D02*
X1909773Y1442813D01*
X1909773D02*
Y1442188D01*
X1909773D02*
X1909545Y1441563D01*
X1909545D02*
X1909091Y1440625D01*
X1906818Y1437500*
X1910000*
X1997500Y1454563D02*
Y1448000D01*
X2000227*
X2004091Y1454563D02*
X2002273Y1448000D01*
X2004091Y1454563D02*
X2005909Y1448000D01*
X2002955Y1450188D02*
X2005227D01*
X2007955Y1454563D02*
X2009773Y1451438D01*
X2009773D02*
Y1448000D01*
X2011591Y1454563D02*
X2009773Y1451438D01*
X2013636Y1454563D02*
Y1448000D01*
Y1454563D02*
X2016591D01*
X2013636Y1451438D02*
X2015455D01*
X2013636Y1448000D02*
X2016591D01*
X2018636Y1454563D02*
Y1448000D01*
Y1454563D02*
X2020682D01*
X2020682D02*
X2021364Y1454250D01*
X2021591Y1453938*
X2021591D02*
X2021818Y1453313D01*
X2021818D02*
Y1452688D01*
X2021818D02*
X2021591Y1452063D01*
X2021591D02*
X2021364Y1451750D01*
X2020682Y1451438*
X2020682D02*
X2018636D01*
X2020227D02*
X2021818Y1448000D01*
X2029545Y1454563D02*
X2032045D01*
X2032045D02*
X2030682Y1452063D01*
X2030682D02*
X2031364D01*
X2031364D02*
X2031818Y1451750D01*
X2032045Y1451438*
X2032045D02*
X2032273Y1450500D01*
Y1449875*
X2032045Y1448938*
X2032045D02*
X2031591Y1448313D01*
X2031591D02*
X2030909Y1448000D01*
X2030227*
X2029545Y1448313*
X2029545D02*
X2029318Y1448625D01*
X2029091Y1449250*
X2039545Y1450813D02*
X2043636D01*
X2054091Y1453625D02*
X2053636Y1454250D01*
X2052955Y1454563*
X2052955D02*
X2052045D01*
X2052045D02*
X2051364Y1454250D01*
X2050909Y1453625*
Y1453000*
X2051136Y1452375*
X2051364Y1452063*
X2051364D02*
X2051818Y1451750D01*
X2053182Y1451125*
X2053636Y1450813*
X2053636D02*
X2053864Y1450500D01*
X2054091Y1449875*
Y1448938*
X2054091D02*
X2053636Y1448313D01*
X2053636D02*
X2052955Y1448000D01*
X2052045*
X2051364Y1448313*
X2051364D02*
X2050909Y1448938D01*
X2056136Y1454563D02*
Y1448000D01*
X2061591Y1453000D02*
X2061364Y1453625D01*
X2060909Y1454250*
X2060455Y1454563*
X2060455D02*
X2059545D01*
X2059545D02*
X2059091Y1454250D01*
X2058636Y1453625*
X2058409Y1453000*
X2058182Y1452063*
X2058182D02*
Y1450500D01*
X2058409Y1449563*
X2058409D02*
X2058636Y1448938D01*
X2058636D02*
X2059091Y1448313D01*
X2059091D02*
X2059545Y1448000D01*
X2060455*
X2060909Y1448313*
X2060909D02*
X2061364Y1448938D01*
X2061364D02*
X2061591Y1449563D01*
X2061591D02*
Y1450500D01*
X2060455D02*
X2061591D01*
X2063636Y1454563D02*
Y1448000D01*
Y1454563D02*
X2066818Y1448000D01*
Y1454563D02*
Y1448000D01*
X2070682Y1454563D02*
X2068864Y1448000D01*
X2070682Y1454563D02*
X2072500Y1448000D01*
X2069545Y1450188D02*
X2071818D01*
X2074545Y1454563D02*
Y1448000D01*
X2077273*
X2082500Y1453625D02*
X2082045Y1454250D01*
X2081364Y1454563*
X2081364D02*
X2080455D01*
X2080455D02*
X2079773Y1454250D01*
X2079318Y1453625*
Y1453000*
X2079545Y1452375*
X2079773Y1452063*
X2079773D02*
X2080227Y1451750D01*
X2081591Y1451125*
X2082045Y1450813*
X2082045D02*
X2082273Y1450500D01*
X2082500Y1449875*
Y1448938*
X2082500D02*
X2082045Y1448313D01*
X2082045D02*
X2081364Y1448000D01*
X2080455*
X2079773Y1448313*
X2079773D02*
X2079318Y1448938D01*
X2122500Y1571500D02*
X2125500Y1575000D01*
X2145501Y1595001*
X1933000Y1598500D02*
Y1654000D01*
X1937262Y1658262*
Y1671000*
X1933000Y1598500D02*
X1946000Y1585500D01*
X1973500*
X1976500Y1582500*
Y1578500*
X1979500Y1575500*
X1990000*
X2000000Y1585500*
Y1587000*
X1956000Y1605000D02*
Y1646000D01*
X1960000Y1650000*
Y1671500*
X2003500Y1587500D02*
X2074000D01*
X2103000Y1558500*
X2002500Y1605500D02*
X2006125Y1609125D01*
Y1658384*
X2009500Y1662000*
X2020000*
X2029176Y1671176*
X2029761*
X2030000Y1671500*
X2000100Y1594500D02*
X2004600Y1590000D01*
X2014000*
X2000100Y1598300D02*
X2008150Y1606350D01*
Y1656650*
X2011000Y1659500*
X2039500*
X2052000Y1672000*
X2052500*
X2014000Y1590000D02*
X2080000D01*
X2081500Y1588500*
X2119500*
X2122500Y1591500*
X2009000Y1592500D02*
X2010000D01*
X2029000Y1611500*
X2122500*
X2008500Y1600500D02*
X2062500Y1654500D01*
Y1658500*
X2075000Y1671000*
Y1671500*
X2007500Y1595000D02*
X2009500D01*
X2046000Y1631500*
X2122500*
X2009000Y1597500D02*
X2063000Y1651500D01*
X2080850*
X2122500Y1611500D02*
X2140500Y1629500D01*
Y1702000*
X2080850Y1651500D02*
X2122500D01*
Y1631500D02*
X2138000Y1647000D01*
Y1701000*
X1937262Y1671000D02*
X1937500Y1671238D01*
Y1683000*
X1937262Y1671000D02*
X1938000D01*
X1985000Y1671500D02*
X1985186Y1671276D01*
Y1671223*
X1997500Y1658910*
Y1605500*
X1923500Y1740500D02*
X1923900Y1740900D01*
X1929000Y1728500D02*
Y1691500D01*
X1937500Y1683000*
X1940000Y1745000D02*
X1944500D01*
X1949500Y1740000*
X1966500*
X1981500Y1755000*
X2065000*
X2070000Y1750000*
Y1744000*
X2072500Y1741500*
X2079500*
X2084500Y1746500*
X2085000*
X1978000Y1715825D02*
X1982500Y1711325D01*
X2015825*
X2052500Y1674649*
Y1672000*
X1978000Y1715825D02*
Y1731500D01*
X1983600Y1737100*
X1986058*
X1985000Y1729200D02*
X1989200D01*
X2012500Y1752500*
X2058000*
X2060000Y1750500*
Y1744500*
X2063000Y1741500*
X2068500*
X2073500Y1736500*
X2075000*
X1985000Y1737100D02*
X1986058D01*
X2045000Y1736500D02*
Y1726800D01*
X2075000Y1696800*
Y1671500*
X2055000Y1736500D02*
Y1726200D01*
X2080850Y1700350*
Y1651500*
X2075500Y1722500D02*
X2085000Y1713000D01*
X2129500*
X2140500Y1702000*
X2097000Y1719500D02*
X2131000D01*
X2145494Y1705006*
X2145501Y1595001*
X2035000Y1746500D02*
X2040000Y1741500D01*
X2058500*
X2060000Y1740000*
Y1728500*
X2077500Y1711000*
X2128000*
X2138000Y1701000*
X1850000Y1462500D02*
X2150000D01*
Y1762500*
X1850000*
Y1462500*
G54D20*
X1940000Y1745000D03*
X1985000D03*
X2025000Y1736500D03*
G54D21*
X1940000Y1737100D03*
Y1729200D03*
X1985000Y1737100D03*
Y1729200D03*
X2025000Y1746500D03*
X2035000Y1736500D03*
Y1746500D03*
X2045000Y1736500D03*
Y1746500D03*
X2055000Y1736500D03*
Y1746500D03*
X2065000Y1736500D03*
Y1746500D03*
X2075000Y1736500D03*
Y1746500D03*
X2085000Y1736500D03*
Y1746500D03*
G54D29*
X2002500Y1486500D03*
X1990500D03*
X2002500Y1492500D03*
X1990500D03*
X1992500Y1483000D03*
X2002500Y1490500D03*
X1990000Y1474500D03*
X1990500Y1490500D03*
X2006500Y1499000D03*
X1884000Y1585500D03*
Y1580000D03*
X1871000D03*
Y1585500D03*
X1896000Y1576500D03*
X1904000D03*
X1900000D03*
X1963500Y1579500D03*
Y1582000D03*
X2005000Y1573000D03*
X2001000D03*
X1967500Y1579500D03*
X1971500D03*
X1984000Y1583500D03*
Y1581000D03*
X1994500Y1573000D03*
X1988500D03*
X2003000D03*
X2006500Y1581000D03*
X1986000Y1583500D03*
Y1581000D03*
X1999000Y1573000D03*
X1971500Y1582000D03*
X1967500D03*
X2006500Y1583500D03*
X1990500Y1573000D03*
X1992500D03*
X2009000Y1583500D03*
Y1581000D03*
X2103000Y1558500D03*
X2122500Y1551500D03*
Y1571500D03*
X1884000Y1606500D03*
Y1611500D03*
Y1601500D03*
X1871000D03*
Y1606500D03*
Y1611500D03*
X1884000Y1590000D03*
X1871000D03*
X1920000Y1602500D03*
X1912500D03*
Y1590500D03*
X1920000D03*
X1920500Y1609500D03*
X1896500Y1617500D03*
X1903500D03*
X1900000D03*
X1956000Y1605000D03*
X1944500Y1616500D03*
X1977500Y1610000D03*
X1972500D03*
X1967500D03*
Y1614000D03*
X1972500D03*
X1977500D03*
X1988500D03*
X1990500D03*
X1992500D03*
X1994500D03*
X1989500Y1595000D03*
X2000000Y1620500D03*
X2003500Y1587500D03*
X2000000Y1587000D03*
X2002500Y1605500D03*
X1997500D03*
X1992000Y1590000D03*
X2000000Y1607500D03*
X1992000Y1602000D03*
X2014000Y1610000D03*
Y1590000D03*
X2009000Y1592500D03*
X2008500Y1600500D03*
X2007500Y1595000D03*
X2009000Y1597500D03*
X2122500Y1611500D03*
Y1591500D03*
X1941000Y1629000D03*
X1993000Y1627000D03*
X1990500D03*
X2122500Y1651500D03*
Y1631500D03*
X1938000Y1671000D03*
X1960000Y1671500D03*
X1985000D03*
X2007500D03*
X2030000D03*
X2052500Y1672000D03*
X2075000Y1671500D03*
X1923500Y1740500D03*
X1963500Y1737500D03*
X1929000Y1728500D03*
X1963500Y1745500D03*
X2075500Y1722500D03*
X2097000Y1719500D03*
G54D30*
X2000000Y1607500D02*
Y1607750D01*
X2003250Y1611000*
Y1666915*
X2007215Y1670881*
Y1671215*
X2007500Y1671500*
X2014000Y1610000D02*
X2057500Y1653500D01*
Y1684000*
X1877500Y1671500D02*
Y1704000D01*
X1893500Y1720000*
Y1746000*
X1901500Y1754000*
X1955142*
X1963278Y1745864*
X1963500Y1745500*
X2007500Y1671500D02*
X2007618Y1671971D01*
Y1696382*
X1923900Y1740900D02*
X1934000Y1751000D01*
X1945500*
X1954000Y1742500*
X1965000*
X1980000Y1757500*
X2069500*
X2075000Y1752000*
Y1746500*
X1940000Y1729200D02*
X1963350Y1705850D01*
X1998150*
X2007618Y1696382*
X2035000Y1736500D02*
Y1706500D01*
X2057500Y1684000*
G54D35*
G54D71*
X1870000Y1719000D03*
X2130000Y1506500D03*
G54D133*
Y1742500D03*
X1870000D03*
X2130000Y1482500D03*
X1870000D03*
G54D134*
X1962500Y1486500D03*
X1877500Y1636500D03*
X2027500Y1486500D03*
X1877500Y1556500D03*
G54D147*
X1995500Y1596500D03*
X1997000D03*
X1997100Y1594700D03*
X1995500D03*
X1997100Y1598300D03*
X1995500D03*
X2000100Y1594500D03*
Y1598300D03*
G54D154*
X1960700Y1563200D02*
X2016300D01*
Y1584800*
X2005200*
Y1579700*
X2006083*
X2007700Y1578083*
Y1571417*
X2006583Y1570300*
X1974417*
X1973300Y1571417*
Y1582417*
X1972417Y1583300*
X1960700*
Y1563200*
X1965200Y1615300D02*
X1995300D01*
Y1610335*
X1986800Y1602085*
Y1580200*
X1979700*
Y1597583*
X1978583Y1598700*
X1965200*
Y1615300*
X2005200Y1584799D02*
X2016300D01*
X2005200Y1584439D02*
X2016300D01*
X2005200Y1584079D02*
X2016300D01*
X2005200Y1583719D02*
X2016300D01*
X2005200Y1583359D02*
X2016300D01*
X2005200Y1582999D02*
X2016300D01*
X2005200Y1582639D02*
X2016300D01*
X2005200Y1582279D02*
X2016300D01*
X2005200Y1581919D02*
X2016300D01*
X2005200Y1581559D02*
X2016300D01*
X2005200Y1581199D02*
X2016300D01*
X2005200Y1580839D02*
X2016300D01*
X2005200Y1580479D02*
X2016300D01*
X2005200Y1580119D02*
X2016300D01*
X2005200Y1579759D02*
X2016300D01*
X2006384Y1579399D02*
X2016300D01*
X2006744Y1579039D02*
X2016300D01*
X2007104Y1578679D02*
X2016300D01*
X2007464Y1578319D02*
X2016300D01*
X2007700Y1577959D02*
X2016300D01*
X2007700Y1577599D02*
X2016300D01*
X2007700Y1577239D02*
X2016300D01*
X2007700Y1576879D02*
X2016300D01*
X2007700Y1576519D02*
X2016300D01*
X2007700Y1576159D02*
X2016300D01*
X2007700Y1575799D02*
X2016300D01*
X2007700Y1575439D02*
X2016300D01*
X2007700Y1575079D02*
X2016300D01*
X2007700Y1574719D02*
X2016300D01*
X2007700Y1574359D02*
X2016300D01*
X2007700Y1573999D02*
X2016300D01*
X2007700Y1573639D02*
X2016300D01*
X2007700Y1573279D02*
X2016300D01*
X2007700Y1572919D02*
X2016300D01*
X2007700Y1572559D02*
X2016300D01*
X2007700Y1572199D02*
X2016300D01*
X2007700Y1571839D02*
X2016300D01*
X2007700Y1571479D02*
X2016300D01*
X2007402Y1571119D02*
X2016300D01*
X2007042Y1570759D02*
X2016300D01*
X2006682Y1570399D02*
X2016300D01*
X1960700Y1570039D02*
X2016300D01*
X1960700Y1569679D02*
X2016300D01*
X1960700Y1569319D02*
X2016300D01*
X1960700Y1568959D02*
X2016300D01*
X1960700Y1568599D02*
X2016300D01*
X1960700Y1568239D02*
X2016300D01*
X1960700Y1567879D02*
X2016300D01*
X1960700Y1567519D02*
X2016300D01*
X1960700Y1567159D02*
X2016300D01*
X1960700Y1566799D02*
X2016300D01*
X1960700Y1566439D02*
X2016300D01*
X1960700Y1566079D02*
X2016300D01*
X1960700Y1565719D02*
X2016300D01*
X1960700Y1565359D02*
X2016300D01*
X1960700Y1564999D02*
X2016300D01*
X1960700Y1564639D02*
X2016300D01*
X1960700Y1564279D02*
X2016300D01*
X1960700Y1563919D02*
X2016300D01*
X1960700Y1563559D02*
X2016300D01*
X1960700Y1570399D02*
X1974318D01*
X1960700Y1570759D02*
X1973958D01*
X1960700Y1571119D02*
X1973598D01*
X1960700Y1582279D02*
X1973300D01*
X1960700Y1581919D02*
X1973300D01*
X1960700Y1581559D02*
X1973300D01*
X1960700Y1581199D02*
X1973300D01*
X1960700Y1580839D02*
X1973300D01*
X1960700Y1580479D02*
X1973300D01*
X1960700Y1580119D02*
X1973300D01*
X1960700Y1579759D02*
X1973300D01*
X1960700Y1579399D02*
X1973300D01*
X1960700Y1579039D02*
X1973300D01*
X1960700Y1578679D02*
X1973300D01*
X1960700Y1578319D02*
X1973300D01*
X1960700Y1577959D02*
X1973300D01*
X1960700Y1577599D02*
X1973300D01*
X1960700Y1577239D02*
X1973300D01*
X1960700Y1576879D02*
X1973300D01*
X1960700Y1576519D02*
X1973300D01*
X1960700Y1576159D02*
X1973300D01*
X1960700Y1575799D02*
X1973300D01*
X1960700Y1575439D02*
X1973300D01*
X1960700Y1575079D02*
X1973300D01*
X1960700Y1574719D02*
X1973300D01*
X1960700Y1574359D02*
X1973300D01*
X1960700Y1573999D02*
X1973300D01*
X1960700Y1573639D02*
X1973300D01*
X1960700Y1573279D02*
X1973300D01*
X1960700Y1572919D02*
X1973300D01*
X1960700Y1572559D02*
X1973300D01*
X1960700Y1572199D02*
X1973300D01*
X1960700Y1571839D02*
X1973300D01*
X1960700Y1571479D02*
X1973300D01*
X1960700Y1582639D02*
X1973078D01*
X1960700Y1582999D02*
X1972718D01*
X1965200Y1615119D02*
X1995300D01*
X1965200Y1614759D02*
X1995300D01*
X1965200Y1614399D02*
X1995300D01*
X1965200Y1614039D02*
X1995300D01*
X1965200Y1613679D02*
X1995300D01*
X1965200Y1613319D02*
X1995300D01*
X1965200Y1612959D02*
X1995300D01*
X1965200Y1612599D02*
X1995300D01*
X1965200Y1612239D02*
X1995300D01*
X1965200Y1611879D02*
X1995300D01*
X1965200Y1611519D02*
X1995300D01*
X1965200Y1611159D02*
X1995300D01*
X1965200Y1610799D02*
X1995300D01*
X1965200Y1610439D02*
X1995300D01*
X1965200Y1610079D02*
X1995036D01*
X1965200Y1609719D02*
X1994665D01*
X1965200Y1609359D02*
X1994295D01*
X1965200Y1608999D02*
X1993924D01*
X1965200Y1608639D02*
X1993553D01*
X1965200Y1608279D02*
X1993182D01*
X1965200Y1607919D02*
X1992811D01*
X1965200Y1607559D02*
X1992440D01*
X1965200Y1607199D02*
X1992069D01*
X1965200Y1606839D02*
X1991698D01*
X1965200Y1606479D02*
X1991327D01*
X1965200Y1606119D02*
X1990956D01*
X1965200Y1605759D02*
X1990585D01*
X1965200Y1605399D02*
X1990215D01*
X1965200Y1605039D02*
X1989844D01*
X1965200Y1604679D02*
X1989473D01*
X1965200Y1604319D02*
X1989102D01*
X1965200Y1603959D02*
X1988731D01*
X1965200Y1603599D02*
X1988360D01*
X1965200Y1603239D02*
X1987989D01*
X1965200Y1602879D02*
X1987618D01*
X1965200Y1602519D02*
X1987247D01*
X1965200Y1602159D02*
X1986876D01*
X1979700Y1580559D02*
X1986800D01*
X1979700Y1580919D02*
X1986800D01*
X1979700Y1581279D02*
X1986800D01*
X1979700Y1581639D02*
X1986800D01*
X1979700Y1581999D02*
X1986800D01*
X1979700Y1582359D02*
X1986800D01*
X1979700Y1582719D02*
X1986800D01*
X1979700Y1583079D02*
X1986800D01*
X1979700Y1583439D02*
X1986800D01*
X1979700Y1583799D02*
X1986800D01*
X1979700Y1584159D02*
X1986800D01*
X1979700Y1584519D02*
X1986800D01*
X1979700Y1584879D02*
X1986800D01*
X1979700Y1585239D02*
X1986800D01*
X1979700Y1585599D02*
X1986800D01*
X1979700Y1585959D02*
X1986800D01*
X1979700Y1586319D02*
X1986800D01*
X1979700Y1586679D02*
X1986800D01*
X1979700Y1587039D02*
X1986800D01*
X1979700Y1587399D02*
X1986800D01*
X1979700Y1587759D02*
X1986800D01*
X1979700Y1588119D02*
X1986800D01*
X1979700Y1588479D02*
X1986800D01*
X1979700Y1588839D02*
X1986800D01*
X1979700Y1589199D02*
X1986800D01*
X1979700Y1589559D02*
X1986800D01*
X1979700Y1589919D02*
X1986800D01*
X1979700Y1590279D02*
X1986800D01*
X1979700Y1590639D02*
X1986800D01*
X1979700Y1590999D02*
X1986800D01*
X1979700Y1591359D02*
X1986800D01*
X1979700Y1591719D02*
X1986800D01*
X1979700Y1592079D02*
X1986800D01*
X1979700Y1592439D02*
X1986800D01*
X1979700Y1592799D02*
X1986800D01*
X1979700Y1593159D02*
X1986800D01*
X1979700Y1593519D02*
X1986800D01*
X1979700Y1593879D02*
X1986800D01*
X1979700Y1594239D02*
X1986800D01*
X1979700Y1594599D02*
X1986800D01*
X1979700Y1594959D02*
X1986800D01*
X1979700Y1595319D02*
X1986800D01*
X1979700Y1595679D02*
X1986800D01*
X1979700Y1596039D02*
X1986800D01*
X1979700Y1596399D02*
X1986800D01*
X1979700Y1596759D02*
X1986800D01*
X1979700Y1597119D02*
X1986800D01*
X1979700Y1597479D02*
X1986800D01*
X1979444Y1597839D02*
X1986800D01*
X1979084Y1598199D02*
X1986800D01*
X1978724Y1598559D02*
X1986800D01*
X1965200Y1598919D02*
X1986800D01*
X1965200Y1599279D02*
X1986800D01*
X1965200Y1599639D02*
X1986800D01*
X1965200Y1599999D02*
X1986800D01*
X1965200Y1600359D02*
X1986800D01*
X1965200Y1600719D02*
X1986800D01*
X1965200Y1601079D02*
X1986800D01*
X1965200Y1601439D02*
X1986800D01*
X1965200Y1601799D02*
X1986800D01*
X2146200Y1482500D02*
G75*
G03X2146200I-16200J0D01*
G01X2135200Y1506500D02*
G03X2135200I-5200J0D01*
G01X2124700Y1551500D02*
G03X2124700I-2200J0D01*
G01X2146200Y1742500D02*
G03X2146200I-16200J0D01*
G01X2089700Y1736500D02*
G03X2089700I-4700J0D01*
G01X2072950Y1486500D02*
G03X2072950I-10450J0D01*
G01X2045450D02*
G03X2045450I-17950J0D01*
G01X1980450D02*
G03X1980450I-17950J0D01*
G01X1875200Y1719000D02*
G03X1875200I-5200J0D01*
G01X1886200Y1742500D02*
G03X1886200I-16200J0D01*
G01X1914700Y1602500D02*
G03X1914700I-2200J0D01*
G01X1886200Y1482500D02*
G03X1886200I-16200J0D01*
G01Y1601500D02*
G03X1886200I-2200J0D01*
G01Y1606500D02*
G03X1886200I-2200J0D01*
G01Y1611500D02*
G03X1886200I-2200J0D01*
G01X1873200Y1601500D02*
G03X1873200I-2200J0D01*
G01Y1606500D02*
G03X1873200I-2200J0D01*
G01Y1611500D02*
G03X1873200I-2200J0D01*
G01X1895450Y1636500D02*
G03X1895450I-17950J0D01*
G01X1922200Y1602500D02*
G03X1922200I-2200J0D01*
G01X1922700Y1609500D02*
G03X1922700I-2200J0D01*
G01X1937950Y1486500D02*
G03X1937950I-10450J0D01*
G01X2147300Y1706022D02*
Y1759600D01*
G03X2147100Y1759800I-200J-0*
G01X2069961*
G03X2069918Y1759405I0J-200*
G01X2070879Y1758879D02*
G03X2069918Y1759405I-1379J-1379D01*
G01X2070879Y1758879D02*
X2076379Y1753379D01*
X2076950Y1752000D02*
G03X2076379Y1753379I-1950J0D01*
G01X2076950Y1752000D02*
Y1750903D01*
G03X2077062Y1750723I200J0*
G01X2078875Y1743840D02*
G03X2077062Y1750723I-3875J2660D01*
G01X2078875Y1743840D02*
G03X2079181Y1743585I165J-113D01*
G01X2080471Y1744875*
G03X2080520Y1745077I-141J142*
G01X2082895Y1742298D02*
G03X2080520Y1745077I2105J4202D01*
G01X2082895Y1742298D02*
G03X2082664Y1742260I-89J-179D01*
G01X2080702Y1740298*
X2079500Y1739800D02*
G03X2080702Y1740298I0J1700D01*
G01X2079500Y1739800D02*
X2078795D01*
G03X2078640Y1739473I-0J-200*
G01X2070344Y1737140D02*
G03X2078640Y1739473I4656J-640D01*
G01X2070344Y1737140D02*
G03X2070287Y1737309I-198J27D01*
G01X2069934Y1737662*
G03X2069597Y1737479I-141J-142*
G01X2062027Y1732860D02*
G03X2069597Y1737479I2973J3640D01*
G01X2062027Y1732860D02*
G03X2061700Y1732705I-127J-155D01*
G01Y1729287*
G03X2061759Y1729146I200J0*
G01X2078146Y1712759*
G03X2078287Y1712700I141J141*
G01X2082413*
G03X2082554Y1713041I-0J200*
G01X2075335Y1720261*
G03X2075219Y1720318I-142J-141*
G01X2077682Y1722781D02*
G03X2075219Y1720318I-2182J-281D01*
G01X2077682Y1722781D02*
G03X2077739Y1722665I198J26D01*
G01X2085646Y1714759*
G03X2085787Y1714700I141J141*
G01X2129500*
X2130702Y1714202D02*
G03X2129500Y1714700I-1202J-1202D01*
G01X2130702Y1714202D02*
X2141702Y1703202D01*
X2142200Y1702000D02*
G03X2141702Y1703202I-1700J0D01*
G01X2142200Y1702000D02*
Y1629500D01*
X2141702Y1628298D02*
G03X2142200Y1629500I-1202J1202D01*
G01X2141702Y1628298D02*
X2124739Y1611335D01*
G03X2124682Y1611219I141J-142*
G01X2121156Y1609758D02*
G03X2124682Y1611219I1344J1742D01*
G01X2121156Y1609758D02*
G03X2121034Y1609800I-122J-158D01*
G01X2029787*
G03X2029646Y1609741I0J-200*
G01X2011946Y1592041*
G03X2012087Y1591700I141J-141*
G01X2012534*
G03X2012656Y1591742I-0J200*
G01X2015344D02*
G03X2012656I-1344J-1742D01*
G01X2015344D02*
G03X2015466Y1591700I122J158D01*
G01X2080000*
X2081202Y1591202D02*
G03X2080000Y1591700I-1202J-1202D01*
G01X2081202Y1591202D02*
X2082146Y1590259D01*
G03X2082287Y1590200I141J141*
G01X2118713*
G03X2118854Y1590259I-0J200*
G01X2120261Y1591665*
G03X2120318Y1591781I-141J142*
G01X2122781Y1589318D02*
G03X2120318Y1591781I-281J2182D01*
G01X2122781Y1589318D02*
G03X2122665Y1589261I26J-198D01*
G01X2120702Y1587298*
X2119500Y1586800D02*
G03X2120702Y1587298I0J1700D01*
G01X2119500Y1586800D02*
X2081500D01*
X2080298Y1587298D02*
G03X2081500Y1586800I1202J1202D01*
G01X2080298Y1587298D02*
X2079354Y1588241D01*
G03X2079213Y1588300I-141J-141*
G01X2076087*
G03X2075946Y1587959I0J-200*
G01X2103165Y1560739*
G03X2103281Y1560682I142J141*
G01X2100818Y1558219D02*
G03X2103281Y1560682I2182J281D01*
G01X2100818Y1558219D02*
G03X2100761Y1558335I-198J-26D01*
G01X2073354Y1585741*
G03X2073213Y1585800I-141J-141*
G01X2018242*
G03X2018057Y1585524I-0J-200*
G01X2018200Y1584800D02*
G03X2018057Y1585524I-1900J0D01*
G01X2018200Y1584800D02*
Y1563200D01*
X2016300Y1561300D02*
G03X2018200Y1563200I0J1900D01*
G01X2016300Y1561300D02*
X1960700D01*
X1958800Y1563200D02*
G03X1960700Y1561300I1900J0D01*
G01X1958800Y1563200D02*
Y1583300D01*
X1958819Y1583571D02*
G03X1958800Y1583300I1881J-271D01*
G01X1958819Y1583571D02*
G03X1958622Y1583800I-197J29D01*
G01X1946000*
X1944798Y1584298D02*
G03X1946000Y1583800I1202J1202D01*
G01X1944798Y1584298D02*
X1931798Y1597298D01*
X1931300Y1598500D02*
G03X1931798Y1597298I1700J0D01*
G01X1931300Y1598500D02*
Y1654000D01*
X1931798Y1655202D02*
G03X1931300Y1654000I1202J-1202D01*
G01X1931798Y1655202D02*
X1935504Y1658908D01*
G03X1935562Y1659049I-142J141*
G01Y1671000*
X1935775Y1671823D02*
G03X1935562Y1671000I1487J-823D01*
G01X1935775Y1671823D02*
G03X1935800Y1671920I-175J97D01*
G01Y1682213*
G03X1935741Y1682354I-200J-0*
G01X1927798Y1690298*
X1927300Y1691500D02*
G03X1927798Y1690298I1700J0D01*
G01X1927300Y1691500D02*
Y1727034D01*
G03X1927258Y1727156I-200J-0*
G01X1930742D02*
G03X1927258I-1742J1344D01*
G01X1930742D02*
G03X1930700Y1727034I158J-122D01*
G01Y1692287*
G03X1930759Y1692146I200J0*
G01X1938702Y1684202*
X1939200Y1683000D02*
G03X1938702Y1684202I-1700J0D01*
G01X1939200Y1683000D02*
Y1672949D01*
G03X1939283Y1672787I200J0*
G01X1939065Y1669075D02*
G03X1939283Y1672787I-1065J1925D01*
G01X1939065Y1669075D02*
G03X1938962Y1668900I97J-175D01*
G01Y1658262*
X1938464Y1657060D02*
G03X1938962Y1658262I-1202J1202D01*
G01X1938464Y1657060D02*
X1934759Y1653354D01*
G03X1934700Y1653213I141J-141*
G01Y1599287*
G03X1934759Y1599146I200J0*
G01X1946646Y1587259*
G03X1946787Y1587200I141J141*
G01X1973500*
X1974702Y1586702D02*
G03X1973500Y1587200I-1202J-1202D01*
G01X1974702Y1586702D02*
X1977459Y1583946D01*
G03X1977800Y1584087I141J141*
G01Y1596600*
G03X1977600Y1596800I-200J-0*
G01X1965200*
X1963300Y1598700D02*
G03X1965200Y1596800I1900J0D01*
G01X1963300Y1598700D02*
Y1615300D01*
X1965200Y1617200D02*
G03X1963300Y1615300I0J-1900D01*
G01X1965200Y1617200D02*
X1995300D01*
X1995571Y1617181D02*
G03X1995300Y1617200I-271J-1881D01*
G01X1995571Y1617181D02*
G03X1995800Y1617378I29J197D01*
G01Y1658123*
G03X1995741Y1658264I-200J-0*
G01X1984728Y1669277*
G03X1984621Y1669333I-141J-141*
G01X1987192Y1671689D02*
G03X1984621Y1669333I-2192J-189D01*
G01X1987192Y1671689D02*
G03X1987250Y1671564I199J17D01*
G01X1998702Y1660112*
X1999200Y1658910D02*
G03X1998702Y1660112I-1700J-0D01*
G01X1999200Y1658910D02*
Y1610191D01*
G03X1999541Y1610049I200J-0*
G01X2001241Y1611749*
G03X2001300Y1611891I-141J142*
G01Y1666915*
X2001871Y1668294D02*
G03X2001300Y1666915I1379J-1379D01*
G01X2001871Y1668294D02*
X2005264Y1671687D01*
G03X2005321Y1671801I-141J141*
G01X2005637Y1672670D02*
G03X2005321Y1671801I1863J-1170D01*
G01X2005637Y1672670D02*
G03X2005668Y1672777I-169J107D01*
G01Y1695492*
G03X2005609Y1695633I-200J-0*
G01X1997401Y1703841*
G03X1997259Y1703900I-142J-141*
G01X1963350*
X1961971Y1704471D02*
G03X1963350Y1703900I1379J1379D01*
G01X1961971Y1704471D02*
X1941735Y1724708D01*
G03X1941528Y1724755I-142J-142*
G01X1937219Y1732989D02*
G03X1941528Y1724755I2781J-3789D01*
G01X1937219Y1732989D02*
G03Y1733311I-119J161D01*
G01X1936403Y1740125D02*
G03X1937219Y1733311I3597J-3025D01*
G01X1936403Y1740125D02*
G03X1936329Y1740438I-153J129D01*
G01X1935300Y1742000D02*
G03X1936329Y1740438I1700J0D01*
G01X1935300Y1742000D02*
Y1748000D01*
X1935480Y1748761D02*
G03X1935300Y1748000I1520J-761D01*
G01X1935480Y1748761D02*
G03X1935301Y1749050I-179J89D01*
G01X1934891*
G03X1934749Y1748991I-0J-200*
G01X1925633Y1739875*
G03X1925585Y1739798I141J-141*
G01X1922798Y1742585D02*
G03X1925585Y1739798I702J-2085D01*
G01X1922798Y1742585D02*
G03X1922875Y1742633I-64J189D01*
G01X1931951Y1751709*
G03X1931809Y1752050I-142J141*
G01X1902391*
G03X1902249Y1751991I-0J-200*
G01X1895509Y1745251*
G03X1895450Y1745109I141J-142*
G01Y1720000*
X1894879Y1718621D02*
G03X1895450Y1720000I-1379J1379D01*
G01X1894879Y1718621D02*
X1879509Y1703251D01*
G03X1879450Y1703109I141J-142*
G01Y1681931*
G03X1879610Y1681735I200J-0*
G01X1875390D02*
G03X1879610I2110J-10235D01*
G01X1875390D02*
G03X1875550Y1681931I-40J196D01*
G01Y1704000*
X1876121Y1705379D02*
G03X1875550Y1704000I1379J-1379D01*
G01X1876121Y1705379D02*
X1891491Y1720749D01*
G03X1891550Y1720891I-141J142*
G01Y1746000*
X1892121Y1747379D02*
G03X1891550Y1746000I1379J-1379D01*
G01X1892121Y1747379D02*
X1900121Y1755379D01*
X1901500Y1755950D02*
G03X1900121Y1755379I0J-1950D01*
G01X1901500Y1755950D02*
X1955142D01*
X1956521Y1755379D02*
G03X1955142Y1755950I-1379J-1379D01*
G01X1956521Y1755379D02*
X1964361Y1747539D01*
G03X1964418Y1747499I141J142*
G01X1965573Y1746236D02*
G03X1964418Y1747499I-2073J-736D01*
G01X1965573Y1746236D02*
G03X1965903Y1746161I189J66D01*
G01X1978621Y1758879*
X1979582Y1759405D02*
G03X1978621Y1758879I418J-1905D01*
G01X1979582Y1759405D02*
G03X1979539Y1759800I-43J195D01*
G01X1852900*
G03X1852700Y1759600I0J-200*
G01Y1465400*
G03X1852900Y1465200I200J0*
G01X2147100*
G03X2147300Y1465400I-0J200*
G01Y1593975*
G03X2146932Y1594083I-200J-0*
G01X2146703Y1593799D02*
G03X2146932Y1594083I-1202J1202D01*
G01X2146703Y1593799D02*
X2126754Y1573850D01*
G03X2126743Y1573838I141J-142*
G01X2124745Y1571507*
G03X2124697Y1571387I152J-130*
G01X2122052Y1573654D02*
G03X2124697Y1571387I448J-2154D01*
G01X2122052Y1573654D02*
G03X2122163Y1573720I-40J196D01*
G01X2122163D02*
X2124209Y1576106D01*
X2124298Y1576202D02*
G03X2124209Y1576106I1202J-1202D01*
G01X2124298Y1576202D02*
X2143742Y1595646D01*
G03X2143801Y1595788I-141J142*
G01X2143801*
X2143794Y1704219*
G03X2143736Y1704360I-200J-0*
G01X2130354Y1717741*
G03X2130213Y1717800I-141J-141*
G01X2098466*
G03X2098344Y1717758I0J-200*
G01Y1721242D02*
G03Y1717758I-1344J-1742D01*
G01Y1721242D02*
G03X2098466Y1721200I122J158D01*
G01X2131000*
X2132202Y1720702D02*
G03X2131000Y1721200I-1202J-1202D01*
G01X2132202Y1720702D02*
X2146696Y1706208D01*
X2146931Y1705915D02*
G03X2146696Y1706208I-1437J-909D01*
G01X2146931Y1705915D02*
G03X2147300Y1706022I169J107D01*
G01X2050800Y1673466D02*
Y1673862D01*
G03X2050741Y1674004I-200J0*
G01X2015179Y1709566*
G03X2015038Y1709625I-141J-141*
G01X1982500*
X1981298Y1710123D02*
G03X1982500Y1709625I1202J1202D01*
G01X1981298Y1710123D02*
X1976798Y1714623D01*
X1976300Y1715825D02*
G03X1976798Y1714623I1700J-0D01*
G01X1976300Y1715825D02*
Y1731500D01*
X1976798Y1732702D02*
G03X1976300Y1731500I1202J-1202D01*
G01X1976798Y1732702D02*
X1980300Y1736204D01*
G03X1980356Y1736376I-142J141*
G01X1981403Y1740125D02*
G03X1980356Y1736376I3597J-3025D01*
G01X1981403Y1740125D02*
G03X1981329Y1740438I-153J129D01*
G01X1980300Y1742000D02*
G03X1981329Y1740438I1700J0D01*
G01X1980300Y1742000D02*
Y1748000D01*
X1982000Y1749700D02*
G03X1980300Y1748000I0J-1700D01*
G01X1982000Y1749700D02*
X1988000D01*
X1989700Y1748000D02*
G03X1988000Y1749700I-1700J0D01*
G01X1989700Y1748000D02*
Y1742000D01*
X1988671Y1740438D02*
G03X1989700Y1742000I-671J1562D01*
G01X1988671Y1740438D02*
G03X1988597Y1740125I79J-184D01*
G01X1987781Y1733311D02*
G03X1988597Y1740125I-2781J3789D01*
G01X1987781Y1733311D02*
G03Y1732989I119J-161D01*
G01X1988969Y1731718D02*
G03X1987781Y1732989I-3969J-2518D01*
G01X1988969Y1731718D02*
G03X1989279Y1731683I169J107D01*
G01X2010554Y1752959*
G03X2010413Y1753300I-141J141*
G01X1982287*
G03X1982146Y1753241I0J-200*
G01X1967702Y1738798*
X1966500Y1738300D02*
G03X1967702Y1738798I0J1700D01*
G01X1966500Y1738300D02*
X1949500D01*
X1948298Y1738798D02*
G03X1949500Y1738300I1202J1202D01*
G01X1948298Y1738798D02*
X1945040Y1742056D01*
G03X1944698Y1741924I-142J-141*
G01X1943671Y1740438D02*
G03X1944698Y1741924I-671J1562D01*
G01X1943671Y1740438D02*
G03X1943597Y1740125I79J-184D01*
G01X1942781Y1733311D02*
G03X1943597Y1740125I-2781J3789D01*
G01X1942781Y1733311D02*
G03Y1732989I119J-161D01*
G01X1944445Y1727672D02*
G03X1942781Y1732989I-4445J1528D01*
G01X1944445Y1727672D02*
G03X1944492Y1727465I189J-65D01*
G01X1964099Y1707859*
G03X1964241Y1707800I142J141*
G01X1998150*
X1999529Y1707229D02*
G03X1998150Y1707800I-1379J-1379D01*
G01X1999529Y1707229D02*
X2008997Y1697761D01*
X2009568Y1696382D02*
G03X2008997Y1697761I-1950J0D01*
G01X2009568Y1696382D02*
Y1672286D01*
G03X2009579Y1672220I200J-0*
G01X2008793Y1669720D02*
G03X2009579Y1672220I-1293J1780D01*
G01X2008793Y1669720D02*
G03X2008753Y1669681I118J-162D01*
G01X2008594Y1669502D02*
G03X2008753Y1669681I-1379J1379D01*
G01X2008594Y1669502D02*
X2005259Y1666166D01*
G03X2005200Y1666025I141J-141*
G01Y1660392*
G03X2005546Y1660255I200J-0*
G01X2008257Y1663160*
X2009500Y1663700D02*
G03X2008257Y1663160I0J-1700D01*
G01X2009500Y1663700D02*
X2019213D01*
G03X2019354Y1663759I-0J200*
G01X2027964Y1672368*
G03X2028004Y1672426I-141J142*
G01X2029813Y1669308D02*
G03X2028004Y1672426I187J2192D01*
G01X2029813Y1669308D02*
G03X2029654Y1669250I-17J-199D01*
G01X2021946Y1661541*
G03X2022087Y1661200I141J-141*
G01X2038713*
G03X2038854Y1661259I-0J200*
G01X2050464Y1672868*
G03X2050504Y1672926I-141J142*
G01X2050758Y1673344D02*
G03X2050504Y1672926I1742J-1344D01*
G01X2050758Y1673344D02*
G03X2050800Y1673466I-158J122D01*
G01X2005800Y1572400D02*
Y1577213D01*
G03X2005741Y1577354I-200J-0*
G01X2005354Y1577741*
G03X2005213Y1577800I-141J-141*
G01X2005200*
X2003300Y1579700D02*
G03X2005200Y1577800I1900J0D01*
G01X2003300Y1579700D02*
Y1584800D01*
X2003323Y1585098D02*
G03X2003300Y1584800I1877J-298D01*
G01X2003323Y1585098D02*
G03X2003157Y1585327I-197J31D01*
G01X2002106Y1585798D02*
G03X2003157Y1585327I1394J1702D01*
G01X2002106Y1585798D02*
G03X2001815Y1585756I-126J-155D01*
G01X2001742Y1585656D02*
G03X2001815Y1585756I-1742J1344D01*
G01X2001742Y1585656D02*
G03X2001700Y1585534I158J-122D01*
G01Y1585500*
X2001202Y1584298D02*
G03X2001700Y1585500I-1202J1202D01*
G01X2001202Y1584298D02*
X1991202Y1574298D01*
X1990000Y1573800D02*
G03X1991202Y1574298I0J1700D01*
G01X1990000Y1573800D02*
X1979500D01*
X1978298Y1574298D02*
G03X1979500Y1573800I1202J1202D01*
G01X1978298Y1574298D02*
X1975541Y1577054D01*
G03X1975200Y1576913I-141J-141*
G01Y1572400*
G03X1975400Y1572200I200J0*
G01X2005600*
G03X2005800Y1572400I-0J200*
G01X2002420Y1589417D02*
G03X2002463Y1589732I-98J174D01*
G01X1999682Y1592514*
G03X1999592Y1592566I-141J-142*
G01X1999092Y1596227D02*
G03X1999592Y1592566I1008J-1727D01*
G01X1999092Y1596227D02*
G03Y1596573I-101J173D01*
G01X1999592Y1600234D02*
G03X1999092Y1596573I508J-1934D01*
G01X1999592Y1600234D02*
G03X1999682Y1600286I-51J194D01*
G01X2002370Y1602974*
G03X2002251Y1603314I-142J141*
G01X2000330Y1605137D02*
G03X2002251Y1603314I2170J363D01*
G01X2000330Y1605137D02*
G03X2000122Y1605303I-197J-33D01*
G01X1999878D02*
G03X2000122I122J2197D01*
G01X1999878D02*
G03X1999670Y1605137I-11J-199D01*
G01X1995758Y1606844D02*
G03X1999670Y1605137I1742J-1344D01*
G01X1995758Y1606844D02*
G03X1995800Y1606966I-158J122D01*
G01Y1607699*
G03X1995461Y1607843I-200J0*
G01X1988761Y1601340*
G03X1988700Y1601196I139J-144*
G01Y1597324*
G03X1988950Y1597130I200J-0*
G01Y1592870D02*
G03Y1597130I550J2130D01*
G01Y1592870D02*
G03X1988700Y1592676I-50J-194D01*
G01Y1580200*
X1986800Y1578300D02*
G03X1988700Y1580200I0J1900D01*
G01X1986800Y1578300D02*
X1979700D01*
X1979595Y1578303D02*
G03X1979700Y1578300I105J1897D01*
G01X1979595Y1578303D02*
G03X1979442Y1577962I-11J-200D01*
G01X1980146Y1577259*
G03X1980287Y1577200I141J141*
G01X1989213*
G03X1989354Y1577259I-0J200*
G01X1997958Y1585862*
G03X1997999Y1586087I-141J142*
G01X2001394Y1588702D02*
G03X1997999Y1586087I-1394J-1702D01*
G01X2001394Y1588702D02*
G03X2001685Y1588744I126J155D01*
G01X2002420Y1589417D02*
G03X2001685Y1588744I1080J-1917D01*
G01X2136300Y1647787D02*
Y1700213D01*
G03X2136241Y1700354I-200J-0*
G01X2127354Y1709241*
G03X2127213Y1709300I-141J-141*
G01X2077500*
X2076298Y1709798D02*
G03X2077500Y1709300I1202J1202D01*
G01X2076298Y1709798D02*
X2058798Y1727298D01*
X2058300Y1728500D02*
G03X2058798Y1727298I1700J0D01*
G01X2058300Y1728500D02*
Y1732705D01*
G03X2057973Y1732860I-200J0*
G01X2056822Y1732168D02*
G03X2057973Y1732860I-1822J4332D01*
G01X2056822Y1732168D02*
G03X2056700Y1731983I78J-185D01*
G01Y1726987*
G03X2056759Y1726846I200J0*
G01X2082052Y1701552*
X2082550Y1700350D02*
G03X2082052Y1701552I-1700J0D01*
G01X2082550Y1700350D02*
Y1653400D01*
G03X2082750Y1653200I200J0*
G01X2121034*
G03X2121156Y1653242I-0J200*
G01Y1649758D02*
G03Y1653242I1344J1742D01*
G01Y1649758D02*
G03X2121034Y1649800I-122J-158D01*
G01X2080850*
X2063787*
G03X2063646Y1649741I0J-200*
G01X2047446Y1633541*
G03X2047587Y1633200I141J-141*
G01X2121034*
G03X2121156Y1633242I-0J200*
G01X2122219Y1633682D02*
G03X2121156Y1633242I281J-2182D01*
G01X2122219Y1633682D02*
G03X2122335Y1633739I-26J198D01*
G01X2136241Y1647646*
G03X2136300Y1647787I-141J141*
G01X2146200Y1482500D02*
G03X2146200I-16200J0D01*
G01X2135200Y1506500D02*
G03X2135200I-5200J0D01*
G01X2124700Y1551500D02*
G03X2124700I-2200J0D01*
G01X2146200Y1742500D02*
G03X2146200I-16200J0D01*
G01X2089700Y1736500D02*
G03X2089700I-4700J0D01*
G01X2072950Y1486500D02*
G03X2072950I-10450J0D01*
G01X2045450D02*
G03X2045450I-17950J0D01*
G01X2004500Y1491583D02*
G03X2000500I-2000J917D01*
G01X2004500D02*
G03Y1491417I182J-83D01*
G01X2003716Y1488667D02*
G03X2004500Y1491417I-1216J1833D01*
G01X2003716Y1488667D02*
G03Y1488333I111J-167D01*
G01X2001284D02*
G03X2003716I1216J-1833D01*
G01X2001284D02*
G03Y1488667I-111J167D01*
G01X2000500Y1491417D02*
G03X2001284Y1488667I2000J-917D01*
G01X2000500Y1491417D02*
G03Y1491583I-182J83D01*
G01X1990546Y1484012D02*
G03X1992620Y1485197I1954J-1012D01*
G01X1990546Y1484012D02*
G03X1990380Y1484303I-177J92D01*
G01X1989284Y1488333D02*
G03X1990380Y1484303I1216J-1833D01*
G01X1989284Y1488333D02*
G03Y1488667I-111J167D01*
G01X1988500Y1491417D02*
G03X1989284Y1488667I2000J-917D01*
G01X1988500Y1491417D02*
G03Y1491583I-182J83D01*
G01X1992500D02*
G03X1988500I-2000J917D01*
G01X1992500D02*
G03Y1491417I182J-83D01*
G01X1991716Y1488667D02*
G03X1992500Y1491417I-1216J1833D01*
G01X1991716Y1488667D02*
G03Y1488333I111J-167D01*
G01X1992454Y1485488D02*
G03X1991716Y1488333I-1954J1012D01*
G01X1992454Y1485488D02*
G03X1992620Y1485197I177J-92D01*
G01X1980450Y1486500D02*
G03X1980450I-17950J0D01*
G01X1961742Y1670156D02*
G03X1958258I-1742J1344D01*
G01X1961742D02*
G03X1961700Y1670034I158J-122D01*
G01Y1650000*
X1961202Y1648798D02*
G03X1961700Y1650000I-1202J1202D01*
G01X1961202Y1648798D02*
X1957759Y1645354D01*
G03X1957700Y1645213I141J-141*
G01Y1606466*
G03X1957742Y1606344I200J0*
G01X1954258D02*
G03X1957742I1742J-1344D01*
G01X1954258D02*
G03X1954300Y1606466I-158J122D01*
G01Y1646000*
X1954798Y1647202D02*
G03X1954300Y1646000I1202J-1202D01*
G01X1954798Y1647202D02*
X1958241Y1650646D01*
G03X1958300Y1650787I-141J141*
G01Y1670034*
G03X1958258Y1670156I-200J-0*
G01X1875200Y1719000D02*
G03X1875200I-5200J0D01*
G01X1886200Y1742500D02*
G03X1886200I-16200J0D01*
G01X1914700Y1602500D02*
G03X1914700I-2200J0D01*
G01X1901896Y1615994D02*
G03Y1619006I1604J1506D01*
G01Y1615994D02*
G03X1901604I-146J-136D01*
G01X1898396D02*
G03X1901604I1604J1506D01*
G01X1898396D02*
G03X1898104I-146J-136D01*
G01Y1619006D02*
G03Y1615994I-1604J-1506D01*
G01Y1619006D02*
G03X1898396I146J136D01*
G01X1901604D02*
G03X1898396I-1604J-1506D01*
G01X1901604D02*
G03X1901896I146J136D01*
G01X1886200Y1482500D02*
G03X1886200I-16200J0D01*
G01Y1601500D02*
G03X1886200I-2200J0D01*
G01Y1606500D02*
G03X1886200I-2200J0D01*
G01Y1611500D02*
G03X1886200I-2200J0D01*
G01X1873200Y1601500D02*
G03X1873200I-2200J0D01*
G01Y1606500D02*
G03X1873200I-2200J0D01*
G01Y1611500D02*
G03X1873200I-2200J0D01*
G01X1895450Y1636500D02*
G03X1895450I-17950J0D01*
G01X1922200Y1602500D02*
G03X1922200I-2200J0D01*
G01X1922700Y1609500D02*
G03X1922700I-2200J0D01*
G01X1937950Y1486500D02*
G03X1937950I-10450J0D01*
G01X2082550Y1699919D02*
X2136300D01*
X2082550Y1699559D02*
X2136300D01*
X2082550Y1699199D02*
X2136300D01*
X2082550Y1698839D02*
X2136300D01*
X2082550Y1698479D02*
X2136300D01*
X2082550Y1698119D02*
X2136300D01*
X2082550Y1697759D02*
X2136300D01*
X2082550Y1697399D02*
X2136300D01*
X2082550Y1697039D02*
X2136300D01*
X2082550Y1696679D02*
X2136300D01*
X2082550Y1696319D02*
X2136300D01*
X2082550Y1695959D02*
X2136300D01*
X2082550Y1695599D02*
X2136300D01*
X2082550Y1695239D02*
X2136300D01*
X2082550Y1694879D02*
X2136300D01*
X2082550Y1694519D02*
X2136300D01*
X2082550Y1694159D02*
X2136300D01*
X2082550Y1693799D02*
X2136300D01*
X2082550Y1693439D02*
X2136300D01*
X2082550Y1693079D02*
X2136300D01*
X2082550Y1692719D02*
X2136300D01*
X2082550Y1692359D02*
X2136300D01*
X2082550Y1691999D02*
X2136300D01*
X2082550Y1691639D02*
X2136300D01*
X2082550Y1691279D02*
X2136300D01*
X2082550Y1690919D02*
X2136300D01*
X2082550Y1690559D02*
X2136300D01*
X2082550Y1690199D02*
X2136300D01*
X2082550Y1689839D02*
X2136300D01*
X2082550Y1689479D02*
X2136300D01*
X2082550Y1689119D02*
X2136300D01*
X2082550Y1688759D02*
X2136300D01*
X2082550Y1688399D02*
X2136300D01*
X2082550Y1688039D02*
X2136300D01*
X2082550Y1687679D02*
X2136300D01*
X2082550Y1687319D02*
X2136300D01*
X2082550Y1686959D02*
X2136300D01*
X2082550Y1686599D02*
X2136300D01*
X2082550Y1686239D02*
X2136300D01*
X2082550Y1685879D02*
X2136300D01*
X2082550Y1685519D02*
X2136300D01*
X2082550Y1685159D02*
X2136300D01*
X2082550Y1684799D02*
X2136300D01*
X2082550Y1684439D02*
X2136300D01*
X2082550Y1684079D02*
X2136300D01*
X2082550Y1683719D02*
X2136300D01*
X2082550Y1683359D02*
X2136300D01*
X2082550Y1682999D02*
X2136300D01*
X2082550Y1682639D02*
X2136300D01*
X2082550Y1682279D02*
X2136300D01*
X2082550Y1681919D02*
X2136300D01*
X2082550Y1681559D02*
X2136300D01*
X2082550Y1681199D02*
X2136300D01*
X2082550Y1680839D02*
X2136300D01*
X2082550Y1680479D02*
X2136300D01*
X2082550Y1680119D02*
X2136300D01*
X2082550Y1679759D02*
X2136300D01*
X2082550Y1679399D02*
X2136300D01*
X2082550Y1679039D02*
X2136300D01*
X2082550Y1678679D02*
X2136300D01*
X2082550Y1678319D02*
X2136300D01*
X2082550Y1677959D02*
X2136300D01*
X2082550Y1677599D02*
X2136300D01*
X2082550Y1677239D02*
X2136300D01*
X2082550Y1676879D02*
X2136300D01*
X2082550Y1676519D02*
X2136300D01*
X2082550Y1676159D02*
X2136300D01*
X2082550Y1675799D02*
X2136300D01*
X2082550Y1675439D02*
X2136300D01*
X2082550Y1675079D02*
X2136300D01*
X2082550Y1674719D02*
X2136300D01*
X2082550Y1674359D02*
X2136300D01*
X2082550Y1673999D02*
X2136300D01*
X2082550Y1673639D02*
X2136300D01*
X2082550Y1673279D02*
X2136300D01*
X2082550Y1672919D02*
X2136300D01*
X2082550Y1672559D02*
X2136300D01*
X2082550Y1672199D02*
X2136300D01*
X2082550Y1671839D02*
X2136300D01*
X2082550Y1671479D02*
X2136300D01*
X2082550Y1671119D02*
X2136300D01*
X2082550Y1670759D02*
X2136300D01*
X2082550Y1670399D02*
X2136300D01*
X2082550Y1670039D02*
X2136300D01*
X2082550Y1669679D02*
X2136300D01*
X2082550Y1669319D02*
X2136300D01*
X2082550Y1668959D02*
X2136300D01*
X2082550Y1668599D02*
X2136300D01*
X2082550Y1668239D02*
X2136300D01*
X2082550Y1667879D02*
X2136300D01*
X2082550Y1667519D02*
X2136300D01*
X2082550Y1667159D02*
X2136300D01*
X2082550Y1666799D02*
X2136300D01*
X2082550Y1666439D02*
X2136300D01*
X2082550Y1666079D02*
X2136300D01*
X2082550Y1665719D02*
X2136300D01*
X2082550Y1665359D02*
X2136300D01*
X2082550Y1664999D02*
X2136300D01*
X2082550Y1664639D02*
X2136300D01*
X2082550Y1664279D02*
X2136300D01*
X2082550Y1663919D02*
X2136300D01*
X2082550Y1663559D02*
X2136300D01*
X2082550Y1663199D02*
X2136300D01*
X2082550Y1662839D02*
X2136300D01*
X2082550Y1662479D02*
X2136300D01*
X2082550Y1662119D02*
X2136300D01*
X2082550Y1661759D02*
X2136300D01*
X2082550Y1661399D02*
X2136300D01*
X2082550Y1661039D02*
X2136300D01*
X2082550Y1660679D02*
X2136300D01*
X2082550Y1660319D02*
X2136300D01*
X2082550Y1659959D02*
X2136300D01*
X2082550Y1659599D02*
X2136300D01*
X2082550Y1659239D02*
X2136300D01*
X2082550Y1658879D02*
X2136300D01*
X2082550Y1658519D02*
X2136300D01*
X2082550Y1658159D02*
X2136300D01*
X2082550Y1657799D02*
X2136300D01*
X2082550Y1657439D02*
X2136300D01*
X2082550Y1657079D02*
X2136300D01*
X2082550Y1656719D02*
X2136300D01*
X2082550Y1656359D02*
X2136300D01*
X2082550Y1655999D02*
X2136300D01*
X2082550Y1655639D02*
X2136300D01*
X2082550Y1655279D02*
X2136300D01*
X2082550Y1654919D02*
X2136300D01*
X2082550Y1654559D02*
X2136300D01*
X2082550Y1654199D02*
X2136300D01*
X2082550Y1653839D02*
X2136300D01*
X2123462Y1653479D02*
X2136300D01*
X2123990Y1653119D02*
X2136300D01*
X2124304Y1652759D02*
X2136300D01*
X2124508Y1652399D02*
X2136300D01*
X2124633Y1652039D02*
X2136300D01*
X2124693Y1651679D02*
X2136300D01*
X2124693Y1651319D02*
X2136300D01*
X2124632Y1650959D02*
X2136300D01*
X2124507Y1650599D02*
X2136300D01*
X2124303Y1650239D02*
X2136300D01*
X2123987Y1649879D02*
X2136300D01*
X2123456Y1649519D02*
X2136300D01*
X2063063Y1649159D02*
X2136300D01*
X2062703Y1648799D02*
X2136300D01*
X2062343Y1648439D02*
X2136300D01*
X2061983Y1648079D02*
X2136300D01*
X2082550Y1700279D02*
X2136289D01*
X2061623Y1647719D02*
X2136288D01*
X2082525Y1700639D02*
X2135957D01*
X2061263Y1647359D02*
X2135954D01*
X2082421Y1700999D02*
X2135597D01*
X2060903Y1646999D02*
X2135594D01*
X2082218Y1701359D02*
X2135237D01*
X2060543Y1646639D02*
X2135234D01*
X2081886Y1701719D02*
X2134877D01*
X2060183Y1646279D02*
X2134874D01*
X2081526Y1702079D02*
X2134517D01*
X2059823Y1645919D02*
X2134514D01*
X2081166Y1702439D02*
X2134157D01*
X2059463Y1645559D02*
X2134154D01*
X2080806Y1702799D02*
X2133797D01*
X2059103Y1645199D02*
X2133794D01*
X2080446Y1703159D02*
X2133437D01*
X2058743Y1644839D02*
X2133434D01*
X2080086Y1703519D02*
X2133077D01*
X2058383Y1644479D02*
X2133074D01*
X2079726Y1703879D02*
X2132717D01*
X2058023Y1644119D02*
X2132714D01*
X2079366Y1704239D02*
X2132357D01*
X2057663Y1643759D02*
X2132354D01*
X2079006Y1704599D02*
X2131997D01*
X2057303Y1643399D02*
X2131994D01*
X2078646Y1704959D02*
X2131637D01*
X2056943Y1643039D02*
X2131634D01*
X2078286Y1705319D02*
X2131277D01*
X2056583Y1642679D02*
X2131274D01*
X2077926Y1705679D02*
X2130917D01*
X2056223Y1642319D02*
X2130914D01*
X2077566Y1706039D02*
X2130557D01*
X2055863Y1641959D02*
X2130554D01*
X2077206Y1706399D02*
X2130197D01*
X2055503Y1641599D02*
X2130194D01*
X2076846Y1706759D02*
X2129837D01*
X2055143Y1641239D02*
X2129834D01*
X2076486Y1707119D02*
X2129477D01*
X2054783Y1640879D02*
X2129474D01*
X2076126Y1707479D02*
X2129117D01*
X2054423Y1640519D02*
X2129114D01*
X2075766Y1707839D02*
X2128757D01*
X2054063Y1640159D02*
X2128754D01*
X2075406Y1708199D02*
X2128397D01*
X2053703Y1639799D02*
X2128394D01*
X2075046Y1708559D02*
X2128037D01*
X2053343Y1639439D02*
X2128034D01*
X2074686Y1708919D02*
X2127677D01*
X2052983Y1639079D02*
X2127674D01*
X2052623Y1638719D02*
X2127314D01*
X2074326Y1709279D02*
X2127303D01*
X2052263Y1638359D02*
X2126954D01*
X2051903Y1637999D02*
X2126594D01*
X2051543Y1637639D02*
X2126234D01*
X2051183Y1637279D02*
X2125874D01*
X2050823Y1636919D02*
X2125514D01*
X2050463Y1636559D02*
X2125154D01*
X2050103Y1636199D02*
X2124794D01*
X2049743Y1635839D02*
X2124434D01*
X2049383Y1635479D02*
X2124074D01*
X2049023Y1635119D02*
X2123714D01*
X2048663Y1634759D02*
X2123354D01*
X2048303Y1634399D02*
X2122994D01*
X2047943Y1634039D02*
X2122634D01*
X2047583Y1633679D02*
X2122194D01*
X2063423Y1649519D02*
X2121544D01*
X2082550Y1653479D02*
X2121538D01*
X2047404Y1633319D02*
X2121262D01*
X2073966Y1709639D02*
X2076482D01*
X2073606Y1709999D02*
X2076097D01*
X2073246Y1710359D02*
X2075737D01*
X2072886Y1710719D02*
X2075377D01*
X2072526Y1711079D02*
X2075017D01*
X2072166Y1711439D02*
X2074657D01*
X2071806Y1711799D02*
X2074297D01*
X2071446Y1712159D02*
X2073937D01*
X2071086Y1712519D02*
X2073577D01*
X2070726Y1712879D02*
X2073217D01*
X2070366Y1713239D02*
X2072857D01*
X2070006Y1713599D02*
X2072497D01*
X2069646Y1713959D02*
X2072137D01*
X2069286Y1714319D02*
X2071777D01*
X2068926Y1714679D02*
X2071417D01*
X2068566Y1715039D02*
X2071057D01*
X2068206Y1715399D02*
X2070697D01*
X2067846Y1715759D02*
X2070337D01*
X2067486Y1716119D02*
X2069977D01*
X2067126Y1716479D02*
X2069617D01*
X2066766Y1716839D02*
X2069257D01*
X2066406Y1717199D02*
X2068897D01*
X2066046Y1717559D02*
X2068537D01*
X2065686Y1717919D02*
X2068177D01*
X2065326Y1718279D02*
X2067817D01*
X2064966Y1718639D02*
X2067457D01*
X2064606Y1718999D02*
X2067097D01*
X2064246Y1719359D02*
X2066737D01*
X2063886Y1719719D02*
X2066377D01*
X2063526Y1720079D02*
X2066017D01*
X2063166Y1720439D02*
X2065657D01*
X2062806Y1720799D02*
X2065297D01*
X2062446Y1721159D02*
X2064937D01*
X2062086Y1721519D02*
X2064577D01*
X2061726Y1721879D02*
X2064217D01*
X2061366Y1722239D02*
X2063857D01*
X2061006Y1722599D02*
X2063497D01*
X2060646Y1722959D02*
X2063137D01*
X2060286Y1723319D02*
X2062777D01*
X2059926Y1723679D02*
X2062417D01*
X2059566Y1724039D02*
X2062057D01*
X2059206Y1724399D02*
X2061697D01*
X2058846Y1724759D02*
X2061337D01*
X2058486Y1725119D02*
X2060977D01*
X2058126Y1725479D02*
X2060617D01*
X2057766Y1725839D02*
X2060257D01*
X2057406Y1726199D02*
X2059897D01*
X2057046Y1726559D02*
X2059537D01*
X2056712Y1726919D02*
X2059177D01*
X2056700Y1727279D02*
X2058817D01*
X2056700Y1727639D02*
X2058534D01*
X2056700Y1727999D02*
X2058376D01*
X2056700Y1728359D02*
X2058306D01*
X2057736Y1732679D02*
X2058300D01*
X2057146Y1732319D02*
X2058300D01*
X2056700Y1731959D02*
X2058300D01*
X2056700Y1731599D02*
X2058300D01*
X2056700Y1731239D02*
X2058300D01*
X2056700Y1730879D02*
X2058300D01*
X2056700Y1730519D02*
X2058300D01*
X2056700Y1730159D02*
X2058300D01*
X2056700Y1729799D02*
X2058300D01*
X2056700Y1729439D02*
X2058300D01*
X2056700Y1729079D02*
X2058300D01*
X2056700Y1728719D02*
X2058300D01*
X1988700Y1589759D02*
X2002437D01*
X1990552Y1603079D02*
X2002425D01*
X1988700Y1589399D02*
X2002389D01*
X1990181Y1602719D02*
X2002114D01*
X1988700Y1590119D02*
X2002077D01*
X2000827Y1589039D02*
X2001928D01*
X1989810Y1602359D02*
X2001754D01*
X1998269Y1603439D02*
X2001731D01*
X1988700Y1590479D02*
X2001717D01*
X2001430Y1588679D02*
X2001611D01*
X1989440Y1601999D02*
X2001394D01*
X1988700Y1590839D02*
X2001357D01*
X1998895Y1603799D02*
X2001105D01*
X1989069Y1601639D02*
X2001034D01*
X1988700Y1591199D02*
X2000997D01*
X1999244Y1604159D02*
X2000756D01*
X1988718Y1601279D02*
X2000674D01*
X1988700Y1591559D02*
X2000637D01*
X1999469Y1604519D02*
X2000531D01*
X1999610Y1604879D02*
X2000390D01*
X1988700Y1600919D02*
X2000314D01*
X1999720Y1605239D02*
X2000280D01*
X1988700Y1591919D02*
X2000277D01*
X1988700Y1600559D02*
X1999954D01*
X1988700Y1592279D02*
X1999917D01*
X1988700Y1600199D02*
X1999471D01*
X1988700Y1592639D02*
X1999368D01*
X1988700Y1589039D02*
X1999173D01*
X1991318Y1596239D02*
X1999109D01*
X1991011Y1596599D02*
X1999049D01*
X1988700Y1599839D02*
X1998822D01*
X1990414Y1592999D02*
X1998779D01*
X1991517Y1595879D02*
X1998651D01*
X1990502Y1596959D02*
X1998616D01*
X1988700Y1588679D02*
X1998578D01*
X1988700Y1599479D02*
X1998484D01*
X1990965Y1593359D02*
X1998458D01*
X1991638Y1595519D02*
X1998379D01*
X1988700Y1597319D02*
X1998357D01*
X1988700Y1599119D02*
X1998275D01*
X1991288Y1593719D02*
X1998259D01*
X1988700Y1588319D02*
X1998239D01*
X1991694Y1595159D02*
X1998212D01*
X1988700Y1597679D02*
X1998199D01*
X1988700Y1598759D02*
X1998153D01*
X1991498Y1594079D02*
X1998145D01*
X1991691Y1594799D02*
X1998122D01*
X1988700Y1598039D02*
X1998117D01*
X1988700Y1598399D02*
X1998102D01*
X1991627Y1594439D02*
X1998101D01*
X1988700Y1587959D02*
X1998020D01*
X1988700Y1586159D02*
X1997967D01*
X1988700Y1585799D02*
X1997894D01*
X1988700Y1587599D02*
X1997883D01*
X1988700Y1586519D02*
X1997853D01*
X1988700Y1587239D02*
X1997813D01*
X1988700Y1586879D02*
X1997803D01*
X1988700Y1585439D02*
X1997534D01*
X1988700Y1585079D02*
X1997174D01*
X1988700Y1584719D02*
X1996814D01*
X1990923Y1603439D02*
X1996731D01*
X1988700Y1584359D02*
X1996454D01*
X1991294Y1603799D02*
X1996105D01*
X1988700Y1583999D02*
X1996094D01*
X1995003Y1607399D02*
X1995800D01*
X1994632Y1607039D02*
X1995800D01*
X1995374Y1607759D02*
X1995791D01*
X1991665Y1604159D02*
X1995756D01*
X1988700Y1583639D02*
X1995734D01*
X1994261Y1606679D02*
X1995642D01*
X1992036Y1604519D02*
X1995531D01*
X1993890Y1606319D02*
X1995458D01*
X1992407Y1604879D02*
X1995390D01*
X1988700Y1583279D02*
X1995374D01*
X1993520Y1605959D02*
X1995348D01*
X1992778Y1605239D02*
X1995316D01*
X1993149Y1605599D02*
X1995302D01*
X1988700Y1582919D02*
X1995014D01*
X1988700Y1582559D02*
X1994654D01*
X1988700Y1582199D02*
X1994294D01*
X1988700Y1581839D02*
X1993934D01*
X1988700Y1581479D02*
X1993574D01*
X1988700Y1581119D02*
X1993214D01*
X1988700Y1580759D02*
X1992854D01*
X1988700Y1580399D02*
X1992494D01*
X1988693Y1580039D02*
X1992134D01*
X1988627Y1579679D02*
X1991774D01*
X1988483Y1579319D02*
X1991414D01*
X1988238Y1578959D02*
X1991054D01*
X1987823Y1578599D02*
X1990694D01*
X1979437Y1578239D02*
X1990334D01*
X1979526Y1577879D02*
X1989974D01*
X1979886Y1577519D02*
X1989614D01*
X1994063Y1577159D02*
X2005800D01*
X1993703Y1576799D02*
X2005800D01*
X1993343Y1576439D02*
X2005800D01*
X1992983Y1576079D02*
X2005800D01*
X1992623Y1575719D02*
X2005800D01*
X1992263Y1575359D02*
X2005800D01*
X1991903Y1574999D02*
X2005800D01*
X1991543Y1574639D02*
X2005800D01*
X1991183Y1574279D02*
X2005800D01*
X1990624Y1573919D02*
X2005800D01*
X1975200Y1573559D02*
X2005800D01*
X1975200Y1573199D02*
X2005800D01*
X1975200Y1572839D02*
X2005800D01*
X1975200Y1572479D02*
X2005800D01*
X1994423Y1577519D02*
X2005577D01*
X1994783Y1577879D02*
X2004659D01*
X1995143Y1578239D02*
X2003986D01*
X1995503Y1578599D02*
X2003652D01*
X1995863Y1578959D02*
X2003451D01*
X1996223Y1579319D02*
X2003339D01*
X2001647Y1585079D02*
X2003321D01*
X1996583Y1579679D02*
X2003300D01*
X2001510Y1584719D02*
X2003300D01*
X2001260Y1584359D02*
X2003300D01*
X2000903Y1583999D02*
X2003300D01*
X2000543Y1583639D02*
X2003300D01*
X2000183Y1583279D02*
X2003300D01*
X1999823Y1582919D02*
X2003300D01*
X1999463Y1582559D02*
X2003300D01*
X1999103Y1582199D02*
X2003300D01*
X1998743Y1581839D02*
X2003300D01*
X1998383Y1581479D02*
X2003300D01*
X1998023Y1581119D02*
X2003300D01*
X1997663Y1580759D02*
X2003300D01*
X1997303Y1580399D02*
X2003300D01*
X1996943Y1580039D02*
X2003300D01*
X2001699Y1585439D02*
X2002731D01*
X2001854Y1585799D02*
X2002105D01*
X1975200Y1573919D02*
X1978876D01*
X1975200Y1574279D02*
X1978317D01*
X1975200Y1574639D02*
X1977957D01*
X1975200Y1574999D02*
X1977597D01*
X1975200Y1575359D02*
X1977237D01*
X1975200Y1575719D02*
X1976877D01*
X1975200Y1576079D02*
X1976517D01*
X1975200Y1576439D02*
X1976157D01*
X1975200Y1576799D02*
X1975797D01*
X2030516Y1673639D02*
X2050800D01*
X2009568Y1673999D02*
X2050746D01*
X2031295Y1673279D02*
X2050710D01*
X2031681Y1672919D02*
X2050501D01*
X2009568Y1674359D02*
X2050386D01*
X2031929Y1672559D02*
X2050154D01*
X2009568Y1674719D02*
X2050026D01*
X2032086Y1672199D02*
X2049794D01*
X2009568Y1675079D02*
X2049666D01*
X2032174Y1671839D02*
X2049434D01*
X2009568Y1675439D02*
X2049306D01*
X2032200Y1671479D02*
X2049074D01*
X2009568Y1675799D02*
X2048946D01*
X2032167Y1671119D02*
X2048714D01*
X2009568Y1676159D02*
X2048586D01*
X2032071Y1670759D02*
X2048354D01*
X2009568Y1676519D02*
X2048226D01*
X2031905Y1670399D02*
X2047994D01*
X2009568Y1676879D02*
X2047866D01*
X2031645Y1670039D02*
X2047634D01*
X2009568Y1677239D02*
X2047506D01*
X2031234Y1669679D02*
X2047274D01*
X2009568Y1677599D02*
X2047146D01*
X2030286Y1669319D02*
X2046914D01*
X2009568Y1677959D02*
X2046786D01*
X2029363Y1668959D02*
X2046554D01*
X2009568Y1678319D02*
X2046426D01*
X2029003Y1668599D02*
X2046194D01*
X2009568Y1678679D02*
X2046066D01*
X2028643Y1668239D02*
X2045834D01*
X2009568Y1679039D02*
X2045706D01*
X2028283Y1667879D02*
X2045474D01*
X2009568Y1679399D02*
X2045346D01*
X2027923Y1667519D02*
X2045114D01*
X2009568Y1679759D02*
X2044986D01*
X2027563Y1667159D02*
X2044754D01*
X2009568Y1680119D02*
X2044626D01*
X2027203Y1666799D02*
X2044394D01*
X2009568Y1680479D02*
X2044266D01*
X2026843Y1666439D02*
X2044034D01*
X2009568Y1680839D02*
X2043906D01*
X2026483Y1666079D02*
X2043674D01*
X2009568Y1681199D02*
X2043546D01*
X2026123Y1665719D02*
X2043314D01*
X2009568Y1681559D02*
X2043186D01*
X2025763Y1665359D02*
X2042954D01*
X2009568Y1681919D02*
X2042826D01*
X2025403Y1664999D02*
X2042594D01*
X2009568Y1682279D02*
X2042466D01*
X2025043Y1664639D02*
X2042234D01*
X2009568Y1682639D02*
X2042106D01*
X2024683Y1664279D02*
X2041874D01*
X2009568Y1682999D02*
X2041746D01*
X2024323Y1663919D02*
X2041514D01*
X2009568Y1683359D02*
X2041386D01*
X2023963Y1663559D02*
X2041154D01*
X2009568Y1683719D02*
X2041026D01*
X2023603Y1663199D02*
X2040794D01*
X2009568Y1684079D02*
X2040666D01*
X2023243Y1662839D02*
X2040434D01*
X2009568Y1684439D02*
X2040306D01*
X2022883Y1662479D02*
X2040074D01*
X2009568Y1684799D02*
X2039946D01*
X2022523Y1662119D02*
X2039714D01*
X2009568Y1685159D02*
X2039586D01*
X2022163Y1661759D02*
X2039354D01*
X2009568Y1685519D02*
X2039226D01*
X2021887Y1661399D02*
X2038994D01*
X2009568Y1685879D02*
X2038866D01*
X2009568Y1686239D02*
X2038506D01*
X2009568Y1686599D02*
X2038146D01*
X2009568Y1686959D02*
X2037786D01*
X2009568Y1687319D02*
X2037426D01*
X2009568Y1687679D02*
X2037066D01*
X2009568Y1688039D02*
X2036706D01*
X2009568Y1688399D02*
X2036346D01*
X2009568Y1688759D02*
X2035986D01*
X2009568Y1689119D02*
X2035626D01*
X2009568Y1689479D02*
X2035266D01*
X2009568Y1689839D02*
X2034906D01*
X2009568Y1690199D02*
X2034546D01*
X2009568Y1690559D02*
X2034186D01*
X2009568Y1690919D02*
X2033826D01*
X2009568Y1691279D02*
X2033466D01*
X2009568Y1691639D02*
X2033106D01*
X2009568Y1691999D02*
X2032746D01*
X2009568Y1692359D02*
X2032386D01*
X2009568Y1692719D02*
X2032026D01*
X2009568Y1693079D02*
X2031666D01*
X2009568Y1693439D02*
X2031306D01*
X2009568Y1693799D02*
X2030946D01*
X2009568Y1694159D02*
X2030586D01*
X2009568Y1694519D02*
X2030226D01*
X2009568Y1694879D02*
X2029866D01*
X2009568Y1695239D02*
X2029506D01*
X2009568Y1673639D02*
X2029484D01*
X2009568Y1695599D02*
X2029146D01*
X2009568Y1695959D02*
X2028786D01*
X2009568Y1673279D02*
X2028705D01*
X2009568Y1696319D02*
X2028426D01*
X2009568Y1672919D02*
X2028319D01*
X2009568Y1672559D02*
X2028071D01*
X2009545Y1696679D02*
X2028066D01*
X2009586Y1672199D02*
X2027794D01*
X2009454Y1697039D02*
X2027706D01*
X2009674Y1671839D02*
X2027434D01*
X2009282Y1697399D02*
X2027346D01*
X2009700Y1671479D02*
X2027074D01*
X2008999Y1697759D02*
X2026986D01*
X2009667Y1671119D02*
X2026714D01*
X2008639Y1698119D02*
X2026626D01*
X2009571Y1670759D02*
X2026354D01*
X2008279Y1698479D02*
X2026266D01*
X2009405Y1670399D02*
X2025994D01*
X2007919Y1698839D02*
X2025906D01*
X2009145Y1670039D02*
X2025634D01*
X2007559Y1699199D02*
X2025546D01*
X2008751Y1669679D02*
X2025274D01*
X2007199Y1699559D02*
X2025186D01*
X2008411Y1669319D02*
X2024914D01*
X2006839Y1699919D02*
X2024826D01*
X2008051Y1668959D02*
X2024554D01*
X2006479Y1700279D02*
X2024466D01*
X2007691Y1668599D02*
X2024194D01*
X2006119Y1700639D02*
X2024106D01*
X2007331Y1668239D02*
X2023834D01*
X2005759Y1700999D02*
X2023746D01*
X2006971Y1667879D02*
X2023474D01*
X2005399Y1701359D02*
X2023386D01*
X2006611Y1667519D02*
X2023114D01*
X2005039Y1701719D02*
X2023026D01*
X2006251Y1667159D02*
X2022754D01*
X2004679Y1702079D02*
X2022666D01*
X2005891Y1666799D02*
X2022394D01*
X2004319Y1702439D02*
X2022306D01*
X2005531Y1666439D02*
X2022034D01*
X2003959Y1702799D02*
X2021946D01*
X2005207Y1666079D02*
X2021674D01*
X2003599Y1703159D02*
X2021586D01*
X2005200Y1665719D02*
X2021314D01*
X2003239Y1703519D02*
X2021226D01*
X2005200Y1665359D02*
X2020954D01*
X2002879Y1703879D02*
X2020866D01*
X2005200Y1664999D02*
X2020594D01*
X2002519Y1704239D02*
X2020506D01*
X2005200Y1664639D02*
X2020234D01*
X2002159Y1704599D02*
X2020146D01*
X2005200Y1664279D02*
X2019874D01*
X2001799Y1704959D02*
X2019786D01*
X2005200Y1663919D02*
X2019514D01*
X2001439Y1705319D02*
X2019426D01*
X2001079Y1705679D02*
X2019066D01*
X2000719Y1706039D02*
X2018706D01*
X2000359Y1706399D02*
X2018346D01*
X1999999Y1706759D02*
X2017986D01*
X1999639Y1707119D02*
X2017626D01*
X1999222Y1707479D02*
X2017266D01*
X1964122Y1707839D02*
X2016906D01*
X1963759Y1708199D02*
X2016546D01*
X1963399Y1708559D02*
X2016186D01*
X1963039Y1708919D02*
X2015826D01*
X1962679Y1709279D02*
X2015466D01*
X1982103Y1753199D02*
X2010587D01*
X1981743Y1752839D02*
X2010434D01*
X1981383Y1752479D02*
X2010074D01*
X1981023Y1752119D02*
X2009714D01*
X1980663Y1751759D02*
X2009354D01*
X1980303Y1751399D02*
X2008994D01*
X2005200Y1663559D02*
X2008821D01*
X1979943Y1751039D02*
X2008634D01*
X2005200Y1663199D02*
X2008295D01*
X1979583Y1750679D02*
X2008274D01*
X2005200Y1662839D02*
X2007957D01*
X1979223Y1750319D02*
X2007914D01*
X2005200Y1662479D02*
X2007621D01*
X1978863Y1749959D02*
X2007554D01*
X2005200Y1662119D02*
X2007285D01*
X1988578Y1749599D02*
X2007194D01*
X2005200Y1661759D02*
X2006949D01*
X1989164Y1749239D02*
X2006834D01*
X2005200Y1661399D02*
X2006613D01*
X1989455Y1748879D02*
X2006474D01*
X2005200Y1661039D02*
X2006277D01*
X1989619Y1748519D02*
X2006114D01*
X2005200Y1660679D02*
X2005941D01*
X1989693Y1748159D02*
X2005754D01*
X2005214Y1660319D02*
X2005605D01*
X1989700Y1747799D02*
X2005394D01*
X1989700Y1747439D02*
X2005034D01*
X1989700Y1747079D02*
X2004674D01*
X1989700Y1746719D02*
X2004314D01*
X1989700Y1746359D02*
X2003954D01*
X1989700Y1745999D02*
X2003594D01*
X1989700Y1745639D02*
X2003234D01*
X1989700Y1745279D02*
X2002874D01*
X1989700Y1744919D02*
X2002514D01*
X1989700Y1744559D02*
X2002154D01*
X1989700Y1744199D02*
X2001794D01*
X1989700Y1743839D02*
X2001434D01*
X1989700Y1743479D02*
X2001074D01*
X1989700Y1743119D02*
X2000714D01*
X1989700Y1742759D02*
X2000354D01*
X1989700Y1742399D02*
X1999994D01*
X1989700Y1742039D02*
X1999634D01*
X1989669Y1741679D02*
X1999274D01*
X1989558Y1741319D02*
X1998914D01*
X1989344Y1740959D02*
X1998554D01*
X1988962Y1740599D02*
X1998194D01*
X1988550Y1740239D02*
X1997834D01*
X1988791Y1739879D02*
X1997474D01*
X1989030Y1739519D02*
X1997114D01*
X1989225Y1739159D02*
X1996754D01*
X1989382Y1738799D02*
X1996394D01*
X1989505Y1738439D02*
X1996034D01*
X1989597Y1738079D02*
X1995674D01*
X1989659Y1737719D02*
X1995314D01*
X1989693Y1737359D02*
X1994954D01*
X1989699Y1736999D02*
X1994594D01*
X1989677Y1736639D02*
X1994234D01*
X1989628Y1736279D02*
X1993874D01*
X1989549Y1735919D02*
X1993514D01*
X1989440Y1735559D02*
X1993154D01*
X1989298Y1735199D02*
X1992794D01*
X1989120Y1734839D02*
X1992434D01*
X1988901Y1734479D02*
X1992074D01*
X1988633Y1734119D02*
X1991714D01*
X1988305Y1733759D02*
X1991354D01*
X1987897Y1733399D02*
X1990994D01*
X1987733Y1733039D02*
X1990634D01*
X1988161Y1732679D02*
X1990274D01*
X1988516Y1732319D02*
X1989914D01*
X1988805Y1731959D02*
X1989554D01*
X1962319Y1709639D02*
X1982282D01*
X1969143Y1740239D02*
X1981450D01*
X1961959Y1709999D02*
X1981436D01*
X1978503Y1749599D02*
X1981422D01*
X1968783Y1739879D02*
X1981209D01*
X1961599Y1710359D02*
X1981062D01*
X1969503Y1740599D02*
X1981038D01*
X1968423Y1739519D02*
X1980970D01*
X1978143Y1749239D02*
X1980836D01*
X1968063Y1739159D02*
X1980775D01*
X1961239Y1710719D02*
X1980702D01*
X1969863Y1740959D02*
X1980656D01*
X1967703Y1738799D02*
X1980618D01*
X1977783Y1748879D02*
X1980545D01*
X1967173Y1738439D02*
X1980495D01*
X1970223Y1741319D02*
X1980442D01*
X1944597Y1738079D02*
X1980403D01*
X1977423Y1748519D02*
X1980381D01*
X1944628Y1736279D02*
X1980347D01*
X1960879Y1711079D02*
X1980342D01*
X1944659Y1737719D02*
X1980341D01*
X1970583Y1741679D02*
X1980331D01*
X1944677Y1736639D02*
X1980323D01*
X1977063Y1748159D02*
X1980307D01*
X1944693Y1737359D02*
X1980307D01*
X1944699Y1736999D02*
X1980301D01*
X1976703Y1747799D02*
X1980300D01*
X1976343Y1747439D02*
X1980300D01*
X1975983Y1747079D02*
X1980300D01*
X1975623Y1746719D02*
X1980300D01*
X1975263Y1746359D02*
X1980300D01*
X1974903Y1745999D02*
X1980300D01*
X1974543Y1745639D02*
X1980300D01*
X1974183Y1745279D02*
X1980300D01*
X1973823Y1744919D02*
X1980300D01*
X1973463Y1744559D02*
X1980300D01*
X1973103Y1744199D02*
X1980300D01*
X1972743Y1743839D02*
X1980300D01*
X1972383Y1743479D02*
X1980300D01*
X1972023Y1743119D02*
X1980300D01*
X1971663Y1742759D02*
X1980300D01*
X1971303Y1742399D02*
X1980300D01*
X1970943Y1742039D02*
X1980300D01*
X1944549Y1735919D02*
X1980014D01*
X1960519Y1711439D02*
X1979982D01*
X1944440Y1735559D02*
X1979654D01*
X1960159Y1711799D02*
X1979622D01*
X1944298Y1735199D02*
X1979294D01*
X1959799Y1712159D02*
X1979262D01*
X1944120Y1734839D02*
X1978934D01*
X1959439Y1712519D02*
X1978902D01*
X1943901Y1734479D02*
X1978574D01*
X1959079Y1712879D02*
X1978542D01*
X1943633Y1734119D02*
X1978214D01*
X1958719Y1713239D02*
X1978182D01*
X1943305Y1733759D02*
X1977854D01*
X1958359Y1713599D02*
X1977822D01*
X1942897Y1733399D02*
X1977494D01*
X1957999Y1713959D02*
X1977462D01*
X1942733Y1733039D02*
X1977134D01*
X1957639Y1714319D02*
X1977102D01*
X1943161Y1732679D02*
X1976775D01*
X1957279Y1714679D02*
X1976744D01*
X1943516Y1732319D02*
X1976510D01*
X1956919Y1715039D02*
X1976493D01*
X1943805Y1731959D02*
X1976363D01*
X1956559Y1715399D02*
X1976354D01*
X1944042Y1731599D02*
X1976303D01*
X1956199Y1715759D02*
X1976301D01*
X1944235Y1731239D02*
X1976300D01*
X1944390Y1730879D02*
X1976300D01*
X1944511Y1730519D02*
X1976300D01*
X1944601Y1730159D02*
X1976300D01*
X1944662Y1729799D02*
X1976300D01*
X1944694Y1729439D02*
X1976300D01*
X1944698Y1729079D02*
X1976300D01*
X1944675Y1728719D02*
X1976300D01*
X1944624Y1728359D02*
X1976300D01*
X1944544Y1727999D02*
X1976300D01*
X1944436Y1727639D02*
X1976300D01*
X1944679Y1727279D02*
X1976300D01*
X1945039Y1726919D02*
X1976300D01*
X1945399Y1726559D02*
X1976300D01*
X1945759Y1726199D02*
X1976300D01*
X1946119Y1725839D02*
X1976300D01*
X1946479Y1725479D02*
X1976300D01*
X1946839Y1725119D02*
X1976300D01*
X1947199Y1724759D02*
X1976300D01*
X1947559Y1724399D02*
X1976300D01*
X1947919Y1724039D02*
X1976300D01*
X1948279Y1723679D02*
X1976300D01*
X1948639Y1723319D02*
X1976300D01*
X1948999Y1722959D02*
X1976300D01*
X1949359Y1722599D02*
X1976300D01*
X1949719Y1722239D02*
X1976300D01*
X1950079Y1721879D02*
X1976300D01*
X1950439Y1721519D02*
X1976300D01*
X1950799Y1721159D02*
X1976300D01*
X1951159Y1720799D02*
X1976300D01*
X1951519Y1720439D02*
X1976300D01*
X1951879Y1720079D02*
X1976300D01*
X1952239Y1719719D02*
X1976300D01*
X1952599Y1719359D02*
X1976300D01*
X1952959Y1718999D02*
X1976300D01*
X1953319Y1718639D02*
X1976300D01*
X1953679Y1718279D02*
X1976300D01*
X1954039Y1717919D02*
X1976300D01*
X1954399Y1717559D02*
X1976300D01*
X1954759Y1717199D02*
X1976300D01*
X1955119Y1716839D02*
X1976300D01*
X1955479Y1716479D02*
X1976300D01*
X1955839Y1716119D02*
X1976300D01*
X1944505Y1738439D02*
X1948827D01*
X1944382Y1738799D02*
X1948297D01*
X1944225Y1739159D02*
X1947937D01*
X1944030Y1739519D02*
X1947577D01*
X1943791Y1739879D02*
X1947217D01*
X1943550Y1740239D02*
X1946857D01*
X1943962Y1740599D02*
X1946497D01*
X1944344Y1740959D02*
X1946137D01*
X1944558Y1741319D02*
X1945777D01*
X1944669Y1741679D02*
X1945417D01*
X1944741Y1742039D02*
X1945057D01*
X2070204Y1759319D02*
X2147300D01*
X2070794Y1758959D02*
X2147300D01*
X2131809Y1758599D02*
X2147300D01*
X2133839Y1758239D02*
X2147300D01*
X2135093Y1757879D02*
X2147300D01*
X2136073Y1757519D02*
X2147300D01*
X2136897Y1757159D02*
X2147300D01*
X2137615Y1756799D02*
X2147300D01*
X2138256Y1756439D02*
X2147300D01*
X2138835Y1756079D02*
X2147300D01*
X2139365Y1755719D02*
X2147300D01*
X2139854Y1755359D02*
X2147300D01*
X2140306Y1754999D02*
X2147300D01*
X2140728Y1754639D02*
X2147300D01*
X2141122Y1754279D02*
X2147300D01*
X2141491Y1753919D02*
X2147300D01*
X2141838Y1753559D02*
X2147300D01*
X2142165Y1753199D02*
X2147300D01*
X2142472Y1752839D02*
X2147300D01*
X2142762Y1752479D02*
X2147300D01*
X2143035Y1752119D02*
X2147300D01*
X2143294Y1751759D02*
X2147300D01*
X2143537Y1751399D02*
X2147300D01*
X2143767Y1751039D02*
X2147300D01*
X2143984Y1750679D02*
X2147300D01*
X2144188Y1750319D02*
X2147300D01*
X2144381Y1749959D02*
X2147300D01*
X2144562Y1749599D02*
X2147300D01*
X2144732Y1749239D02*
X2147300D01*
X2144891Y1748879D02*
X2147300D01*
X2145040Y1748519D02*
X2147300D01*
X2145180Y1748159D02*
X2147300D01*
X2145309Y1747799D02*
X2147300D01*
X2145429Y1747439D02*
X2147300D01*
X2145540Y1747079D02*
X2147300D01*
X2145641Y1746719D02*
X2147300D01*
X2145734Y1746359D02*
X2147300D01*
X2145818Y1745999D02*
X2147300D01*
X2145893Y1745639D02*
X2147300D01*
X2145960Y1745279D02*
X2147300D01*
X2146018Y1744919D02*
X2147300D01*
X2146069Y1744559D02*
X2147300D01*
X2146111Y1744199D02*
X2147300D01*
X2146145Y1743839D02*
X2147300D01*
X2146170Y1743479D02*
X2147300D01*
X2146188Y1743119D02*
X2147300D01*
X2146198Y1742759D02*
X2147300D01*
X2146200Y1742399D02*
X2147300D01*
X2146193Y1742039D02*
X2147300D01*
X2146179Y1741679D02*
X2147300D01*
X2146157Y1741319D02*
X2147300D01*
X2146127Y1740959D02*
X2147300D01*
X2146088Y1740599D02*
X2147300D01*
X2146041Y1740239D02*
X2147300D01*
X2145987Y1739879D02*
X2147300D01*
X2145923Y1739519D02*
X2147300D01*
X2145852Y1739159D02*
X2147300D01*
X2145772Y1738799D02*
X2147300D01*
X2145683Y1738439D02*
X2147300D01*
X2145585Y1738079D02*
X2147300D01*
X2145478Y1737719D02*
X2147300D01*
X2145363Y1737359D02*
X2147300D01*
X2145237Y1736999D02*
X2147300D01*
X2145103Y1736639D02*
X2147300D01*
X2144958Y1736279D02*
X2147300D01*
X2144803Y1735919D02*
X2147300D01*
X2144638Y1735559D02*
X2147300D01*
X2144461Y1735199D02*
X2147300D01*
X2144274Y1734839D02*
X2147300D01*
X2144075Y1734479D02*
X2147300D01*
X2143863Y1734119D02*
X2147300D01*
X2143639Y1733759D02*
X2147300D01*
X2143402Y1733399D02*
X2147300D01*
X2143150Y1733039D02*
X2147300D01*
X2142883Y1732679D02*
X2147300D01*
X2142601Y1732319D02*
X2147300D01*
X2142301Y1731959D02*
X2147300D01*
X2141983Y1731599D02*
X2147300D01*
X2141646Y1731239D02*
X2147300D01*
X2141287Y1730879D02*
X2147300D01*
X2140904Y1730519D02*
X2147300D01*
X2140494Y1730159D02*
X2147300D01*
X2140056Y1729799D02*
X2147300D01*
X2139583Y1729439D02*
X2147300D01*
X2139072Y1729079D02*
X2147300D01*
X2138516Y1728719D02*
X2147300D01*
X2137903Y1728359D02*
X2147300D01*
X2137222Y1727999D02*
X2147300D01*
X2136448Y1727639D02*
X2147300D01*
X2135545Y1727279D02*
X2147300D01*
X2134434Y1726919D02*
X2147300D01*
X2132884Y1726559D02*
X2147300D01*
X2064706Y1726199D02*
X2147300D01*
X2065066Y1725839D02*
X2147300D01*
X2065426Y1725479D02*
X2147300D01*
X2065786Y1725119D02*
X2147300D01*
X2066146Y1724759D02*
X2147300D01*
X2076611Y1724399D02*
X2147300D01*
X2077072Y1724039D02*
X2147300D01*
X2077358Y1723679D02*
X2147300D01*
X2077542Y1723319D02*
X2147300D01*
X2077652Y1722959D02*
X2147300D01*
X2077806Y1722599D02*
X2147300D01*
X2078166Y1722239D02*
X2147300D01*
X2078526Y1721879D02*
X2147300D01*
X2097875Y1721519D02*
X2147300D01*
X2131373Y1721159D02*
X2147300D01*
X2132097Y1720799D02*
X2147300D01*
X2132466Y1720439D02*
X2147300D01*
X2132826Y1720079D02*
X2147300D01*
X2133186Y1719719D02*
X2147300D01*
X2133546Y1719359D02*
X2147300D01*
X2133906Y1718999D02*
X2147300D01*
X2134266Y1718639D02*
X2147300D01*
X2134626Y1718279D02*
X2147300D01*
X2134986Y1717919D02*
X2147300D01*
X2135346Y1717559D02*
X2147300D01*
X2135706Y1717199D02*
X2147300D01*
X2136066Y1716839D02*
X2147300D01*
X2136426Y1716479D02*
X2147300D01*
X2136786Y1716119D02*
X2147300D01*
X2137146Y1715759D02*
X2147300D01*
X2137506Y1715399D02*
X2147300D01*
X2137866Y1715039D02*
X2147300D01*
X2138226Y1714679D02*
X2147300D01*
X2138586Y1714319D02*
X2147300D01*
X2138946Y1713959D02*
X2147300D01*
X2139306Y1713599D02*
X2147300D01*
X2139666Y1713239D02*
X2147300D01*
X2140026Y1712879D02*
X2147300D01*
X2140386Y1712519D02*
X2147300D01*
X2140746Y1712159D02*
X2147300D01*
X2141106Y1711799D02*
X2147300D01*
X2141466Y1711439D02*
X2147300D01*
X2141826Y1711079D02*
X2147300D01*
X2142186Y1710719D02*
X2147300D01*
X2142546Y1710359D02*
X2147300D01*
X2142906Y1709999D02*
X2147300D01*
X2143266Y1709639D02*
X2147300D01*
X2143626Y1709279D02*
X2147300D01*
X2143986Y1708919D02*
X2147300D01*
X2144346Y1708559D02*
X2147300D01*
X2144706Y1708199D02*
X2147300D01*
X2145066Y1707839D02*
X2147300D01*
X2145426Y1707479D02*
X2147300D01*
X2145786Y1707119D02*
X2147300D01*
X2146146Y1706759D02*
X2147300D01*
X2146506Y1706399D02*
X2147300D01*
X2146844Y1706039D02*
X2147300D01*
X2146623Y1593719D02*
X2147300D01*
X2146263Y1593359D02*
X2147300D01*
X2145903Y1592999D02*
X2147300D01*
X2145543Y1592639D02*
X2147300D01*
X2145183Y1592279D02*
X2147300D01*
X2144823Y1591919D02*
X2147300D01*
X2144463Y1591559D02*
X2147300D01*
X2144103Y1591199D02*
X2147300D01*
X2143743Y1590839D02*
X2147300D01*
X2143383Y1590479D02*
X2147300D01*
X2143023Y1590119D02*
X2147300D01*
X2142663Y1589759D02*
X2147300D01*
X2142303Y1589399D02*
X2147300D01*
X2141943Y1589039D02*
X2147300D01*
X2141583Y1588679D02*
X2147300D01*
X2141223Y1588319D02*
X2147300D01*
X2140863Y1587959D02*
X2147300D01*
X2140503Y1587599D02*
X2147300D01*
X2140143Y1587239D02*
X2147300D01*
X2139783Y1586879D02*
X2147300D01*
X2139423Y1586519D02*
X2147300D01*
X2139063Y1586159D02*
X2147300D01*
X2138703Y1585799D02*
X2147300D01*
X2138343Y1585439D02*
X2147300D01*
X2137983Y1585079D02*
X2147300D01*
X2137623Y1584719D02*
X2147300D01*
X2137263Y1584359D02*
X2147300D01*
X2136903Y1583999D02*
X2147300D01*
X2136543Y1583639D02*
X2147300D01*
X2136183Y1583279D02*
X2147300D01*
X2135823Y1582919D02*
X2147300D01*
X2135463Y1582559D02*
X2147300D01*
X2135103Y1582199D02*
X2147300D01*
X2134743Y1581839D02*
X2147300D01*
X2134383Y1581479D02*
X2147300D01*
X2134023Y1581119D02*
X2147300D01*
X2133663Y1580759D02*
X2147300D01*
X2133303Y1580399D02*
X2147300D01*
X2132943Y1580039D02*
X2147300D01*
X2132583Y1579679D02*
X2147300D01*
X2132223Y1579319D02*
X2147300D01*
X2131863Y1578959D02*
X2147300D01*
X2131503Y1578599D02*
X2147300D01*
X2131143Y1578239D02*
X2147300D01*
X2130783Y1577879D02*
X2147300D01*
X2130423Y1577519D02*
X2147300D01*
X2130063Y1577159D02*
X2147300D01*
X2129703Y1576799D02*
X2147300D01*
X2129343Y1576439D02*
X2147300D01*
X2128983Y1576079D02*
X2147300D01*
X2128623Y1575719D02*
X2147300D01*
X2128263Y1575359D02*
X2147300D01*
X2127903Y1574999D02*
X2147300D01*
X2127543Y1574639D02*
X2147300D01*
X2127183Y1574279D02*
X2147300D01*
X2126823Y1573919D02*
X2147300D01*
X2126504Y1573559D02*
X2147300D01*
X2126195Y1573199D02*
X2147300D01*
X2125887Y1572839D02*
X2147300D01*
X2125578Y1572479D02*
X2147300D01*
X2125269Y1572119D02*
X2147300D01*
X2124961Y1571759D02*
X2147300D01*
X2124698Y1571399D02*
X2147300D01*
X2124651Y1571039D02*
X2147300D01*
X2124541Y1570679D02*
X2147300D01*
X2124356Y1570319D02*
X2147300D01*
X2124070Y1569959D02*
X2147300D01*
X2123607Y1569599D02*
X2147300D01*
X2094666Y1569239D02*
X2147300D01*
X2095026Y1568879D02*
X2147300D01*
X2095386Y1568519D02*
X2147300D01*
X2095746Y1568159D02*
X2147300D01*
X2096106Y1567799D02*
X2147300D01*
X2096466Y1567439D02*
X2147300D01*
X2096826Y1567079D02*
X2147300D01*
X2097186Y1566719D02*
X2147300D01*
X2097546Y1566359D02*
X2147300D01*
X2097906Y1565999D02*
X2147300D01*
X2098266Y1565639D02*
X2147300D01*
X2098626Y1565279D02*
X2147300D01*
X2098986Y1564919D02*
X2147300D01*
X2099346Y1564559D02*
X2147300D01*
X2099706Y1564199D02*
X2147300D01*
X2100066Y1563839D02*
X2147300D01*
X2100426Y1563479D02*
X2147300D01*
X2100786Y1563119D02*
X2147300D01*
X2101146Y1562759D02*
X2147300D01*
X2101506Y1562399D02*
X2147300D01*
X2101866Y1562039D02*
X2147300D01*
X2102226Y1561679D02*
X2147300D01*
X2102586Y1561319D02*
X2147300D01*
X2102946Y1560959D02*
X2147300D01*
X2103660Y1560599D02*
X2147300D01*
X2104348Y1560239D02*
X2147300D01*
X2104714Y1559879D02*
X2147300D01*
X2104950Y1559519D02*
X2147300D01*
X2105099Y1559159D02*
X2147300D01*
X2105180Y1558799D02*
X2147300D01*
X2105199Y1558439D02*
X2147300D01*
X2105159Y1558079D02*
X2147300D01*
X2105057Y1557719D02*
X2147300D01*
X2104881Y1557359D02*
X2147300D01*
X2104608Y1556999D02*
X2147300D01*
X2104173Y1556639D02*
X2147300D01*
X1852700Y1556279D02*
X2147300D01*
X1852700Y1555919D02*
X2147300D01*
X1852700Y1555559D02*
X2147300D01*
X1852700Y1555199D02*
X2147300D01*
X1852700Y1554839D02*
X2147300D01*
X1852700Y1554479D02*
X2147300D01*
X1852700Y1554119D02*
X2147300D01*
X1852700Y1553759D02*
X2147300D01*
X2123611Y1553399D02*
X2147300D01*
X2124072Y1553039D02*
X2147300D01*
X2124358Y1552679D02*
X2147300D01*
X2124542Y1552319D02*
X2147300D01*
X2124652Y1551959D02*
X2147300D01*
X2124698Y1551599D02*
X2147300D01*
X2124684Y1551239D02*
X2147300D01*
X2124610Y1550879D02*
X2147300D01*
X2124469Y1550519D02*
X2147300D01*
X2124244Y1550159D02*
X2147300D01*
X2123895Y1549799D02*
X2147300D01*
X2123269Y1549439D02*
X2147300D01*
X1852700Y1549079D02*
X2147300D01*
X1852700Y1548719D02*
X2147300D01*
X1852700Y1548359D02*
X2147300D01*
X1852700Y1547999D02*
X2147300D01*
X1852700Y1547639D02*
X2147300D01*
X1852700Y1547279D02*
X2147300D01*
X1852700Y1546919D02*
X2147300D01*
X1852700Y1546559D02*
X2147300D01*
X1852700Y1546199D02*
X2147300D01*
X1852700Y1545839D02*
X2147300D01*
X1852700Y1545479D02*
X2147300D01*
X1852700Y1545119D02*
X2147300D01*
X1852700Y1544759D02*
X2147300D01*
X1852700Y1544399D02*
X2147300D01*
X1852700Y1544039D02*
X2147300D01*
X1852700Y1543679D02*
X2147300D01*
X1852700Y1543319D02*
X2147300D01*
X1852700Y1542959D02*
X2147300D01*
X1852700Y1542599D02*
X2147300D01*
X1852700Y1542239D02*
X2147300D01*
X1852700Y1541879D02*
X2147300D01*
X1852700Y1541519D02*
X2147300D01*
X1852700Y1541159D02*
X2147300D01*
X1852700Y1540799D02*
X2147300D01*
X1852700Y1540439D02*
X2147300D01*
X1852700Y1540079D02*
X2147300D01*
X1852700Y1539719D02*
X2147300D01*
X1852700Y1539359D02*
X2147300D01*
X1852700Y1538999D02*
X2147300D01*
X1852700Y1538639D02*
X2147300D01*
X1852700Y1538279D02*
X2147300D01*
X1852700Y1537919D02*
X2147300D01*
X1852700Y1537559D02*
X2147300D01*
X1852700Y1537199D02*
X2147300D01*
X1852700Y1536839D02*
X2147300D01*
X1852700Y1536479D02*
X2147300D01*
X1852700Y1536119D02*
X2147300D01*
X1852700Y1535759D02*
X2147300D01*
X1852700Y1535399D02*
X2147300D01*
X1852700Y1535039D02*
X2147300D01*
X1852700Y1534679D02*
X2147300D01*
X1852700Y1534319D02*
X2147300D01*
X1852700Y1533959D02*
X2147300D01*
X1852700Y1533599D02*
X2147300D01*
X1852700Y1533239D02*
X2147300D01*
X1852700Y1532879D02*
X2147300D01*
X1852700Y1532519D02*
X2147300D01*
X1852700Y1532159D02*
X2147300D01*
X1852700Y1531799D02*
X2147300D01*
X1852700Y1531439D02*
X2147300D01*
X1852700Y1531079D02*
X2147300D01*
X1852700Y1530719D02*
X2147300D01*
X1852700Y1530359D02*
X2147300D01*
X1852700Y1529999D02*
X2147300D01*
X1852700Y1529639D02*
X2147300D01*
X1852700Y1529279D02*
X2147300D01*
X1852700Y1528919D02*
X2147300D01*
X1852700Y1528559D02*
X2147300D01*
X1852700Y1528199D02*
X2147300D01*
X1852700Y1527839D02*
X2147300D01*
X1852700Y1527479D02*
X2147300D01*
X1852700Y1527119D02*
X2147300D01*
X1852700Y1526759D02*
X2147300D01*
X1852700Y1526399D02*
X2147300D01*
X1852700Y1526039D02*
X2147300D01*
X1852700Y1525679D02*
X2147300D01*
X1852700Y1525319D02*
X2147300D01*
X1852700Y1524959D02*
X2147300D01*
X1852700Y1524599D02*
X2147300D01*
X1852700Y1524239D02*
X2147300D01*
X1852700Y1523879D02*
X2147300D01*
X1852700Y1523519D02*
X2147300D01*
X1852700Y1523159D02*
X2147300D01*
X1852700Y1522799D02*
X2147300D01*
X1852700Y1522439D02*
X2147300D01*
X1852700Y1522079D02*
X2147300D01*
X1852700Y1521719D02*
X2147300D01*
X1852700Y1521359D02*
X2147300D01*
X1852700Y1520999D02*
X2147300D01*
X1852700Y1520639D02*
X2147300D01*
X1852700Y1520279D02*
X2147300D01*
X1852700Y1519919D02*
X2147300D01*
X1852700Y1519559D02*
X2147300D01*
X1852700Y1519199D02*
X2147300D01*
X1852700Y1518839D02*
X2147300D01*
X1852700Y1518479D02*
X2147300D01*
X1852700Y1518119D02*
X2147300D01*
X1852700Y1517759D02*
X2147300D01*
X1852700Y1517399D02*
X2147300D01*
X1852700Y1517039D02*
X2147300D01*
X1852700Y1516679D02*
X2147300D01*
X1852700Y1516319D02*
X2147300D01*
X1852700Y1515959D02*
X2147300D01*
X1852700Y1515599D02*
X2147300D01*
X1852700Y1515239D02*
X2147300D01*
X1852700Y1514879D02*
X2147300D01*
X1852700Y1514519D02*
X2147300D01*
X1852700Y1514159D02*
X2147300D01*
X1852700Y1513799D02*
X2147300D01*
X1852700Y1513439D02*
X2147300D01*
X1852700Y1513079D02*
X2147300D01*
X1852700Y1512719D02*
X2147300D01*
X1852700Y1512359D02*
X2147300D01*
X1852700Y1511999D02*
X2147300D01*
X2130796Y1511639D02*
X2147300D01*
X2132050Y1511279D02*
X2147300D01*
X2132741Y1510919D02*
X2147300D01*
X2133251Y1510559D02*
X2147300D01*
X2133655Y1510199D02*
X2147300D01*
X2133987Y1509839D02*
X2147300D01*
X2134262Y1509479D02*
X2147300D01*
X2134493Y1509119D02*
X2147300D01*
X2134684Y1508759D02*
X2147300D01*
X2134841Y1508399D02*
X2147300D01*
X2134967Y1508039D02*
X2147300D01*
X2135065Y1507679D02*
X2147300D01*
X2135135Y1507319D02*
X2147300D01*
X2135180Y1506959D02*
X2147300D01*
X2135199Y1506599D02*
X2147300D01*
X2135193Y1506239D02*
X2147300D01*
X2135163Y1505879D02*
X2147300D01*
X2135107Y1505519D02*
X2147300D01*
X2135024Y1505159D02*
X2147300D01*
X2134914Y1504799D02*
X2147300D01*
X2134774Y1504439D02*
X2147300D01*
X2134602Y1504079D02*
X2147300D01*
X2134394Y1503719D02*
X2147300D01*
X2134144Y1503359D02*
X2147300D01*
X2133845Y1502999D02*
X2147300D01*
X2133483Y1502639D02*
X2147300D01*
X2133037Y1502279D02*
X2147300D01*
X2132460Y1501919D02*
X2147300D01*
X2131620Y1501559D02*
X2147300D01*
X2037803Y1501199D02*
X2147300D01*
X2038298Y1500839D02*
X2147300D01*
X2038761Y1500479D02*
X2147300D01*
X2039193Y1500119D02*
X2147300D01*
X2039600Y1499759D02*
X2147300D01*
X2039983Y1499399D02*
X2147300D01*
X2040345Y1499039D02*
X2147300D01*
X2130831Y1498679D02*
X2147300D01*
X2133494Y1498319D02*
X2147300D01*
X2134845Y1497959D02*
X2147300D01*
X2135871Y1497599D02*
X2147300D01*
X2136724Y1497239D02*
X2147300D01*
X2137463Y1496879D02*
X2147300D01*
X2138119Y1496519D02*
X2147300D01*
X2138711Y1496159D02*
X2147300D01*
X2139251Y1495799D02*
X2147300D01*
X2139748Y1495439D02*
X2147300D01*
X2140209Y1495079D02*
X2147300D01*
X2140637Y1494719D02*
X2147300D01*
X2141037Y1494359D02*
X2147300D01*
X2141411Y1493999D02*
X2147300D01*
X2141763Y1493639D02*
X2147300D01*
X2142094Y1493279D02*
X2147300D01*
X2142405Y1492919D02*
X2147300D01*
X2142699Y1492559D02*
X2147300D01*
X2142976Y1492199D02*
X2147300D01*
X2143237Y1491839D02*
X2147300D01*
X2143484Y1491479D02*
X2147300D01*
X2143717Y1491119D02*
X2147300D01*
X2143937Y1490759D02*
X2147300D01*
X2144144Y1490399D02*
X2147300D01*
X2144339Y1490039D02*
X2147300D01*
X2144523Y1489679D02*
X2147300D01*
X2144695Y1489319D02*
X2147300D01*
X2144857Y1488959D02*
X2147300D01*
X2145008Y1488599D02*
X2147300D01*
X2145150Y1488239D02*
X2147300D01*
X2145281Y1487879D02*
X2147300D01*
X2145403Y1487519D02*
X2147300D01*
X2145516Y1487159D02*
X2147300D01*
X2145619Y1486799D02*
X2147300D01*
X2145714Y1486439D02*
X2147300D01*
X2145800Y1486079D02*
X2147300D01*
X2145877Y1485719D02*
X2147300D01*
X2145946Y1485359D02*
X2147300D01*
X2146006Y1484999D02*
X2147300D01*
X2146058Y1484639D02*
X2147300D01*
X2146102Y1484279D02*
X2147300D01*
X2146138Y1483919D02*
X2147300D01*
X2146165Y1483559D02*
X2147300D01*
X2146185Y1483199D02*
X2147300D01*
X2146196Y1482839D02*
X2147300D01*
X2146200Y1482479D02*
X2147300D01*
X2146196Y1482119D02*
X2147300D01*
X2146183Y1481759D02*
X2147300D01*
X2146163Y1481399D02*
X2147300D01*
X2146134Y1481039D02*
X2147300D01*
X2146097Y1480679D02*
X2147300D01*
X2146052Y1480319D02*
X2147300D01*
X2145999Y1479959D02*
X2147300D01*
X2145938Y1479599D02*
X2147300D01*
X2145868Y1479239D02*
X2147300D01*
X2145790Y1478879D02*
X2147300D01*
X2145703Y1478519D02*
X2147300D01*
X2145607Y1478159D02*
X2147300D01*
X2145503Y1477799D02*
X2147300D01*
X2145389Y1477439D02*
X2147300D01*
X2145266Y1477079D02*
X2147300D01*
X2145133Y1476719D02*
X2147300D01*
X2144991Y1476359D02*
X2147300D01*
X2144838Y1475999D02*
X2147300D01*
X2144675Y1475639D02*
X2147300D01*
X2144501Y1475279D02*
X2147300D01*
X2144317Y1474919D02*
X2147300D01*
X2144120Y1474559D02*
X2147300D01*
X2143911Y1474199D02*
X2147300D01*
X2143690Y1473839D02*
X2147300D01*
X2143456Y1473479D02*
X2147300D01*
X2143207Y1473119D02*
X2147300D01*
X2142944Y1472759D02*
X2147300D01*
X2142665Y1472399D02*
X2147300D01*
X2142369Y1472039D02*
X2147300D01*
X2142056Y1471679D02*
X2147300D01*
X2141723Y1471319D02*
X2147300D01*
X2141368Y1470959D02*
X2147300D01*
X2140991Y1470599D02*
X2147300D01*
X2140588Y1470239D02*
X2147300D01*
X2140156Y1469879D02*
X2147300D01*
X2139692Y1469519D02*
X2147300D01*
X2139190Y1469159D02*
X2147300D01*
X2138644Y1468799D02*
X2147300D01*
X2138045Y1468439D02*
X2147300D01*
X2137380Y1468079D02*
X2147300D01*
X2136630Y1467719D02*
X2147300D01*
X2135760Y1467359D02*
X2147300D01*
X2134706Y1466999D02*
X2147300D01*
X2133295Y1466639D02*
X2147300D01*
X1852700Y1466279D02*
X2147300D01*
X1852700Y1465919D02*
X2147300D01*
X1852700Y1465559D02*
X2147300D01*
X2069777Y1759679D02*
X2147284D01*
X2146929Y1594079D02*
X2147271D01*
X2015783Y1595879D02*
X2143801D01*
X2016143Y1596239D02*
X2143801D01*
X2016503Y1596599D02*
X2143801D01*
X2016863Y1596959D02*
X2143801D01*
X2017223Y1597319D02*
X2143801D01*
X2017583Y1597679D02*
X2143801D01*
X2017943Y1598039D02*
X2143801D01*
X2018303Y1598399D02*
X2143801D01*
X2018663Y1598759D02*
X2143801D01*
X2019023Y1599119D02*
X2143800D01*
X2019383Y1599479D02*
X2143800D01*
X2019743Y1599839D02*
X2143800D01*
X2020103Y1600199D02*
X2143800D01*
X2020463Y1600559D02*
X2143800D01*
X2020823Y1600919D02*
X2143800D01*
X2021183Y1601279D02*
X2143800D01*
X2021543Y1601639D02*
X2143800D01*
X2021903Y1601999D02*
X2143800D01*
X2022263Y1602359D02*
X2143800D01*
X2022623Y1602719D02*
X2143800D01*
X2022983Y1603079D02*
X2143800D01*
X2023343Y1603439D02*
X2143800D01*
X2023703Y1603799D02*
X2143800D01*
X2024063Y1604159D02*
X2143800D01*
X2024423Y1604519D02*
X2143800D01*
X2024783Y1604879D02*
X2143800D01*
X2025143Y1605239D02*
X2143800D01*
X2025503Y1605599D02*
X2143800D01*
X2025863Y1605959D02*
X2143800D01*
X2026223Y1606319D02*
X2143800D01*
X2026583Y1606679D02*
X2143800D01*
X2026943Y1607039D02*
X2143800D01*
X2027303Y1607399D02*
X2143800D01*
X2027663Y1607759D02*
X2143800D01*
X2028023Y1608119D02*
X2143800D01*
X2028383Y1608479D02*
X2143800D01*
X2028743Y1608839D02*
X2143800D01*
X2029103Y1609199D02*
X2143800D01*
X2123535Y1609559D02*
X2143800D01*
X2124030Y1609919D02*
X2143800D01*
X2124330Y1610279D02*
X2143800D01*
X2124524Y1610639D02*
X2143800D01*
X2124642Y1610999D02*
X2143800D01*
X2124763Y1611359D02*
X2143800D01*
X2125123Y1611719D02*
X2143800D01*
X2125483Y1612079D02*
X2143800D01*
X2125843Y1612439D02*
X2143800D01*
X2126203Y1612799D02*
X2143800D01*
X2126563Y1613159D02*
X2143800D01*
X2126923Y1613519D02*
X2143800D01*
X2127283Y1613879D02*
X2143800D01*
X2127643Y1614239D02*
X2143800D01*
X2128003Y1614599D02*
X2143800D01*
X2128363Y1614959D02*
X2143800D01*
X2128723Y1615319D02*
X2143800D01*
X2129083Y1615679D02*
X2143800D01*
X2129443Y1616039D02*
X2143800D01*
X2129803Y1616399D02*
X2143799D01*
X2130163Y1616759D02*
X2143799D01*
X2130523Y1617119D02*
X2143799D01*
X2130883Y1617479D02*
X2143799D01*
X2131243Y1617839D02*
X2143799D01*
X2131603Y1618199D02*
X2143799D01*
X2131963Y1618559D02*
X2143799D01*
X2132323Y1618919D02*
X2143799D01*
X2132683Y1619279D02*
X2143799D01*
X2133043Y1619639D02*
X2143799D01*
X2133403Y1619999D02*
X2143799D01*
X2133763Y1620359D02*
X2143799D01*
X2134123Y1620719D02*
X2143799D01*
X2134483Y1621079D02*
X2143799D01*
X2134843Y1621439D02*
X2143799D01*
X2135203Y1621799D02*
X2143799D01*
X2135563Y1622159D02*
X2143799D01*
X2135923Y1622519D02*
X2143799D01*
X2136283Y1622879D02*
X2143799D01*
X2136643Y1623239D02*
X2143799D01*
X2137003Y1623599D02*
X2143799D01*
X2137363Y1623959D02*
X2143799D01*
X2137723Y1624319D02*
X2143799D01*
X2138083Y1624679D02*
X2143799D01*
X2138443Y1625039D02*
X2143799D01*
X2138803Y1625399D02*
X2143799D01*
X2139163Y1625759D02*
X2143799D01*
X2139523Y1626119D02*
X2143799D01*
X2139883Y1626479D02*
X2143799D01*
X2140243Y1626839D02*
X2143799D01*
X2140603Y1627199D02*
X2143799D01*
X2140963Y1627559D02*
X2143799D01*
X2141323Y1627919D02*
X2143799D01*
X2141683Y1628279D02*
X2143799D01*
X2141966Y1628639D02*
X2143799D01*
X2142124Y1628999D02*
X2143799D01*
X2142194Y1629359D02*
X2143799D01*
X2142200Y1629719D02*
X2143799D01*
X2142200Y1630079D02*
X2143799D01*
X2142200Y1630439D02*
X2143799D01*
X2142200Y1630799D02*
X2143799D01*
X2142200Y1631159D02*
X2143799D01*
X2142200Y1631519D02*
X2143799D01*
X2142200Y1631879D02*
X2143799D01*
X2142200Y1632239D02*
X2143799D01*
X2142200Y1632599D02*
X2143799D01*
X2142200Y1632959D02*
X2143799D01*
X2142200Y1633319D02*
X2143798D01*
X2142200Y1633679D02*
X2143798D01*
X2142200Y1634039D02*
X2143798D01*
X2142200Y1634399D02*
X2143798D01*
X2142200Y1634759D02*
X2143798D01*
X2142200Y1635119D02*
X2143798D01*
X2142200Y1635479D02*
X2143798D01*
X2142200Y1635839D02*
X2143798D01*
X2142200Y1636199D02*
X2143798D01*
X2142200Y1636559D02*
X2143798D01*
X2142200Y1636919D02*
X2143798D01*
X2142200Y1637279D02*
X2143798D01*
X2142200Y1637639D02*
X2143798D01*
X2142200Y1637999D02*
X2143798D01*
X2142200Y1638359D02*
X2143798D01*
X2142200Y1638719D02*
X2143798D01*
X2142200Y1639079D02*
X2143798D01*
X2142200Y1639439D02*
X2143798D01*
X2142200Y1639799D02*
X2143798D01*
X2142200Y1640159D02*
X2143798D01*
X2142200Y1640519D02*
X2143798D01*
X2142200Y1640879D02*
X2143798D01*
X2142200Y1641239D02*
X2143798D01*
X2142200Y1641599D02*
X2143798D01*
X2142200Y1641959D02*
X2143798D01*
X2142200Y1642319D02*
X2143798D01*
X2142200Y1642679D02*
X2143798D01*
X2142200Y1643039D02*
X2143798D01*
X2142200Y1643399D02*
X2143798D01*
X2142200Y1643759D02*
X2143798D01*
X2142200Y1644119D02*
X2143798D01*
X2142200Y1644479D02*
X2143798D01*
X2142200Y1644839D02*
X2143798D01*
X2142200Y1645199D02*
X2143798D01*
X2142200Y1645559D02*
X2143798D01*
X2142200Y1645919D02*
X2143798D01*
X2142200Y1646279D02*
X2143798D01*
X2142200Y1646639D02*
X2143798D01*
X2142200Y1646999D02*
X2143798D01*
X2142200Y1647359D02*
X2143798D01*
X2142200Y1647719D02*
X2143798D01*
X2142200Y1648079D02*
X2143798D01*
X2142200Y1648439D02*
X2143798D01*
X2142200Y1648799D02*
X2143798D01*
X2142200Y1649159D02*
X2143798D01*
X2142200Y1649519D02*
X2143798D01*
X2142200Y1649879D02*
X2143798D01*
X2142200Y1650239D02*
X2143798D01*
X2142200Y1650599D02*
X2143797D01*
X2142200Y1650959D02*
X2143797D01*
X2142200Y1651319D02*
X2143797D01*
X2142200Y1651679D02*
X2143797D01*
X2142200Y1652039D02*
X2143797D01*
X2142200Y1652399D02*
X2143797D01*
X2142200Y1652759D02*
X2143797D01*
X2142200Y1653119D02*
X2143797D01*
X2142200Y1653479D02*
X2143797D01*
X2142200Y1653839D02*
X2143797D01*
X2142200Y1654199D02*
X2143797D01*
X2142200Y1654559D02*
X2143797D01*
X2142200Y1654919D02*
X2143797D01*
X2142200Y1655279D02*
X2143797D01*
X2142200Y1655639D02*
X2143797D01*
X2142200Y1655999D02*
X2143797D01*
X2142200Y1656359D02*
X2143797D01*
X2142200Y1656719D02*
X2143797D01*
X2142200Y1657079D02*
X2143797D01*
X2142200Y1657439D02*
X2143797D01*
X2142200Y1657799D02*
X2143797D01*
X2142200Y1658159D02*
X2143797D01*
X2142200Y1658519D02*
X2143797D01*
X2142200Y1658879D02*
X2143797D01*
X2142200Y1659239D02*
X2143797D01*
X2142200Y1659599D02*
X2143797D01*
X2142200Y1659959D02*
X2143797D01*
X2142200Y1660319D02*
X2143797D01*
X2142200Y1660679D02*
X2143797D01*
X2142200Y1661039D02*
X2143797D01*
X2142200Y1661399D02*
X2143797D01*
X2142200Y1661759D02*
X2143797D01*
X2142200Y1662119D02*
X2143797D01*
X2142200Y1662479D02*
X2143797D01*
X2142200Y1662839D02*
X2143797D01*
X2142200Y1663199D02*
X2143797D01*
X2142200Y1663559D02*
X2143797D01*
X2142200Y1663919D02*
X2143797D01*
X2142200Y1664279D02*
X2143797D01*
X2142200Y1664639D02*
X2143797D01*
X2142200Y1664999D02*
X2143797D01*
X2142200Y1665359D02*
X2143797D01*
X2142200Y1665719D02*
X2143797D01*
X2142200Y1666079D02*
X2143797D01*
X2142200Y1666439D02*
X2143797D01*
X2142200Y1666799D02*
X2143797D01*
X2142200Y1667159D02*
X2143797D01*
X2142200Y1667519D02*
X2143796D01*
X2142200Y1667879D02*
X2143796D01*
X2142200Y1668239D02*
X2143796D01*
X2142200Y1668599D02*
X2143796D01*
X2142200Y1668959D02*
X2143796D01*
X2142200Y1669319D02*
X2143796D01*
X2142200Y1669679D02*
X2143796D01*
X2142200Y1670039D02*
X2143796D01*
X2142200Y1670399D02*
X2143796D01*
X2142200Y1670759D02*
X2143796D01*
X2142200Y1671119D02*
X2143796D01*
X2142200Y1671479D02*
X2143796D01*
X2142200Y1671839D02*
X2143796D01*
X2142200Y1672199D02*
X2143796D01*
X2142200Y1672559D02*
X2143796D01*
X2142200Y1672919D02*
X2143796D01*
X2142200Y1673279D02*
X2143796D01*
X2142200Y1673639D02*
X2143796D01*
X2142200Y1673999D02*
X2143796D01*
X2142200Y1674359D02*
X2143796D01*
X2142200Y1674719D02*
X2143796D01*
X2142200Y1675079D02*
X2143796D01*
X2142200Y1675439D02*
X2143796D01*
X2142200Y1675799D02*
X2143796D01*
X2142200Y1676159D02*
X2143796D01*
X2142200Y1676519D02*
X2143796D01*
X2142200Y1676879D02*
X2143796D01*
X2142200Y1677239D02*
X2143796D01*
X2142200Y1677599D02*
X2143796D01*
X2142200Y1677959D02*
X2143796D01*
X2142200Y1678319D02*
X2143796D01*
X2142200Y1678679D02*
X2143796D01*
X2142200Y1679039D02*
X2143796D01*
X2142200Y1679399D02*
X2143796D01*
X2142200Y1679759D02*
X2143796D01*
X2142200Y1680119D02*
X2143796D01*
X2142200Y1680479D02*
X2143796D01*
X2142200Y1680839D02*
X2143796D01*
X2142200Y1681199D02*
X2143796D01*
X2142200Y1681559D02*
X2143796D01*
X2142200Y1681919D02*
X2143796D01*
X2142200Y1682279D02*
X2143796D01*
X2142200Y1682639D02*
X2143796D01*
X2142200Y1682999D02*
X2143796D01*
X2142200Y1683359D02*
X2143796D01*
X2142200Y1683719D02*
X2143796D01*
X2142200Y1684079D02*
X2143796D01*
X2142200Y1684439D02*
X2143796D01*
X2142200Y1684799D02*
X2143795D01*
X2142200Y1685159D02*
X2143795D01*
X2142200Y1685519D02*
X2143795D01*
X2142200Y1685879D02*
X2143795D01*
X2142200Y1686239D02*
X2143795D01*
X2142200Y1686599D02*
X2143795D01*
X2142200Y1686959D02*
X2143795D01*
X2142200Y1687319D02*
X2143795D01*
X2142200Y1687679D02*
X2143795D01*
X2142200Y1688039D02*
X2143795D01*
X2142200Y1688399D02*
X2143795D01*
X2142200Y1688759D02*
X2143795D01*
X2142200Y1689119D02*
X2143795D01*
X2142200Y1689479D02*
X2143795D01*
X2142200Y1689839D02*
X2143795D01*
X2142200Y1690199D02*
X2143795D01*
X2142200Y1690559D02*
X2143795D01*
X2142200Y1690919D02*
X2143795D01*
X2142200Y1691279D02*
X2143795D01*
X2142200Y1691639D02*
X2143795D01*
X2142200Y1691999D02*
X2143795D01*
X2142200Y1692359D02*
X2143795D01*
X2142200Y1692719D02*
X2143795D01*
X2142200Y1693079D02*
X2143795D01*
X2142200Y1693439D02*
X2143795D01*
X2142200Y1693799D02*
X2143795D01*
X2142200Y1694159D02*
X2143795D01*
X2142200Y1694519D02*
X2143795D01*
X2142200Y1694879D02*
X2143795D01*
X2142200Y1695239D02*
X2143795D01*
X2142200Y1695599D02*
X2143795D01*
X2142200Y1695959D02*
X2143795D01*
X2142200Y1696319D02*
X2143795D01*
X2142200Y1696679D02*
X2143795D01*
X2142200Y1697039D02*
X2143795D01*
X2142200Y1697399D02*
X2143795D01*
X2142200Y1697759D02*
X2143795D01*
X2142200Y1698119D02*
X2143795D01*
X2142200Y1698479D02*
X2143795D01*
X2142200Y1698839D02*
X2143795D01*
X2142200Y1699199D02*
X2143795D01*
X2142200Y1699559D02*
X2143795D01*
X2142200Y1699919D02*
X2143795D01*
X2142200Y1700279D02*
X2143795D01*
X2142200Y1700639D02*
X2143795D01*
X2142200Y1700999D02*
X2143795D01*
X2142200Y1701359D02*
X2143795D01*
X2142200Y1701719D02*
X2143794D01*
X2142198Y1702079D02*
X2143794D01*
X2142142Y1702439D02*
X2143794D01*
X2142001Y1702799D02*
X2143794D01*
X2141744Y1703159D02*
X2143794D01*
X2141386Y1703519D02*
X2143794D01*
X2141026Y1703879D02*
X2143794D01*
X2140666Y1704239D02*
X2143793D01*
X2015423Y1595519D02*
X2143614D01*
X2140306Y1704599D02*
X2143497D01*
X2015063Y1595159D02*
X2143254D01*
X2139946Y1704959D02*
X2143137D01*
X2014703Y1594799D02*
X2142894D01*
X2139586Y1705319D02*
X2142777D01*
X2014343Y1594439D02*
X2142534D01*
X2139226Y1705679D02*
X2142417D01*
X2013983Y1594079D02*
X2142174D01*
X2138866Y1706039D02*
X2142057D01*
X2013623Y1593719D02*
X2141814D01*
X2138506Y1706399D02*
X2141697D01*
X2123677Y1593359D02*
X2141454D01*
X2138146Y1706759D02*
X2141337D01*
X2124111Y1592999D02*
X2141094D01*
X2137786Y1707119D02*
X2140977D01*
X2124382Y1592639D02*
X2140734D01*
X2137426Y1707479D02*
X2140617D01*
X2124558Y1592279D02*
X2140374D01*
X2137066Y1707839D02*
X2140257D01*
X2124660Y1591919D02*
X2140014D01*
X2136706Y1708199D02*
X2139897D01*
X2124699Y1591559D02*
X2139654D01*
X2136346Y1708559D02*
X2139537D01*
X2124679Y1591199D02*
X2139294D01*
X2135986Y1708919D02*
X2139177D01*
X2124598Y1590839D02*
X2138934D01*
X2135626Y1709279D02*
X2138817D01*
X2124449Y1590479D02*
X2138574D01*
X2135266Y1709639D02*
X2138457D01*
X2124212Y1590119D02*
X2138214D01*
X2134906Y1709999D02*
X2138097D01*
X2123845Y1589759D02*
X2137854D01*
X2134546Y1710359D02*
X2137737D01*
X2123152Y1589399D02*
X2137494D01*
X2134186Y1710719D02*
X2137377D01*
X2122443Y1589039D02*
X2137134D01*
X2133826Y1711079D02*
X2137017D01*
X2122083Y1588679D02*
X2136774D01*
X2133466Y1711439D02*
X2136657D01*
X2121723Y1588319D02*
X2136414D01*
X2133106Y1711799D02*
X2136297D01*
X2121363Y1587959D02*
X2136054D01*
X2132746Y1712159D02*
X2135937D01*
X2121003Y1587599D02*
X2135694D01*
X2132386Y1712519D02*
X2135577D01*
X2120640Y1587239D02*
X2135334D01*
X2132026Y1712879D02*
X2135217D01*
X2120011Y1586879D02*
X2134974D01*
X2131666Y1713239D02*
X2134857D01*
X2077386Y1586519D02*
X2134614D01*
X2131306Y1713599D02*
X2134497D01*
X2077746Y1586159D02*
X2134254D01*
X2130946Y1713959D02*
X2134137D01*
X2078106Y1585799D02*
X2133894D01*
X2130573Y1714319D02*
X2133777D01*
X2078466Y1585439D02*
X2133534D01*
X2129768Y1714679D02*
X2133417D01*
X2078826Y1585079D02*
X2133174D01*
X2085366Y1715039D02*
X2133057D01*
X2079186Y1584719D02*
X2132814D01*
X2085006Y1715399D02*
X2132697D01*
X2079546Y1584359D02*
X2132454D01*
X2084646Y1715759D02*
X2132337D01*
X2079906Y1583999D02*
X2132094D01*
X2084286Y1716119D02*
X2131977D01*
X2080266Y1583639D02*
X2131734D01*
X2083926Y1716479D02*
X2131617D01*
X2080626Y1583279D02*
X2131374D01*
X2083566Y1716839D02*
X2131257D01*
X2080986Y1582919D02*
X2131014D01*
X2083206Y1717199D02*
X2130897D01*
X2081346Y1582559D02*
X2130654D01*
X2098035Y1717559D02*
X2130537D01*
X2081706Y1582199D02*
X2130294D01*
X2082066Y1581839D02*
X2129934D01*
X2082426Y1581479D02*
X2129574D01*
X2082786Y1581119D02*
X2129214D01*
X1852700Y1511639D02*
X2129204D01*
X2040686Y1498679D02*
X2129169D01*
X2083146Y1580759D02*
X2128854D01*
X2083506Y1580399D02*
X2128494D01*
X2037269Y1501559D02*
X2128380D01*
X2071159Y1758599D02*
X2128191D01*
X2083866Y1580039D02*
X2128134D01*
X1852700Y1511279D02*
X2127950D01*
X2084226Y1579679D02*
X2127774D01*
X2036691Y1501919D02*
X2127540D01*
X2084586Y1579319D02*
X2127414D01*
X1852700Y1510919D02*
X2127259D01*
X2064346Y1726559D02*
X2127116D01*
X2084946Y1578959D02*
X2127054D01*
X2036058Y1502279D02*
X2126963D01*
X1852700Y1510559D02*
X2126749D01*
X1873295Y1466639D02*
X2126705D01*
X2085306Y1578599D02*
X2126694D01*
X2035358Y1502639D02*
X2126517D01*
X2041010Y1498319D02*
X2126506D01*
X1852700Y1510199D02*
X2126345D01*
X2085666Y1578239D02*
X2126334D01*
X2071519Y1758239D02*
X2126161D01*
X2034571Y1502999D02*
X2126155D01*
X1852700Y1509839D02*
X2126013D01*
X2086026Y1577879D02*
X2125974D01*
X2033663Y1503359D02*
X2125856D01*
X1852700Y1509479D02*
X2125738D01*
X2086386Y1577519D02*
X2125614D01*
X2032571Y1503719D02*
X2125606D01*
X2063986Y1726919D02*
X2125566D01*
X1852700Y1509119D02*
X2125507D01*
X2031132Y1504079D02*
X2125398D01*
X1852700Y1508759D02*
X2125316D01*
X1874706Y1466999D02*
X2125294D01*
X2086746Y1577159D02*
X2125254D01*
X2028138Y1504439D02*
X2125226D01*
X1852700Y1508399D02*
X2125159D01*
X2041317Y1497959D02*
X2125155D01*
X1852700Y1504799D02*
X2125086D01*
X1852700Y1508039D02*
X2125033D01*
X1852700Y1505159D02*
X2124976D01*
X1852700Y1507679D02*
X2124935D01*
X2071879Y1757879D02*
X2124907D01*
X2087106Y1576799D02*
X2124894D01*
X1852700Y1505519D02*
X2124893D01*
X1852700Y1507319D02*
X2124865D01*
X1852700Y1505879D02*
X2124837D01*
X1852700Y1506959D02*
X2124820D01*
X1852700Y1506239D02*
X2124807D01*
X1852700Y1506599D02*
X2124801D01*
X2087466Y1576439D02*
X2124534D01*
X2063626Y1727279D02*
X2124455D01*
X1875760Y1467359D02*
X2124240D01*
X2087826Y1576079D02*
X2124186D01*
X2041608Y1497599D02*
X2124129D01*
X2072239Y1757519D02*
X2123927D01*
X2088186Y1575719D02*
X2123877D01*
X2088546Y1575359D02*
X2123568D01*
X2063266Y1727639D02*
X2123552D01*
X1876630Y1467719D02*
X2123370D01*
X2041883Y1497239D02*
X2123276D01*
X2088906Y1574999D02*
X2123260D01*
X2072599Y1757159D02*
X2123103D01*
X2089266Y1574639D02*
X2122951D01*
X2062906Y1727999D02*
X2122778D01*
X2089626Y1574279D02*
X2122643D01*
X1877380Y1468079D02*
X2122620D01*
X2063719Y1496879D02*
X2122537D01*
X2072959Y1756799D02*
X2122385D01*
X2089986Y1573919D02*
X2122334D01*
X2062546Y1728359D02*
X2122097D01*
X1878045Y1468439D02*
X2121955D01*
X2065471Y1496519D02*
X2121881D01*
X2073319Y1756439D02*
X2121744D01*
X1852700Y1549439D02*
X2121731D01*
X2090346Y1573559D02*
X2121724D01*
X2062186Y1728719D02*
X2121484D01*
X2029463Y1609559D02*
X2121465D01*
X2094306Y1569599D02*
X2121393D01*
X1852700Y1553399D02*
X2121389D01*
X2030478Y1468799D02*
X2121356D01*
X2013263Y1593359D02*
X2121323D01*
X2066489Y1496159D02*
X2121289D01*
X2073679Y1756079D02*
X2121165D01*
X1852700Y1549799D02*
X2121105D01*
X2090706Y1573199D02*
X2121102D01*
X2093946Y1569959D02*
X2120930D01*
X1852700Y1553039D02*
X2120928D01*
X2061826Y1729079D02*
X2120928D01*
X2012903Y1592999D02*
X2120889D01*
X2032135Y1469159D02*
X2120810D01*
X1852700Y1550159D02*
X2120756D01*
X2091066Y1572839D02*
X2120754D01*
X2067268Y1495799D02*
X2120749D01*
X2093586Y1570319D02*
X2120644D01*
X1852700Y1552679D02*
X2120642D01*
X2074039Y1755719D02*
X2120635D01*
X2012543Y1592639D02*
X2120618D01*
X1852700Y1550519D02*
X2120531D01*
X2091426Y1572479D02*
X2120530D01*
X2093226Y1570679D02*
X2120459D01*
X1852700Y1552319D02*
X2120458D01*
X2012183Y1592279D02*
X2120442D01*
X2061700Y1729439D02*
X2120417D01*
X1852700Y1550879D02*
X2120390D01*
X2091786Y1572119D02*
X2120389D01*
X2092866Y1571039D02*
X2120349D01*
X1852700Y1551959D02*
X2120348D01*
X2015076Y1591919D02*
X2120340D01*
X1852700Y1551239D02*
X2120316D01*
X2092146Y1571759D02*
X2120315D01*
X2033317Y1469519D02*
X2120308D01*
X2092506Y1571399D02*
X2120302D01*
X1852700Y1551599D02*
X2120302D01*
X2067913Y1495439D02*
X2120252D01*
X2080679Y1591559D02*
X2120154D01*
X2074399Y1755359D02*
X2120146D01*
X2061700Y1729799D02*
X2119944D01*
X2034278Y1469879D02*
X2119844D01*
X2081206Y1591199D02*
X2119794D01*
X2068467Y1495079D02*
X2119791D01*
X2074759Y1754999D02*
X2119694D01*
X2061700Y1730159D02*
X2119506D01*
X2081566Y1590839D02*
X2119434D01*
X2035101Y1470239D02*
X2119412D01*
X2068954Y1494719D02*
X2119363D01*
X2075119Y1754639D02*
X2119272D01*
X2061700Y1730519D02*
X2119096D01*
X2081926Y1590479D02*
X2119074D01*
X2035828Y1470599D02*
X2119009D01*
X2069388Y1494359D02*
X2118963D01*
X2075479Y1754279D02*
X2118878D01*
X2061700Y1730879D02*
X2118713D01*
X2036482Y1470959D02*
X2118632D01*
X2069778Y1493999D02*
X2118589D01*
X2075839Y1753919D02*
X2118509D01*
X2061700Y1731239D02*
X2118354D01*
X2037078Y1471319D02*
X2118277D01*
X2070132Y1493639D02*
X2118237D01*
X2076199Y1753559D02*
X2118162D01*
X2061700Y1731599D02*
X2118017D01*
X2037626Y1471679D02*
X2117944D01*
X2070453Y1493279D02*
X2117906D01*
X2076538Y1753199D02*
X2117835D01*
X2086211Y1731959D02*
X2117699D01*
X2038134Y1472039D02*
X2117631D01*
X2070746Y1492919D02*
X2117595D01*
X2076760Y1752839D02*
X2117528D01*
X2087146Y1732319D02*
X2117399D01*
X2038607Y1472399D02*
X2117335D01*
X2071014Y1492559D02*
X2117301D01*
X2076890Y1752479D02*
X2117238D01*
X2087736Y1732679D02*
X2117117D01*
X2039049Y1472759D02*
X2117056D01*
X2071259Y1492199D02*
X2117024D01*
X2076946Y1752119D02*
X2116965D01*
X2088180Y1733039D02*
X2116850D01*
X2039464Y1473119D02*
X2116793D01*
X2071483Y1491839D02*
X2116763D01*
X2076950Y1751759D02*
X2116706D01*
X2088532Y1733399D02*
X2116598D01*
X2039855Y1473479D02*
X2116544D01*
X2071688Y1491479D02*
X2116516D01*
X2076950Y1751399D02*
X2116463D01*
X2088818Y1733759D02*
X2116361D01*
X2040224Y1473839D02*
X2116310D01*
X2071874Y1491119D02*
X2116283D01*
X2086221Y1751039D02*
X2116233D01*
X2089052Y1734119D02*
X2116137D01*
X2040572Y1474199D02*
X2116089D01*
X2072043Y1490759D02*
X2116063D01*
X2087151Y1750679D02*
X2116016D01*
X2089243Y1734479D02*
X2115925D01*
X2040902Y1474559D02*
X2115880D01*
X2072196Y1490399D02*
X2115856D01*
X2087740Y1750319D02*
X2115812D01*
X2089397Y1734839D02*
X2115726D01*
X2041214Y1474919D02*
X2115683D01*
X2072333Y1490039D02*
X2115661D01*
X2088182Y1749959D02*
X2115619D01*
X2089516Y1735199D02*
X2115539D01*
X2041510Y1475279D02*
X2115499D01*
X2072455Y1489679D02*
X2115477D01*
X2088534Y1749599D02*
X2115438D01*
X2089605Y1735559D02*
X2115362D01*
X2041791Y1475639D02*
X2115325D01*
X2072563Y1489319D02*
X2115305D01*
X2088820Y1749239D02*
X2115268D01*
X2089664Y1735919D02*
X2115197D01*
X2042058Y1475999D02*
X2115162D01*
X2072657Y1488959D02*
X2115143D01*
X2089054Y1748879D02*
X2115109D01*
X2089695Y1736279D02*
X2115042D01*
X2065021Y1476359D02*
X2115009D01*
X2072737Y1488599D02*
X2114992D01*
X2089244Y1748519D02*
X2114960D01*
X2089698Y1736639D02*
X2114897D01*
X2066178Y1476719D02*
X2114867D01*
X2072804Y1488239D02*
X2114850D01*
X2089398Y1748159D02*
X2114820D01*
X2089673Y1736999D02*
X2114763D01*
X2067021Y1477079D02*
X2114734D01*
X2072859Y1487879D02*
X2114719D01*
X2089517Y1747799D02*
X2114691D01*
X2089621Y1737359D02*
X2114637D01*
X2067705Y1477439D02*
X2114611D01*
X2072900Y1487519D02*
X2114597D01*
X2089605Y1747439D02*
X2114571D01*
X2089539Y1737719D02*
X2114522D01*
X2068287Y1477799D02*
X2114497D01*
X2072929Y1487159D02*
X2114484D01*
X2089664Y1747079D02*
X2114460D01*
X2089427Y1738079D02*
X2114415D01*
X2068795Y1478159D02*
X2114393D01*
X2072946Y1486799D02*
X2114381D01*
X2089695Y1746719D02*
X2114359D01*
X2089282Y1738439D02*
X2114317D01*
X2069245Y1478519D02*
X2114297D01*
X2072950Y1486439D02*
X2114286D01*
X2089698Y1746359D02*
X2114266D01*
X2089100Y1738799D02*
X2114228D01*
X2069650Y1478879D02*
X2114210D01*
X2072942Y1486079D02*
X2114200D01*
X2089673Y1745999D02*
X2114182D01*
X2088876Y1739159D02*
X2114148D01*
X2070015Y1479239D02*
X2114132D01*
X2072921Y1485719D02*
X2114123D01*
X2089620Y1745639D02*
X2114107D01*
X2088602Y1739519D02*
X2114077D01*
X2070347Y1479599D02*
X2114062D01*
X2072888Y1485359D02*
X2114054D01*
X2089539Y1745279D02*
X2114040D01*
X2088267Y1739879D02*
X2114013D01*
X2070649Y1479959D02*
X2114001D01*
X2072842Y1484999D02*
X2113994D01*
X2089426Y1744919D02*
X2113982D01*
X2087848Y1740239D02*
X2113959D01*
X2070926Y1480319D02*
X2113948D01*
X2072783Y1484639D02*
X2113942D01*
X2089280Y1744559D02*
X2113931D01*
X2087300Y1740599D02*
X2113912D01*
X2071178Y1480679D02*
X2113903D01*
X2072711Y1484279D02*
X2113898D01*
X2089098Y1744199D02*
X2113889D01*
X2086487Y1740959D02*
X2113873D01*
X2071409Y1481039D02*
X2113866D01*
X2072626Y1483919D02*
X2113862D01*
X2088874Y1743839D02*
X2113855D01*
X2081723Y1741319D02*
X2113843D01*
X2071620Y1481399D02*
X2113837D01*
X2072528Y1483559D02*
X2113835D01*
X2088600Y1743479D02*
X2113830D01*
X2082083Y1741679D02*
X2113821D01*
X2071813Y1481759D02*
X2113817D01*
X2072415Y1483199D02*
X2113815D01*
X2088264Y1743119D02*
X2113812D01*
X2086479Y1742039D02*
X2113807D01*
X2071987Y1482119D02*
X2113804D01*
X2072288Y1482839D02*
X2113804D01*
X2087845Y1742759D02*
X2113802D01*
X2087296Y1742399D02*
X2113800D01*
X2072145Y1482479D02*
X2113800D01*
X1852700Y1556639D02*
X2101827D01*
X1852700Y1556999D02*
X2101392D01*
X1852700Y1557359D02*
X2101119D01*
X1852700Y1557719D02*
X2100943D01*
X1852700Y1558079D02*
X2100841D01*
X1852700Y1558439D02*
X2100657D01*
X1852700Y1558799D02*
X2100297D01*
X1852700Y1559159D02*
X2099937D01*
X1852700Y1559519D02*
X2099577D01*
X1852700Y1559879D02*
X2099217D01*
X1852700Y1560239D02*
X2098857D01*
X1852700Y1560599D02*
X2098497D01*
X1852700Y1560959D02*
X2098137D01*
X2016566Y1561319D02*
X2097777D01*
X2017438Y1561679D02*
X2097417D01*
X2017804Y1562039D02*
X2097057D01*
X2018023Y1562399D02*
X2096697D01*
X2018148Y1562759D02*
X2096337D01*
X2078886Y1721519D02*
X2096125D01*
X2018198Y1563119D02*
X2095977D01*
X2082846Y1717559D02*
X2095965D01*
X2018200Y1563479D02*
X2095617D01*
X2079246Y1721159D02*
X2095555D01*
X2082486Y1717919D02*
X2095470D01*
X2018200Y1563839D02*
X2095257D01*
X2079606Y1720799D02*
X2095224D01*
X2082126Y1718279D02*
X2095170D01*
X2079966Y1720439D02*
X2095010D01*
X2081766Y1718639D02*
X2094976D01*
X2018200Y1564199D02*
X2094897D01*
X2080326Y1720079D02*
X2094877D01*
X2081406Y1718999D02*
X2094858D01*
X2080686Y1719719D02*
X2094811D01*
X2081046Y1719359D02*
X2094805D01*
X2018200Y1564559D02*
X2094537D01*
X2018200Y1564919D02*
X2094177D01*
X2018200Y1565279D02*
X2093817D01*
X2018200Y1565639D02*
X2093457D01*
X2018200Y1565999D02*
X2093097D01*
X2018200Y1566359D02*
X2092737D01*
X2018200Y1566719D02*
X2092377D01*
X2018200Y1567079D02*
X2092017D01*
X2018200Y1567439D02*
X2091657D01*
X2018200Y1567799D02*
X2091297D01*
X2018200Y1568159D02*
X2090937D01*
X2018200Y1568519D02*
X2090577D01*
X2018200Y1568879D02*
X2090217D01*
X2018200Y1569239D02*
X2089857D01*
X2018200Y1569599D02*
X2089497D01*
X2018200Y1569959D02*
X2089137D01*
X2018200Y1570319D02*
X2088777D01*
X2018200Y1570679D02*
X2088417D01*
X2018200Y1571039D02*
X2088057D01*
X2018200Y1571399D02*
X2087697D01*
X2018200Y1571759D02*
X2087337D01*
X2018200Y1572119D02*
X2086977D01*
X2018200Y1572479D02*
X2086617D01*
X2018200Y1572839D02*
X2086257D01*
X2018200Y1573199D02*
X2085897D01*
X2018200Y1573559D02*
X2085537D01*
X2018200Y1573919D02*
X2085177D01*
X2018200Y1574279D02*
X2084817D01*
X2018200Y1574639D02*
X2084457D01*
X2018200Y1574999D02*
X2084097D01*
X2076211Y1731959D02*
X2083789D01*
X2076950Y1751039D02*
X2083779D01*
X2018200Y1575359D02*
X2083737D01*
X2082443Y1742039D02*
X2083521D01*
X2081363Y1740959D02*
X2083513D01*
X2018200Y1575719D02*
X2083377D01*
X2018200Y1576079D02*
X2083017D01*
X2077146Y1732319D02*
X2082854D01*
X2077151Y1750679D02*
X2082849D01*
X2081003Y1740599D02*
X2082700D01*
X2018200Y1576439D02*
X2082657D01*
X2078026Y1712879D02*
X2082612D01*
X2077666Y1713239D02*
X2082357D01*
X2018200Y1576799D02*
X2082297D01*
X2077736Y1732679D02*
X2082264D01*
X2077740Y1750319D02*
X2082260D01*
X2080640Y1740239D02*
X2082152D01*
X2077306Y1713599D02*
X2081997D01*
X2018200Y1577159D02*
X2081937D01*
X2078180Y1733039D02*
X2081820D01*
X2078182Y1749959D02*
X2081818D01*
X2080011Y1739879D02*
X2081733D01*
X2076946Y1713959D02*
X2081637D01*
X2018200Y1577519D02*
X2081577D01*
X2078532Y1733399D02*
X2081468D01*
X2078534Y1749599D02*
X2081466D01*
X2078612Y1739519D02*
X2081398D01*
X2076586Y1714319D02*
X2081277D01*
X2018200Y1577879D02*
X2081217D01*
X2078818Y1733759D02*
X2081182D01*
X2078820Y1749239D02*
X2081180D01*
X2078876Y1739159D02*
X2081124D01*
X2077026Y1586879D02*
X2080989D01*
X2079052Y1734119D02*
X2080948D01*
X2079054Y1748879D02*
X2080946D01*
X2076226Y1714679D02*
X2080917D01*
X2079100Y1738799D02*
X2080900D01*
X2018200Y1578239D02*
X2080857D01*
X2079243Y1734479D02*
X2080757D01*
X2079244Y1748519D02*
X2080756D01*
X2079282Y1738439D02*
X2080718D01*
X2079397Y1734839D02*
X2080603D01*
X2079398Y1748159D02*
X2080602D01*
X2079427Y1738079D02*
X2080573D01*
X2075866Y1715039D02*
X2080557D01*
X2079426Y1744919D02*
X2080504D01*
X2018200Y1578599D02*
X2080497D01*
X2079516Y1735199D02*
X2080484D01*
X2079517Y1747799D02*
X2080483D01*
X2079539Y1745279D02*
X2080461D01*
X2079539Y1737719D02*
X2080461D01*
X2079605Y1735559D02*
X2080395D01*
X2079605Y1747439D02*
X2080395D01*
X2079620Y1745639D02*
X2080380D01*
X2079621Y1737359D02*
X2080379D01*
X2076666Y1587239D02*
X2080360D01*
X2079664Y1735919D02*
X2080336D01*
X2079664Y1747079D02*
X2080336D01*
X2079673Y1745999D02*
X2080327D01*
X2079673Y1736999D02*
X2080327D01*
X2079695Y1736279D02*
X2080305D01*
X2079695Y1746719D02*
X2080305D01*
X2079698Y1746359D02*
X2080302D01*
X2079698Y1736639D02*
X2080302D01*
X2075506Y1715399D02*
X2080197D01*
X2079280Y1744559D02*
X2080154D01*
X2018200Y1578959D02*
X2080137D01*
X2076306Y1587599D02*
X2079997D01*
X2075146Y1715759D02*
X2079837D01*
X2079098Y1744199D02*
X2079794D01*
X2018200Y1579319D02*
X2079777D01*
X2075946Y1587959D02*
X2079637D01*
X2074786Y1716119D02*
X2079477D01*
X2078874Y1743839D02*
X2079434D01*
X2018200Y1579679D02*
X2079417D01*
X2074426Y1716479D02*
X2079117D01*
X2018200Y1580039D02*
X2079057D01*
X2074066Y1716839D02*
X2078757D01*
X2018200Y1580399D02*
X2078697D01*
X2073706Y1717199D02*
X2078397D01*
X2018200Y1580759D02*
X2078337D01*
X2073346Y1717559D02*
X2078037D01*
X2018200Y1581119D02*
X2077977D01*
X2072986Y1717919D02*
X2077677D01*
X2018200Y1581479D02*
X2077617D01*
X2072626Y1718279D02*
X2077317D01*
X2018200Y1581839D02*
X2077257D01*
X2072266Y1718639D02*
X2076957D01*
X2018200Y1582199D02*
X2076897D01*
X2071906Y1718999D02*
X2076597D01*
X2018200Y1582559D02*
X2076537D01*
X2071546Y1719359D02*
X2076237D01*
X2018200Y1582919D02*
X2076177D01*
X2071186Y1719719D02*
X2075877D01*
X2018200Y1583279D02*
X2075817D01*
X2070826Y1720079D02*
X2075517D01*
X2018200Y1583639D02*
X2075457D01*
X2018200Y1583999D02*
X2075097D01*
X2018200Y1584359D02*
X2074737D01*
X2070466Y1720439D02*
X2074731D01*
X2066506Y1724399D02*
X2074389D01*
X2018200Y1584719D02*
X2074377D01*
X2070106Y1720799D02*
X2074105D01*
X2018179Y1585079D02*
X2074017D01*
X2066866Y1724039D02*
X2073928D01*
X2066211Y1731959D02*
X2073789D01*
X2069746Y1721159D02*
X2073756D01*
X2018089Y1585439D02*
X2073657D01*
X2067226Y1723679D02*
X2073642D01*
X2069386Y1721519D02*
X2073531D01*
X2067586Y1723319D02*
X2073458D01*
X2069026Y1721879D02*
X2073390D01*
X2067946Y1722959D02*
X2073348D01*
X2068666Y1722239D02*
X2073316D01*
X2068306Y1722599D02*
X2073302D01*
X2018219Y1585799D02*
X2073236D01*
X2067146Y1732319D02*
X2072854D01*
X2067736Y1732679D02*
X2072264D01*
X2068180Y1733039D02*
X2071820D01*
X2068532Y1733399D02*
X2071468D01*
X2068818Y1733759D02*
X2071182D01*
X2069052Y1734119D02*
X2070948D01*
X2069243Y1734479D02*
X2070757D01*
X2069397Y1734839D02*
X2070603D01*
X2069516Y1735199D02*
X2070484D01*
X2069605Y1735559D02*
X2070395D01*
X2069664Y1735919D02*
X2070336D01*
X2069673Y1736999D02*
X2070327D01*
X2069695Y1736279D02*
X2070305D01*
X2069698Y1736639D02*
X2070302D01*
X2069621Y1737359D02*
X2070237D01*
X2069767Y1737719D02*
X2069818D01*
X2061700Y1731959D02*
X2063789D01*
X2061700Y1732319D02*
X2062854D01*
X2061700Y1732679D02*
X2062264D01*
X2042145Y1496879D02*
X2061281D01*
X2042311Y1476359D02*
X2059979D01*
X2042394Y1496519D02*
X2059529D01*
X2042551Y1476719D02*
X2058822D01*
X2042630Y1496159D02*
X2058511D01*
X2042779Y1477079D02*
X2057979D01*
X2042854Y1495799D02*
X2057732D01*
X2042995Y1477439D02*
X2057295D01*
X2043066Y1495439D02*
X2057087D01*
X2043200Y1477799D02*
X2056713D01*
X2043267Y1495079D02*
X2056533D01*
X2043394Y1478159D02*
X2056205D01*
X2043458Y1494719D02*
X2056046D01*
X2043578Y1478519D02*
X2055755D01*
X2043638Y1494359D02*
X2055612D01*
X2043752Y1478879D02*
X2055350D01*
X2043809Y1493999D02*
X2055222D01*
X2043916Y1479239D02*
X2054985D01*
X2043969Y1493639D02*
X2054868D01*
X2044070Y1479599D02*
X2054653D01*
X2044121Y1493279D02*
X2054547D01*
X2044216Y1479959D02*
X2054351D01*
X2044263Y1492919D02*
X2054254D01*
X2044352Y1480319D02*
X2054074D01*
X2044397Y1492559D02*
X2053986D01*
X2044480Y1480679D02*
X2053822D01*
X2044521Y1492199D02*
X2053741D01*
X2044599Y1481039D02*
X2053591D01*
X2044638Y1491839D02*
X2053517D01*
X2044710Y1481399D02*
X2053380D01*
X2044746Y1491479D02*
X2053312D01*
X2044813Y1481759D02*
X2053187D01*
X2044846Y1491119D02*
X2053126D01*
X2044907Y1482119D02*
X2053013D01*
X2044938Y1490759D02*
X2052957D01*
X2044994Y1482479D02*
X2052855D01*
X2045022Y1490399D02*
X2052804D01*
X2045073Y1482839D02*
X2052712D01*
X2045098Y1490039D02*
X2052667D01*
X2045144Y1483199D02*
X2052585D01*
X2045166Y1489679D02*
X2052545D01*
X2045207Y1483559D02*
X2052472D01*
X2045227Y1489319D02*
X2052437D01*
X2045263Y1483919D02*
X2052374D01*
X2045281Y1488959D02*
X2052343D01*
X2045312Y1484279D02*
X2052289D01*
X2045327Y1488599D02*
X2052263D01*
X2045353Y1484639D02*
X2052217D01*
X2045366Y1488239D02*
X2052196D01*
X2045387Y1484999D02*
X2052158D01*
X2045397Y1487879D02*
X2052141D01*
X2045414Y1485359D02*
X2052112D01*
X2045421Y1487519D02*
X2052100D01*
X2045433Y1485719D02*
X2052079D01*
X2045438Y1487159D02*
X2052071D01*
X2045445Y1486079D02*
X2052058D01*
X2045448Y1486799D02*
X2052054D01*
X2045450Y1486439D02*
X2052050D01*
X1963138Y1504439D02*
X2026862D01*
X1965478Y1468799D02*
X2024522D01*
X1966132Y1504079D02*
X2023868D01*
X1967135Y1469159D02*
X2022865D01*
X1967571Y1503719D02*
X2022429D01*
X1968317Y1469519D02*
X2021683D01*
X1968663Y1503359D02*
X2021337D01*
X1969278Y1469879D02*
X2020722D01*
X1969571Y1502999D02*
X2020429D01*
X1970101Y1470239D02*
X2019899D01*
X1970358Y1502639D02*
X2019642D01*
X1970828Y1470599D02*
X2019172D01*
X1971058Y1502279D02*
X2018942D01*
X1971482Y1470959D02*
X2018518D01*
X1971691Y1501919D02*
X2018309D01*
X1972078Y1471319D02*
X2017922D01*
X1972269Y1501559D02*
X2017731D01*
X1972626Y1471679D02*
X2017374D01*
X1972803Y1501199D02*
X2017197D01*
X1973134Y1472039D02*
X2016866D01*
X1973298Y1500839D02*
X2016702D01*
X1973607Y1472399D02*
X2016393D01*
X1973761Y1500479D02*
X2016239D01*
X1974049Y1472759D02*
X2015951D01*
X1974193Y1500119D02*
X2015807D01*
X1974464Y1473119D02*
X2015536D01*
X1974600Y1499759D02*
X2015400D01*
X1974855Y1473479D02*
X2015145D01*
X1974983Y1499399D02*
X2015017D01*
X1975224Y1473839D02*
X2014776D01*
X1975345Y1499039D02*
X2014655D01*
X1975572Y1474199D02*
X2014428D01*
X1975686Y1498679D02*
X2014314D01*
X1975902Y1474559D02*
X2014098D01*
X1976010Y1498319D02*
X2013990D01*
X1976214Y1474919D02*
X2013786D01*
X1976317Y1497959D02*
X2013683D01*
X1976510Y1475279D02*
X2013490D01*
X1976608Y1497599D02*
X2013392D01*
X1976791Y1475639D02*
X2013209D01*
X1976883Y1497239D02*
X2013117D01*
X1977058Y1475999D02*
X2012942D01*
X2011888Y1591919D02*
X2012924D01*
X1977145Y1496879D02*
X2012855D01*
X1977311Y1476359D02*
X2012689D01*
X1977394Y1496519D02*
X2012606D01*
X1977551Y1476719D02*
X2012449D01*
X1977630Y1496159D02*
X2012370D01*
X1977779Y1477079D02*
X2012221D01*
X1977854Y1495799D02*
X2012146D01*
X1977995Y1477439D02*
X2012005D01*
X1978066Y1495439D02*
X2011934D01*
X1978200Y1477799D02*
X2011800D01*
X1978267Y1495079D02*
X2011733D01*
X1978394Y1478159D02*
X2011606D01*
X1978458Y1494719D02*
X2011542D01*
X1978578Y1478519D02*
X2011422D01*
X2003677Y1494359D02*
X2011362D01*
X1978752Y1478879D02*
X2011248D01*
X2004111Y1493999D02*
X2011191D01*
X1978916Y1479239D02*
X2011084D01*
X2004382Y1493639D02*
X2011031D01*
X1979070Y1479599D02*
X2010930D01*
X2004558Y1493279D02*
X2010879D01*
X1979216Y1479959D02*
X2010784D01*
X2004660Y1492919D02*
X2010737D01*
X1979352Y1480319D02*
X2010648D01*
X2004699Y1492559D02*
X2010603D01*
X1979480Y1480679D02*
X2010520D01*
X2004679Y1492199D02*
X2010479D01*
X1993497Y1481039D02*
X2010401D01*
X2004598Y1491839D02*
X2010362D01*
X1994009Y1481399D02*
X2010290D01*
X2004483Y1491479D02*
X2010254D01*
X1994316Y1481759D02*
X2010187D01*
X2004611Y1491119D02*
X2010154D01*
X1994516Y1482119D02*
X2010093D01*
X2004685Y1490759D02*
X2010062D01*
X1994637Y1482479D02*
X2010006D01*
X2004698Y1490399D02*
X2009978D01*
X1994694Y1482839D02*
X2009927D01*
X2004651Y1490039D02*
X2009902D01*
X1994691Y1483199D02*
X2009856D01*
X2004541Y1489679D02*
X2009834D01*
X1994628Y1483559D02*
X2009793D01*
X2004356Y1489319D02*
X2009773D01*
X1994499Y1483919D02*
X2009737D01*
X2004070Y1488959D02*
X2009719D01*
X1994290Y1484279D02*
X2009688D01*
X2003653Y1488599D02*
X2009673D01*
X2003673Y1484639D02*
X2009647D01*
X2003848Y1488239D02*
X2009634D01*
X2004108Y1484999D02*
X2009613D01*
X2004214Y1487879D02*
X2009603D01*
X2004381Y1485359D02*
X2009586D01*
X2004450Y1487519D02*
X2009579D01*
X2004557Y1485719D02*
X2009567D01*
X2004599Y1487159D02*
X2009562D01*
X2004659Y1486079D02*
X2009555D01*
X2004680Y1486799D02*
X2009552D01*
X2004699Y1486439D02*
X2009550D01*
X1930700Y1695239D02*
X2005668D01*
X1930700Y1694879D02*
X2005668D01*
X1930700Y1694519D02*
X2005668D01*
X1930700Y1694159D02*
X2005668D01*
X1930700Y1693799D02*
X2005668D01*
X1930700Y1693439D02*
X2005668D01*
X1930700Y1693079D02*
X2005668D01*
X1930700Y1692719D02*
X2005668D01*
X1930700Y1692359D02*
X2005668D01*
X1930906Y1691999D02*
X2005668D01*
X1931266Y1691639D02*
X2005668D01*
X1931626Y1691279D02*
X2005668D01*
X1931986Y1690919D02*
X2005668D01*
X1932346Y1690559D02*
X2005668D01*
X1932706Y1690199D02*
X2005668D01*
X1933066Y1689839D02*
X2005668D01*
X1933426Y1689479D02*
X2005668D01*
X1933786Y1689119D02*
X2005668D01*
X1934146Y1688759D02*
X2005668D01*
X1934506Y1688399D02*
X2005668D01*
X1934866Y1688039D02*
X2005668D01*
X1935226Y1687679D02*
X2005668D01*
X1935586Y1687319D02*
X2005668D01*
X1935946Y1686959D02*
X2005668D01*
X1936306Y1686599D02*
X2005668D01*
X1936666Y1686239D02*
X2005668D01*
X1937026Y1685879D02*
X2005668D01*
X1937386Y1685519D02*
X2005668D01*
X1937746Y1685159D02*
X2005668D01*
X1938106Y1684799D02*
X2005668D01*
X1938466Y1684439D02*
X2005668D01*
X1938814Y1684079D02*
X2005668D01*
X1939041Y1683719D02*
X2005668D01*
X1939162Y1683359D02*
X2005668D01*
X1939200Y1682999D02*
X2005668D01*
X1939200Y1682639D02*
X2005668D01*
X1939200Y1682279D02*
X2005668D01*
X1939200Y1681919D02*
X2005668D01*
X1939200Y1681559D02*
X2005668D01*
X1939200Y1681199D02*
X2005668D01*
X1939200Y1680839D02*
X2005668D01*
X1939200Y1680479D02*
X2005668D01*
X1939200Y1680119D02*
X2005668D01*
X1939200Y1679759D02*
X2005668D01*
X1939200Y1679399D02*
X2005668D01*
X1939200Y1679039D02*
X2005668D01*
X1939200Y1678679D02*
X2005668D01*
X1939200Y1678319D02*
X2005668D01*
X1939200Y1677959D02*
X2005668D01*
X1939200Y1677599D02*
X2005668D01*
X1939200Y1677239D02*
X2005668D01*
X1939200Y1676879D02*
X2005668D01*
X1939200Y1676519D02*
X2005668D01*
X1939200Y1676159D02*
X2005668D01*
X1939200Y1675799D02*
X2005668D01*
X1939200Y1675439D02*
X2005668D01*
X1939200Y1675079D02*
X2005668D01*
X1939200Y1674719D02*
X2005668D01*
X1939200Y1674359D02*
X2005668D01*
X1939200Y1673999D02*
X2005668D01*
X1985516Y1673639D02*
X2005668D01*
X1986295Y1673279D02*
X2005668D01*
X1986681Y1672919D02*
X2005668D01*
X1930700Y1695599D02*
X2005637D01*
X1986929Y1672559D02*
X2005571D01*
X1987086Y1672199D02*
X2005414D01*
X1987174Y1671839D02*
X2005326D01*
X1930700Y1695959D02*
X2005284D01*
X1987335Y1671479D02*
X2005056D01*
X1930700Y1696319D02*
X2004924D01*
X1987695Y1671119D02*
X2004696D01*
X1930700Y1696679D02*
X2004564D01*
X1988055Y1670759D02*
X2004336D01*
X1930700Y1697039D02*
X2004204D01*
X1988415Y1670399D02*
X2003976D01*
X1930700Y1697399D02*
X2003844D01*
X1988775Y1670039D02*
X2003616D01*
X1930700Y1697759D02*
X2003484D01*
X1989135Y1669679D02*
X2003256D01*
X1930700Y1698119D02*
X2003124D01*
X1989495Y1669319D02*
X2002896D01*
X1930700Y1698479D02*
X2002764D01*
X1989855Y1668959D02*
X2002536D01*
X1930700Y1698839D02*
X2002404D01*
X1990215Y1668599D02*
X2002176D01*
X1930700Y1699199D02*
X2002044D01*
X1990575Y1668239D02*
X2001818D01*
X1930700Y1699559D02*
X2001684D01*
X1990935Y1667879D02*
X2001555D01*
X1991295Y1667519D02*
X2001396D01*
X1991653Y1488599D02*
X2001347D01*
X1993968Y1484639D02*
X2001327D01*
X1930700Y1699919D02*
X2001324D01*
X1991677Y1494359D02*
X2001323D01*
X1991655Y1667159D02*
X2001315D01*
X1992015Y1666799D02*
X2001300D01*
X1992375Y1666439D02*
X2001300D01*
X1992735Y1666079D02*
X2001300D01*
X1993095Y1665719D02*
X2001300D01*
X1993455Y1665359D02*
X2001300D01*
X1993815Y1664999D02*
X2001300D01*
X1994175Y1664639D02*
X2001300D01*
X1994535Y1664279D02*
X2001300D01*
X1994895Y1663919D02*
X2001300D01*
X1995255Y1663559D02*
X2001300D01*
X1995615Y1663199D02*
X2001300D01*
X1995975Y1662839D02*
X2001300D01*
X1996335Y1662479D02*
X2001300D01*
X1996695Y1662119D02*
X2001300D01*
X1997055Y1661759D02*
X2001300D01*
X1997415Y1661399D02*
X2001300D01*
X1997775Y1661039D02*
X2001300D01*
X1998135Y1660679D02*
X2001300D01*
X1998495Y1660319D02*
X2001300D01*
X1998838Y1659959D02*
X2001300D01*
X1999054Y1659599D02*
X2001300D01*
X1999168Y1659239D02*
X2001300D01*
X1999200Y1658879D02*
X2001300D01*
X1999200Y1658519D02*
X2001300D01*
X1999200Y1658159D02*
X2001300D01*
X1999200Y1657799D02*
X2001300D01*
X1999200Y1657439D02*
X2001300D01*
X1999200Y1657079D02*
X2001300D01*
X1999200Y1656719D02*
X2001300D01*
X1999200Y1656359D02*
X2001300D01*
X1999200Y1655999D02*
X2001300D01*
X1999200Y1655639D02*
X2001300D01*
X1999200Y1655279D02*
X2001300D01*
X1999200Y1654919D02*
X2001300D01*
X1999200Y1654559D02*
X2001300D01*
X1999200Y1654199D02*
X2001300D01*
X1999200Y1653839D02*
X2001300D01*
X1999200Y1653479D02*
X2001300D01*
X1999200Y1653119D02*
X2001300D01*
X1999200Y1652759D02*
X2001300D01*
X1999200Y1652399D02*
X2001300D01*
X1999200Y1652039D02*
X2001300D01*
X1999200Y1651679D02*
X2001300D01*
X1999200Y1651319D02*
X2001300D01*
X1999200Y1650959D02*
X2001300D01*
X1999200Y1650599D02*
X2001300D01*
X1999200Y1650239D02*
X2001300D01*
X1999200Y1649879D02*
X2001300D01*
X1999200Y1649519D02*
X2001300D01*
X1999200Y1649159D02*
X2001300D01*
X1999200Y1648799D02*
X2001300D01*
X1999200Y1648439D02*
X2001300D01*
X1999200Y1648079D02*
X2001300D01*
X1999200Y1647719D02*
X2001300D01*
X1999200Y1647359D02*
X2001300D01*
X1999200Y1646999D02*
X2001300D01*
X1999200Y1646639D02*
X2001300D01*
X1999200Y1646279D02*
X2001300D01*
X1999200Y1645919D02*
X2001300D01*
X1999200Y1645559D02*
X2001300D01*
X1999200Y1645199D02*
X2001300D01*
X1999200Y1644839D02*
X2001300D01*
X1999200Y1644479D02*
X2001300D01*
X1999200Y1644119D02*
X2001300D01*
X1999200Y1643759D02*
X2001300D01*
X1999200Y1643399D02*
X2001300D01*
X1999200Y1643039D02*
X2001300D01*
X1999200Y1642679D02*
X2001300D01*
X1999200Y1642319D02*
X2001300D01*
X1999200Y1641959D02*
X2001300D01*
X1999200Y1641599D02*
X2001300D01*
X1999200Y1641239D02*
X2001300D01*
X1999200Y1640879D02*
X2001300D01*
X1999200Y1640519D02*
X2001300D01*
X1999200Y1640159D02*
X2001300D01*
X1999200Y1639799D02*
X2001300D01*
X1999200Y1639439D02*
X2001300D01*
X1999200Y1639079D02*
X2001300D01*
X1999200Y1638719D02*
X2001300D01*
X1999200Y1638359D02*
X2001300D01*
X1999200Y1637999D02*
X2001300D01*
X1999200Y1637639D02*
X2001300D01*
X1999200Y1637279D02*
X2001300D01*
X1999200Y1636919D02*
X2001300D01*
X1999200Y1636559D02*
X2001300D01*
X1999200Y1636199D02*
X2001300D01*
X1999200Y1635839D02*
X2001300D01*
X1999200Y1635479D02*
X2001300D01*
X1999200Y1635119D02*
X2001300D01*
X1999200Y1634759D02*
X2001300D01*
X1999200Y1634399D02*
X2001300D01*
X1999200Y1634039D02*
X2001300D01*
X1999200Y1633679D02*
X2001300D01*
X1999200Y1633319D02*
X2001300D01*
X1999200Y1632959D02*
X2001300D01*
X1999200Y1632599D02*
X2001300D01*
X1999200Y1632239D02*
X2001300D01*
X1999200Y1631879D02*
X2001300D01*
X1999200Y1631519D02*
X2001300D01*
X1999200Y1631159D02*
X2001300D01*
X1999200Y1630799D02*
X2001300D01*
X1999200Y1630439D02*
X2001300D01*
X1999200Y1630079D02*
X2001300D01*
X1999200Y1629719D02*
X2001300D01*
X1999200Y1629359D02*
X2001300D01*
X1999200Y1628999D02*
X2001300D01*
X1999200Y1628639D02*
X2001300D01*
X1999200Y1628279D02*
X2001300D01*
X1999200Y1627919D02*
X2001300D01*
X1999200Y1627559D02*
X2001300D01*
X1999200Y1627199D02*
X2001300D01*
X1999200Y1626839D02*
X2001300D01*
X1999200Y1626479D02*
X2001300D01*
X1999200Y1626119D02*
X2001300D01*
X1999200Y1625759D02*
X2001300D01*
X1999200Y1625399D02*
X2001300D01*
X1999200Y1625039D02*
X2001300D01*
X1999200Y1624679D02*
X2001300D01*
X1999200Y1624319D02*
X2001300D01*
X1999200Y1623959D02*
X2001300D01*
X1999200Y1623599D02*
X2001300D01*
X1999200Y1623239D02*
X2001300D01*
X1999200Y1622879D02*
X2001300D01*
X1999200Y1622519D02*
X2001300D01*
X1999200Y1622159D02*
X2001300D01*
X1999200Y1621799D02*
X2001300D01*
X1999200Y1621439D02*
X2001300D01*
X1999200Y1621079D02*
X2001300D01*
X1999200Y1620719D02*
X2001300D01*
X1999200Y1620359D02*
X2001300D01*
X1999200Y1619999D02*
X2001300D01*
X1999200Y1619639D02*
X2001300D01*
X1999200Y1619279D02*
X2001300D01*
X1999200Y1618919D02*
X2001300D01*
X1999200Y1618559D02*
X2001300D01*
X1999200Y1618199D02*
X2001300D01*
X1999200Y1617839D02*
X2001300D01*
X1999200Y1617479D02*
X2001300D01*
X1999200Y1617119D02*
X2001300D01*
X1999200Y1616759D02*
X2001300D01*
X1999200Y1616399D02*
X2001300D01*
X1999200Y1616039D02*
X2001300D01*
X1999200Y1615679D02*
X2001300D01*
X1999200Y1615319D02*
X2001300D01*
X1999200Y1614959D02*
X2001300D01*
X1999200Y1614599D02*
X2001300D01*
X1999200Y1614239D02*
X2001300D01*
X1999200Y1613879D02*
X2001300D01*
X1999200Y1613519D02*
X2001300D01*
X1999200Y1613159D02*
X2001300D01*
X1999200Y1612799D02*
X2001300D01*
X1999200Y1612439D02*
X2001300D01*
X1999200Y1612079D02*
X2001300D01*
X1999200Y1611719D02*
X2001211D01*
X1991848Y1488239D02*
X2001152D01*
X1930700Y1700279D02*
X2000964D01*
X1992070Y1488959D02*
X2000930D01*
X1993419Y1484999D02*
X2000892D01*
X1992111Y1493999D02*
X2000889D01*
X1999200Y1611359D02*
X2000851D01*
X1992214Y1487879D02*
X2000786D01*
X1992356Y1489319D02*
X2000644D01*
X1992435Y1485359D02*
X2000619D01*
X1992382Y1493639D02*
X2000618D01*
X1930700Y1700639D02*
X2000604D01*
X1992450Y1487519D02*
X2000550D01*
X1992483Y1491479D02*
X2000517D01*
X1999200Y1610999D02*
X2000491D01*
X1992541Y1489679D02*
X2000459D01*
X1992557Y1485719D02*
X2000443D01*
X1992558Y1493279D02*
X2000442D01*
X1992598Y1491839D02*
X2000402D01*
X1992599Y1487159D02*
X2000401D01*
X1992611Y1491119D02*
X2000389D01*
X1992651Y1490039D02*
X2000349D01*
X1992659Y1486079D02*
X2000341D01*
X1992660Y1492919D02*
X2000340D01*
X1992679Y1492199D02*
X2000321D01*
X1992680Y1486799D02*
X2000320D01*
X1992685Y1490759D02*
X2000315D01*
X1992698Y1490399D02*
X2000302D01*
X1992699Y1486439D02*
X2000301D01*
X1992699Y1492559D02*
X2000301D01*
X1930700Y1700999D02*
X2000244D01*
X1999200Y1610639D02*
X2000131D01*
X1930700Y1701359D02*
X1999884D01*
X1999200Y1610279D02*
X1999771D01*
X1930700Y1701719D02*
X1999524D01*
X1930700Y1702079D02*
X1999164D01*
X1930700Y1702439D02*
X1998804D01*
X1930700Y1702799D02*
X1998444D01*
X1930700Y1703159D02*
X1998084D01*
X1930700Y1703519D02*
X1997724D01*
X1930700Y1703879D02*
X1997349D01*
X1961700Y1657799D02*
X1995800D01*
X1961700Y1657439D02*
X1995800D01*
X1961700Y1657079D02*
X1995800D01*
X1961700Y1656719D02*
X1995800D01*
X1961700Y1656359D02*
X1995800D01*
X1961700Y1655999D02*
X1995800D01*
X1961700Y1655639D02*
X1995800D01*
X1961700Y1655279D02*
X1995800D01*
X1961700Y1654919D02*
X1995800D01*
X1961700Y1654559D02*
X1995800D01*
X1961700Y1654199D02*
X1995800D01*
X1961700Y1653839D02*
X1995800D01*
X1961700Y1653479D02*
X1995800D01*
X1961700Y1653119D02*
X1995800D01*
X1961700Y1652759D02*
X1995800D01*
X1961700Y1652399D02*
X1995800D01*
X1961700Y1652039D02*
X1995800D01*
X1961700Y1651679D02*
X1995800D01*
X1961700Y1651319D02*
X1995800D01*
X1961700Y1650959D02*
X1995800D01*
X1961700Y1650599D02*
X1995800D01*
X1961700Y1650239D02*
X1995800D01*
X1961696Y1649879D02*
X1995800D01*
X1961630Y1649519D02*
X1995800D01*
X1961477Y1649159D02*
X1995800D01*
X1961203Y1648799D02*
X1995800D01*
X1960843Y1648439D02*
X1995800D01*
X1960483Y1648079D02*
X1995800D01*
X1960123Y1647719D02*
X1995800D01*
X1959763Y1647359D02*
X1995800D01*
X1959403Y1646999D02*
X1995800D01*
X1959043Y1646639D02*
X1995800D01*
X1958683Y1646279D02*
X1995800D01*
X1958323Y1645919D02*
X1995800D01*
X1957963Y1645559D02*
X1995800D01*
X1957700Y1645199D02*
X1995800D01*
X1957700Y1644839D02*
X1995800D01*
X1957700Y1644479D02*
X1995800D01*
X1957700Y1644119D02*
X1995800D01*
X1957700Y1643759D02*
X1995800D01*
X1957700Y1643399D02*
X1995800D01*
X1957700Y1643039D02*
X1995800D01*
X1957700Y1642679D02*
X1995800D01*
X1957700Y1642319D02*
X1995800D01*
X1957700Y1641959D02*
X1995800D01*
X1957700Y1641599D02*
X1995800D01*
X1957700Y1641239D02*
X1995800D01*
X1957700Y1640879D02*
X1995800D01*
X1957700Y1640519D02*
X1995800D01*
X1957700Y1640159D02*
X1995800D01*
X1957700Y1639799D02*
X1995800D01*
X1957700Y1639439D02*
X1995800D01*
X1957700Y1639079D02*
X1995800D01*
X1957700Y1638719D02*
X1995800D01*
X1957700Y1638359D02*
X1995800D01*
X1957700Y1637999D02*
X1995800D01*
X1957700Y1637639D02*
X1995800D01*
X1957700Y1637279D02*
X1995800D01*
X1957700Y1636919D02*
X1995800D01*
X1957700Y1636559D02*
X1995800D01*
X1957700Y1636199D02*
X1995800D01*
X1957700Y1635839D02*
X1995800D01*
X1957700Y1635479D02*
X1995800D01*
X1957700Y1635119D02*
X1995800D01*
X1957700Y1634759D02*
X1995800D01*
X1957700Y1634399D02*
X1995800D01*
X1957700Y1634039D02*
X1995800D01*
X1957700Y1633679D02*
X1995800D01*
X1957700Y1633319D02*
X1995800D01*
X1957700Y1632959D02*
X1995800D01*
X1957700Y1632599D02*
X1995800D01*
X1957700Y1632239D02*
X1995800D01*
X1957700Y1631879D02*
X1995800D01*
X1957700Y1631519D02*
X1995800D01*
X1957700Y1631159D02*
X1995800D01*
X1957700Y1630799D02*
X1995800D01*
X1957700Y1630439D02*
X1995800D01*
X1957700Y1630079D02*
X1995800D01*
X1957700Y1629719D02*
X1995800D01*
X1957700Y1629359D02*
X1995800D01*
X1957700Y1628999D02*
X1995800D01*
X1957700Y1628639D02*
X1995800D01*
X1957700Y1628279D02*
X1995800D01*
X1957700Y1627919D02*
X1995800D01*
X1957700Y1627559D02*
X1995800D01*
X1957700Y1627199D02*
X1995800D01*
X1957700Y1626839D02*
X1995800D01*
X1957700Y1626479D02*
X1995800D01*
X1957700Y1626119D02*
X1995800D01*
X1957700Y1625759D02*
X1995800D01*
X1957700Y1625399D02*
X1995800D01*
X1957700Y1625039D02*
X1995800D01*
X1957700Y1624679D02*
X1995800D01*
X1957700Y1624319D02*
X1995800D01*
X1957700Y1623959D02*
X1995800D01*
X1957700Y1623599D02*
X1995800D01*
X1957700Y1623239D02*
X1995800D01*
X1957700Y1622879D02*
X1995800D01*
X1957700Y1622519D02*
X1995800D01*
X1957700Y1622159D02*
X1995800D01*
X1957700Y1621799D02*
X1995800D01*
X1957700Y1621439D02*
X1995800D01*
X1957700Y1621079D02*
X1995800D01*
X1957700Y1620719D02*
X1995800D01*
X1957700Y1620359D02*
X1995800D01*
X1957700Y1619999D02*
X1995800D01*
X1957700Y1619639D02*
X1995800D01*
X1957700Y1619279D02*
X1995800D01*
X1957700Y1618919D02*
X1995800D01*
X1957700Y1618559D02*
X1995800D01*
X1957700Y1618199D02*
X1995800D01*
X1957700Y1617839D02*
X1995800D01*
X1957700Y1617479D02*
X1995800D01*
X1961700Y1658159D02*
X1995797D01*
X1961700Y1658519D02*
X1995487D01*
X1961700Y1658879D02*
X1995127D01*
X1961700Y1659239D02*
X1994767D01*
X1961700Y1659599D02*
X1994407D01*
X1961700Y1659959D02*
X1994047D01*
X1961700Y1660319D02*
X1993687D01*
X1961700Y1660679D02*
X1993327D01*
X1961700Y1661039D02*
X1992967D01*
X1961700Y1661399D02*
X1992607D01*
X1961700Y1661759D02*
X1992247D01*
X1961700Y1662119D02*
X1991887D01*
X1961700Y1662479D02*
X1991527D01*
X1979599Y1481039D02*
X1991503D01*
X1961700Y1662839D02*
X1991167D01*
X1979710Y1481399D02*
X1990991D01*
X1961700Y1663199D02*
X1990807D01*
X1979813Y1481759D02*
X1990684D01*
X1980263Y1483919D02*
X1990501D01*
X1979907Y1482119D02*
X1990484D01*
X1980312Y1484279D02*
X1990465D01*
X1961700Y1663559D02*
X1990447D01*
X1980207Y1483559D02*
X1990372D01*
X1979994Y1482479D02*
X1990363D01*
X1980144Y1483199D02*
X1990309D01*
X1980073Y1482839D02*
X1990306D01*
X1961700Y1663919D02*
X1990087D01*
X1961700Y1664279D02*
X1989727D01*
X1961700Y1664639D02*
X1989367D01*
X1980327Y1488599D02*
X1989347D01*
X1980353Y1484639D02*
X1989327D01*
X1978638Y1494359D02*
X1989323D01*
X1980366Y1488239D02*
X1989152D01*
X1961700Y1664999D02*
X1989007D01*
X1980281Y1488959D02*
X1988930D01*
X1980387Y1484999D02*
X1988892D01*
X1978809Y1493999D02*
X1988889D01*
X1980397Y1487879D02*
X1988786D01*
X1961700Y1665359D02*
X1988647D01*
X1980227Y1489319D02*
X1988644D01*
X1980414Y1485359D02*
X1988619D01*
X1978969Y1493639D02*
X1988618D01*
X1980421Y1487519D02*
X1988550D01*
X1979746Y1491479D02*
X1988517D01*
X1980166Y1489679D02*
X1988459D01*
X1980433Y1485719D02*
X1988443D01*
X1979121Y1493279D02*
X1988442D01*
X1979638Y1491839D02*
X1988402D01*
X1980438Y1487159D02*
X1988401D01*
X1979846Y1491119D02*
X1988389D01*
X1980098Y1490039D02*
X1988349D01*
X1980445Y1486079D02*
X1988341D01*
X1979263Y1492919D02*
X1988340D01*
X1979521Y1492199D02*
X1988321D01*
X1980448Y1486799D02*
X1988320D01*
X1979938Y1490759D02*
X1988315D01*
X1980022Y1490399D02*
X1988302D01*
X1980450Y1486439D02*
X1988301D01*
X1979397Y1492559D02*
X1988301D01*
X1961700Y1665719D02*
X1988287D01*
X1961700Y1666079D02*
X1987927D01*
X1961700Y1666439D02*
X1987567D01*
X1961700Y1666799D02*
X1987207D01*
X1961700Y1667159D02*
X1986847D01*
X1961700Y1667519D02*
X1986487D01*
X1961700Y1667879D02*
X1986127D01*
X1961700Y1668239D02*
X1985767D01*
X1961700Y1668599D02*
X1985407D01*
X1961700Y1668959D02*
X1985047D01*
X1961700Y1669319D02*
X1984668D01*
X1960516Y1673639D02*
X1984484D01*
X1961700Y1669679D02*
X1983766D01*
X1961295Y1673279D02*
X1983705D01*
X1961700Y1670039D02*
X1983355D01*
X1961681Y1672919D02*
X1983319D01*
X1961905Y1670399D02*
X1983095D01*
X1961929Y1672559D02*
X1983071D01*
X1962071Y1670759D02*
X1982929D01*
X1962086Y1672199D02*
X1982914D01*
X1962167Y1671119D02*
X1982833D01*
X1962174Y1671839D02*
X1982826D01*
X1962200Y1671479D02*
X1982800D01*
X1852716Y1759679D02*
X1979723D01*
X1852700Y1759319D02*
X1979296D01*
X1852700Y1758959D02*
X1978706D01*
X1871809Y1758599D02*
X1978341D01*
X1873839Y1758239D02*
X1977981D01*
X1937306Y1596599D02*
X1977800D01*
X1937666Y1596239D02*
X1977800D01*
X1938026Y1595879D02*
X1977800D01*
X1938386Y1595519D02*
X1977800D01*
X1938746Y1595159D02*
X1977800D01*
X1939106Y1594799D02*
X1977800D01*
X1939466Y1594439D02*
X1977800D01*
X1939826Y1594079D02*
X1977800D01*
X1940186Y1593719D02*
X1977800D01*
X1940546Y1593359D02*
X1977800D01*
X1940906Y1592999D02*
X1977800D01*
X1941266Y1592639D02*
X1977800D01*
X1941626Y1592279D02*
X1977800D01*
X1941986Y1591919D02*
X1977800D01*
X1942346Y1591559D02*
X1977800D01*
X1942706Y1591199D02*
X1977800D01*
X1943066Y1590839D02*
X1977800D01*
X1943426Y1590479D02*
X1977800D01*
X1943786Y1590119D02*
X1977800D01*
X1944146Y1589759D02*
X1977800D01*
X1944506Y1589399D02*
X1977800D01*
X1944866Y1589039D02*
X1977800D01*
X1945226Y1588679D02*
X1977800D01*
X1945586Y1588319D02*
X1977800D01*
X1945946Y1587959D02*
X1977800D01*
X1946306Y1587599D02*
X1977800D01*
X1946669Y1587239D02*
X1977800D01*
X1974495Y1586879D02*
X1977800D01*
X1974886Y1586519D02*
X1977800D01*
X1975246Y1586159D02*
X1977800D01*
X1975606Y1585799D02*
X1977800D01*
X1975966Y1585439D02*
X1977800D01*
X1976326Y1585079D02*
X1977800D01*
X1976686Y1584719D02*
X1977800D01*
X1977046Y1584359D02*
X1977800D01*
X1977406Y1583999D02*
X1977779D01*
X1875093Y1757879D02*
X1977621D01*
X1876073Y1757519D02*
X1977261D01*
X1876897Y1757159D02*
X1976901D01*
X1877615Y1756799D02*
X1976541D01*
X1878256Y1756439D02*
X1976181D01*
X1878835Y1756079D02*
X1975821D01*
X1956063Y1755719D02*
X1975461D01*
X1956541Y1755359D02*
X1975101D01*
X1956901Y1754999D02*
X1974741D01*
X1957261Y1754639D02*
X1974381D01*
X1957621Y1754279D02*
X1974021D01*
X1957981Y1753919D02*
X1973661D01*
X1958341Y1753559D02*
X1973301D01*
X1958701Y1753199D02*
X1972941D01*
X1959061Y1752839D02*
X1972581D01*
X1959421Y1752479D02*
X1972221D01*
X1959781Y1752119D02*
X1971861D01*
X1960141Y1751759D02*
X1971501D01*
X1960501Y1751399D02*
X1971141D01*
X1960861Y1751039D02*
X1970781D01*
X1961221Y1750679D02*
X1970421D01*
X1961581Y1750319D02*
X1970061D01*
X1961941Y1749959D02*
X1969701D01*
X1962301Y1749599D02*
X1969341D01*
X1962661Y1749239D02*
X1968981D01*
X1963021Y1748879D02*
X1968621D01*
X1963381Y1748519D02*
X1968261D01*
X1963741Y1748159D02*
X1967901D01*
X1964101Y1747799D02*
X1967541D01*
X1964540Y1747439D02*
X1967181D01*
X1965032Y1747079D02*
X1966821D01*
X1965332Y1746719D02*
X1966461D01*
X1965526Y1746359D02*
X1966101D01*
X1957700Y1617119D02*
X1964650D01*
X1936946Y1596959D02*
X1964440D01*
X1957700Y1616759D02*
X1963982D01*
X1936586Y1597319D02*
X1963895D01*
X1957700Y1616399D02*
X1963650D01*
X1936226Y1597679D02*
X1963598D01*
X1957700Y1616039D02*
X1963449D01*
X1935866Y1598039D02*
X1963419D01*
X1957700Y1615679D02*
X1963338D01*
X1935506Y1598399D02*
X1963324D01*
X1957700Y1615319D02*
X1963300D01*
X1957700Y1614959D02*
X1963300D01*
X1957700Y1614599D02*
X1963300D01*
X1957700Y1614239D02*
X1963300D01*
X1957700Y1613879D02*
X1963300D01*
X1957700Y1613519D02*
X1963300D01*
X1957700Y1613159D02*
X1963300D01*
X1957700Y1612799D02*
X1963300D01*
X1957700Y1612439D02*
X1963300D01*
X1957700Y1612079D02*
X1963300D01*
X1957700Y1611719D02*
X1963300D01*
X1957700Y1611359D02*
X1963300D01*
X1957700Y1610999D02*
X1963300D01*
X1957700Y1610639D02*
X1963300D01*
X1957700Y1610279D02*
X1963300D01*
X1957700Y1609919D02*
X1963300D01*
X1957700Y1609559D02*
X1963300D01*
X1957700Y1609199D02*
X1963300D01*
X1957700Y1608839D02*
X1963300D01*
X1957700Y1608479D02*
X1963300D01*
X1957700Y1608119D02*
X1963300D01*
X1957700Y1607759D02*
X1963300D01*
X1957700Y1607399D02*
X1963300D01*
X1957700Y1607039D02*
X1963300D01*
X1957700Y1606679D02*
X1963300D01*
X1957761Y1606319D02*
X1963300D01*
X1957980Y1605959D02*
X1963300D01*
X1958117Y1605599D02*
X1963300D01*
X1958187Y1605239D02*
X1963300D01*
X1958197Y1604879D02*
X1963300D01*
X1958147Y1604519D02*
X1963300D01*
X1958033Y1604159D02*
X1963300D01*
X1957843Y1603799D02*
X1963300D01*
X1957550Y1603439D02*
X1963300D01*
X1957072Y1603079D02*
X1963300D01*
X1934700Y1602719D02*
X1963300D01*
X1934700Y1602359D02*
X1963300D01*
X1934700Y1601999D02*
X1963300D01*
X1934700Y1601639D02*
X1963300D01*
X1934700Y1601279D02*
X1963300D01*
X1934700Y1600919D02*
X1963300D01*
X1934700Y1600559D02*
X1963300D01*
X1934700Y1600199D02*
X1963300D01*
X1934700Y1599839D02*
X1963300D01*
X1934700Y1599479D02*
X1963300D01*
X1934786Y1599119D02*
X1963300D01*
X1935146Y1598759D02*
X1963300D01*
X1930700Y1704239D02*
X1962252D01*
X1852700Y1504439D02*
X1961862D01*
X1930700Y1704599D02*
X1961844D01*
X1930700Y1704959D02*
X1961484D01*
X1930700Y1705319D02*
X1961124D01*
X1930700Y1705679D02*
X1960764D01*
X1852700Y1561319D02*
X1960434D01*
X1930700Y1706039D02*
X1960404D01*
X1930700Y1706399D02*
X1960044D01*
X1930700Y1706759D02*
X1959684D01*
X1852700Y1561679D02*
X1959562D01*
X1878644Y1468799D02*
X1959522D01*
X1939200Y1673639D02*
X1959484D01*
X1930700Y1707119D02*
X1959324D01*
X1852700Y1562039D02*
X1959196D01*
X1852700Y1562399D02*
X1958977D01*
X1930700Y1707479D02*
X1958964D01*
X1852700Y1504079D02*
X1958868D01*
X1852700Y1562759D02*
X1958852D01*
X1852700Y1583639D02*
X1958818D01*
X1852700Y1563119D02*
X1958802D01*
X1852700Y1583279D02*
X1958800D01*
X1852700Y1582919D02*
X1958800D01*
X1852700Y1582559D02*
X1958800D01*
X1852700Y1582199D02*
X1958800D01*
X1852700Y1581839D02*
X1958800D01*
X1852700Y1581479D02*
X1958800D01*
X1852700Y1581119D02*
X1958800D01*
X1852700Y1580759D02*
X1958800D01*
X1852700Y1580399D02*
X1958800D01*
X1852700Y1580039D02*
X1958800D01*
X1852700Y1579679D02*
X1958800D01*
X1852700Y1579319D02*
X1958800D01*
X1852700Y1578959D02*
X1958800D01*
X1852700Y1578599D02*
X1958800D01*
X1852700Y1578239D02*
X1958800D01*
X1852700Y1577879D02*
X1958800D01*
X1852700Y1577519D02*
X1958800D01*
X1852700Y1577159D02*
X1958800D01*
X1852700Y1576799D02*
X1958800D01*
X1852700Y1576439D02*
X1958800D01*
X1852700Y1576079D02*
X1958800D01*
X1852700Y1575719D02*
X1958800D01*
X1852700Y1575359D02*
X1958800D01*
X1852700Y1574999D02*
X1958800D01*
X1852700Y1574639D02*
X1958800D01*
X1852700Y1574279D02*
X1958800D01*
X1852700Y1573919D02*
X1958800D01*
X1852700Y1573559D02*
X1958800D01*
X1852700Y1573199D02*
X1958800D01*
X1852700Y1572839D02*
X1958800D01*
X1852700Y1572479D02*
X1958800D01*
X1852700Y1572119D02*
X1958800D01*
X1852700Y1571759D02*
X1958800D01*
X1852700Y1571399D02*
X1958800D01*
X1852700Y1571039D02*
X1958800D01*
X1852700Y1570679D02*
X1958800D01*
X1852700Y1570319D02*
X1958800D01*
X1852700Y1569959D02*
X1958800D01*
X1852700Y1569599D02*
X1958800D01*
X1852700Y1569239D02*
X1958800D01*
X1852700Y1568879D02*
X1958800D01*
X1852700Y1568519D02*
X1958800D01*
X1852700Y1568159D02*
X1958800D01*
X1852700Y1567799D02*
X1958800D01*
X1852700Y1567439D02*
X1958800D01*
X1852700Y1567079D02*
X1958800D01*
X1852700Y1566719D02*
X1958800D01*
X1852700Y1566359D02*
X1958800D01*
X1852700Y1565999D02*
X1958800D01*
X1852700Y1565639D02*
X1958800D01*
X1852700Y1565279D02*
X1958800D01*
X1852700Y1564919D02*
X1958800D01*
X1852700Y1564559D02*
X1958800D01*
X1852700Y1564199D02*
X1958800D01*
X1852700Y1563839D02*
X1958800D01*
X1852700Y1563479D02*
X1958800D01*
X1939200Y1673279D02*
X1958705D01*
X1930700Y1707839D02*
X1958604D01*
X1939202Y1672919D02*
X1958319D01*
X1939759Y1669679D02*
X1958300D01*
X1939419Y1669319D02*
X1958300D01*
X1938971Y1668959D02*
X1958300D01*
X1938962Y1668599D02*
X1958300D01*
X1938962Y1668239D02*
X1958300D01*
X1938962Y1667879D02*
X1958300D01*
X1938962Y1667519D02*
X1958300D01*
X1938962Y1667159D02*
X1958300D01*
X1938962Y1666799D02*
X1958300D01*
X1938962Y1666439D02*
X1958300D01*
X1938962Y1666079D02*
X1958300D01*
X1938962Y1665719D02*
X1958300D01*
X1938962Y1665359D02*
X1958300D01*
X1938962Y1664999D02*
X1958300D01*
X1938962Y1664639D02*
X1958300D01*
X1938962Y1664279D02*
X1958300D01*
X1938962Y1663919D02*
X1958300D01*
X1938962Y1663559D02*
X1958300D01*
X1938962Y1663199D02*
X1958300D01*
X1938962Y1662839D02*
X1958300D01*
X1938962Y1662479D02*
X1958300D01*
X1938962Y1662119D02*
X1958300D01*
X1938962Y1661759D02*
X1958300D01*
X1938962Y1661399D02*
X1958300D01*
X1938962Y1661039D02*
X1958300D01*
X1938962Y1660679D02*
X1958300D01*
X1938962Y1660319D02*
X1958300D01*
X1938962Y1659959D02*
X1958300D01*
X1938962Y1659599D02*
X1958300D01*
X1938962Y1659239D02*
X1958300D01*
X1938962Y1658879D02*
X1958300D01*
X1938962Y1658519D02*
X1958300D01*
X1938959Y1658159D02*
X1958300D01*
X1938898Y1657799D02*
X1958300D01*
X1938749Y1657439D02*
X1958300D01*
X1938483Y1657079D02*
X1958300D01*
X1938123Y1656719D02*
X1958300D01*
X1937763Y1656359D02*
X1958300D01*
X1937403Y1655999D02*
X1958300D01*
X1937043Y1655639D02*
X1958300D01*
X1936683Y1655279D02*
X1958300D01*
X1936323Y1654919D02*
X1958300D01*
X1935963Y1654559D02*
X1958300D01*
X1935603Y1654199D02*
X1958300D01*
X1935243Y1653839D02*
X1958300D01*
X1934883Y1653479D02*
X1958300D01*
X1934700Y1653119D02*
X1958300D01*
X1934700Y1652759D02*
X1958300D01*
X1934700Y1652399D02*
X1958300D01*
X1934700Y1652039D02*
X1958300D01*
X1934700Y1651679D02*
X1958300D01*
X1934700Y1651319D02*
X1958300D01*
X1934700Y1650959D02*
X1958300D01*
X1939979Y1670039D02*
X1958300D01*
X1930700Y1708199D02*
X1958244D01*
X1934700Y1650599D02*
X1958194D01*
X1940116Y1670399D02*
X1958095D01*
X1939553Y1672559D02*
X1958071D01*
X1940187Y1670759D02*
X1957929D01*
X1939845Y1672199D02*
X1957914D01*
X1930700Y1708559D02*
X1957884D01*
X1879190Y1469159D02*
X1957865D01*
X1934700Y1650239D02*
X1957834D01*
X1940197Y1671119D02*
X1957833D01*
X1940034Y1671839D02*
X1957826D01*
X1940147Y1671479D02*
X1957800D01*
X1930700Y1708919D02*
X1957524D01*
X1934700Y1649879D02*
X1957474D01*
X1852700Y1503719D02*
X1957429D01*
X1930700Y1709279D02*
X1957164D01*
X1934700Y1649519D02*
X1957114D01*
X1930700Y1709639D02*
X1956804D01*
X1934700Y1649159D02*
X1956754D01*
X1879692Y1469519D02*
X1956683D01*
X1930700Y1709999D02*
X1956444D01*
X1934700Y1648799D02*
X1956394D01*
X1852700Y1503359D02*
X1956337D01*
X1930700Y1710359D02*
X1956084D01*
X1934700Y1648439D02*
X1956034D01*
X1930700Y1710719D02*
X1955724D01*
X1880156Y1469879D02*
X1955722D01*
X1934700Y1648079D02*
X1955674D01*
X1852700Y1502999D02*
X1955429D01*
X1930700Y1711079D02*
X1955364D01*
X1934700Y1647719D02*
X1955314D01*
X1930700Y1711439D02*
X1955004D01*
X1934700Y1647359D02*
X1954954D01*
X1934700Y1603079D02*
X1954928D01*
X1880588Y1470239D02*
X1954899D01*
X1930700Y1711799D02*
X1954644D01*
X1852700Y1502639D02*
X1954642D01*
X1934700Y1646999D02*
X1954624D01*
X1934700Y1603439D02*
X1954450D01*
X1934700Y1646639D02*
X1954425D01*
X1934700Y1646279D02*
X1954323D01*
X1934700Y1645919D02*
X1954300D01*
X1934700Y1645559D02*
X1954300D01*
X1934700Y1645199D02*
X1954300D01*
X1934700Y1644839D02*
X1954300D01*
X1934700Y1644479D02*
X1954300D01*
X1934700Y1644119D02*
X1954300D01*
X1934700Y1643759D02*
X1954300D01*
X1934700Y1643399D02*
X1954300D01*
X1934700Y1643039D02*
X1954300D01*
X1934700Y1642679D02*
X1954300D01*
X1934700Y1642319D02*
X1954300D01*
X1934700Y1641959D02*
X1954300D01*
X1934700Y1641599D02*
X1954300D01*
X1934700Y1641239D02*
X1954300D01*
X1934700Y1640879D02*
X1954300D01*
X1934700Y1640519D02*
X1954300D01*
X1934700Y1640159D02*
X1954300D01*
X1934700Y1639799D02*
X1954300D01*
X1934700Y1639439D02*
X1954300D01*
X1934700Y1639079D02*
X1954300D01*
X1934700Y1638719D02*
X1954300D01*
X1934700Y1638359D02*
X1954300D01*
X1934700Y1637999D02*
X1954300D01*
X1934700Y1637639D02*
X1954300D01*
X1934700Y1637279D02*
X1954300D01*
X1934700Y1636919D02*
X1954300D01*
X1934700Y1636559D02*
X1954300D01*
X1934700Y1636199D02*
X1954300D01*
X1934700Y1635839D02*
X1954300D01*
X1934700Y1635479D02*
X1954300D01*
X1934700Y1635119D02*
X1954300D01*
X1934700Y1634759D02*
X1954300D01*
X1934700Y1634399D02*
X1954300D01*
X1934700Y1634039D02*
X1954300D01*
X1934700Y1633679D02*
X1954300D01*
X1934700Y1633319D02*
X1954300D01*
X1934700Y1632959D02*
X1954300D01*
X1934700Y1632599D02*
X1954300D01*
X1934700Y1632239D02*
X1954300D01*
X1934700Y1631879D02*
X1954300D01*
X1934700Y1631519D02*
X1954300D01*
X1934700Y1631159D02*
X1954300D01*
X1934700Y1630799D02*
X1954300D01*
X1934700Y1630439D02*
X1954300D01*
X1934700Y1630079D02*
X1954300D01*
X1934700Y1629719D02*
X1954300D01*
X1934700Y1629359D02*
X1954300D01*
X1934700Y1628999D02*
X1954300D01*
X1934700Y1628639D02*
X1954300D01*
X1934700Y1628279D02*
X1954300D01*
X1934700Y1627919D02*
X1954300D01*
X1934700Y1627559D02*
X1954300D01*
X1934700Y1627199D02*
X1954300D01*
X1934700Y1626839D02*
X1954300D01*
X1934700Y1626479D02*
X1954300D01*
X1934700Y1626119D02*
X1954300D01*
X1934700Y1625759D02*
X1954300D01*
X1934700Y1625399D02*
X1954300D01*
X1934700Y1625039D02*
X1954300D01*
X1934700Y1624679D02*
X1954300D01*
X1934700Y1624319D02*
X1954300D01*
X1934700Y1623959D02*
X1954300D01*
X1934700Y1623599D02*
X1954300D01*
X1934700Y1623239D02*
X1954300D01*
X1934700Y1622879D02*
X1954300D01*
X1934700Y1622519D02*
X1954300D01*
X1934700Y1622159D02*
X1954300D01*
X1934700Y1621799D02*
X1954300D01*
X1934700Y1621439D02*
X1954300D01*
X1934700Y1621079D02*
X1954300D01*
X1934700Y1620719D02*
X1954300D01*
X1934700Y1620359D02*
X1954300D01*
X1934700Y1619999D02*
X1954300D01*
X1934700Y1619639D02*
X1954300D01*
X1934700Y1619279D02*
X1954300D01*
X1934700Y1618919D02*
X1954300D01*
X1934700Y1618559D02*
X1954300D01*
X1934700Y1618199D02*
X1954300D01*
X1934700Y1617839D02*
X1954300D01*
X1934700Y1617479D02*
X1954300D01*
X1934700Y1617119D02*
X1954300D01*
X1934700Y1616759D02*
X1954300D01*
X1934700Y1616399D02*
X1954300D01*
X1934700Y1616039D02*
X1954300D01*
X1934700Y1615679D02*
X1954300D01*
X1934700Y1615319D02*
X1954300D01*
X1934700Y1614959D02*
X1954300D01*
X1934700Y1614599D02*
X1954300D01*
X1934700Y1614239D02*
X1954300D01*
X1934700Y1613879D02*
X1954300D01*
X1934700Y1613519D02*
X1954300D01*
X1934700Y1613159D02*
X1954300D01*
X1934700Y1612799D02*
X1954300D01*
X1934700Y1612439D02*
X1954300D01*
X1934700Y1612079D02*
X1954300D01*
X1934700Y1611719D02*
X1954300D01*
X1934700Y1611359D02*
X1954300D01*
X1934700Y1610999D02*
X1954300D01*
X1934700Y1610639D02*
X1954300D01*
X1934700Y1610279D02*
X1954300D01*
X1934700Y1609919D02*
X1954300D01*
X1934700Y1609559D02*
X1954300D01*
X1934700Y1609199D02*
X1954300D01*
X1934700Y1608839D02*
X1954300D01*
X1934700Y1608479D02*
X1954300D01*
X1934700Y1608119D02*
X1954300D01*
X1934700Y1607759D02*
X1954300D01*
X1934700Y1607399D02*
X1954300D01*
X1934700Y1607039D02*
X1954300D01*
X1934700Y1606679D02*
X1954300D01*
X1930700Y1712159D02*
X1954284D01*
X1934700Y1606319D02*
X1954239D01*
X1880991Y1470599D02*
X1954172D01*
X1934700Y1603799D02*
X1954157D01*
X1934700Y1605959D02*
X1954020D01*
X1934700Y1604159D02*
X1953967D01*
X1852700Y1502279D02*
X1953942D01*
X1930700Y1712519D02*
X1953924D01*
X1934700Y1605599D02*
X1953883D01*
X1934700Y1604519D02*
X1953853D01*
X1934700Y1605239D02*
X1953813D01*
X1934700Y1604879D02*
X1953803D01*
X1930700Y1712879D02*
X1953564D01*
X1881368Y1470959D02*
X1953518D01*
X1852700Y1501919D02*
X1953309D01*
X1930700Y1713239D02*
X1953204D01*
X1881723Y1471319D02*
X1952922D01*
X1930700Y1713599D02*
X1952844D01*
X1852700Y1501559D02*
X1952731D01*
X1930700Y1713959D02*
X1952484D01*
X1882056Y1471679D02*
X1952374D01*
X1852700Y1501199D02*
X1952197D01*
X1930700Y1714319D02*
X1952124D01*
X1882369Y1472039D02*
X1951866D01*
X1930700Y1714679D02*
X1951764D01*
X1852700Y1500839D02*
X1951702D01*
X1930700Y1715039D02*
X1951404D01*
X1882665Y1472399D02*
X1951393D01*
X1852700Y1500479D02*
X1951239D01*
X1930700Y1715399D02*
X1951044D01*
X1882944Y1472759D02*
X1950951D01*
X1852700Y1500119D02*
X1950807D01*
X1930700Y1715759D02*
X1950684D01*
X1883207Y1473119D02*
X1950536D01*
X1852700Y1499759D02*
X1950400D01*
X1930700Y1716119D02*
X1950324D01*
X1883456Y1473479D02*
X1950145D01*
X1852700Y1499399D02*
X1950017D01*
X1930700Y1716479D02*
X1949964D01*
X1883690Y1473839D02*
X1949776D01*
X1852700Y1499039D02*
X1949655D01*
X1930700Y1716839D02*
X1949604D01*
X1883911Y1474199D02*
X1949428D01*
X1870831Y1498679D02*
X1949314D01*
X1930700Y1717199D02*
X1949244D01*
X1884120Y1474559D02*
X1949098D01*
X1873494Y1498319D02*
X1948990D01*
X1930700Y1717559D02*
X1948884D01*
X1884317Y1474919D02*
X1948786D01*
X1874845Y1497959D02*
X1948683D01*
X1930700Y1717919D02*
X1948524D01*
X1884501Y1475279D02*
X1948490D01*
X1875871Y1497599D02*
X1948392D01*
X1884675Y1475639D02*
X1948209D01*
X1930700Y1718279D02*
X1948164D01*
X1876724Y1497239D02*
X1948117D01*
X1884838Y1475999D02*
X1947942D01*
X1928719Y1496879D02*
X1947855D01*
X1930700Y1718639D02*
X1947804D01*
X1930021Y1476359D02*
X1947689D01*
X1930471Y1496519D02*
X1947606D01*
X1931178Y1476719D02*
X1947449D01*
X1930700Y1718999D02*
X1947444D01*
X1931489Y1496159D02*
X1947370D01*
X1932021Y1477079D02*
X1947221D01*
X1932268Y1495799D02*
X1947146D01*
X1930700Y1719359D02*
X1947084D01*
X1932705Y1477439D02*
X1947005D01*
X1932913Y1495439D02*
X1946934D01*
X1933287Y1477799D02*
X1946800D01*
X1933467Y1495079D02*
X1946733D01*
X1930700Y1719719D02*
X1946724D01*
X1933795Y1478159D02*
X1946606D01*
X1933954Y1494719D02*
X1946542D01*
X1934245Y1478519D02*
X1946422D01*
X1930700Y1720079D02*
X1946364D01*
X1934388Y1494359D02*
X1946362D01*
X1934650Y1478879D02*
X1946248D01*
X1934778Y1493999D02*
X1946191D01*
X1935015Y1479239D02*
X1946084D01*
X1935132Y1493639D02*
X1946031D01*
X1930700Y1720439D02*
X1946004D01*
X1935347Y1479599D02*
X1945930D01*
X1935453Y1493279D02*
X1945879D01*
X1935649Y1479959D02*
X1945784D01*
X1935746Y1492919D02*
X1945737D01*
X1935926Y1480319D02*
X1945648D01*
X1930700Y1720799D02*
X1945644D01*
X1936014Y1492559D02*
X1945603D01*
X1936178Y1480679D02*
X1945520D01*
X1936259Y1492199D02*
X1945479D01*
X1936409Y1481039D02*
X1945401D01*
X1936483Y1491839D02*
X1945362D01*
X1936620Y1481399D02*
X1945290D01*
X1930700Y1721159D02*
X1945284D01*
X1936688Y1491479D02*
X1945254D01*
X1852700Y1583999D02*
X1945202D01*
X1936813Y1481759D02*
X1945187D01*
X1936874Y1491119D02*
X1945154D01*
X1936987Y1482119D02*
X1945093D01*
X1937043Y1490759D02*
X1945062D01*
X1937145Y1482479D02*
X1945006D01*
X1937196Y1490399D02*
X1944978D01*
X1937288Y1482839D02*
X1944927D01*
X1930700Y1721519D02*
X1944924D01*
X1937333Y1490039D02*
X1944902D01*
X1937415Y1483199D02*
X1944856D01*
X1937455Y1489679D02*
X1944834D01*
X1937528Y1483559D02*
X1944793D01*
X1937563Y1489319D02*
X1944773D01*
X1852700Y1584359D02*
X1944737D01*
X1937626Y1483919D02*
X1944737D01*
X1937657Y1488959D02*
X1944719D01*
X1937711Y1484279D02*
X1944688D01*
X1937737Y1488599D02*
X1944673D01*
X1937783Y1484639D02*
X1944647D01*
X1937804Y1488239D02*
X1944634D01*
X1937842Y1484999D02*
X1944613D01*
X1937859Y1487879D02*
X1944603D01*
X1937888Y1485359D02*
X1944586D01*
X1937900Y1487519D02*
X1944579D01*
X1937921Y1485719D02*
X1944567D01*
X1930700Y1721879D02*
X1944564D01*
X1937929Y1487159D02*
X1944562D01*
X1937942Y1486079D02*
X1944555D01*
X1937946Y1486799D02*
X1944552D01*
X1937950Y1486439D02*
X1944550D01*
X1852700Y1584719D02*
X1944377D01*
X1930700Y1722239D02*
X1944204D01*
X1852700Y1585079D02*
X1944017D01*
X1930700Y1722599D02*
X1943844D01*
X1852700Y1585439D02*
X1943657D01*
X1930700Y1722959D02*
X1943484D01*
X1852700Y1585799D02*
X1943297D01*
X1930700Y1723319D02*
X1943124D01*
X1852700Y1586159D02*
X1942937D01*
X1930700Y1723679D02*
X1942764D01*
X1852700Y1586519D02*
X1942577D01*
X1930700Y1724039D02*
X1942404D01*
X1852700Y1586879D02*
X1942217D01*
X1930700Y1724399D02*
X1942044D01*
X1852700Y1587239D02*
X1941857D01*
X1941539Y1724759D02*
X1941648D01*
X1852700Y1587599D02*
X1941497D01*
X1852700Y1587959D02*
X1941137D01*
X1852700Y1588319D02*
X1940777D01*
X1852700Y1588679D02*
X1940417D01*
X1852700Y1589039D02*
X1940057D01*
X1852700Y1589399D02*
X1939697D01*
X1852700Y1589759D02*
X1939337D01*
X1852700Y1590119D02*
X1938977D01*
X1852700Y1590479D02*
X1938617D01*
X1930700Y1724759D02*
X1938462D01*
X1852700Y1590839D02*
X1938257D01*
X1852700Y1591199D02*
X1937897D01*
X1930700Y1725119D02*
X1937669D01*
X1852700Y1591559D02*
X1937537D01*
X1895450Y1733039D02*
X1937267D01*
X1852700Y1591919D02*
X1937177D01*
X1930700Y1725479D02*
X1937129D01*
X1895450Y1733399D02*
X1937103D01*
X1895450Y1732679D02*
X1936839D01*
X1852700Y1592279D02*
X1936817D01*
X1930700Y1725839D02*
X1936715D01*
X1895450Y1733759D02*
X1936695D01*
X1895450Y1732319D02*
X1936484D01*
X1852700Y1592639D02*
X1936457D01*
X1925996Y1740239D02*
X1936450D01*
X1930700Y1726199D02*
X1936383D01*
X1895450Y1734119D02*
X1936367D01*
X1925636Y1739879D02*
X1936209D01*
X1895450Y1731959D02*
X1936195D01*
X1930700Y1726559D02*
X1936112D01*
X1895450Y1734479D02*
X1936099D01*
X1852700Y1592999D02*
X1936097D01*
X1926356Y1740599D02*
X1936038D01*
X1925469Y1739519D02*
X1935970D01*
X1895450Y1731599D02*
X1935958D01*
X1930700Y1726919D02*
X1935891D01*
X1895450Y1734839D02*
X1935880D01*
X1879450Y1681919D02*
X1935800D01*
X1880333Y1681559D02*
X1935800D01*
X1881391Y1681199D02*
X1935800D01*
X1882190Y1680839D02*
X1935800D01*
X1882847Y1680479D02*
X1935800D01*
X1883409Y1680119D02*
X1935800D01*
X1883903Y1679759D02*
X1935800D01*
X1884342Y1679399D02*
X1935800D01*
X1884737Y1679039D02*
X1935800D01*
X1885094Y1678679D02*
X1935800D01*
X1885419Y1678319D02*
X1935800D01*
X1885715Y1677959D02*
X1935800D01*
X1885986Y1677599D02*
X1935800D01*
X1886233Y1677239D02*
X1935800D01*
X1886460Y1676879D02*
X1935800D01*
X1886666Y1676519D02*
X1935800D01*
X1886854Y1676159D02*
X1935800D01*
X1887025Y1675799D02*
X1935800D01*
X1887179Y1675439D02*
X1935800D01*
X1887318Y1675079D02*
X1935800D01*
X1887442Y1674719D02*
X1935800D01*
X1887551Y1674359D02*
X1935800D01*
X1887647Y1673999D02*
X1935800D01*
X1887729Y1673639D02*
X1935800D01*
X1887798Y1673279D02*
X1935800D01*
X1887853Y1672919D02*
X1935800D01*
X1887896Y1672559D02*
X1935800D01*
X1887927Y1672199D02*
X1935800D01*
X1879450Y1682279D02*
X1935789D01*
X1887945Y1671839D02*
X1935783D01*
X1925244Y1739159D02*
X1935775D01*
X1895450Y1731239D02*
X1935765D01*
X1852700Y1593359D02*
X1935737D01*
X1930830Y1727279D02*
X1935711D01*
X1895450Y1735199D02*
X1935702D01*
X1926716Y1740959D02*
X1935656D01*
X1887950Y1671479D02*
X1935631D01*
X1924895Y1738799D02*
X1935618D01*
X1895450Y1730879D02*
X1935610D01*
X1931024Y1727639D02*
X1935567D01*
X1887943Y1671119D02*
X1935566D01*
X1887924Y1670759D02*
X1935562D01*
X1887892Y1670399D02*
X1935562D01*
X1887847Y1670039D02*
X1935562D01*
X1887790Y1669679D02*
X1935562D01*
X1887720Y1669319D02*
X1935562D01*
X1887636Y1668959D02*
X1935562D01*
X1887539Y1668599D02*
X1935562D01*
X1887428Y1668239D02*
X1935562D01*
X1887303Y1667879D02*
X1935562D01*
X1887162Y1667519D02*
X1935562D01*
X1887006Y1667159D02*
X1935562D01*
X1886833Y1666799D02*
X1935562D01*
X1886643Y1666439D02*
X1935562D01*
X1886434Y1666079D02*
X1935562D01*
X1886205Y1665719D02*
X1935562D01*
X1885955Y1665359D02*
X1935562D01*
X1885681Y1664999D02*
X1935562D01*
X1885382Y1664639D02*
X1935562D01*
X1885054Y1664279D02*
X1935562D01*
X1884692Y1663919D02*
X1935562D01*
X1884293Y1663559D02*
X1935562D01*
X1883848Y1663199D02*
X1935562D01*
X1883347Y1662839D02*
X1935562D01*
X1882774Y1662479D02*
X1935562D01*
X1882104Y1662119D02*
X1935562D01*
X1881283Y1661759D02*
X1935562D01*
X1880177Y1661399D02*
X1935562D01*
X1852700Y1661039D02*
X1935562D01*
X1852700Y1660679D02*
X1935562D01*
X1852700Y1660319D02*
X1935562D01*
X1852700Y1659959D02*
X1935562D01*
X1852700Y1659599D02*
X1935562D01*
X1852700Y1659239D02*
X1935562D01*
X1895450Y1735559D02*
X1935560D01*
X1934636Y1748879D02*
X1935499D01*
X1924269Y1738439D02*
X1935495D01*
X1929875Y1730519D02*
X1935489D01*
X1852700Y1658879D02*
X1935474D01*
X1879450Y1682639D02*
X1935457D01*
X1931142Y1727999D02*
X1935456D01*
X1895450Y1735919D02*
X1935451D01*
X1927076Y1741319D02*
X1935442D01*
X1895450Y1738079D02*
X1935403D01*
X1930445Y1730159D02*
X1935399D01*
X1934276Y1748519D02*
X1935381D01*
X1852700Y1593719D02*
X1935377D01*
X1931195Y1728359D02*
X1935376D01*
X1895450Y1736279D02*
X1935372D01*
X1895450Y1737719D02*
X1935341D01*
X1930776Y1729799D02*
X1935338D01*
X1927436Y1741679D02*
X1935331D01*
X1931189Y1728719D02*
X1935325D01*
X1895450Y1736639D02*
X1935323D01*
X1933916Y1748159D02*
X1935307D01*
X1895450Y1737359D02*
X1935307D01*
X1930990Y1729439D02*
X1935306D01*
X1931123Y1729079D02*
X1935302D01*
X1895450Y1736999D02*
X1935301D01*
X1933556Y1747799D02*
X1935300D01*
X1933196Y1747439D02*
X1935300D01*
X1932836Y1747079D02*
X1935300D01*
X1932476Y1746719D02*
X1935300D01*
X1932116Y1746359D02*
X1935300D01*
X1931756Y1745999D02*
X1935300D01*
X1931396Y1745639D02*
X1935300D01*
X1931036Y1745279D02*
X1935300D01*
X1930676Y1744919D02*
X1935300D01*
X1930316Y1744559D02*
X1935300D01*
X1929956Y1744199D02*
X1935300D01*
X1929596Y1743839D02*
X1935300D01*
X1929236Y1743479D02*
X1935300D01*
X1928876Y1743119D02*
X1935300D01*
X1928516Y1742759D02*
X1935300D01*
X1928156Y1742399D02*
X1935300D01*
X1927796Y1742039D02*
X1935300D01*
X1852700Y1658519D02*
X1935114D01*
X1879450Y1682999D02*
X1935097D01*
X1852700Y1594079D02*
X1935017D01*
X1852700Y1658159D02*
X1934754D01*
X1879450Y1683359D02*
X1934737D01*
X1852700Y1594439D02*
X1934657D01*
X1852700Y1657799D02*
X1934394D01*
X1879450Y1683719D02*
X1934377D01*
X1852700Y1594799D02*
X1934297D01*
X1852700Y1657439D02*
X1934034D01*
X1879450Y1684079D02*
X1934017D01*
X1852700Y1595159D02*
X1933937D01*
X1852700Y1657079D02*
X1933674D01*
X1879450Y1684439D02*
X1933657D01*
X1852700Y1595519D02*
X1933577D01*
X1852700Y1656719D02*
X1933314D01*
X1879450Y1684799D02*
X1933297D01*
X1852700Y1595879D02*
X1933217D01*
X1852700Y1656359D02*
X1932954D01*
X1879450Y1685159D02*
X1932937D01*
X1852700Y1596239D02*
X1932857D01*
X1852700Y1655999D02*
X1932594D01*
X1879450Y1685519D02*
X1932577D01*
X1852700Y1596599D02*
X1932497D01*
X1852700Y1655639D02*
X1932234D01*
X1879450Y1685879D02*
X1932217D01*
X1852700Y1596959D02*
X1932137D01*
X1902016Y1751759D02*
X1931987D01*
X1852700Y1655279D02*
X1931874D01*
X1879450Y1686239D02*
X1931857D01*
X1852700Y1597319D02*
X1931777D01*
X1901656Y1751399D02*
X1931641D01*
X1852700Y1654919D02*
X1931570D01*
X1852700Y1597679D02*
X1931512D01*
X1879450Y1686599D02*
X1931497D01*
X1852700Y1654559D02*
X1931394D01*
X1852700Y1598039D02*
X1931364D01*
X1880493Y1654199D02*
X1931312D01*
X1852700Y1598399D02*
X1931303D01*
X1882145Y1653839D02*
X1931300D01*
X1883325Y1653479D02*
X1931300D01*
X1884284Y1653119D02*
X1931300D01*
X1885106Y1652759D02*
X1931300D01*
X1885833Y1652399D02*
X1931300D01*
X1886486Y1652039D02*
X1931300D01*
X1887082Y1651679D02*
X1931300D01*
X1887630Y1651319D02*
X1931300D01*
X1888137Y1650959D02*
X1931300D01*
X1888610Y1650599D02*
X1931300D01*
X1889052Y1650239D02*
X1931300D01*
X1889467Y1649879D02*
X1931300D01*
X1889858Y1649519D02*
X1931300D01*
X1890226Y1649159D02*
X1931300D01*
X1890575Y1648799D02*
X1931300D01*
X1890904Y1648439D02*
X1931300D01*
X1891216Y1648079D02*
X1931300D01*
X1891512Y1647719D02*
X1931300D01*
X1891793Y1647359D02*
X1931300D01*
X1892060Y1646999D02*
X1931300D01*
X1892313Y1646639D02*
X1931300D01*
X1892553Y1646279D02*
X1931300D01*
X1892780Y1645919D02*
X1931300D01*
X1892997Y1645559D02*
X1931300D01*
X1893201Y1645199D02*
X1931300D01*
X1893396Y1644839D02*
X1931300D01*
X1893579Y1644479D02*
X1931300D01*
X1893753Y1644119D02*
X1931300D01*
X1893917Y1643759D02*
X1931300D01*
X1894071Y1643399D02*
X1931300D01*
X1894217Y1643039D02*
X1931300D01*
X1894353Y1642679D02*
X1931300D01*
X1894481Y1642319D02*
X1931300D01*
X1894600Y1641959D02*
X1931300D01*
X1894711Y1641599D02*
X1931300D01*
X1894813Y1641239D02*
X1931300D01*
X1894908Y1640879D02*
X1931300D01*
X1894994Y1640519D02*
X1931300D01*
X1895073Y1640159D02*
X1931300D01*
X1895144Y1639799D02*
X1931300D01*
X1895208Y1639439D02*
X1931300D01*
X1895264Y1639079D02*
X1931300D01*
X1895312Y1638719D02*
X1931300D01*
X1895354Y1638359D02*
X1931300D01*
X1895387Y1637999D02*
X1931300D01*
X1895414Y1637639D02*
X1931300D01*
X1895433Y1637279D02*
X1931300D01*
X1895445Y1636919D02*
X1931300D01*
X1895450Y1636559D02*
X1931300D01*
X1895447Y1636199D02*
X1931300D01*
X1895438Y1635839D02*
X1931300D01*
X1895421Y1635479D02*
X1931300D01*
X1895397Y1635119D02*
X1931300D01*
X1895365Y1634759D02*
X1931300D01*
X1895327Y1634399D02*
X1931300D01*
X1895280Y1634039D02*
X1931300D01*
X1895227Y1633679D02*
X1931300D01*
X1895166Y1633319D02*
X1931300D01*
X1895097Y1632959D02*
X1931300D01*
X1895021Y1632599D02*
X1931300D01*
X1894937Y1632239D02*
X1931300D01*
X1894845Y1631879D02*
X1931300D01*
X1894745Y1631519D02*
X1931300D01*
X1894637Y1631159D02*
X1931300D01*
X1894521Y1630799D02*
X1931300D01*
X1894396Y1630439D02*
X1931300D01*
X1894262Y1630079D02*
X1931300D01*
X1894120Y1629719D02*
X1931300D01*
X1893968Y1629359D02*
X1931300D01*
X1893807Y1628999D02*
X1931300D01*
X1893637Y1628639D02*
X1931300D01*
X1893457Y1628279D02*
X1931300D01*
X1893266Y1627919D02*
X1931300D01*
X1893065Y1627559D02*
X1931300D01*
X1892852Y1627199D02*
X1931300D01*
X1892628Y1626839D02*
X1931300D01*
X1892392Y1626479D02*
X1931300D01*
X1892143Y1626119D02*
X1931300D01*
X1891881Y1625759D02*
X1931300D01*
X1891605Y1625399D02*
X1931300D01*
X1891315Y1625039D02*
X1931300D01*
X1891008Y1624679D02*
X1931300D01*
X1890684Y1624319D02*
X1931300D01*
X1890342Y1623959D02*
X1931300D01*
X1889980Y1623599D02*
X1931300D01*
X1889597Y1623239D02*
X1931300D01*
X1889190Y1622879D02*
X1931300D01*
X1888757Y1622519D02*
X1931300D01*
X1888295Y1622159D02*
X1931300D01*
X1887799Y1621799D02*
X1931300D01*
X1887265Y1621439D02*
X1931300D01*
X1886686Y1621079D02*
X1931300D01*
X1886053Y1620719D02*
X1931300D01*
X1885352Y1620359D02*
X1931300D01*
X1884565Y1619999D02*
X1931300D01*
X1904016Y1619639D02*
X1931300D01*
X1904795Y1619279D02*
X1931300D01*
X1905181Y1618919D02*
X1931300D01*
X1905429Y1618559D02*
X1931300D01*
X1905586Y1618199D02*
X1931300D01*
X1905674Y1617839D02*
X1931300D01*
X1905700Y1617479D02*
X1931300D01*
X1905667Y1617119D02*
X1931300D01*
X1905571Y1616759D02*
X1931300D01*
X1905405Y1616399D02*
X1931300D01*
X1905145Y1616039D02*
X1931300D01*
X1904734Y1615679D02*
X1931300D01*
X1903786Y1615319D02*
X1931300D01*
X1852700Y1614959D02*
X1931300D01*
X1852700Y1614599D02*
X1931300D01*
X1852700Y1614239D02*
X1931300D01*
X1852700Y1613879D02*
X1931300D01*
X1884875Y1613519D02*
X1931300D01*
X1885445Y1613159D02*
X1931300D01*
X1885776Y1612799D02*
X1931300D01*
X1885990Y1612439D02*
X1931300D01*
X1886123Y1612079D02*
X1931300D01*
X1886189Y1611719D02*
X1931300D01*
X1921677Y1611359D02*
X1931300D01*
X1922111Y1610999D02*
X1931300D01*
X1922382Y1610639D02*
X1931300D01*
X1922558Y1610279D02*
X1931300D01*
X1922660Y1609919D02*
X1931300D01*
X1922699Y1609559D02*
X1931300D01*
X1922679Y1609199D02*
X1931300D01*
X1922598Y1608839D02*
X1931300D01*
X1922449Y1608479D02*
X1931300D01*
X1922212Y1608119D02*
X1931300D01*
X1921845Y1607759D02*
X1931300D01*
X1921152Y1607399D02*
X1931300D01*
X1886133Y1607039D02*
X1931300D01*
X1886193Y1606679D02*
X1931300D01*
X1886193Y1606319D02*
X1931300D01*
X1886132Y1605959D02*
X1931300D01*
X1886007Y1605599D02*
X1931300D01*
X1885803Y1605239D02*
X1931300D01*
X1885487Y1604879D02*
X1931300D01*
X1920875Y1604519D02*
X1931300D01*
X1921445Y1604159D02*
X1931300D01*
X1921776Y1603799D02*
X1931300D01*
X1921990Y1603439D02*
X1931300D01*
X1922123Y1603079D02*
X1931300D01*
X1922189Y1602719D02*
X1931300D01*
X1922195Y1602359D02*
X1931300D01*
X1922142Y1601999D02*
X1931300D01*
X1922024Y1601639D02*
X1931300D01*
X1921830Y1601279D02*
X1931300D01*
X1921530Y1600919D02*
X1931300D01*
X1921035Y1600559D02*
X1931300D01*
X1885774Y1600199D02*
X1931300D01*
X1885442Y1599839D02*
X1931300D01*
X1884869Y1599479D02*
X1931300D01*
X1852700Y1599119D02*
X1931300D01*
X1852700Y1598759D02*
X1931300D01*
X1901296Y1751039D02*
X1931281D01*
X1879450Y1686959D02*
X1931137D01*
X1900936Y1750679D02*
X1930921D01*
X1879450Y1687319D02*
X1930777D01*
X1900576Y1750319D02*
X1930561D01*
X1879450Y1687679D02*
X1930417D01*
X1900216Y1749959D02*
X1930201D01*
X1879450Y1688039D02*
X1930057D01*
X1899856Y1749599D02*
X1929841D01*
X1879450Y1688399D02*
X1929697D01*
X1899496Y1749239D02*
X1929481D01*
X1879450Y1688759D02*
X1929337D01*
X1899136Y1748879D02*
X1929121D01*
X1879450Y1689119D02*
X1928977D01*
X1898776Y1748519D02*
X1928761D01*
X1879450Y1689479D02*
X1928617D01*
X1898416Y1748159D02*
X1928401D01*
X1879450Y1689839D02*
X1928257D01*
X1895450Y1730519D02*
X1928125D01*
X1898056Y1747799D02*
X1928041D01*
X1879450Y1690199D02*
X1927897D01*
X1897696Y1747439D02*
X1927681D01*
X1879450Y1690559D02*
X1927584D01*
X1895450Y1730159D02*
X1927555D01*
X1879450Y1690919D02*
X1927402D01*
X1897336Y1747079D02*
X1927321D01*
X1879450Y1691279D02*
X1927314D01*
X1895450Y1726919D02*
X1927300D01*
X1895450Y1726559D02*
X1927300D01*
X1895450Y1726199D02*
X1927300D01*
X1895450Y1725839D02*
X1927300D01*
X1895450Y1725479D02*
X1927300D01*
X1895450Y1725119D02*
X1927300D01*
X1895450Y1724759D02*
X1927300D01*
X1895450Y1724399D02*
X1927300D01*
X1895450Y1724039D02*
X1927300D01*
X1895450Y1723679D02*
X1927300D01*
X1895450Y1723319D02*
X1927300D01*
X1895450Y1722959D02*
X1927300D01*
X1895450Y1722599D02*
X1927300D01*
X1895450Y1722239D02*
X1927300D01*
X1895450Y1721879D02*
X1927300D01*
X1895450Y1721519D02*
X1927300D01*
X1895450Y1721159D02*
X1927300D01*
X1895450Y1720799D02*
X1927300D01*
X1895450Y1720439D02*
X1927300D01*
X1895450Y1720079D02*
X1927300D01*
X1895430Y1719719D02*
X1927300D01*
X1895342Y1719359D02*
X1927300D01*
X1895173Y1718999D02*
X1927300D01*
X1894896Y1718639D02*
X1927300D01*
X1894536Y1718279D02*
X1927300D01*
X1894176Y1717919D02*
X1927300D01*
X1893816Y1717559D02*
X1927300D01*
X1893456Y1717199D02*
X1927300D01*
X1893096Y1716839D02*
X1927300D01*
X1892736Y1716479D02*
X1927300D01*
X1892376Y1716119D02*
X1927300D01*
X1892016Y1715759D02*
X1927300D01*
X1891656Y1715399D02*
X1927300D01*
X1891296Y1715039D02*
X1927300D01*
X1890936Y1714679D02*
X1927300D01*
X1890576Y1714319D02*
X1927300D01*
X1890216Y1713959D02*
X1927300D01*
X1889856Y1713599D02*
X1927300D01*
X1889496Y1713239D02*
X1927300D01*
X1889136Y1712879D02*
X1927300D01*
X1888776Y1712519D02*
X1927300D01*
X1888416Y1712159D02*
X1927300D01*
X1888056Y1711799D02*
X1927300D01*
X1887696Y1711439D02*
X1927300D01*
X1887336Y1711079D02*
X1927300D01*
X1886976Y1710719D02*
X1927300D01*
X1886616Y1710359D02*
X1927300D01*
X1886256Y1709999D02*
X1927300D01*
X1885896Y1709639D02*
X1927300D01*
X1885536Y1709279D02*
X1927300D01*
X1885176Y1708919D02*
X1927300D01*
X1884816Y1708559D02*
X1927300D01*
X1884456Y1708199D02*
X1927300D01*
X1884096Y1707839D02*
X1927300D01*
X1883736Y1707479D02*
X1927300D01*
X1883376Y1707119D02*
X1927300D01*
X1883016Y1706759D02*
X1927300D01*
X1882656Y1706399D02*
X1927300D01*
X1882296Y1706039D02*
X1927300D01*
X1881936Y1705679D02*
X1927300D01*
X1881576Y1705319D02*
X1927300D01*
X1881216Y1704959D02*
X1927300D01*
X1880856Y1704599D02*
X1927300D01*
X1880496Y1704239D02*
X1927300D01*
X1880136Y1703879D02*
X1927300D01*
X1879776Y1703519D02*
X1927300D01*
X1879456Y1703159D02*
X1927300D01*
X1879450Y1702799D02*
X1927300D01*
X1879450Y1702439D02*
X1927300D01*
X1879450Y1702079D02*
X1927300D01*
X1879450Y1701719D02*
X1927300D01*
X1879450Y1701359D02*
X1927300D01*
X1879450Y1700999D02*
X1927300D01*
X1879450Y1700639D02*
X1927300D01*
X1879450Y1700279D02*
X1927300D01*
X1879450Y1699919D02*
X1927300D01*
X1879450Y1699559D02*
X1927300D01*
X1879450Y1699199D02*
X1927300D01*
X1879450Y1698839D02*
X1927300D01*
X1879450Y1698479D02*
X1927300D01*
X1879450Y1698119D02*
X1927300D01*
X1879450Y1697759D02*
X1927300D01*
X1879450Y1697399D02*
X1927300D01*
X1879450Y1697039D02*
X1927300D01*
X1879450Y1696679D02*
X1927300D01*
X1879450Y1696319D02*
X1927300D01*
X1879450Y1695959D02*
X1927300D01*
X1879450Y1695599D02*
X1927300D01*
X1879450Y1695239D02*
X1927300D01*
X1879450Y1694879D02*
X1927300D01*
X1879450Y1694519D02*
X1927300D01*
X1879450Y1694159D02*
X1927300D01*
X1879450Y1693799D02*
X1927300D01*
X1879450Y1693439D02*
X1927300D01*
X1879450Y1693079D02*
X1927300D01*
X1879450Y1692719D02*
X1927300D01*
X1879450Y1692359D02*
X1927300D01*
X1879450Y1691999D02*
X1927300D01*
X1879450Y1691639D02*
X1927300D01*
X1895450Y1729799D02*
X1927224D01*
X1895450Y1727279D02*
X1927170D01*
X1895450Y1729439D02*
X1927010D01*
X1895450Y1727639D02*
X1926976D01*
X1896976Y1746719D02*
X1926961D01*
X1895450Y1729079D02*
X1926877D01*
X1895450Y1727999D02*
X1926858D01*
X1895450Y1728719D02*
X1926811D01*
X1895450Y1728359D02*
X1926805D01*
X1896616Y1746359D02*
X1926601D01*
X1877463Y1496879D02*
X1926281D01*
X1896256Y1745999D02*
X1926241D01*
X1895896Y1745639D02*
X1925881D01*
X1895536Y1745279D02*
X1925521D01*
X1895450Y1744919D02*
X1925161D01*
X1884991Y1476359D02*
X1924979D01*
X1895450Y1744559D02*
X1924801D01*
X1878119Y1496519D02*
X1924529D01*
X1895450Y1744199D02*
X1924441D01*
X1895450Y1743839D02*
X1924081D01*
X1885133Y1476719D02*
X1923822D01*
X1895450Y1743479D02*
X1923721D01*
X1878711Y1496159D02*
X1923511D01*
X1895450Y1743119D02*
X1923361D01*
X1895450Y1742759D02*
X1923001D01*
X1885266Y1477079D02*
X1922979D01*
X1879251Y1495799D02*
X1922732D01*
X1895450Y1738439D02*
X1922731D01*
X1895450Y1742399D02*
X1922389D01*
X1885389Y1477439D02*
X1922295D01*
X1895450Y1738799D02*
X1922105D01*
X1879748Y1495439D02*
X1922087D01*
X1895450Y1742039D02*
X1921928D01*
X1895450Y1739159D02*
X1921756D01*
X1885503Y1477799D02*
X1921713D01*
X1895450Y1741679D02*
X1921642D01*
X1880209Y1495079D02*
X1921533D01*
X1895450Y1739519D02*
X1921531D01*
X1895450Y1741319D02*
X1921458D01*
X1895450Y1739879D02*
X1921390D01*
X1895450Y1740959D02*
X1921348D01*
X1895450Y1740239D02*
X1921316D01*
X1895450Y1740599D02*
X1921302D01*
X1885607Y1478159D02*
X1921205D01*
X1880637Y1494719D02*
X1921046D01*
X1885703Y1478519D02*
X1920755D01*
X1881037Y1494359D02*
X1920612D01*
X1885790Y1478879D02*
X1920350D01*
X1881411Y1493999D02*
X1920222D01*
X1885868Y1479239D02*
X1919985D01*
X1881763Y1493639D02*
X1919868D01*
X1886008Y1607399D02*
X1919848D01*
X1885938Y1479599D02*
X1919653D01*
X1882094Y1493279D02*
X1919547D01*
X1885999Y1479959D02*
X1919351D01*
X1886195Y1611359D02*
X1919323D01*
X1882405Y1492919D02*
X1919254D01*
X1885804Y1607759D02*
X1919155D01*
X1913375Y1604519D02*
X1919125D01*
X1886052Y1480319D02*
X1919074D01*
X1882699Y1492559D02*
X1918986D01*
X1913535Y1600559D02*
X1918965D01*
X1886142Y1610999D02*
X1918889D01*
X1886097Y1480679D02*
X1918822D01*
X1885490Y1608119D02*
X1918788D01*
X1882976Y1492199D02*
X1918741D01*
X1886024Y1610639D02*
X1918618D01*
X1886134Y1481039D02*
X1918591D01*
X1913945Y1604159D02*
X1918555D01*
X1884962Y1608479D02*
X1918551D01*
X1883237Y1491839D02*
X1918517D01*
X1914030Y1600919D02*
X1918470D01*
X1885830Y1610279D02*
X1918442D01*
X1852700Y1608839D02*
X1918402D01*
X1886163Y1481399D02*
X1918380D01*
X1885530Y1609919D02*
X1918340D01*
X1852700Y1609199D02*
X1918321D01*
X1883484Y1491479D02*
X1918312D01*
X1885035Y1609559D02*
X1918301D01*
X1914276Y1603799D02*
X1918224D01*
X1886183Y1481759D02*
X1918187D01*
X1914330Y1601279D02*
X1918170D01*
X1883717Y1491119D02*
X1918126D01*
X1886196Y1482119D02*
X1918013D01*
X1914490Y1603439D02*
X1918010D01*
X1914524Y1601639D02*
X1917976D01*
X1883937Y1490759D02*
X1917957D01*
X1914623Y1603079D02*
X1917877D01*
X1914642Y1601999D02*
X1917858D01*
X1886200Y1482479D02*
X1917855D01*
X1914689Y1602719D02*
X1917811D01*
X1914695Y1602359D02*
X1917805D01*
X1884144Y1490399D02*
X1917804D01*
X1886196Y1482839D02*
X1917712D01*
X1884339Y1490039D02*
X1917667D01*
X1886185Y1483199D02*
X1917585D01*
X1884523Y1489679D02*
X1917545D01*
X1886165Y1483559D02*
X1917472D01*
X1884695Y1489319D02*
X1917437D01*
X1886138Y1483919D02*
X1917374D01*
X1884857Y1488959D02*
X1917343D01*
X1886102Y1484279D02*
X1917289D01*
X1885008Y1488599D02*
X1917263D01*
X1886058Y1484639D02*
X1917217D01*
X1885150Y1488239D02*
X1917196D01*
X1886006Y1484999D02*
X1917158D01*
X1885281Y1487879D02*
X1917141D01*
X1885946Y1485359D02*
X1917112D01*
X1885403Y1487519D02*
X1917100D01*
X1885877Y1485719D02*
X1917079D01*
X1885516Y1487159D02*
X1917071D01*
X1885800Y1486079D02*
X1917058D01*
X1885619Y1486799D02*
X1917054D01*
X1885714Y1486439D02*
X1917050D01*
X1884956Y1604519D02*
X1911625D01*
X1885988Y1600559D02*
X1911465D01*
X1852700Y1604159D02*
X1911055D01*
X1886122Y1600919D02*
X1910970D01*
X1852700Y1603799D02*
X1910724D01*
X1886189Y1601279D02*
X1910670D01*
X1885040Y1603439D02*
X1910510D01*
X1886196Y1601639D02*
X1910476D01*
X1885532Y1603079D02*
X1910377D01*
X1886143Y1601999D02*
X1910358D01*
X1885832Y1602719D02*
X1910311D01*
X1886026Y1602359D02*
X1910305D01*
X1900286Y1615319D02*
X1903214D01*
X1900516Y1619639D02*
X1902984D01*
X1901234Y1615679D02*
X1902266D01*
X1901295Y1619279D02*
X1902205D01*
X1901665Y1616039D02*
X1901835D01*
X1879365Y1755719D02*
X1900579D01*
X1879854Y1755359D02*
X1900101D01*
X1880306Y1754999D02*
X1899741D01*
X1896786Y1615319D02*
X1899714D01*
X1897016Y1619639D02*
X1899484D01*
X1880728Y1754639D02*
X1899381D01*
X1881122Y1754279D02*
X1899021D01*
X1897734Y1615679D02*
X1898766D01*
X1897795Y1619279D02*
X1898705D01*
X1881491Y1753919D02*
X1898661D01*
X1898165Y1616039D02*
X1898335D01*
X1881838Y1753559D02*
X1898301D01*
X1882165Y1753199D02*
X1897941D01*
X1882472Y1752839D02*
X1897581D01*
X1882762Y1752479D02*
X1897221D01*
X1883035Y1752119D02*
X1896861D01*
X1883294Y1751759D02*
X1896501D01*
X1852700Y1615319D02*
X1896214D01*
X1883537Y1751399D02*
X1896141D01*
X1883656Y1619639D02*
X1895984D01*
X1883767Y1751039D02*
X1895781D01*
X1883984Y1750679D02*
X1895421D01*
X1852700Y1615679D02*
X1895266D01*
X1882563Y1619279D02*
X1895205D01*
X1884188Y1750319D02*
X1895061D01*
X1852700Y1616039D02*
X1894855D01*
X1881119Y1618919D02*
X1894819D01*
X1884381Y1749959D02*
X1894701D01*
X1852700Y1616399D02*
X1894595D01*
X1878059Y1618559D02*
X1894571D01*
X1852700Y1616759D02*
X1894429D01*
X1852700Y1618199D02*
X1894414D01*
X1884562Y1749599D02*
X1894341D01*
X1852700Y1617119D02*
X1894333D01*
X1852700Y1617839D02*
X1894326D01*
X1852700Y1617479D02*
X1894300D01*
X1884732Y1749239D02*
X1893981D01*
X1884891Y1748879D02*
X1893621D01*
X1885040Y1748519D02*
X1893261D01*
X1885180Y1748159D02*
X1892901D01*
X1885309Y1747799D02*
X1892541D01*
X1885429Y1747439D02*
X1892181D01*
X1885540Y1747079D02*
X1891875D01*
X1885641Y1746719D02*
X1891687D01*
X1885734Y1746359D02*
X1891583D01*
X1885818Y1745999D02*
X1891550D01*
X1885893Y1745639D02*
X1891550D01*
X1885960Y1745279D02*
X1891550D01*
X1886018Y1744919D02*
X1891550D01*
X1886069Y1744559D02*
X1891550D01*
X1886111Y1744199D02*
X1891550D01*
X1886145Y1743839D02*
X1891550D01*
X1886170Y1743479D02*
X1891550D01*
X1886188Y1743119D02*
X1891550D01*
X1886198Y1742759D02*
X1891550D01*
X1886200Y1742399D02*
X1891550D01*
X1886193Y1742039D02*
X1891550D01*
X1886179Y1741679D02*
X1891550D01*
X1886157Y1741319D02*
X1891550D01*
X1886127Y1740959D02*
X1891550D01*
X1886088Y1740599D02*
X1891550D01*
X1886041Y1740239D02*
X1891550D01*
X1885987Y1739879D02*
X1891550D01*
X1885923Y1739519D02*
X1891550D01*
X1885852Y1739159D02*
X1891550D01*
X1885772Y1738799D02*
X1891550D01*
X1885683Y1738439D02*
X1891550D01*
X1885585Y1738079D02*
X1891550D01*
X1885478Y1737719D02*
X1891550D01*
X1885363Y1737359D02*
X1891550D01*
X1885237Y1736999D02*
X1891550D01*
X1885103Y1736639D02*
X1891550D01*
X1884958Y1736279D02*
X1891550D01*
X1884803Y1735919D02*
X1891550D01*
X1884638Y1735559D02*
X1891550D01*
X1884461Y1735199D02*
X1891550D01*
X1884274Y1734839D02*
X1891550D01*
X1884075Y1734479D02*
X1891550D01*
X1883863Y1734119D02*
X1891550D01*
X1883639Y1733759D02*
X1891550D01*
X1883402Y1733399D02*
X1891550D01*
X1883150Y1733039D02*
X1891550D01*
X1882883Y1732679D02*
X1891550D01*
X1882601Y1732319D02*
X1891550D01*
X1882301Y1731959D02*
X1891550D01*
X1881983Y1731599D02*
X1891550D01*
X1881646Y1731239D02*
X1891550D01*
X1881287Y1730879D02*
X1891550D01*
X1880904Y1730519D02*
X1891550D01*
X1880494Y1730159D02*
X1891550D01*
X1880056Y1729799D02*
X1891550D01*
X1879583Y1729439D02*
X1891550D01*
X1879072Y1729079D02*
X1891550D01*
X1878516Y1728719D02*
X1891550D01*
X1877903Y1728359D02*
X1891550D01*
X1877222Y1727999D02*
X1891550D01*
X1876448Y1727639D02*
X1891550D01*
X1875545Y1727279D02*
X1891550D01*
X1874434Y1726919D02*
X1891550D01*
X1872884Y1726559D02*
X1891550D01*
X1852700Y1726199D02*
X1891550D01*
X1852700Y1725839D02*
X1891550D01*
X1852700Y1725479D02*
X1891550D01*
X1852700Y1725119D02*
X1891550D01*
X1852700Y1724759D02*
X1891550D01*
X1852700Y1724399D02*
X1891550D01*
X1871285Y1724039D02*
X1891550D01*
X1872269Y1723679D02*
X1891550D01*
X1872896Y1723319D02*
X1891550D01*
X1873372Y1722959D02*
X1891550D01*
X1873754Y1722599D02*
X1891550D01*
X1874068Y1722239D02*
X1891550D01*
X1874331Y1721879D02*
X1891550D01*
X1874549Y1721519D02*
X1891550D01*
X1874731Y1721159D02*
X1891550D01*
X1874879Y1720799D02*
X1891528D01*
X1874997Y1720439D02*
X1891181D01*
X1875087Y1720079D02*
X1890821D01*
X1875150Y1719719D02*
X1890461D01*
X1875188Y1719359D02*
X1890101D01*
X1875200Y1718999D02*
X1889741D01*
X1875187Y1718639D02*
X1889381D01*
X1875150Y1718279D02*
X1889021D01*
X1875086Y1717919D02*
X1888661D01*
X1874996Y1717559D02*
X1888301D01*
X1874878Y1717199D02*
X1887941D01*
X1874730Y1716839D02*
X1887581D01*
X1874548Y1716479D02*
X1887221D01*
X1874329Y1716119D02*
X1886861D01*
X1874066Y1715759D02*
X1886501D01*
X1873751Y1715399D02*
X1886141D01*
X1873369Y1715039D02*
X1885781D01*
X1872892Y1714679D02*
X1885421D01*
X1872264Y1714319D02*
X1885061D01*
X1871275Y1713959D02*
X1884701D01*
X1852700Y1713599D02*
X1884341D01*
X1852700Y1713239D02*
X1883981D01*
X1852700Y1712879D02*
X1883621D01*
X1852700Y1712519D02*
X1883261D01*
X1871869Y1599479D02*
X1883131D01*
X1871875Y1613519D02*
X1883125D01*
X1871956Y1604519D02*
X1883044D01*
X1871962Y1608479D02*
X1883038D01*
X1872035Y1609559D02*
X1882965D01*
X1872040Y1603439D02*
X1882960D01*
X1852700Y1712159D02*
X1882901D01*
X1872442Y1599839D02*
X1882558D01*
X1872445Y1613159D02*
X1882555D01*
X1852700Y1711799D02*
X1882541D01*
X1872487Y1604879D02*
X1882513D01*
X1872490Y1608119D02*
X1882510D01*
X1872530Y1609919D02*
X1882470D01*
X1872532Y1603079D02*
X1882468D01*
X1872774Y1600199D02*
X1882226D01*
X1872776Y1612799D02*
X1882224D01*
X1872803Y1605239D02*
X1882197D01*
X1872804Y1607759D02*
X1882196D01*
X1852700Y1711439D02*
X1882181D01*
X1872830Y1610279D02*
X1882170D01*
X1872832Y1602719D02*
X1882168D01*
X1872988Y1600559D02*
X1882012D01*
X1872990Y1612439D02*
X1882010D01*
X1873007Y1605599D02*
X1881993D01*
X1873008Y1607399D02*
X1881992D01*
X1873024Y1610639D02*
X1881976D01*
X1873026Y1602359D02*
X1881974D01*
X1873122Y1600919D02*
X1881878D01*
X1873123Y1612079D02*
X1881877D01*
X1873132Y1605959D02*
X1881868D01*
X1873133Y1607039D02*
X1881867D01*
X1873142Y1610999D02*
X1881858D01*
X1873143Y1601999D02*
X1881857D01*
X1852700Y1711079D02*
X1881821D01*
X1873189Y1601279D02*
X1881811D01*
X1873189Y1611719D02*
X1881811D01*
X1873193Y1606319D02*
X1881807D01*
X1873193Y1606679D02*
X1881807D01*
X1873195Y1611359D02*
X1881805D01*
X1873196Y1601639D02*
X1881804D01*
X1852700Y1710719D02*
X1881461D01*
X1852700Y1710359D02*
X1881101D01*
X1852700Y1709999D02*
X1880741D01*
X1852700Y1709639D02*
X1880381D01*
X1852700Y1709279D02*
X1880021D01*
X1852700Y1708919D02*
X1879661D01*
X1852700Y1708559D02*
X1879301D01*
X1852700Y1708199D02*
X1878941D01*
X1852700Y1707839D02*
X1878581D01*
X1852700Y1707479D02*
X1878221D01*
X1852700Y1707119D02*
X1877861D01*
X1852700Y1706759D02*
X1877501D01*
X1852700Y1706399D02*
X1877141D01*
X1852700Y1618559D02*
X1876941D01*
X1852700Y1706039D02*
X1876781D01*
X1852700Y1705679D02*
X1876421D01*
X1852700Y1705319D02*
X1876063D01*
X1852700Y1704959D02*
X1875802D01*
X1852700Y1704599D02*
X1875644D01*
X1852700Y1704239D02*
X1875565D01*
X1852700Y1703879D02*
X1875550D01*
X1852700Y1703519D02*
X1875550D01*
X1852700Y1703159D02*
X1875550D01*
X1852700Y1702799D02*
X1875550D01*
X1852700Y1702439D02*
X1875550D01*
X1852700Y1702079D02*
X1875550D01*
X1852700Y1701719D02*
X1875550D01*
X1852700Y1701359D02*
X1875550D01*
X1852700Y1700999D02*
X1875550D01*
X1852700Y1700639D02*
X1875550D01*
X1852700Y1700279D02*
X1875550D01*
X1852700Y1699919D02*
X1875550D01*
X1852700Y1699559D02*
X1875550D01*
X1852700Y1699199D02*
X1875550D01*
X1852700Y1698839D02*
X1875550D01*
X1852700Y1698479D02*
X1875550D01*
X1852700Y1698119D02*
X1875550D01*
X1852700Y1697759D02*
X1875550D01*
X1852700Y1697399D02*
X1875550D01*
X1852700Y1697039D02*
X1875550D01*
X1852700Y1696679D02*
X1875550D01*
X1852700Y1696319D02*
X1875550D01*
X1852700Y1695959D02*
X1875550D01*
X1852700Y1695599D02*
X1875550D01*
X1852700Y1695239D02*
X1875550D01*
X1852700Y1694879D02*
X1875550D01*
X1852700Y1694519D02*
X1875550D01*
X1852700Y1694159D02*
X1875550D01*
X1852700Y1693799D02*
X1875550D01*
X1852700Y1693439D02*
X1875550D01*
X1852700Y1693079D02*
X1875550D01*
X1852700Y1692719D02*
X1875550D01*
X1852700Y1692359D02*
X1875550D01*
X1852700Y1691999D02*
X1875550D01*
X1852700Y1691639D02*
X1875550D01*
X1852700Y1691279D02*
X1875550D01*
X1852700Y1690919D02*
X1875550D01*
X1852700Y1690559D02*
X1875550D01*
X1852700Y1690199D02*
X1875550D01*
X1852700Y1689839D02*
X1875550D01*
X1852700Y1689479D02*
X1875550D01*
X1852700Y1689119D02*
X1875550D01*
X1852700Y1688759D02*
X1875550D01*
X1852700Y1688399D02*
X1875550D01*
X1852700Y1688039D02*
X1875550D01*
X1852700Y1687679D02*
X1875550D01*
X1852700Y1687319D02*
X1875550D01*
X1852700Y1686959D02*
X1875550D01*
X1852700Y1686599D02*
X1875550D01*
X1852700Y1686239D02*
X1875550D01*
X1852700Y1685879D02*
X1875550D01*
X1852700Y1685519D02*
X1875550D01*
X1852700Y1685159D02*
X1875550D01*
X1852700Y1684799D02*
X1875550D01*
X1852700Y1684439D02*
X1875550D01*
X1852700Y1684079D02*
X1875550D01*
X1852700Y1683719D02*
X1875550D01*
X1852700Y1683359D02*
X1875550D01*
X1852700Y1682999D02*
X1875550D01*
X1852700Y1682639D02*
X1875550D01*
X1852700Y1682279D02*
X1875550D01*
X1852700Y1681919D02*
X1875550D01*
X1852700Y1661399D02*
X1874823D01*
X1852700Y1681559D02*
X1874667D01*
X1852700Y1654199D02*
X1874507D01*
X1852700Y1618919D02*
X1873881D01*
X1852700Y1661759D02*
X1873717D01*
X1852700Y1681199D02*
X1873609D01*
X1852700Y1662119D02*
X1872896D01*
X1852700Y1653839D02*
X1872855D01*
X1852700Y1680839D02*
X1872810D01*
X1852700Y1619279D02*
X1872437D01*
X1852700Y1662479D02*
X1872226D01*
X1852700Y1680479D02*
X1872153D01*
X1852700Y1653479D02*
X1871675D01*
X1852700Y1662839D02*
X1871653D01*
X1852700Y1680119D02*
X1871591D01*
X1852700Y1619639D02*
X1871344D01*
X1852700Y1663199D02*
X1871152D01*
X1852700Y1679759D02*
X1871097D01*
X1852700Y1653119D02*
X1870716D01*
X1852700Y1663559D02*
X1870707D01*
X1852700Y1679399D02*
X1870658D01*
X1852700Y1619999D02*
X1870435D01*
X1852700Y1663919D02*
X1870308D01*
X1852700Y1679039D02*
X1870263D01*
X1852700Y1599479D02*
X1870131D01*
X1852700Y1613519D02*
X1870125D01*
X1852700Y1604519D02*
X1870044D01*
X1852700Y1608479D02*
X1870038D01*
X1852700Y1609559D02*
X1869965D01*
X1852700Y1603439D02*
X1869960D01*
X1852700Y1664279D02*
X1869946D01*
X1852700Y1678679D02*
X1869906D01*
X1852700Y1652759D02*
X1869894D01*
X1852700Y1620359D02*
X1869648D01*
X1852700Y1664639D02*
X1869618D01*
X1852700Y1678319D02*
X1869581D01*
X1852700Y1599839D02*
X1869558D01*
X1852700Y1613159D02*
X1869555D01*
X1852700Y1604879D02*
X1869513D01*
X1852700Y1608119D02*
X1869510D01*
X1852700Y1609919D02*
X1869470D01*
X1852700Y1603079D02*
X1869468D01*
X1852700Y1664999D02*
X1869319D01*
X1852700Y1677959D02*
X1869285D01*
X1852700Y1600199D02*
X1869226D01*
X1852700Y1612799D02*
X1869224D01*
X1852700Y1605239D02*
X1869197D01*
X1852700Y1607759D02*
X1869196D01*
X1852700Y1610279D02*
X1869170D01*
X1852700Y1498679D02*
X1869169D01*
X1852700Y1602719D02*
X1869168D01*
X1852700Y1652399D02*
X1869167D01*
X1852700Y1665359D02*
X1869045D01*
X1852700Y1677599D02*
X1869014D01*
X1852700Y1600559D02*
X1869012D01*
X1852700Y1612439D02*
X1869010D01*
X1852700Y1605599D02*
X1868993D01*
X1852700Y1607399D02*
X1868992D01*
X1852700Y1610639D02*
X1868976D01*
X1852700Y1602359D02*
X1868974D01*
X1852700Y1620719D02*
X1868947D01*
X1852700Y1600919D02*
X1868878D01*
X1852700Y1612079D02*
X1868877D01*
X1852700Y1605959D02*
X1868868D01*
X1852700Y1607039D02*
X1868867D01*
X1852700Y1610999D02*
X1868858D01*
X1852700Y1601999D02*
X1868857D01*
X1852700Y1601279D02*
X1868811D01*
X1852700Y1611719D02*
X1868811D01*
X1852700Y1606319D02*
X1868807D01*
X1852700Y1606679D02*
X1868807D01*
X1852700Y1611359D02*
X1868805D01*
X1852700Y1601639D02*
X1868804D01*
X1852700Y1665719D02*
X1868795D01*
X1852700Y1677239D02*
X1868767D01*
X1852700Y1713959D02*
X1868725D01*
X1852700Y1724039D02*
X1868715D01*
X1852700Y1666079D02*
X1868566D01*
X1852700Y1676879D02*
X1868540D01*
X1852700Y1652039D02*
X1868514D01*
X1852700Y1666439D02*
X1868357D01*
X1852700Y1676519D02*
X1868334D01*
X1852700Y1621079D02*
X1868314D01*
X1852700Y1758599D02*
X1868191D01*
X1852700Y1666799D02*
X1868167D01*
X1852700Y1676159D02*
X1868146D01*
X1852700Y1667159D02*
X1867994D01*
X1852700Y1675799D02*
X1867975D01*
X1852700Y1651679D02*
X1867918D01*
X1852700Y1667519D02*
X1867838D01*
X1852700Y1675439D02*
X1867821D01*
X1852700Y1714319D02*
X1867736D01*
X1852700Y1621439D02*
X1867735D01*
X1852700Y1723679D02*
X1867731D01*
X1852700Y1667879D02*
X1867697D01*
X1852700Y1675079D02*
X1867682D01*
X1852700Y1668239D02*
X1867572D01*
X1852700Y1674719D02*
X1867558D01*
X1852700Y1668599D02*
X1867461D01*
X1852700Y1674359D02*
X1867449D01*
X1852700Y1651319D02*
X1867370D01*
X1852700Y1668959D02*
X1867364D01*
X1852700Y1673999D02*
X1867353D01*
X1852700Y1669319D02*
X1867280D01*
X1852700Y1673639D02*
X1867271D01*
X1852700Y1669679D02*
X1867210D01*
X1852700Y1673279D02*
X1867202D01*
X1852700Y1621799D02*
X1867201D01*
X1852700Y1670039D02*
X1867153D01*
X1852700Y1672919D02*
X1867147D01*
X1852700Y1726559D02*
X1867116D01*
X1852700Y1670399D02*
X1867108D01*
X1852700Y1714679D02*
X1867108D01*
X1852700Y1672559D02*
X1867104D01*
X1852700Y1723319D02*
X1867104D01*
X1852700Y1670759D02*
X1867076D01*
X1852700Y1672199D02*
X1867073D01*
X1852700Y1671119D02*
X1867057D01*
X1852700Y1671839D02*
X1867055D01*
X1852700Y1671479D02*
X1867050D01*
X1852700Y1650959D02*
X1866863D01*
X1852700Y1622159D02*
X1866705D01*
X1852700Y1466639D02*
X1866705D01*
X1852700Y1715039D02*
X1866631D01*
X1852700Y1722959D02*
X1866628D01*
X1852700Y1498319D02*
X1866506D01*
X1852700Y1650599D02*
X1866390D01*
X1852700Y1715399D02*
X1866249D01*
X1852700Y1722599D02*
X1866246D01*
X1852700Y1622519D02*
X1866243D01*
X1852700Y1758239D02*
X1866161D01*
X1852700Y1650239D02*
X1865948D01*
X1852700Y1715759D02*
X1865934D01*
X1852700Y1722239D02*
X1865932D01*
X1852700Y1622879D02*
X1865810D01*
X1852700Y1716119D02*
X1865671D01*
X1852700Y1721879D02*
X1865669D01*
X1852700Y1726919D02*
X1865566D01*
X1852700Y1649879D02*
X1865533D01*
X1852700Y1716479D02*
X1865452D01*
X1852700Y1721519D02*
X1865451D01*
X1852700Y1623239D02*
X1865403D01*
X1852700Y1466999D02*
X1865294D01*
X1852700Y1716839D02*
X1865270D01*
X1852700Y1721159D02*
X1865269D01*
X1852700Y1497959D02*
X1865155D01*
X1852700Y1649519D02*
X1865142D01*
X1852700Y1717199D02*
X1865122D01*
X1852700Y1720799D02*
X1865121D01*
X1852700Y1623599D02*
X1865020D01*
X1852700Y1717559D02*
X1865004D01*
X1852700Y1720439D02*
X1865003D01*
X1852700Y1717919D02*
X1864914D01*
X1852700Y1720079D02*
X1864913D01*
X1852700Y1757879D02*
X1864907D01*
X1852700Y1718279D02*
X1864850D01*
X1852700Y1719719D02*
X1864850D01*
X1852700Y1718639D02*
X1864813D01*
X1852700Y1719359D02*
X1864812D01*
X1852700Y1718999D02*
X1864800D01*
X1852700Y1649159D02*
X1864774D01*
X1852700Y1623959D02*
X1864658D01*
X1852700Y1727279D02*
X1864455D01*
X1852700Y1648799D02*
X1864425D01*
X1852700Y1624319D02*
X1864316D01*
X1852700Y1467359D02*
X1864240D01*
X1852700Y1497599D02*
X1864129D01*
X1852700Y1648439D02*
X1864096D01*
X1852700Y1624679D02*
X1863992D01*
X1852700Y1757519D02*
X1863927D01*
X1852700Y1648079D02*
X1863784D01*
X1852700Y1625039D02*
X1863685D01*
X1852700Y1727639D02*
X1863552D01*
X1852700Y1647719D02*
X1863488D01*
X1852700Y1625399D02*
X1863395D01*
X1852700Y1467719D02*
X1863370D01*
X1852700Y1497239D02*
X1863276D01*
X1852700Y1647359D02*
X1863207D01*
X1852700Y1625759D02*
X1863119D01*
X1852700Y1757159D02*
X1863103D01*
X1852700Y1646999D02*
X1862940D01*
X1852700Y1626119D02*
X1862857D01*
X1852700Y1727999D02*
X1862778D01*
X1852700Y1646639D02*
X1862687D01*
X1852700Y1468079D02*
X1862620D01*
X1852700Y1626479D02*
X1862608D01*
X1852700Y1496879D02*
X1862537D01*
X1852700Y1646279D02*
X1862447D01*
X1852700Y1756799D02*
X1862385D01*
X1852700Y1626839D02*
X1862372D01*
X1852700Y1645919D02*
X1862220D01*
X1852700Y1627199D02*
X1862148D01*
X1852700Y1728359D02*
X1862097D01*
X1852700Y1645559D02*
X1862003D01*
X1852700Y1468439D02*
X1861955D01*
X1852700Y1627559D02*
X1861935D01*
X1852700Y1496519D02*
X1861881D01*
X1852700Y1645199D02*
X1861799D01*
X1852700Y1756439D02*
X1861744D01*
X1852700Y1627919D02*
X1861734D01*
X1852700Y1644839D02*
X1861604D01*
X1852700Y1628279D02*
X1861543D01*
X1852700Y1728719D02*
X1861484D01*
X1852700Y1644479D02*
X1861421D01*
X1852700Y1628639D02*
X1861363D01*
X1852700Y1468799D02*
X1861356D01*
X1852700Y1496159D02*
X1861289D01*
X1852700Y1644119D02*
X1861247D01*
X1852700Y1628999D02*
X1861193D01*
X1852700Y1756079D02*
X1861165D01*
X1852700Y1643759D02*
X1861083D01*
X1852700Y1629359D02*
X1861032D01*
X1852700Y1643399D02*
X1860929D01*
X1852700Y1729079D02*
X1860928D01*
X1852700Y1629719D02*
X1860880D01*
X1852700Y1469159D02*
X1860810D01*
X1852700Y1643039D02*
X1860783D01*
X1852700Y1495799D02*
X1860749D01*
X1852700Y1630079D02*
X1860738D01*
X1852700Y1642679D02*
X1860647D01*
X1852700Y1755719D02*
X1860635D01*
X1852700Y1630439D02*
X1860604D01*
X1852700Y1642319D02*
X1860519D01*
X1852700Y1630799D02*
X1860479D01*
X1852700Y1729439D02*
X1860417D01*
X1852700Y1641959D02*
X1860400D01*
X1852700Y1631159D02*
X1860363D01*
X1852700Y1469519D02*
X1860308D01*
X1852700Y1641599D02*
X1860289D01*
X1852700Y1631519D02*
X1860255D01*
X1852700Y1495439D02*
X1860252D01*
X1852700Y1641239D02*
X1860187D01*
X1852700Y1631879D02*
X1860155D01*
X1852700Y1755359D02*
X1860146D01*
X1852700Y1640879D02*
X1860092D01*
X1852700Y1632239D02*
X1860063D01*
X1852700Y1640519D02*
X1860006D01*
X1852700Y1632599D02*
X1859979D01*
X1852700Y1729799D02*
X1859944D01*
X1852700Y1640159D02*
X1859927D01*
X1852700Y1632959D02*
X1859903D01*
X1852700Y1639799D02*
X1859856D01*
X1852700Y1469879D02*
X1859844D01*
X1852700Y1633319D02*
X1859834D01*
X1852700Y1639439D02*
X1859792D01*
X1852700Y1495079D02*
X1859791D01*
X1852700Y1633679D02*
X1859773D01*
X1852700Y1639079D02*
X1859736D01*
X1852700Y1634039D02*
X1859720D01*
X1852700Y1754999D02*
X1859694D01*
X1852700Y1638719D02*
X1859688D01*
X1852700Y1634399D02*
X1859673D01*
X1852700Y1638359D02*
X1859646D01*
X1852700Y1634759D02*
X1859635D01*
X1852700Y1637999D02*
X1859613D01*
X1852700Y1635119D02*
X1859603D01*
X1852700Y1637639D02*
X1859586D01*
X1852700Y1635479D02*
X1859579D01*
X1852700Y1637279D02*
X1859567D01*
X1852700Y1635839D02*
X1859562D01*
X1852700Y1636919D02*
X1859555D01*
X1852700Y1636199D02*
X1859553D01*
X1852700Y1636559D02*
X1859550D01*
X1852700Y1730159D02*
X1859506D01*
X1852700Y1470239D02*
X1859412D01*
X1852700Y1494719D02*
X1859363D01*
X1852700Y1754639D02*
X1859272D01*
X1852700Y1730519D02*
X1859096D01*
X1852700Y1470599D02*
X1859009D01*
X1852700Y1494359D02*
X1858963D01*
X1852700Y1754279D02*
X1858878D01*
X1852700Y1730879D02*
X1858713D01*
X1852700Y1470959D02*
X1858632D01*
X1852700Y1493999D02*
X1858589D01*
X1852700Y1753919D02*
X1858509D01*
X1852700Y1731239D02*
X1858354D01*
X1852700Y1471319D02*
X1858277D01*
X1852700Y1493639D02*
X1858237D01*
X1852700Y1753559D02*
X1858162D01*
X1852700Y1731599D02*
X1858017D01*
X1852700Y1471679D02*
X1857944D01*
X1852700Y1493279D02*
X1857906D01*
X1852700Y1753199D02*
X1857835D01*
X1852700Y1731959D02*
X1857699D01*
X1852700Y1472039D02*
X1857631D01*
X1852700Y1492919D02*
X1857595D01*
X1852700Y1752839D02*
X1857528D01*
X1852700Y1732319D02*
X1857399D01*
X1852700Y1472399D02*
X1857335D01*
X1852700Y1492559D02*
X1857301D01*
X1852700Y1752479D02*
X1857238D01*
X1852700Y1732679D02*
X1857117D01*
X1852700Y1472759D02*
X1857056D01*
X1852700Y1492199D02*
X1857024D01*
X1852700Y1752119D02*
X1856965D01*
X1852700Y1733039D02*
X1856850D01*
X1852700Y1473119D02*
X1856793D01*
X1852700Y1491839D02*
X1856763D01*
X1852700Y1751759D02*
X1856706D01*
X1852700Y1733399D02*
X1856598D01*
X1852700Y1473479D02*
X1856544D01*
X1852700Y1491479D02*
X1856516D01*
X1852700Y1751399D02*
X1856463D01*
X1852700Y1733759D02*
X1856361D01*
X1852700Y1473839D02*
X1856310D01*
X1852700Y1491119D02*
X1856283D01*
X1852700Y1751039D02*
X1856233D01*
X1852700Y1734119D02*
X1856137D01*
X1852700Y1474199D02*
X1856089D01*
X1852700Y1490759D02*
X1856063D01*
X1852700Y1750679D02*
X1856016D01*
X1852700Y1734479D02*
X1855925D01*
X1852700Y1474559D02*
X1855880D01*
X1852700Y1490399D02*
X1855856D01*
X1852700Y1750319D02*
X1855812D01*
X1852700Y1734839D02*
X1855726D01*
X1852700Y1474919D02*
X1855683D01*
X1852700Y1490039D02*
X1855661D01*
X1852700Y1749959D02*
X1855619D01*
X1852700Y1735199D02*
X1855539D01*
X1852700Y1475279D02*
X1855499D01*
X1852700Y1489679D02*
X1855477D01*
X1852700Y1749599D02*
X1855438D01*
X1852700Y1735559D02*
X1855362D01*
X1852700Y1475639D02*
X1855325D01*
X1852700Y1489319D02*
X1855305D01*
X1852700Y1749239D02*
X1855268D01*
X1852700Y1735919D02*
X1855197D01*
X1852700Y1475999D02*
X1855162D01*
X1852700Y1488959D02*
X1855143D01*
X1852700Y1748879D02*
X1855109D01*
X1852700Y1736279D02*
X1855042D01*
X1852700Y1476359D02*
X1855009D01*
X1852700Y1488599D02*
X1854992D01*
X1852700Y1748519D02*
X1854960D01*
X1852700Y1736639D02*
X1854897D01*
X1852700Y1476719D02*
X1854867D01*
X1852700Y1488239D02*
X1854850D01*
X1852700Y1748159D02*
X1854820D01*
X1852700Y1736999D02*
X1854763D01*
X1852700Y1477079D02*
X1854734D01*
X1852700Y1487879D02*
X1854719D01*
X1852700Y1747799D02*
X1854691D01*
X1852700Y1737359D02*
X1854637D01*
X1852700Y1477439D02*
X1854611D01*
X1852700Y1487519D02*
X1854597D01*
X1852700Y1747439D02*
X1854571D01*
X1852700Y1737719D02*
X1854522D01*
X1852700Y1477799D02*
X1854497D01*
X1852700Y1487159D02*
X1854484D01*
X1852700Y1747079D02*
X1854460D01*
X1852700Y1738079D02*
X1854415D01*
X1852700Y1478159D02*
X1854393D01*
X1852700Y1486799D02*
X1854381D01*
X1852700Y1746719D02*
X1854359D01*
X1852700Y1738439D02*
X1854317D01*
X1852700Y1478519D02*
X1854297D01*
X1852700Y1486439D02*
X1854286D01*
X1852700Y1746359D02*
X1854266D01*
X1852700Y1738799D02*
X1854228D01*
X1852700Y1478879D02*
X1854210D01*
X1852700Y1486079D02*
X1854200D01*
X1852700Y1745999D02*
X1854182D01*
X1852700Y1739159D02*
X1854148D01*
X1852700Y1479239D02*
X1854132D01*
X1852700Y1485719D02*
X1854123D01*
X1852700Y1745639D02*
X1854107D01*
X1852700Y1739519D02*
X1854077D01*
X1852700Y1479599D02*
X1854062D01*
X1852700Y1485359D02*
X1854054D01*
X1852700Y1745279D02*
X1854040D01*
X1852700Y1739879D02*
X1854013D01*
X1852700Y1479959D02*
X1854001D01*
X1852700Y1484999D02*
X1853994D01*
X1852700Y1744919D02*
X1853982D01*
X1852700Y1740239D02*
X1853959D01*
X1852700Y1480319D02*
X1853948D01*
X1852700Y1484639D02*
X1853942D01*
X1852700Y1744559D02*
X1853931D01*
X1852700Y1740599D02*
X1853912D01*
X1852700Y1480679D02*
X1853903D01*
X1852700Y1484279D02*
X1853898D01*
X1852700Y1744199D02*
X1853889D01*
X1852700Y1740959D02*
X1853873D01*
X1852700Y1481039D02*
X1853866D01*
X1852700Y1483919D02*
X1853862D01*
X1852700Y1743839D02*
X1853855D01*
X1852700Y1741319D02*
X1853843D01*
X1852700Y1481399D02*
X1853837D01*
X1852700Y1483559D02*
X1853835D01*
X1852700Y1743479D02*
X1853830D01*
X1852700Y1741679D02*
X1853821D01*
X1852700Y1481759D02*
X1853817D01*
X1852700Y1483199D02*
X1853815D01*
X1852700Y1743119D02*
X1853812D01*
X1852700Y1742039D02*
X1853807D01*
X1852700Y1482119D02*
X1853804D01*
X1852700Y1482839D02*
X1853804D01*
X1852700Y1742759D02*
X1853802D01*
X1852700Y1742399D02*
X1853800D01*
X1852700Y1482479D02*
X1853800D01*
G54D181*
X1877500Y1521500D03*
Y1671500D03*
X1927500Y1486500D03*
X2062500D03*
X2097500D03*
X2122500Y1679000D03*
G74*
X0Y0D02*
M02*
