%
T1C.006F0S0
X00026Y-0002
X-00004Y-00018
X-0002Y-00018
X-00005Y0
X-0002Y0
X-0002Y00018
X-00004Y00018
X00026Y00018
T2C.008F0S0
X-01135Y-00165
X-01265Y-00165
X-01135Y-0011
X-01265Y-0011
X-01135Y-00065
X-01265Y-00065
X-01135Y0005
X-01265Y0005
X-01265Y001
X-01135Y001
X-01265Y0015
X-01135Y0015
X-0074Y0144
X-00685Y0132
X-00595Y00745
X-00565Y00325
X-0101Y0021
X-0094Y0021
X-00975Y0021
X-0053Y002
X-0077Y0013
X-00775Y0006
X-0085Y0006
X-0085Y-0006
X-00775Y-0006
X-00975Y-002
X-01015Y-002
X-00935Y-002
X-00075Y-0122
X-0005Y-01135
X-0007Y-011
X-0007Y-0106
X-0007Y-0104
X-0007Y-00235
X-0003Y-00235
X-0009Y-00235
X-0005Y-00235
X-003Y-0017
X-0034Y-0017
X-0026Y-0017
X-00115Y-00155
X-00135Y-00155
X-0034Y-00145
X-003Y-00145
X-0026Y-00145
X-00135Y-0013
X-00115Y-0013
X-00055Y-00065
X-0008Y-00015
X-00055Y00055
X-00415Y00085
X-003Y00135
X-0025Y00135
X-002Y00135
X-0009Y00175
X-0007Y00175
X-0005Y00175
X-0003Y00175
X-0025Y00175
X-002Y00175
X-003Y00175
X-00045Y00305
X-0007Y00305
X-00375Y0075
X-00125Y0075
X-0034Y0141
X-0034Y0149
X001Y0075
X00025Y0024
X00165Y00135
X00025Y0011
X0005Y0009
X0Y0009
X0011Y0004
X00115Y0001
X001Y-00015
X00115Y-0004
X00165Y-00065
X0006Y-0009
X00025Y-00095
X0009Y-0013
X00115Y-0013
X0009Y-00155
X00115Y-00155
X00075Y-00235
X00035Y-00235
X00055Y-00235
X00015Y-00235
X0009Y-00975
X0005Y-0104
X0005Y-0106
X0005Y-011
X00325Y0075
X00775Y0075
X0055Y00755
X0078Y0126
X00995Y0123
X0125Y0055
X0125Y0035
X0125Y0015
X0125Y-0005
X0125Y-0025
X01055Y-0038
X0125Y-0045
T3C.035F197S55
X-00575Y01327
X-00575Y01406
X-00575Y01485
X00275Y015
X00375Y015
X-00125Y01485
X-00125Y01406
X00375Y014
X00275Y014
X-00125Y01327
X00475Y014
X00575Y014
X00675Y014
X00775Y014
X00875Y014
X00675Y015
X00575Y015
X00775Y015
X00475Y015
X00875Y015
T4C.07F081S55
X01325Y-009
X-01275Y01225
T5C.095F066S55
X-007Y-011
X-012Y-0075
X-012Y0075
X0065Y-011
X01Y-011
X0125Y00825
T6C.187F035S1033
X-01275Y-0114
X-01275Y0146
X01325Y0146
X01325Y-0114
T7C.215F0S0
X-0035Y-011
X-012Y-004
X-012Y004
X003Y-011
M30
