*
*
G04 PADS VX.1.1 Build Number: 678707 generated Gerber (RS-274-X) file*
G04 PC Version=2.1*
*
%IN "DC3145A2-0922.pcb"*%
*
%MOIN*%
*
%FSLAX35Y35*%
*
*
*
*
G04 PC Standard Apertures*
*
*
G04 Thermal Relief Aperture macro.*
%AMTER*
1,1,$1,0,0*
1,0,$1-$2,0,0*
21,0,$3,$4,0,0,45*
21,0,$3,$4,0,0,135*
%
*
*
G04 Annular Aperture macro.*
%AMANN*
1,1,$1,0,0*
1,0,$2,0,0*
%
*
*
G04 Odd Aperture macro.*
%AMODD*
1,1,$1,0,0*
1,0,$1-0.005,0,0*
%
*
*
G04 PC Custom Aperture Macros*
*
*
*
*
*
*
G04 PC Aperture Table*
*
%ADD013C,0.01*%
%ADD017R,0.02953X0.0315*%
%ADD020R,0.06X0.06*%
%ADD021C,0.06*%
%ADD035C,0.001*%
%ADD071C,0.07*%
%ADD075R,0.0315X0.02953*%
%ADD133C,0.28*%
%ADD134C,0.325*%
%ADD173R,0.065X0.04*%
%ADD181C,0.175*%
%ADD184R,0.00984X0.02559*%
%ADD185R,0.02559X0.00984*%
%ADD186R,0.01181X0.02559*%
%ADD187R,0.03937X0.02756*%
%ADD188R,0.025X0.02*%
%ADD189R,0.06299X0.1378*%
%ADD190R,0.216X0.056*%
%ADD193R,0.15X0.08*%
*
*
*
*
G04 PC Circuitry*
G04 Layer Name DC3145A2-0922.pcb - circuitry*
%LPD*%
*
*
G04 PC Custom Flashes*
G04 Layer Name DC3145A2-0922.pcb - flashes*
%LPD*%
*
*
G04 PC Circuitry*
G04 Layer Name DC3145A2-0922.pcb - circuitry*
%LPD*%
*
G54D13*
G01X1866818Y1456563D02*
X1865000Y1450000D01*
X1866818Y1456563D02*
X1868636Y1450000D01*
X1865682Y1452188D02*
X1867955D01*
X1870682Y1456563D02*
Y1450000D01*
Y1456563D02*
X1873864Y1450000D01*
Y1456563D02*
Y1450000D01*
X1877727Y1456563D02*
X1875909Y1450000D01*
X1877727Y1456563D02*
X1879545Y1450000D01*
X1876591Y1452188D02*
X1878864D01*
X1881591Y1456563D02*
Y1450000D01*
X1884318*
X1887727Y1456563D02*
X1887273Y1456250D01*
X1886818Y1455625*
X1886591Y1455000*
X1886364Y1454063*
X1886364D02*
Y1452500D01*
X1886591Y1451563*
X1886591D02*
X1886818Y1450938D01*
X1886818D02*
X1887273Y1450313D01*
X1887273D02*
X1887727Y1450000D01*
X1888636*
X1889091Y1450313*
X1889091D02*
X1889545Y1450938D01*
X1889545D02*
X1889773Y1451563D01*
X1889773D02*
X1890000Y1452500D01*
Y1454063*
X1890000D02*
X1889773Y1455000D01*
X1889545Y1455625*
X1889091Y1456250*
X1888636Y1456563*
X1888636D02*
X1887727D01*
X1895455Y1455000D02*
X1895227Y1455625D01*
X1894773Y1456250*
X1894318Y1456563*
X1894318D02*
X1893409D01*
X1893409D02*
X1892955Y1456250D01*
X1892500Y1455625*
X1892273Y1455000*
X1892045Y1454063*
X1892045D02*
Y1452500D01*
X1892273Y1451563*
X1892273D02*
X1892500Y1450938D01*
X1892500D02*
X1892955Y1450313D01*
X1892955D02*
X1893409Y1450000D01*
X1894318*
X1894773Y1450313*
X1894773D02*
X1895227Y1450938D01*
X1895227D02*
X1895455Y1451563D01*
X1895455D02*
Y1452500D01*
X1894318D02*
X1895455D01*
X1902727Y1456563D02*
Y1450000D01*
Y1456563D02*
X1904318D01*
X1904318D02*
X1905000Y1456250D01*
X1905455Y1455625*
X1905682Y1455000*
X1905909Y1454063*
X1905909D02*
Y1452500D01*
X1905682Y1451563*
X1905682D02*
X1905455Y1450938D01*
X1905455D02*
X1905000Y1450313D01*
X1905000D02*
X1904318Y1450000D01*
X1902727*
X1907955Y1456563D02*
Y1450000D01*
Y1456563D02*
X1910909D01*
X1907955Y1453438D02*
X1909773D01*
X1907955Y1450000D02*
X1910909D01*
X1912955Y1456563D02*
X1914773Y1450000D01*
X1916591Y1456563D02*
X1914773Y1450000D01*
X1918636Y1456563D02*
Y1450000D01*
X1924091Y1455000D02*
X1923864Y1455625D01*
X1923409Y1456250*
X1922955Y1456563*
X1922955D02*
X1922045D01*
X1922045D02*
X1921591Y1456250D01*
X1921136Y1455625*
X1920909Y1455000*
X1920682Y1454063*
X1920682D02*
Y1452500D01*
X1920909Y1451563*
X1920909D02*
X1921136Y1450938D01*
X1921136D02*
X1921591Y1450313D01*
X1921591D02*
X1922045Y1450000D01*
X1922955*
X1923409Y1450313*
X1923409D02*
X1923864Y1450938D01*
X1923864D02*
X1924091Y1451563D01*
X1926136Y1456563D02*
Y1450000D01*
Y1456563D02*
X1929091D01*
X1926136Y1453438D02*
X1927955D01*
X1926136Y1450000D02*
X1929091D01*
X1934318Y1455625D02*
X1933864Y1456250D01*
X1933182Y1456563*
X1933182D02*
X1932273D01*
X1932273D02*
X1931591Y1456250D01*
X1931136Y1455625*
Y1455000*
X1931364Y1454375*
X1931591Y1454063*
X1931591D02*
X1932045Y1453750D01*
X1933409Y1453125*
X1933864Y1452813*
X1933864D02*
X1934091Y1452500D01*
X1934318Y1451875*
Y1450938*
X1934318D02*
X1933864Y1450313D01*
X1933864D02*
X1933182Y1450000D01*
X1932273*
X1931591Y1450313*
X1931591D02*
X1931136Y1450938D01*
X1920000Y1444063D02*
Y1437500D01*
Y1444063D02*
X1921591D01*
X1921591D02*
X1922273Y1443750D01*
X1922727Y1443125*
X1922955Y1442500*
X1923182Y1441563*
X1923182D02*
Y1440000D01*
X1922955Y1439063*
X1922955D02*
X1922727Y1438438D01*
X1922727D02*
X1922273Y1437813D01*
X1922273D02*
X1921591Y1437500D01*
X1920000*
X1927045Y1444063D02*
X1925227Y1437500D01*
X1927045Y1444063D02*
X1928864Y1437500D01*
X1925909Y1439688D02*
X1928182D01*
X1932500Y1444063D02*
Y1437500D01*
X1930909Y1444063D02*
X1934091D01*
X1936136D02*
Y1437500D01*
Y1444063D02*
X1939091D01*
X1936136Y1440938D02*
X1937955D01*
X1936136Y1437500D02*
X1939091D01*
X1941364Y1441875D02*
X1941136Y1441563D01*
X1941136D02*
X1941364Y1441250D01*
X1941591Y1441563*
X1941591D02*
X1941364Y1441875D01*
Y1438125D02*
X1941136Y1437813D01*
X1941136D02*
X1941364Y1437500D01*
X1941591Y1437813*
X1941591D02*
X1941364Y1438125D01*
X1950227Y1444063D02*
X1949545Y1443750D01*
X1949091Y1442813*
X1949091D02*
X1948864Y1441250D01*
Y1440313*
X1948864D02*
X1949091Y1438750D01*
X1949545Y1437813*
X1949545D02*
X1950227Y1437500D01*
X1950682*
X1951364Y1437813*
X1951364D02*
X1951818Y1438750D01*
X1952045Y1440313*
X1952045D02*
Y1441250D01*
X1951818Y1442813*
X1951818D02*
X1951364Y1443750D01*
X1950682Y1444063*
X1950682D02*
X1950227D01*
X1957045Y1441875D02*
X1956818Y1440938D01*
X1956818D02*
X1956364Y1440313D01*
X1956364D02*
X1955682Y1440000D01*
X1955455*
X1954773Y1440313*
X1954773D02*
X1954318Y1440938D01*
X1954318D02*
X1954091Y1441875D01*
Y1442188*
X1954091D02*
X1954318Y1443125D01*
X1954773Y1443750*
X1955455Y1444063*
X1955455D02*
X1955682D01*
X1955682D02*
X1956364Y1443750D01*
X1956818Y1443125*
X1957045Y1441875*
Y1440313*
X1957045D02*
X1956818Y1438750D01*
X1956364Y1437813*
X1956364D02*
X1955682Y1437500D01*
X1955227*
X1954545Y1437813*
X1954545D02*
X1954318Y1438438D01*
X1959091Y1440313D02*
X1963182D01*
X1965455Y1442500D02*
Y1442813D01*
X1965455D02*
X1965682Y1443438D01*
X1965682D02*
X1965909Y1443750D01*
X1966364Y1444063*
X1966364D02*
X1967273D01*
X1967273D02*
X1967727Y1443750D01*
X1967955Y1443438*
X1967955D02*
X1968182Y1442813D01*
X1968182D02*
Y1442188D01*
X1968182D02*
X1967955Y1441563D01*
X1967955D02*
X1967500Y1440625D01*
X1965227Y1437500*
X1968409*
X1972727Y1444063D02*
X1970455Y1439688D01*
X1970455D02*
X1973864D01*
X1972727Y1444063D02*
Y1437500D01*
X1975909Y1440313D02*
X1980000D01*
X1982273Y1442500D02*
Y1442813D01*
X1982273D02*
X1982500Y1443438D01*
X1982500D02*
X1982727Y1443750D01*
X1983182Y1444063*
X1983182D02*
X1984091D01*
X1984091D02*
X1984545Y1443750D01*
X1984773Y1443438*
X1984773D02*
X1985000Y1442813D01*
X1985000D02*
Y1442188D01*
X1985000D02*
X1984773Y1441563D01*
X1984773D02*
X1984318Y1440625D01*
X1982045Y1437500*
X1985227*
X1988636Y1444063D02*
X1987955Y1443750D01*
X1987500Y1442813*
X1987500D02*
X1987273Y1441250D01*
Y1440313*
X1987273D02*
X1987500Y1438750D01*
X1987955Y1437813*
X1987955D02*
X1988636Y1437500D01*
X1989091*
X1989773Y1437813*
X1989773D02*
X1990227Y1438750D01*
X1990455Y1440313*
X1990455D02*
Y1441250D01*
X1990227Y1442813*
X1990227D02*
X1989773Y1443750D01*
X1989091Y1444063*
X1989091D02*
X1988636D01*
X1865000D02*
Y1437500D01*
Y1444063D02*
X1866591D01*
X1866591D02*
X1867273Y1443750D01*
X1867727Y1443125*
X1867955Y1442500*
X1868182Y1441563*
X1868182D02*
Y1440000D01*
X1867955Y1439063*
X1867955D02*
X1867727Y1438438D01*
X1867727D02*
X1867273Y1437813D01*
X1867273D02*
X1866591Y1437500D01*
X1865000*
X1873636Y1442500D02*
X1873409Y1443125D01*
X1872955Y1443750*
X1872500Y1444063*
X1872500D02*
X1871591D01*
X1871591D02*
X1871136Y1443750D01*
X1870682Y1443125*
X1870455Y1442500*
X1870227Y1441563*
X1870227D02*
Y1440000D01*
X1870455Y1439063*
X1870455D02*
X1870682Y1438438D01*
X1870682D02*
X1871136Y1437813D01*
X1871136D02*
X1871591Y1437500D01*
X1872500*
X1872955Y1437813*
X1872955D02*
X1873409Y1438438D01*
X1873409D02*
X1873636Y1439063D01*
X1876136Y1444063D02*
X1878636D01*
X1878636D02*
X1877273Y1441563D01*
X1877273D02*
X1877955D01*
X1877955D02*
X1878409Y1441250D01*
X1878636Y1440938*
X1878636D02*
X1878864Y1440000D01*
Y1439375*
X1878636Y1438438*
X1878636D02*
X1878182Y1437813D01*
X1878182D02*
X1877500Y1437500D01*
X1876818*
X1876136Y1437813*
X1876136D02*
X1875909Y1438125D01*
X1875682Y1438750*
X1880909Y1442813D02*
X1881364Y1443125D01*
X1882045Y1444063*
X1882045D02*
Y1437500D01*
X1886364Y1444063D02*
X1884091Y1439688D01*
X1884091D02*
X1887500D01*
X1886364Y1444063D02*
Y1437500D01*
X1892500Y1444063D02*
X1890227D01*
X1890227D02*
X1890000Y1441250D01*
X1890227Y1441563*
X1890227D02*
X1890909Y1441875D01*
X1891591*
X1892273Y1441563*
X1892273D02*
X1892727Y1440938D01*
X1892727D02*
X1892955Y1440000D01*
X1892727Y1439375*
X1892500Y1438438*
X1892500D02*
X1892045Y1437813D01*
X1892045D02*
X1891364Y1437500D01*
X1890682*
X1890000Y1437813*
X1890000D02*
X1889773Y1438125D01*
X1889545Y1438750*
X1896818Y1444063D02*
X1895000Y1437500D01*
X1896818Y1444063D02*
X1898636Y1437500D01*
X1895682Y1439688D02*
X1897955D01*
X1900682Y1440313D02*
X1904773D01*
X1907045Y1442500D02*
Y1442813D01*
X1907045D02*
X1907273Y1443438D01*
X1907273D02*
X1907500Y1443750D01*
X1907955Y1444063*
X1907955D02*
X1908864D01*
X1908864D02*
X1909318Y1443750D01*
X1909545Y1443438*
X1909545D02*
X1909773Y1442813D01*
X1909773D02*
Y1442188D01*
X1909773D02*
X1909545Y1441563D01*
X1909545D02*
X1909091Y1440625D01*
X1906818Y1437500*
X1910000*
X2031591Y1454063D02*
Y1447500D01*
X2030000Y1454063D02*
X2033182D01*
X2036591D02*
X2036136Y1453750D01*
X2035682Y1453125*
X2035455Y1452500*
X2035227Y1451563*
X2035227D02*
Y1450000D01*
X2035455Y1449063*
X2035455D02*
X2035682Y1448438D01*
X2035682D02*
X2036136Y1447813D01*
X2036136D02*
X2036591Y1447500D01*
X2037500*
X2037955Y1447813*
X2037955D02*
X2038409Y1448438D01*
X2038409D02*
X2038636Y1449063D01*
X2038636D02*
X2038864Y1450000D01*
Y1451563*
X2038864D02*
X2038636Y1452500D01*
X2038409Y1453125*
X2037955Y1453750*
X2037500Y1454063*
X2037500D02*
X2036591D01*
X2040909D02*
Y1447500D01*
Y1454063D02*
X2042955D01*
X2042955D02*
X2043636Y1453750D01*
X2043864Y1453438*
X2043864D02*
X2044091Y1452813D01*
X2044091D02*
Y1451875D01*
X2043864Y1451250*
X2043636Y1450938*
X2043636D02*
X2042955Y1450625D01*
X2040909*
X2054545Y1453125D02*
X2054091Y1453750D01*
X2053409Y1454063*
X2053409D02*
X2052500D01*
X2052500D02*
X2051818Y1453750D01*
X2051364Y1453125*
Y1452500*
X2051591Y1451875*
X2051818Y1451563*
X2051818D02*
X2052273Y1451250D01*
X2053636Y1450625*
X2054091Y1450313*
X2054091D02*
X2054318Y1450000D01*
X2054545Y1449375*
Y1448438*
X2054545D02*
X2054091Y1447813D01*
X2054091D02*
X2053409Y1447500D01*
X2052500*
X2051818Y1447813*
X2051818D02*
X2051364Y1448438D01*
X2057955Y1454063D02*
X2057500Y1453750D01*
X2057045Y1453125*
X2056818Y1452500*
X2056591Y1451563*
X2056591D02*
Y1450000D01*
X2056818Y1449063*
X2056818D02*
X2057045Y1448438D01*
X2057045D02*
X2057500Y1447813D01*
X2057500D02*
X2057955Y1447500D01*
X2058864*
X2059318Y1447813*
X2059318D02*
X2059773Y1448438D01*
X2059773D02*
X2060000Y1449063D01*
X2060000D02*
X2060227Y1450000D01*
Y1451563*
X2060227D02*
X2060000Y1452500D01*
X2059773Y1453125*
X2059318Y1453750*
X2058864Y1454063*
X2058864D02*
X2057955D01*
X2062273D02*
Y1447500D01*
X2065000*
X2067045Y1454063D02*
Y1447500D01*
Y1454063D02*
X2068636D01*
X2068636D02*
X2069318Y1453750D01*
X2069773Y1453125*
X2070000Y1452500*
X2070227Y1451563*
X2070227D02*
Y1450000D01*
X2070000Y1449063*
X2070000D02*
X2069773Y1448438D01*
X2069773D02*
X2069318Y1447813D01*
X2069318D02*
X2068636Y1447500D01*
X2067045*
X2072273Y1454063D02*
Y1447500D01*
Y1454063D02*
X2075227D01*
X2072273Y1450938D02*
X2074091D01*
X2072273Y1447500D02*
X2075227D01*
X2077273Y1454063D02*
Y1447500D01*
Y1454063D02*
X2079318D01*
X2079318D02*
X2080000Y1453750D01*
X2080227Y1453438*
X2080227D02*
X2080455Y1452813D01*
X2080455D02*
Y1452188D01*
X2080455D02*
X2080227Y1451563D01*
X2080227D02*
X2080000Y1451250D01*
X2079318Y1450938*
X2079318D02*
X2077273D01*
X2078864D02*
X2080455Y1447500D01*
X2087727Y1454063D02*
Y1447500D01*
Y1454063D02*
X2089545Y1447500D01*
X2091364Y1454063D02*
X2089545Y1447500D01*
X2091364Y1454063D02*
Y1447500D01*
X2095227Y1454063D02*
X2093409Y1447500D01*
X2095227Y1454063D02*
X2097045Y1447500D01*
X2094091Y1449688D02*
X2096364D01*
X2102273Y1453125D02*
X2101818Y1453750D01*
X2101136Y1454063*
X2101136D02*
X2100227D01*
X2100227D02*
X2099545Y1453750D01*
X2099091Y1453125*
Y1452500*
X2099318Y1451875*
X2099545Y1451563*
X2099545D02*
X2100000Y1451250D01*
X2101364Y1450625*
X2101818Y1450313*
X2101818D02*
X2102045Y1450000D01*
X2102273Y1449375*
Y1448438*
X2102273D02*
X2101818Y1447813D01*
X2101818D02*
X2101136Y1447500D01*
X2100227*
X2099545Y1447813*
X2099545D02*
X2099091Y1448438D01*
X2104318Y1454063D02*
Y1447500D01*
X2107500Y1454063D02*
X2104318Y1449688D01*
X2105455Y1451250D02*
X2107500Y1447500D01*
X1850000Y1462500D02*
X2150000D01*
Y1762500*
X1850000*
Y1462500*
G54D17*
X1985000Y1609953D03*
Y1604047D03*
G54D20*
X1940000Y1745000D03*
X1985000D03*
X2025000Y1736500D03*
G54D21*
X1940000Y1737100D03*
Y1729200D03*
X1985000Y1737100D03*
Y1729200D03*
X2025000Y1746500D03*
X2035000Y1736500D03*
Y1746500D03*
X2045000Y1736500D03*
Y1746500D03*
X2055000Y1736500D03*
Y1746500D03*
X2065000Y1736500D03*
Y1746500D03*
X2075000Y1736500D03*
Y1746500D03*
X2085000Y1736500D03*
Y1746500D03*
G54D35*
G54D71*
X1870000Y1719000D03*
X2130000Y1506500D03*
G54D75*
X1998953Y1486500D03*
X1993047D03*
G54D133*
X2130000Y1742500D03*
X1870000D03*
X2130000Y1482500D03*
X1870000D03*
G54D134*
X1962500Y1486500D03*
X1877500Y1636500D03*
X2027500Y1486500D03*
X1877500Y1556500D03*
G54D173*
X1992000Y1611000D03*
Y1623000D03*
X1991000Y1582000D03*
Y1570000D03*
X1897500Y1602500D03*
Y1590500D03*
X2002000Y1582000D03*
Y1570000D03*
G54D181*
X1877500Y1521500D03*
Y1671500D03*
X1927500Y1486500D03*
X2062500D03*
X2097500D03*
X2122500Y1679000D03*
G54D184*
X2001437Y1602110D03*
X1999469D03*
X1997500D03*
X1995531D03*
X1993563D03*
Y1590890D03*
X1995531D03*
X1997500D03*
X1999469D03*
X2001437D03*
G54D185*
X1991890Y1599453D03*
Y1597484D03*
Y1595516D03*
Y1593547D03*
X2003110D03*
Y1595516D03*
Y1597484D03*
Y1599453D03*
G54D186*
X2000059Y1598370D03*
Y1594630D03*
G54D187*
X1996319Y1598272D03*
Y1594728D03*
G54D188*
X1994500Y1587000D03*
X1990500D03*
X1994500Y1606000D03*
X1990500D03*
G54D189*
X1877500Y1607524D03*
Y1585476D03*
G54D190*
X1967500Y1601950D03*
Y1586050D03*
G54D193*
X1937500Y1671500D03*
X1960000D03*
X1985000D03*
X2007500D03*
X2030000D03*
X2052500D03*
X2075000D03*
X2122500Y1651500D03*
Y1631500D03*
Y1611500D03*
Y1591500D03*
Y1571500D03*
Y1551500D03*
X1960000Y1694000D03*
X1985000D03*
X0Y0D02*
M02*
